G04 #@! TF.GenerationSoftware,KiCad,Pcbnew,(5.0.1)-rc2*
G04 #@! TF.CreationDate,2018-12-08T16:36:11-05:00*
G04 #@! TF.ProjectId,megadesk,6D6567616465736B2E6B696361645F70,rev?*
G04 #@! TF.SameCoordinates,Original*
G04 #@! TF.FileFunction,Soldermask,Bot*
G04 #@! TF.FilePolarity,Negative*
%FSLAX46Y46*%
G04 Gerber Fmt 4.6, Leading zero omitted, Abs format (unit mm)*
G04 Created by KiCad (PCBNEW (5.0.1)-rc2) date 2018-12-08 4:36:11 PM*
%MOMM*%
%LPD*%
G01*
G04 APERTURE LIST*
%ADD10C,0.100000*%
G04 APERTURE END LIST*
D10*
G36*
X136600000Y-135500000D02*
X134800000Y-135500000D01*
X134800000Y-133700000D01*
X136600000Y-133700000D01*
X136600000Y-135500000D01*
X136600000Y-135500000D01*
G37*
G36*
X103600000Y-135500000D02*
X101800000Y-135500000D01*
X101800000Y-133700000D01*
X103600000Y-133700000D01*
X103600000Y-135500000D01*
X103600000Y-135500000D01*
G37*
G36*
X127650000Y-134600000D02*
X126550000Y-134600000D01*
X126550000Y-133500000D01*
X127650000Y-133500000D01*
X127650000Y-134600000D01*
X127650000Y-134600000D01*
G37*
G36*
X130850000Y-134550000D02*
X129750000Y-134550000D01*
X129750000Y-133450000D01*
X130850000Y-133450000D01*
X130850000Y-134550000D01*
X130850000Y-134550000D01*
G37*
G36*
X120617926Y-131679340D02*
X120654390Y-131690402D01*
X120687998Y-131708366D01*
X120717458Y-131732542D01*
X120741634Y-131762002D01*
X120759598Y-131795610D01*
X120770660Y-131832074D01*
X120775000Y-131876141D01*
X120775000Y-133323859D01*
X120770660Y-133367926D01*
X120759598Y-133404390D01*
X120741634Y-133437998D01*
X120717458Y-133467458D01*
X120687998Y-133491634D01*
X120654390Y-133509598D01*
X120617926Y-133520660D01*
X120573859Y-133525000D01*
X119626141Y-133525000D01*
X119582074Y-133520660D01*
X119545610Y-133509598D01*
X119512002Y-133491634D01*
X119482542Y-133467458D01*
X119458366Y-133437998D01*
X119440402Y-133404390D01*
X119429340Y-133367926D01*
X119425000Y-133323859D01*
X119425000Y-131876141D01*
X119429340Y-131832074D01*
X119440402Y-131795610D01*
X119458366Y-131762002D01*
X119482542Y-131732542D01*
X119512002Y-131708366D01*
X119545610Y-131690402D01*
X119582074Y-131679340D01*
X119626141Y-131675000D01*
X120573859Y-131675000D01*
X120617926Y-131679340D01*
X120617926Y-131679340D01*
G37*
G36*
X117817926Y-131679340D02*
X117854390Y-131690402D01*
X117887998Y-131708366D01*
X117917458Y-131732542D01*
X117941634Y-131762002D01*
X117959598Y-131795610D01*
X117970660Y-131832074D01*
X117975000Y-131876141D01*
X117975000Y-133323859D01*
X117970660Y-133367926D01*
X117959598Y-133404390D01*
X117941634Y-133437998D01*
X117917458Y-133467458D01*
X117887998Y-133491634D01*
X117854390Y-133509598D01*
X117817926Y-133520660D01*
X117773859Y-133525000D01*
X116826141Y-133525000D01*
X116782074Y-133520660D01*
X116745610Y-133509598D01*
X116712002Y-133491634D01*
X116682542Y-133467458D01*
X116658366Y-133437998D01*
X116640402Y-133404390D01*
X116629340Y-133367926D01*
X116625000Y-133323859D01*
X116625000Y-131876141D01*
X116629340Y-131832074D01*
X116640402Y-131795610D01*
X116658366Y-131762002D01*
X116682542Y-131732542D01*
X116712002Y-131708366D01*
X116745610Y-131690402D01*
X116782074Y-131679340D01*
X116826141Y-131675000D01*
X117773859Y-131675000D01*
X117817926Y-131679340D01*
X117817926Y-131679340D01*
G37*
G36*
X127650000Y-132100000D02*
X126550000Y-132100000D01*
X126550000Y-131000000D01*
X127650000Y-131000000D01*
X127650000Y-132100000D01*
X127650000Y-132100000D01*
G37*
G36*
X130850000Y-132050000D02*
X129750000Y-132050000D01*
X129750000Y-130950000D01*
X130850000Y-130950000D01*
X130850000Y-132050000D01*
X130850000Y-132050000D01*
G37*
G36*
X112617926Y-129679340D02*
X112654390Y-129690402D01*
X112687998Y-129708366D01*
X112717458Y-129732542D01*
X112741634Y-129762002D01*
X112759598Y-129795610D01*
X112770660Y-129832074D01*
X112775000Y-129876141D01*
X112775000Y-131323859D01*
X112770660Y-131367926D01*
X112759598Y-131404390D01*
X112741634Y-131437998D01*
X112717458Y-131467458D01*
X112687998Y-131491634D01*
X112654390Y-131509598D01*
X112617926Y-131520660D01*
X112573859Y-131525000D01*
X111626141Y-131525000D01*
X111582074Y-131520660D01*
X111545610Y-131509598D01*
X111512002Y-131491634D01*
X111482542Y-131467458D01*
X111458366Y-131437998D01*
X111440402Y-131404390D01*
X111429340Y-131367926D01*
X111425000Y-131323859D01*
X111425000Y-129876141D01*
X111429340Y-129832074D01*
X111440402Y-129795610D01*
X111458366Y-129762002D01*
X111482542Y-129732542D01*
X111512002Y-129708366D01*
X111545610Y-129690402D01*
X111582074Y-129679340D01*
X111626141Y-129675000D01*
X112573859Y-129675000D01*
X112617926Y-129679340D01*
X112617926Y-129679340D01*
G37*
G36*
X109817926Y-129679340D02*
X109854390Y-129690402D01*
X109887998Y-129708366D01*
X109917458Y-129732542D01*
X109941634Y-129762002D01*
X109959598Y-129795610D01*
X109970660Y-129832074D01*
X109975000Y-129876141D01*
X109975000Y-131323859D01*
X109970660Y-131367926D01*
X109959598Y-131404390D01*
X109941634Y-131437998D01*
X109917458Y-131467458D01*
X109887998Y-131491634D01*
X109854390Y-131509598D01*
X109817926Y-131520660D01*
X109773859Y-131525000D01*
X108826141Y-131525000D01*
X108782074Y-131520660D01*
X108745610Y-131509598D01*
X108712002Y-131491634D01*
X108682542Y-131467458D01*
X108658366Y-131437998D01*
X108640402Y-131404390D01*
X108629340Y-131367926D01*
X108625000Y-131323859D01*
X108625000Y-129876141D01*
X108629340Y-129832074D01*
X108640402Y-129795610D01*
X108658366Y-129762002D01*
X108682542Y-129732542D01*
X108712002Y-129708366D01*
X108745610Y-129690402D01*
X108782074Y-129679340D01*
X108826141Y-129675000D01*
X109773859Y-129675000D01*
X109817926Y-129679340D01*
X109817926Y-129679340D01*
G37*
G36*
X106117926Y-127179340D02*
X106154390Y-127190402D01*
X106187998Y-127208366D01*
X106217458Y-127232542D01*
X106241634Y-127262002D01*
X106259598Y-127295610D01*
X106270660Y-127332074D01*
X106275000Y-127376141D01*
X106275000Y-128823859D01*
X106270660Y-128867926D01*
X106259598Y-128904390D01*
X106241634Y-128937998D01*
X106217458Y-128967458D01*
X106187998Y-128991634D01*
X106154390Y-129009598D01*
X106117926Y-129020660D01*
X106073859Y-129025000D01*
X105126141Y-129025000D01*
X105082074Y-129020660D01*
X105045610Y-129009598D01*
X105012002Y-128991634D01*
X104982542Y-128967458D01*
X104958366Y-128937998D01*
X104940402Y-128904390D01*
X104929340Y-128867926D01*
X104925000Y-128823859D01*
X104925000Y-127376141D01*
X104929340Y-127332074D01*
X104940402Y-127295610D01*
X104958366Y-127262002D01*
X104982542Y-127232542D01*
X105012002Y-127208366D01*
X105045610Y-127190402D01*
X105082074Y-127179340D01*
X105126141Y-127175000D01*
X106073859Y-127175000D01*
X106117926Y-127179340D01*
X106117926Y-127179340D01*
G37*
G36*
X103317926Y-127179340D02*
X103354390Y-127190402D01*
X103387998Y-127208366D01*
X103417458Y-127232542D01*
X103441634Y-127262002D01*
X103459598Y-127295610D01*
X103470660Y-127332074D01*
X103475000Y-127376141D01*
X103475000Y-128823859D01*
X103470660Y-128867926D01*
X103459598Y-128904390D01*
X103441634Y-128937998D01*
X103417458Y-128967458D01*
X103387998Y-128991634D01*
X103354390Y-129009598D01*
X103317926Y-129020660D01*
X103273859Y-129025000D01*
X102326141Y-129025000D01*
X102282074Y-129020660D01*
X102245610Y-129009598D01*
X102212002Y-128991634D01*
X102182542Y-128967458D01*
X102158366Y-128937998D01*
X102140402Y-128904390D01*
X102129340Y-128867926D01*
X102125000Y-128823859D01*
X102125000Y-127376141D01*
X102129340Y-127332074D01*
X102140402Y-127295610D01*
X102158366Y-127262002D01*
X102182542Y-127232542D01*
X102212002Y-127208366D01*
X102245610Y-127190402D01*
X102282074Y-127179340D01*
X102326141Y-127175000D01*
X103273859Y-127175000D01*
X103317926Y-127179340D01*
X103317926Y-127179340D01*
G37*
G36*
X116696432Y-126413022D02*
X116866081Y-126464485D01*
X117022433Y-126548056D01*
X117159475Y-126660525D01*
X117271944Y-126797567D01*
X117355515Y-126953919D01*
X117406978Y-127123568D01*
X117424354Y-127300000D01*
X117406978Y-127476432D01*
X117355515Y-127646081D01*
X117271944Y-127802433D01*
X117159475Y-127939475D01*
X117022433Y-128051944D01*
X116866081Y-128135515D01*
X116696432Y-128186978D01*
X116564211Y-128200000D01*
X116475789Y-128200000D01*
X116343568Y-128186978D01*
X116173919Y-128135515D01*
X116017567Y-128051944D01*
X115880525Y-127939475D01*
X115768056Y-127802433D01*
X115684485Y-127646081D01*
X115633022Y-127476432D01*
X115615646Y-127300000D01*
X115633022Y-127123568D01*
X115684485Y-126953919D01*
X115768056Y-126797567D01*
X115880525Y-126660525D01*
X116017567Y-126548056D01*
X116173919Y-126464485D01*
X116343568Y-126413022D01*
X116475789Y-126400000D01*
X116564211Y-126400000D01*
X116696432Y-126413022D01*
X116696432Y-126413022D01*
G37*
G36*
X122500000Y-128200000D02*
X120700000Y-128200000D01*
X120700000Y-126400000D01*
X122500000Y-126400000D01*
X122500000Y-128200000D01*
X122500000Y-128200000D01*
G37*
G36*
X119236432Y-126413022D02*
X119406081Y-126464485D01*
X119562433Y-126548056D01*
X119699475Y-126660525D01*
X119811944Y-126797567D01*
X119895515Y-126953919D01*
X119946978Y-127123568D01*
X119964354Y-127300000D01*
X119946978Y-127476432D01*
X119895515Y-127646081D01*
X119811944Y-127802433D01*
X119699475Y-127939475D01*
X119562433Y-128051944D01*
X119406081Y-128135515D01*
X119236432Y-128186978D01*
X119104211Y-128200000D01*
X119015789Y-128200000D01*
X118883568Y-128186978D01*
X118713919Y-128135515D01*
X118557567Y-128051944D01*
X118420525Y-127939475D01*
X118308056Y-127802433D01*
X118224485Y-127646081D01*
X118173022Y-127476432D01*
X118155646Y-127300000D01*
X118173022Y-127123568D01*
X118224485Y-126953919D01*
X118308056Y-126797567D01*
X118420525Y-126660525D01*
X118557567Y-126548056D01*
X118713919Y-126464485D01*
X118883568Y-126413022D01*
X119015789Y-126400000D01*
X119104211Y-126400000D01*
X119236432Y-126413022D01*
X119236432Y-126413022D01*
G37*
G36*
X106117926Y-123679340D02*
X106154390Y-123690402D01*
X106187998Y-123708366D01*
X106217458Y-123732542D01*
X106241634Y-123762002D01*
X106259598Y-123795610D01*
X106270660Y-123832074D01*
X106275000Y-123876141D01*
X106275000Y-125323859D01*
X106270660Y-125367926D01*
X106259598Y-125404390D01*
X106241634Y-125437998D01*
X106217458Y-125467458D01*
X106187998Y-125491634D01*
X106154390Y-125509598D01*
X106117926Y-125520660D01*
X106073859Y-125525000D01*
X105126141Y-125525000D01*
X105082074Y-125520660D01*
X105045610Y-125509598D01*
X105012002Y-125491634D01*
X104982542Y-125467458D01*
X104958366Y-125437998D01*
X104940402Y-125404390D01*
X104929340Y-125367926D01*
X104925000Y-125323859D01*
X104925000Y-123876141D01*
X104929340Y-123832074D01*
X104940402Y-123795610D01*
X104958366Y-123762002D01*
X104982542Y-123732542D01*
X105012002Y-123708366D01*
X105045610Y-123690402D01*
X105082074Y-123679340D01*
X105126141Y-123675000D01*
X106073859Y-123675000D01*
X106117926Y-123679340D01*
X106117926Y-123679340D01*
G37*
G36*
X103317926Y-123679340D02*
X103354390Y-123690402D01*
X103387998Y-123708366D01*
X103417458Y-123732542D01*
X103441634Y-123762002D01*
X103459598Y-123795610D01*
X103470660Y-123832074D01*
X103475000Y-123876141D01*
X103475000Y-125323859D01*
X103470660Y-125367926D01*
X103459598Y-125404390D01*
X103441634Y-125437998D01*
X103417458Y-125467458D01*
X103387998Y-125491634D01*
X103354390Y-125509598D01*
X103317926Y-125520660D01*
X103273859Y-125525000D01*
X102326141Y-125525000D01*
X102282074Y-125520660D01*
X102245610Y-125509598D01*
X102212002Y-125491634D01*
X102182542Y-125467458D01*
X102158366Y-125437998D01*
X102140402Y-125404390D01*
X102129340Y-125367926D01*
X102125000Y-125323859D01*
X102125000Y-123876141D01*
X102129340Y-123832074D01*
X102140402Y-123795610D01*
X102158366Y-123762002D01*
X102182542Y-123732542D01*
X102212002Y-123708366D01*
X102245610Y-123690402D01*
X102282074Y-123679340D01*
X102326141Y-123675000D01*
X103273859Y-123675000D01*
X103317926Y-123679340D01*
X103317926Y-123679340D01*
G37*
G36*
X124967926Y-122679340D02*
X125004390Y-122690402D01*
X125037998Y-122708366D01*
X125067458Y-122732542D01*
X125091634Y-122762002D01*
X125109598Y-122795610D01*
X125120660Y-122832074D01*
X125125000Y-122876141D01*
X125125000Y-124323859D01*
X125120660Y-124367926D01*
X125109598Y-124404390D01*
X125091634Y-124437998D01*
X125067458Y-124467458D01*
X125037998Y-124491634D01*
X125004390Y-124509598D01*
X124967926Y-124520660D01*
X124923859Y-124525000D01*
X123976141Y-124525000D01*
X123932074Y-124520660D01*
X123895610Y-124509598D01*
X123862002Y-124491634D01*
X123832542Y-124467458D01*
X123808366Y-124437998D01*
X123790402Y-124404390D01*
X123779340Y-124367926D01*
X123775000Y-124323859D01*
X123775000Y-122876141D01*
X123779340Y-122832074D01*
X123790402Y-122795610D01*
X123808366Y-122762002D01*
X123832542Y-122732542D01*
X123862002Y-122708366D01*
X123895610Y-122690402D01*
X123932074Y-122679340D01*
X123976141Y-122675000D01*
X124923859Y-122675000D01*
X124967926Y-122679340D01*
X124967926Y-122679340D01*
G37*
G36*
X122167926Y-122679340D02*
X122204390Y-122690402D01*
X122237998Y-122708366D01*
X122267458Y-122732542D01*
X122291634Y-122762002D01*
X122309598Y-122795610D01*
X122320660Y-122832074D01*
X122325000Y-122876141D01*
X122325000Y-124323859D01*
X122320660Y-124367926D01*
X122309598Y-124404390D01*
X122291634Y-124437998D01*
X122267458Y-124467458D01*
X122237998Y-124491634D01*
X122204390Y-124509598D01*
X122167926Y-124520660D01*
X122123859Y-124525000D01*
X121176141Y-124525000D01*
X121132074Y-124520660D01*
X121095610Y-124509598D01*
X121062002Y-124491634D01*
X121032542Y-124467458D01*
X121008366Y-124437998D01*
X120990402Y-124404390D01*
X120979340Y-124367926D01*
X120975000Y-124323859D01*
X120975000Y-122876141D01*
X120979340Y-122832074D01*
X120990402Y-122795610D01*
X121008366Y-122762002D01*
X121032542Y-122732542D01*
X121062002Y-122708366D01*
X121095610Y-122690402D01*
X121132074Y-122679340D01*
X121176141Y-122675000D01*
X122123859Y-122675000D01*
X122167926Y-122679340D01*
X122167926Y-122679340D01*
G37*
G36*
X134867926Y-122179340D02*
X134904390Y-122190402D01*
X134937998Y-122208366D01*
X134967458Y-122232542D01*
X134991634Y-122262002D01*
X135009598Y-122295610D01*
X135020660Y-122332074D01*
X135025000Y-122376141D01*
X135025000Y-123823859D01*
X135020660Y-123867926D01*
X135009598Y-123904390D01*
X134991634Y-123937998D01*
X134967458Y-123967458D01*
X134937998Y-123991634D01*
X134904390Y-124009598D01*
X134867926Y-124020660D01*
X134823859Y-124025000D01*
X133876141Y-124025000D01*
X133832074Y-124020660D01*
X133795610Y-124009598D01*
X133762002Y-123991634D01*
X133732542Y-123967458D01*
X133708366Y-123937998D01*
X133690402Y-123904390D01*
X133679340Y-123867926D01*
X133675000Y-123823859D01*
X133675000Y-122376141D01*
X133679340Y-122332074D01*
X133690402Y-122295610D01*
X133708366Y-122262002D01*
X133732542Y-122232542D01*
X133762002Y-122208366D01*
X133795610Y-122190402D01*
X133832074Y-122179340D01*
X133876141Y-122175000D01*
X134823859Y-122175000D01*
X134867926Y-122179340D01*
X134867926Y-122179340D01*
G37*
G36*
X132067926Y-122179340D02*
X132104390Y-122190402D01*
X132137998Y-122208366D01*
X132167458Y-122232542D01*
X132191634Y-122262002D01*
X132209598Y-122295610D01*
X132220660Y-122332074D01*
X132225000Y-122376141D01*
X132225000Y-123823859D01*
X132220660Y-123867926D01*
X132209598Y-123904390D01*
X132191634Y-123937998D01*
X132167458Y-123967458D01*
X132137998Y-123991634D01*
X132104390Y-124009598D01*
X132067926Y-124020660D01*
X132023859Y-124025000D01*
X131076141Y-124025000D01*
X131032074Y-124020660D01*
X130995610Y-124009598D01*
X130962002Y-123991634D01*
X130932542Y-123967458D01*
X130908366Y-123937998D01*
X130890402Y-123904390D01*
X130879340Y-123867926D01*
X130875000Y-123823859D01*
X130875000Y-122376141D01*
X130879340Y-122332074D01*
X130890402Y-122295610D01*
X130908366Y-122262002D01*
X130932542Y-122232542D01*
X130962002Y-122208366D01*
X130995610Y-122190402D01*
X131032074Y-122179340D01*
X131076141Y-122175000D01*
X132023859Y-122175000D01*
X132067926Y-122179340D01*
X132067926Y-122179340D01*
G37*
G36*
X116600000Y-117950000D02*
X115000000Y-117950000D01*
X115000000Y-117250000D01*
X116600000Y-117250000D01*
X116600000Y-117950000D01*
X116600000Y-117950000D01*
G37*
G36*
X122000000Y-117950000D02*
X120400000Y-117950000D01*
X120400000Y-117250000D01*
X122000000Y-117250000D01*
X122000000Y-117950000D01*
X122000000Y-117950000D01*
G37*
G36*
X136600000Y-117650000D02*
X132300000Y-117650000D01*
X132300000Y-115550000D01*
X136600000Y-115550000D01*
X136600000Y-117650000D01*
X136600000Y-117650000D01*
G37*
G36*
X116600000Y-116680000D02*
X115000000Y-116680000D01*
X115000000Y-115980000D01*
X116600000Y-115980000D01*
X116600000Y-116680000D01*
X116600000Y-116680000D01*
G37*
G36*
X122000000Y-116680000D02*
X120400000Y-116680000D01*
X120400000Y-115980000D01*
X122000000Y-115980000D01*
X122000000Y-116680000D01*
X122000000Y-116680000D01*
G37*
G36*
X122000000Y-115410000D02*
X120400000Y-115410000D01*
X120400000Y-114710000D01*
X122000000Y-114710000D01*
X122000000Y-115410000D01*
X122000000Y-115410000D01*
G37*
G36*
X116600000Y-115410000D02*
X115000000Y-115410000D01*
X115000000Y-114710000D01*
X116600000Y-114710000D01*
X116600000Y-115410000D01*
X116600000Y-115410000D01*
G37*
G36*
X122000000Y-114140000D02*
X120400000Y-114140000D01*
X120400000Y-113440000D01*
X122000000Y-113440000D01*
X122000000Y-114140000D01*
X122000000Y-114140000D01*
G37*
G36*
X116600000Y-114140000D02*
X115000000Y-114140000D01*
X115000000Y-113440000D01*
X116600000Y-113440000D01*
X116600000Y-114140000D01*
X116600000Y-114140000D01*
G37*
G36*
X103460000Y-113040000D02*
X101660000Y-113040000D01*
X101660000Y-111240000D01*
X103460000Y-111240000D01*
X103460000Y-113040000D01*
X103460000Y-113040000D01*
G37*
G36*
X105276432Y-111253022D02*
X105446081Y-111304485D01*
X105602433Y-111388056D01*
X105739475Y-111500525D01*
X105851944Y-111637567D01*
X105935515Y-111793919D01*
X105986978Y-111963568D01*
X106004354Y-112140000D01*
X105986978Y-112316432D01*
X105935515Y-112486081D01*
X105851944Y-112642433D01*
X105739475Y-112779475D01*
X105602433Y-112891944D01*
X105446081Y-112975515D01*
X105276432Y-113026978D01*
X105144211Y-113040000D01*
X105055789Y-113040000D01*
X104923568Y-113026978D01*
X104753919Y-112975515D01*
X104597567Y-112891944D01*
X104460525Y-112779475D01*
X104348056Y-112642433D01*
X104264485Y-112486081D01*
X104213022Y-112316432D01*
X104195646Y-112140000D01*
X104213022Y-111963568D01*
X104264485Y-111793919D01*
X104348056Y-111637567D01*
X104460525Y-111500525D01*
X104597567Y-111388056D01*
X104753919Y-111304485D01*
X104923568Y-111253022D01*
X105055789Y-111240000D01*
X105144211Y-111240000D01*
X105276432Y-111253022D01*
X105276432Y-111253022D01*
G37*
G36*
X107816432Y-111253022D02*
X107986081Y-111304485D01*
X108142433Y-111388056D01*
X108279475Y-111500525D01*
X108391944Y-111637567D01*
X108475515Y-111793919D01*
X108526978Y-111963568D01*
X108544354Y-112140000D01*
X108526978Y-112316432D01*
X108475515Y-112486081D01*
X108391944Y-112642433D01*
X108279475Y-112779475D01*
X108142433Y-112891944D01*
X107986081Y-112975515D01*
X107816432Y-113026978D01*
X107684211Y-113040000D01*
X107595789Y-113040000D01*
X107463568Y-113026978D01*
X107293919Y-112975515D01*
X107137567Y-112891944D01*
X107000525Y-112779475D01*
X106888056Y-112642433D01*
X106804485Y-112486081D01*
X106753022Y-112316432D01*
X106735646Y-112140000D01*
X106753022Y-111963568D01*
X106804485Y-111793919D01*
X106888056Y-111637567D01*
X107000525Y-111500525D01*
X107137567Y-111388056D01*
X107293919Y-111304485D01*
X107463568Y-111253022D01*
X107595789Y-111240000D01*
X107684211Y-111240000D01*
X107816432Y-111253022D01*
X107816432Y-111253022D01*
G37*
G36*
X116600000Y-112870000D02*
X115000000Y-112870000D01*
X115000000Y-112170000D01*
X116600000Y-112170000D01*
X116600000Y-112870000D01*
X116600000Y-112870000D01*
G37*
G36*
X122000000Y-112870000D02*
X120400000Y-112870000D01*
X120400000Y-112170000D01*
X122000000Y-112170000D01*
X122000000Y-112870000D01*
X122000000Y-112870000D01*
G37*
G36*
X116600000Y-111600000D02*
X115000000Y-111600000D01*
X115000000Y-110900000D01*
X116600000Y-110900000D01*
X116600000Y-111600000D01*
X116600000Y-111600000D01*
G37*
G36*
X122000000Y-111600000D02*
X120400000Y-111600000D01*
X120400000Y-110900000D01*
X122000000Y-110900000D01*
X122000000Y-111600000D01*
X122000000Y-111600000D01*
G37*
G36*
X105276432Y-108713022D02*
X105446081Y-108764485D01*
X105602433Y-108848056D01*
X105739475Y-108960525D01*
X105851944Y-109097567D01*
X105935515Y-109253919D01*
X105986978Y-109423568D01*
X106004354Y-109600000D01*
X105986978Y-109776432D01*
X105935515Y-109946081D01*
X105851944Y-110102433D01*
X105739475Y-110239475D01*
X105602433Y-110351944D01*
X105446081Y-110435515D01*
X105276432Y-110486978D01*
X105144211Y-110500000D01*
X105055789Y-110500000D01*
X104923568Y-110486978D01*
X104753919Y-110435515D01*
X104597567Y-110351944D01*
X104460525Y-110239475D01*
X104348056Y-110102433D01*
X104264485Y-109946081D01*
X104213022Y-109776432D01*
X104195646Y-109600000D01*
X104213022Y-109423568D01*
X104264485Y-109253919D01*
X104348056Y-109097567D01*
X104460525Y-108960525D01*
X104597567Y-108848056D01*
X104753919Y-108764485D01*
X104923568Y-108713022D01*
X105055789Y-108700000D01*
X105144211Y-108700000D01*
X105276432Y-108713022D01*
X105276432Y-108713022D01*
G37*
G36*
X102736432Y-108713022D02*
X102906081Y-108764485D01*
X103062433Y-108848056D01*
X103199475Y-108960525D01*
X103311944Y-109097567D01*
X103395515Y-109253919D01*
X103446978Y-109423568D01*
X103464354Y-109600000D01*
X103446978Y-109776432D01*
X103395515Y-109946081D01*
X103311944Y-110102433D01*
X103199475Y-110239475D01*
X103062433Y-110351944D01*
X102906081Y-110435515D01*
X102736432Y-110486978D01*
X102604211Y-110500000D01*
X102515789Y-110500000D01*
X102383568Y-110486978D01*
X102213919Y-110435515D01*
X102057567Y-110351944D01*
X101920525Y-110239475D01*
X101808056Y-110102433D01*
X101724485Y-109946081D01*
X101673022Y-109776432D01*
X101655646Y-109600000D01*
X101673022Y-109423568D01*
X101724485Y-109253919D01*
X101808056Y-109097567D01*
X101920525Y-108960525D01*
X102057567Y-108848056D01*
X102213919Y-108764485D01*
X102383568Y-108713022D01*
X102515789Y-108700000D01*
X102604211Y-108700000D01*
X102736432Y-108713022D01*
X102736432Y-108713022D01*
G37*
G36*
X107816432Y-108713022D02*
X107986081Y-108764485D01*
X108142433Y-108848056D01*
X108279475Y-108960525D01*
X108391944Y-109097567D01*
X108475515Y-109253919D01*
X108526978Y-109423568D01*
X108544354Y-109600000D01*
X108526978Y-109776432D01*
X108475515Y-109946081D01*
X108391944Y-110102433D01*
X108279475Y-110239475D01*
X108142433Y-110351944D01*
X107986081Y-110435515D01*
X107816432Y-110486978D01*
X107684211Y-110500000D01*
X107595789Y-110500000D01*
X107463568Y-110486978D01*
X107293919Y-110435515D01*
X107137567Y-110351944D01*
X107000525Y-110239475D01*
X106888056Y-110102433D01*
X106804485Y-109946081D01*
X106753022Y-109776432D01*
X106735646Y-109600000D01*
X106753022Y-109423568D01*
X106804485Y-109253919D01*
X106888056Y-109097567D01*
X107000525Y-108960525D01*
X107137567Y-108848056D01*
X107293919Y-108764485D01*
X107463568Y-108713022D01*
X107595789Y-108700000D01*
X107684211Y-108700000D01*
X107816432Y-108713022D01*
X107816432Y-108713022D01*
G37*
G36*
X122000000Y-110330000D02*
X120400000Y-110330000D01*
X120400000Y-109630000D01*
X122000000Y-109630000D01*
X122000000Y-110330000D01*
X122000000Y-110330000D01*
G37*
G36*
X116600000Y-110330000D02*
X115000000Y-110330000D01*
X115000000Y-109630000D01*
X116600000Y-109630000D01*
X116600000Y-110330000D01*
X116600000Y-110330000D01*
G37*
G36*
X136600000Y-109650000D02*
X132300000Y-109650000D01*
X132300000Y-107550000D01*
X136600000Y-107550000D01*
X136600000Y-109650000D01*
X136600000Y-109650000D01*
G37*
M02*
