G04 #@! TF.GenerationSoftware,KiCad,Pcbnew,(5.0.1)-rc2*
G04 #@! TF.CreationDate,2018-12-08T16:36:10-05:00*
G04 #@! TF.ProjectId,megadesk,6D6567616465736B2E6B696361645F70,rev?*
G04 #@! TF.SameCoordinates,Original*
G04 #@! TF.FileFunction,Legend,Top*
G04 #@! TF.FilePolarity,Positive*
%FSLAX46Y46*%
G04 Gerber Fmt 4.6, Leading zero omitted, Abs format (unit mm)*
G04 Created by KiCad (PCBNEW (5.0.1)-rc2) date 2018-12-08 4:36:10 PM*
%MOMM*%
%LPD*%
G01*
G04 APERTURE LIST*
%ADD10C,0.100000*%
%ADD11C,0.250000*%
%ADD12C,0.200000*%
%ADD13C,0.150000*%
%ADD14C,0.120000*%
G04 APERTURE END LIST*
D10*
X108919047Y-107550000D02*
X108871428Y-107526190D01*
X108800000Y-107526190D01*
X108728571Y-107550000D01*
X108680952Y-107597619D01*
X108657142Y-107645238D01*
X108633333Y-107740476D01*
X108633333Y-107811904D01*
X108657142Y-107907142D01*
X108680952Y-107954761D01*
X108728571Y-108002380D01*
X108800000Y-108026190D01*
X108847619Y-108026190D01*
X108919047Y-108002380D01*
X108942857Y-107978571D01*
X108942857Y-107811904D01*
X108847619Y-107811904D01*
X109157142Y-108026190D02*
X109157142Y-107526190D01*
X109442857Y-108026190D01*
X109442857Y-107526190D01*
X109680952Y-108026190D02*
X109680952Y-107526190D01*
X109800000Y-107526190D01*
X109871428Y-107550000D01*
X109919047Y-107597619D01*
X109942857Y-107645238D01*
X109966666Y-107740476D01*
X109966666Y-107811904D01*
X109942857Y-107907142D01*
X109919047Y-107954761D01*
X109871428Y-108002380D01*
X109800000Y-108026190D01*
X109680952Y-108026190D01*
D11*
X100985714Y-114252380D02*
X100414285Y-114252380D01*
X100700000Y-114252380D02*
X100700000Y-113252380D01*
X100604761Y-113395238D01*
X100509523Y-113490476D01*
X100414285Y-113538095D01*
D12*
X103920000Y-116015342D02*
X103920000Y-114745342D01*
X106460000Y-116015342D02*
X103920000Y-116015342D01*
X106460000Y-114745342D02*
X106460000Y-116015342D01*
X100110000Y-107125342D02*
X110270000Y-107125342D01*
X100110000Y-114745342D02*
X100110000Y-107125342D01*
X110270000Y-114745342D02*
X100110000Y-114745342D01*
X110270000Y-107125342D02*
X110270000Y-114745342D01*
X100757142Y-108104761D02*
X100757142Y-107495238D01*
X101061904Y-107800000D02*
X100452380Y-107800000D01*
D13*
G04 #@! TO.C,J2*
X135900000Y-112625000D02*
X125900000Y-112625000D01*
X135900000Y-110475000D02*
X125900000Y-110475000D01*
X135900000Y-110475000D02*
X135900000Y-105250000D01*
X125900000Y-110475000D02*
X125900000Y-105250000D01*
X135900000Y-105250000D02*
X138250000Y-105250000D01*
X125900000Y-105250000D02*
X123550000Y-105250000D01*
X138250000Y-105250000D02*
X138250000Y-107500000D01*
X123550000Y-105250000D02*
X123550000Y-107500000D01*
X138250000Y-107500000D02*
X135900000Y-107500000D01*
X123550000Y-107500000D02*
X125900000Y-107500000D01*
X135900000Y-107500000D02*
X135900000Y-112625000D01*
X125900000Y-107500000D02*
X125900000Y-112625000D01*
D14*
G04 #@! TO.C,U2*
X130725000Y-124595000D02*
X130725000Y-126095000D01*
X130725000Y-126095000D02*
X130995000Y-126095000D01*
X130995000Y-126095000D02*
X130995000Y-128925000D01*
X137625000Y-124595000D02*
X137625000Y-126095000D01*
X137625000Y-126095000D02*
X137355000Y-126095000D01*
X137355000Y-126095000D02*
X137355000Y-127195000D01*
G04 #@! TO.C,U1*
X100225000Y-124595000D02*
X100225000Y-126095000D01*
X100225000Y-126095000D02*
X100495000Y-126095000D01*
X100495000Y-126095000D02*
X100495000Y-128925000D01*
X107125000Y-124595000D02*
X107125000Y-126095000D01*
X107125000Y-126095000D02*
X106855000Y-126095000D01*
X106855000Y-126095000D02*
X106855000Y-127195000D01*
G04 #@! TO.C,J1*
X122930000Y-128740000D02*
X115190000Y-128740000D01*
X115190000Y-128740000D02*
X115190000Y-131400000D01*
X115190000Y-131400000D02*
X122930000Y-131400000D01*
X122930000Y-131400000D02*
X122930000Y-128740000D01*
X121980000Y-131400000D02*
X121980000Y-137400000D01*
X121980000Y-137400000D02*
X121220000Y-137400000D01*
X121220000Y-137400000D02*
X121220000Y-131400000D01*
X121920000Y-131400000D02*
X121920000Y-137400000D01*
X121800000Y-131400000D02*
X121800000Y-137400000D01*
X121680000Y-131400000D02*
X121680000Y-137400000D01*
X121560000Y-131400000D02*
X121560000Y-137400000D01*
X121440000Y-131400000D02*
X121440000Y-137400000D01*
X121320000Y-131400000D02*
X121320000Y-137400000D01*
X121980000Y-128410000D02*
X121980000Y-128740000D01*
X121220000Y-128410000D02*
X121220000Y-128740000D01*
X120330000Y-128740000D02*
X120330000Y-131400000D01*
X119440000Y-131400000D02*
X119440000Y-137400000D01*
X119440000Y-137400000D02*
X118680000Y-137400000D01*
X118680000Y-137400000D02*
X118680000Y-131400000D01*
X119440000Y-128342929D02*
X119440000Y-128740000D01*
X118680000Y-128342929D02*
X118680000Y-128740000D01*
X117790000Y-128740000D02*
X117790000Y-131400000D01*
X116900000Y-131400000D02*
X116900000Y-137400000D01*
X116900000Y-137400000D02*
X116140000Y-137400000D01*
X116140000Y-137400000D02*
X116140000Y-131400000D01*
X116900000Y-128342929D02*
X116900000Y-128740000D01*
X116140000Y-128342929D02*
X116140000Y-128740000D01*
X121600000Y-126030000D02*
X122870000Y-126030000D01*
X122870000Y-126030000D02*
X122870000Y-127300000D01*
D13*
G04 #@! TO.C,U4*
X119575000Y-113975000D02*
X119575000Y-113925000D01*
X115425000Y-113975000D02*
X115425000Y-113830000D01*
X115425000Y-108825000D02*
X115425000Y-108970000D01*
X119575000Y-108825000D02*
X119575000Y-108970000D01*
X119575000Y-113975000D02*
X115425000Y-113975000D01*
X119575000Y-108825000D02*
X115425000Y-108825000D01*
X119575000Y-113925000D02*
X120975000Y-113925000D01*
D14*
G04 #@! TO.C,TP2*
X101370000Y-135930000D02*
X104030000Y-135930000D01*
X101370000Y-135870000D02*
X101370000Y-135930000D01*
X104030000Y-135870000D02*
X104030000Y-135930000D01*
X101370000Y-135870000D02*
X104030000Y-135870000D01*
X101370000Y-134600000D02*
X101370000Y-133270000D01*
X101370000Y-133270000D02*
X102700000Y-133270000D01*
G04 #@! TO.C,TP1*
X134370000Y-135930000D02*
X137030000Y-135930000D01*
X134370000Y-135870000D02*
X134370000Y-135930000D01*
X137030000Y-135870000D02*
X137030000Y-135930000D01*
X134370000Y-135870000D02*
X137030000Y-135870000D01*
X134370000Y-134600000D02*
X134370000Y-133270000D01*
X134370000Y-133270000D02*
X135700000Y-133270000D01*
G04 #@! TO.C,CON1*
X108970000Y-113470000D02*
X108970000Y-108270000D01*
X103830000Y-113470000D02*
X108970000Y-113470000D01*
X101230000Y-108270000D02*
X108970000Y-108270000D01*
X103830000Y-113470000D02*
X103830000Y-110870000D01*
X103830000Y-110870000D02*
X101230000Y-110870000D01*
X101230000Y-110870000D02*
X101230000Y-108270000D01*
X102560000Y-113470000D02*
X101230000Y-113470000D01*
X101230000Y-113470000D02*
X101230000Y-112140000D01*
G04 #@! TO.C,C2*
X111860000Y-120397936D02*
X111860000Y-121602064D01*
X110040000Y-120397936D02*
X110040000Y-121602064D01*
G04 #@! TO.C,C3*
X114040000Y-120347936D02*
X114040000Y-121552064D01*
X115860000Y-120347936D02*
X115860000Y-121552064D01*
G04 #@! TO.C,C4*
X103097936Y-132510000D02*
X104302064Y-132510000D01*
X103097936Y-130690000D02*
X104302064Y-130690000D01*
G04 #@! TO.C,C5*
X128610000Y-121602064D02*
X128610000Y-120397936D01*
X126790000Y-121602064D02*
X126790000Y-120397936D01*
G04 #@! TO.C,R5*
X114302064Y-105690000D02*
X113097936Y-105690000D01*
X114302064Y-107510000D02*
X113097936Y-107510000D01*
G04 #@! TO.C,J2*
D13*
X130500000Y-106892857D02*
X130500000Y-107750000D01*
X130442857Y-107921428D01*
X130328571Y-108035714D01*
X130157142Y-108092857D01*
X130042857Y-108092857D01*
X131014285Y-107007142D02*
X131071428Y-106950000D01*
X131185714Y-106892857D01*
X131471428Y-106892857D01*
X131585714Y-106950000D01*
X131642857Y-107007142D01*
X131700000Y-107121428D01*
X131700000Y-107235714D01*
X131642857Y-107407142D01*
X130957142Y-108092857D01*
X131700000Y-108092857D01*
X137185714Y-112002380D02*
X136614285Y-112002380D01*
X136900000Y-112002380D02*
X136900000Y-111002380D01*
X136804761Y-111145238D01*
X136709523Y-111240476D01*
X136614285Y-111288095D01*
G04 #@! TO.C,U2*
X133438095Y-116552380D02*
X133438095Y-117361904D01*
X133485714Y-117457142D01*
X133533333Y-117504761D01*
X133628571Y-117552380D01*
X133819047Y-117552380D01*
X133914285Y-117504761D01*
X133961904Y-117457142D01*
X134009523Y-117361904D01*
X134009523Y-116552380D01*
X134438095Y-116647619D02*
X134485714Y-116600000D01*
X134580952Y-116552380D01*
X134819047Y-116552380D01*
X134914285Y-116600000D01*
X134961904Y-116647619D01*
X135009523Y-116742857D01*
X135009523Y-116838095D01*
X134961904Y-116980952D01*
X134390476Y-117552380D01*
X135009523Y-117552380D01*
G04 #@! TO.C,U1*
X102938095Y-116552380D02*
X102938095Y-117361904D01*
X102985714Y-117457142D01*
X103033333Y-117504761D01*
X103128571Y-117552380D01*
X103319047Y-117552380D01*
X103414285Y-117504761D01*
X103461904Y-117457142D01*
X103509523Y-117361904D01*
X103509523Y-116552380D01*
X104509523Y-117552380D02*
X103938095Y-117552380D01*
X104223809Y-117552380D02*
X104223809Y-116552380D01*
X104128571Y-116695238D01*
X104033333Y-116790476D01*
X103938095Y-116838095D01*
G04 #@! TO.C,J1*
X123322380Y-132018333D02*
X124036666Y-132018333D01*
X124179523Y-132065952D01*
X124274761Y-132161190D01*
X124322380Y-132304047D01*
X124322380Y-132399285D01*
X124322380Y-131018333D02*
X124322380Y-131589761D01*
X124322380Y-131304047D02*
X123322380Y-131304047D01*
X123465238Y-131399285D01*
X123560476Y-131494523D01*
X123608095Y-131589761D01*
G04 #@! TO.C,U4*
X116738095Y-114352380D02*
X116738095Y-115161904D01*
X116785714Y-115257142D01*
X116833333Y-115304761D01*
X116928571Y-115352380D01*
X117119047Y-115352380D01*
X117214285Y-115304761D01*
X117261904Y-115257142D01*
X117309523Y-115161904D01*
X117309523Y-114352380D01*
X118214285Y-114685714D02*
X118214285Y-115352380D01*
X117976190Y-114304761D02*
X117738095Y-115019047D01*
X118357142Y-115019047D01*
G04 #@! TO.C,TP2*
X104863095Y-133052380D02*
X105434523Y-133052380D01*
X105148809Y-134052380D02*
X105148809Y-133052380D01*
X105767857Y-134052380D02*
X105767857Y-133052380D01*
X106148809Y-133052380D01*
X106244047Y-133100000D01*
X106291666Y-133147619D01*
X106339285Y-133242857D01*
X106339285Y-133385714D01*
X106291666Y-133480952D01*
X106244047Y-133528571D01*
X106148809Y-133576190D01*
X105767857Y-133576190D01*
X106720238Y-133147619D02*
X106767857Y-133100000D01*
X106863095Y-133052380D01*
X107101190Y-133052380D01*
X107196428Y-133100000D01*
X107244047Y-133147619D01*
X107291666Y-133242857D01*
X107291666Y-133338095D01*
X107244047Y-133480952D01*
X106672619Y-134052380D01*
X107291666Y-134052380D01*
X105414285Y-136052380D02*
X104842857Y-136052380D01*
X105128571Y-136052380D02*
X105128571Y-135052380D01*
X105033333Y-135195238D01*
X104938095Y-135290476D01*
X104842857Y-135338095D01*
X105795238Y-135147619D02*
X105842857Y-135100000D01*
X105938095Y-135052380D01*
X106176190Y-135052380D01*
X106271428Y-135100000D01*
X106319047Y-135147619D01*
X106366666Y-135242857D01*
X106366666Y-135338095D01*
X106319047Y-135480952D01*
X105747619Y-136052380D01*
X106366666Y-136052380D01*
X106652380Y-135052380D02*
X106985714Y-136052380D01*
X107319047Y-135052380D01*
X108128571Y-136052380D02*
X107652380Y-136052380D01*
X107652380Y-135052380D01*
X108461904Y-136052380D02*
X108461904Y-135052380D01*
X108938095Y-136052380D02*
X108938095Y-135052380D01*
X109509523Y-136052380D01*
X109509523Y-135052380D01*
G04 #@! TO.C,TP1*
X131188095Y-133052380D02*
X131759523Y-133052380D01*
X131473809Y-134052380D02*
X131473809Y-133052380D01*
X132092857Y-134052380D02*
X132092857Y-133052380D01*
X132473809Y-133052380D01*
X132569047Y-133100000D01*
X132616666Y-133147619D01*
X132664285Y-133242857D01*
X132664285Y-133385714D01*
X132616666Y-133480952D01*
X132569047Y-133528571D01*
X132473809Y-133576190D01*
X132092857Y-133576190D01*
X133616666Y-134052380D02*
X133045238Y-134052380D01*
X133330952Y-134052380D02*
X133330952Y-133052380D01*
X133235714Y-133195238D01*
X133140476Y-133290476D01*
X133045238Y-133338095D01*
X128342857Y-135052380D02*
X127866666Y-135052380D01*
X127819047Y-135528571D01*
X127866666Y-135480952D01*
X127961904Y-135433333D01*
X128200000Y-135433333D01*
X128295238Y-135480952D01*
X128342857Y-135528571D01*
X128390476Y-135623809D01*
X128390476Y-135861904D01*
X128342857Y-135957142D01*
X128295238Y-136004761D01*
X128200000Y-136052380D01*
X127961904Y-136052380D01*
X127866666Y-136004761D01*
X127819047Y-135957142D01*
X128676190Y-135052380D02*
X129009523Y-136052380D01*
X129342857Y-135052380D01*
X130152380Y-136052380D02*
X129676190Y-136052380D01*
X129676190Y-135052380D01*
X130676190Y-135052380D02*
X130866666Y-135052380D01*
X130961904Y-135100000D01*
X131057142Y-135195238D01*
X131104761Y-135385714D01*
X131104761Y-135719047D01*
X131057142Y-135909523D01*
X130961904Y-136004761D01*
X130866666Y-136052380D01*
X130676190Y-136052380D01*
X130580952Y-136004761D01*
X130485714Y-135909523D01*
X130438095Y-135719047D01*
X130438095Y-135385714D01*
X130485714Y-135195238D01*
X130580952Y-135100000D01*
X130676190Y-135052380D01*
X132057142Y-135100000D02*
X131961904Y-135052380D01*
X131819047Y-135052380D01*
X131676190Y-135100000D01*
X131580952Y-135195238D01*
X131533333Y-135290476D01*
X131485714Y-135480952D01*
X131485714Y-135623809D01*
X131533333Y-135814285D01*
X131580952Y-135909523D01*
X131676190Y-136004761D01*
X131819047Y-136052380D01*
X131914285Y-136052380D01*
X132057142Y-136004761D01*
X132104761Y-135957142D01*
X132104761Y-135623809D01*
X131914285Y-135623809D01*
X132533333Y-136052380D02*
X132533333Y-135052380D01*
X133580952Y-135957142D02*
X133533333Y-136004761D01*
X133390476Y-136052380D01*
X133295238Y-136052380D01*
X133152380Y-136004761D01*
X133057142Y-135909523D01*
X133009523Y-135814285D01*
X132961904Y-135623809D01*
X132961904Y-135480952D01*
X133009523Y-135290476D01*
X133057142Y-135195238D01*
X133152380Y-135100000D01*
X133295238Y-135052380D01*
X133390476Y-135052380D01*
X133533333Y-135100000D01*
X133580952Y-135147619D01*
G04 #@! TO.C,CON1*
X104223809Y-106552380D02*
X104223809Y-105552380D01*
X104652380Y-106504761D02*
X104795238Y-106552380D01*
X105033333Y-106552380D01*
X105128571Y-106504761D01*
X105176190Y-106457142D01*
X105223809Y-106361904D01*
X105223809Y-106266666D01*
X105176190Y-106171428D01*
X105128571Y-106123809D01*
X105033333Y-106076190D01*
X104842857Y-106028571D01*
X104747619Y-105980952D01*
X104700000Y-105933333D01*
X104652380Y-105838095D01*
X104652380Y-105742857D01*
X104700000Y-105647619D01*
X104747619Y-105600000D01*
X104842857Y-105552380D01*
X105080952Y-105552380D01*
X105223809Y-105600000D01*
X105652380Y-106552380D02*
X105652380Y-105552380D01*
X106033333Y-105552380D01*
X106128571Y-105600000D01*
X106176190Y-105647619D01*
X106223809Y-105742857D01*
X106223809Y-105885714D01*
X106176190Y-105980952D01*
X106128571Y-106028571D01*
X106033333Y-106076190D01*
X105652380Y-106076190D01*
G04 #@! TO.C,C2*
X113127142Y-121166666D02*
X113174761Y-121214285D01*
X113222380Y-121357142D01*
X113222380Y-121452380D01*
X113174761Y-121595238D01*
X113079523Y-121690476D01*
X112984285Y-121738095D01*
X112793809Y-121785714D01*
X112650952Y-121785714D01*
X112460476Y-121738095D01*
X112365238Y-121690476D01*
X112270000Y-121595238D01*
X112222380Y-121452380D01*
X112222380Y-121357142D01*
X112270000Y-121214285D01*
X112317619Y-121166666D01*
X112317619Y-120785714D02*
X112270000Y-120738095D01*
X112222380Y-120642857D01*
X112222380Y-120404761D01*
X112270000Y-120309523D01*
X112317619Y-120261904D01*
X112412857Y-120214285D01*
X112508095Y-120214285D01*
X112650952Y-120261904D01*
X113222380Y-120833333D01*
X113222380Y-120214285D01*
G04 #@! TO.C,C3*
X117127142Y-121116666D02*
X117174761Y-121164285D01*
X117222380Y-121307142D01*
X117222380Y-121402380D01*
X117174761Y-121545238D01*
X117079523Y-121640476D01*
X116984285Y-121688095D01*
X116793809Y-121735714D01*
X116650952Y-121735714D01*
X116460476Y-121688095D01*
X116365238Y-121640476D01*
X116270000Y-121545238D01*
X116222380Y-121402380D01*
X116222380Y-121307142D01*
X116270000Y-121164285D01*
X116317619Y-121116666D01*
X116222380Y-120783333D02*
X116222380Y-120164285D01*
X116603333Y-120497619D01*
X116603333Y-120354761D01*
X116650952Y-120259523D01*
X116698571Y-120211904D01*
X116793809Y-120164285D01*
X117031904Y-120164285D01*
X117127142Y-120211904D01*
X117174761Y-120259523D01*
X117222380Y-120354761D01*
X117222380Y-120640476D01*
X117174761Y-120735714D01*
X117127142Y-120783333D01*
G04 #@! TO.C,C4*
X103533333Y-130137142D02*
X103485714Y-130184761D01*
X103342857Y-130232380D01*
X103247619Y-130232380D01*
X103104761Y-130184761D01*
X103009523Y-130089523D01*
X102961904Y-129994285D01*
X102914285Y-129803809D01*
X102914285Y-129660952D01*
X102961904Y-129470476D01*
X103009523Y-129375238D01*
X103104761Y-129280000D01*
X103247619Y-129232380D01*
X103342857Y-129232380D01*
X103485714Y-129280000D01*
X103533333Y-129327619D01*
X104390476Y-129565714D02*
X104390476Y-130232380D01*
X104152380Y-129184761D02*
X103914285Y-129899047D01*
X104533333Y-129899047D01*
G04 #@! TO.C,C5*
X126237142Y-121166666D02*
X126284761Y-121214285D01*
X126332380Y-121357142D01*
X126332380Y-121452380D01*
X126284761Y-121595238D01*
X126189523Y-121690476D01*
X126094285Y-121738095D01*
X125903809Y-121785714D01*
X125760952Y-121785714D01*
X125570476Y-121738095D01*
X125475238Y-121690476D01*
X125380000Y-121595238D01*
X125332380Y-121452380D01*
X125332380Y-121357142D01*
X125380000Y-121214285D01*
X125427619Y-121166666D01*
X125332380Y-120261904D02*
X125332380Y-120738095D01*
X125808571Y-120785714D01*
X125760952Y-120738095D01*
X125713333Y-120642857D01*
X125713333Y-120404761D01*
X125760952Y-120309523D01*
X125808571Y-120261904D01*
X125903809Y-120214285D01*
X126141904Y-120214285D01*
X126237142Y-120261904D01*
X126284761Y-120309523D01*
X126332380Y-120404761D01*
X126332380Y-120642857D01*
X126284761Y-120738095D01*
X126237142Y-120785714D01*
G04 #@! TO.C,R5*
X113533333Y-108872380D02*
X113200000Y-108396190D01*
X112961904Y-108872380D02*
X112961904Y-107872380D01*
X113342857Y-107872380D01*
X113438095Y-107920000D01*
X113485714Y-107967619D01*
X113533333Y-108062857D01*
X113533333Y-108205714D01*
X113485714Y-108300952D01*
X113438095Y-108348571D01*
X113342857Y-108396190D01*
X112961904Y-108396190D01*
X114438095Y-107872380D02*
X113961904Y-107872380D01*
X113914285Y-108348571D01*
X113961904Y-108300952D01*
X114057142Y-108253333D01*
X114295238Y-108253333D01*
X114390476Y-108300952D01*
X114438095Y-108348571D01*
X114485714Y-108443809D01*
X114485714Y-108681904D01*
X114438095Y-108777142D01*
X114390476Y-108824761D01*
X114295238Y-108872380D01*
X114057142Y-108872380D01*
X113961904Y-108824761D01*
X113914285Y-108777142D01*
G04 #@! TD*
M02*
