G04 #@! TF.GenerationSoftware,KiCad,Pcbnew,(5.1.5)-3*
G04 #@! TF.CreationDate,2020-04-28T20:17:52-04:00*
G04 #@! TF.ProjectId,megadesk,6d656761-6465-4736-9b2e-6b696361645f,rev?*
G04 #@! TF.SameCoordinates,Original*
G04 #@! TF.FileFunction,Legend,Bot*
G04 #@! TF.FilePolarity,Positive*
%FSLAX46Y46*%
G04 Gerber Fmt 4.6, Leading zero omitted, Abs format (unit mm)*
G04 Created by KiCad (PCBNEW (5.1.5)-3) date 2020-04-28 20:17:52*
%MOMM*%
%LPD*%
G04 APERTURE LIST*
%ADD10C,0.200000*%
G04 APERTURE END LIST*
D10*
X124432857Y-120144857D02*
X124432857Y-119344857D01*
X124432857Y-119459142D02*
X124375714Y-119402000D01*
X124261428Y-119344857D01*
X124090000Y-119344857D01*
X123975714Y-119402000D01*
X123918571Y-119516285D01*
X123918571Y-120144857D01*
X123918571Y-119516285D02*
X123861428Y-119402000D01*
X123747142Y-119344857D01*
X123575714Y-119344857D01*
X123461428Y-119402000D01*
X123404285Y-119516285D01*
X123404285Y-120144857D01*
X122375714Y-120087714D02*
X122490000Y-120144857D01*
X122718571Y-120144857D01*
X122832857Y-120087714D01*
X122890000Y-119973428D01*
X122890000Y-119516285D01*
X122832857Y-119402000D01*
X122718571Y-119344857D01*
X122490000Y-119344857D01*
X122375714Y-119402000D01*
X122318571Y-119516285D01*
X122318571Y-119630571D01*
X122890000Y-119744857D01*
X121290000Y-119344857D02*
X121290000Y-120316285D01*
X121347142Y-120430571D01*
X121404285Y-120487714D01*
X121518571Y-120544857D01*
X121690000Y-120544857D01*
X121804285Y-120487714D01*
X121290000Y-120087714D02*
X121404285Y-120144857D01*
X121632857Y-120144857D01*
X121747142Y-120087714D01*
X121804285Y-120030571D01*
X121861428Y-119916285D01*
X121861428Y-119573428D01*
X121804285Y-119459142D01*
X121747142Y-119402000D01*
X121632857Y-119344857D01*
X121404285Y-119344857D01*
X121290000Y-119402000D01*
X120204285Y-120144857D02*
X120204285Y-119516285D01*
X120261428Y-119402000D01*
X120375714Y-119344857D01*
X120604285Y-119344857D01*
X120718571Y-119402000D01*
X120204285Y-120087714D02*
X120318571Y-120144857D01*
X120604285Y-120144857D01*
X120718571Y-120087714D01*
X120775714Y-119973428D01*
X120775714Y-119859142D01*
X120718571Y-119744857D01*
X120604285Y-119687714D01*
X120318571Y-119687714D01*
X120204285Y-119630571D01*
X119118571Y-120144857D02*
X119118571Y-118944857D01*
X119118571Y-120087714D02*
X119232857Y-120144857D01*
X119461428Y-120144857D01*
X119575714Y-120087714D01*
X119632857Y-120030571D01*
X119690000Y-119916285D01*
X119690000Y-119573428D01*
X119632857Y-119459142D01*
X119575714Y-119402000D01*
X119461428Y-119344857D01*
X119232857Y-119344857D01*
X119118571Y-119402000D01*
X118090000Y-120087714D02*
X118204285Y-120144857D01*
X118432857Y-120144857D01*
X118547142Y-120087714D01*
X118604285Y-119973428D01*
X118604285Y-119516285D01*
X118547142Y-119402000D01*
X118432857Y-119344857D01*
X118204285Y-119344857D01*
X118090000Y-119402000D01*
X118032857Y-119516285D01*
X118032857Y-119630571D01*
X118604285Y-119744857D01*
X117575714Y-120087714D02*
X117461428Y-120144857D01*
X117232857Y-120144857D01*
X117118571Y-120087714D01*
X117061428Y-119973428D01*
X117061428Y-119916285D01*
X117118571Y-119802000D01*
X117232857Y-119744857D01*
X117404285Y-119744857D01*
X117518571Y-119687714D01*
X117575714Y-119573428D01*
X117575714Y-119516285D01*
X117518571Y-119402000D01*
X117404285Y-119344857D01*
X117232857Y-119344857D01*
X117118571Y-119402000D01*
X116547142Y-120144857D02*
X116547142Y-118944857D01*
X116432857Y-119687714D02*
X116090000Y-120144857D01*
X116090000Y-119344857D02*
X116547142Y-119802000D01*
X121147142Y-121344857D02*
X120861428Y-122144857D01*
X120575714Y-121344857D01*
X119604285Y-121344857D02*
X119604285Y-122144857D01*
X119890000Y-120887714D02*
X120175714Y-121744857D01*
X119432857Y-121744857D01*
M02*
