G04 #@! TF.GenerationSoftware,KiCad,Pcbnew,(5.0.2)-1*
G04 #@! TF.CreationDate,2019-02-13T20:53:48-05:00*
G04 #@! TF.ProjectId,megadesk,6d656761-6465-4736-9b2e-6b696361645f,rev?*
G04 #@! TF.SameCoordinates,Original*
G04 #@! TF.FileFunction,Paste,Top*
G04 #@! TF.FilePolarity,Positive*
%FSLAX46Y46*%
G04 Gerber Fmt 4.6, Leading zero omitted, Abs format (unit mm)*
G04 Created by KiCad (PCBNEW (5.0.2)-1) date 2/13/2019 8:53:48 PM*
%MOMM*%
%LPD*%
G01*
G04 APERTURE LIST*
%ADD10R,0.600000X1.700000*%
%ADD11R,1.200000X1.800000*%
%ADD12R,1.200000X2.200000*%
%ADD13R,5.800000X6.400000*%
%ADD14R,1.550000X0.600000*%
%ADD15C,0.100000*%
%ADD16C,1.250000*%
G04 APERTURE END LIST*
D10*
G04 #@! TO.C,J2*
X135400000Y-111550000D03*
X134400000Y-111550000D03*
X133400000Y-111550000D03*
X132400000Y-111550000D03*
X131400000Y-111550000D03*
X130400000Y-111550000D03*
X129400000Y-111550000D03*
X128400000Y-111550000D03*
X127400000Y-111550000D03*
X126400000Y-111550000D03*
D11*
X137200000Y-106300000D03*
X124600000Y-106300000D03*
G04 #@! TD*
D12*
G04 #@! TO.C,U2*
X131895000Y-127825000D03*
X134175000Y-127825000D03*
X136455000Y-127825000D03*
D13*
X134175000Y-121525000D03*
G04 #@! TD*
D12*
G04 #@! TO.C,U1*
X101395000Y-127825000D03*
X103675000Y-127825000D03*
X105955000Y-127825000D03*
D13*
X103675000Y-121525000D03*
G04 #@! TD*
D14*
G04 #@! TO.C,U4*
X120200000Y-113305000D03*
X120200000Y-112035000D03*
X120200000Y-110765000D03*
X120200000Y-109495000D03*
X114800000Y-109495000D03*
X114800000Y-110765000D03*
X114800000Y-112035000D03*
X114800000Y-113305000D03*
G04 #@! TD*
D15*
G04 #@! TO.C,C3*
G36*
X115599504Y-121726204D02*
X115623773Y-121729804D01*
X115647571Y-121735765D01*
X115670671Y-121744030D01*
X115692849Y-121754520D01*
X115713893Y-121767133D01*
X115733598Y-121781747D01*
X115751777Y-121798223D01*
X115768253Y-121816402D01*
X115782867Y-121836107D01*
X115795480Y-121857151D01*
X115805970Y-121879329D01*
X115814235Y-121902429D01*
X115820196Y-121926227D01*
X115823796Y-121950496D01*
X115825000Y-121975000D01*
X115825000Y-122725000D01*
X115823796Y-122749504D01*
X115820196Y-122773773D01*
X115814235Y-122797571D01*
X115805970Y-122820671D01*
X115795480Y-122842849D01*
X115782867Y-122863893D01*
X115768253Y-122883598D01*
X115751777Y-122901777D01*
X115733598Y-122918253D01*
X115713893Y-122932867D01*
X115692849Y-122945480D01*
X115670671Y-122955970D01*
X115647571Y-122964235D01*
X115623773Y-122970196D01*
X115599504Y-122973796D01*
X115575000Y-122975000D01*
X114325000Y-122975000D01*
X114300496Y-122973796D01*
X114276227Y-122970196D01*
X114252429Y-122964235D01*
X114229329Y-122955970D01*
X114207151Y-122945480D01*
X114186107Y-122932867D01*
X114166402Y-122918253D01*
X114148223Y-122901777D01*
X114131747Y-122883598D01*
X114117133Y-122863893D01*
X114104520Y-122842849D01*
X114094030Y-122820671D01*
X114085765Y-122797571D01*
X114079804Y-122773773D01*
X114076204Y-122749504D01*
X114075000Y-122725000D01*
X114075000Y-121975000D01*
X114076204Y-121950496D01*
X114079804Y-121926227D01*
X114085765Y-121902429D01*
X114094030Y-121879329D01*
X114104520Y-121857151D01*
X114117133Y-121836107D01*
X114131747Y-121816402D01*
X114148223Y-121798223D01*
X114166402Y-121781747D01*
X114186107Y-121767133D01*
X114207151Y-121754520D01*
X114229329Y-121744030D01*
X114252429Y-121735765D01*
X114276227Y-121729804D01*
X114300496Y-121726204D01*
X114325000Y-121725000D01*
X115575000Y-121725000D01*
X115599504Y-121726204D01*
X115599504Y-121726204D01*
G37*
D16*
X114950000Y-122350000D03*
D15*
G36*
X115599504Y-118926204D02*
X115623773Y-118929804D01*
X115647571Y-118935765D01*
X115670671Y-118944030D01*
X115692849Y-118954520D01*
X115713893Y-118967133D01*
X115733598Y-118981747D01*
X115751777Y-118998223D01*
X115768253Y-119016402D01*
X115782867Y-119036107D01*
X115795480Y-119057151D01*
X115805970Y-119079329D01*
X115814235Y-119102429D01*
X115820196Y-119126227D01*
X115823796Y-119150496D01*
X115825000Y-119175000D01*
X115825000Y-119925000D01*
X115823796Y-119949504D01*
X115820196Y-119973773D01*
X115814235Y-119997571D01*
X115805970Y-120020671D01*
X115795480Y-120042849D01*
X115782867Y-120063893D01*
X115768253Y-120083598D01*
X115751777Y-120101777D01*
X115733598Y-120118253D01*
X115713893Y-120132867D01*
X115692849Y-120145480D01*
X115670671Y-120155970D01*
X115647571Y-120164235D01*
X115623773Y-120170196D01*
X115599504Y-120173796D01*
X115575000Y-120175000D01*
X114325000Y-120175000D01*
X114300496Y-120173796D01*
X114276227Y-120170196D01*
X114252429Y-120164235D01*
X114229329Y-120155970D01*
X114207151Y-120145480D01*
X114186107Y-120132867D01*
X114166402Y-120118253D01*
X114148223Y-120101777D01*
X114131747Y-120083598D01*
X114117133Y-120063893D01*
X114104520Y-120042849D01*
X114094030Y-120020671D01*
X114085765Y-119997571D01*
X114079804Y-119973773D01*
X114076204Y-119949504D01*
X114075000Y-119925000D01*
X114075000Y-119175000D01*
X114076204Y-119150496D01*
X114079804Y-119126227D01*
X114085765Y-119102429D01*
X114094030Y-119079329D01*
X114104520Y-119057151D01*
X114117133Y-119036107D01*
X114131747Y-119016402D01*
X114148223Y-118998223D01*
X114166402Y-118981747D01*
X114186107Y-118967133D01*
X114207151Y-118954520D01*
X114229329Y-118944030D01*
X114252429Y-118935765D01*
X114276227Y-118929804D01*
X114300496Y-118926204D01*
X114325000Y-118925000D01*
X115575000Y-118925000D01*
X115599504Y-118926204D01*
X115599504Y-118926204D01*
G37*
D16*
X114950000Y-119550000D03*
G04 #@! TD*
D15*
G04 #@! TO.C,C4*
G36*
X105499504Y-130726204D02*
X105523773Y-130729804D01*
X105547571Y-130735765D01*
X105570671Y-130744030D01*
X105592849Y-130754520D01*
X105613893Y-130767133D01*
X105633598Y-130781747D01*
X105651777Y-130798223D01*
X105668253Y-130816402D01*
X105682867Y-130836107D01*
X105695480Y-130857151D01*
X105705970Y-130879329D01*
X105714235Y-130902429D01*
X105720196Y-130926227D01*
X105723796Y-130950496D01*
X105725000Y-130975000D01*
X105725000Y-132225000D01*
X105723796Y-132249504D01*
X105720196Y-132273773D01*
X105714235Y-132297571D01*
X105705970Y-132320671D01*
X105695480Y-132342849D01*
X105682867Y-132363893D01*
X105668253Y-132383598D01*
X105651777Y-132401777D01*
X105633598Y-132418253D01*
X105613893Y-132432867D01*
X105592849Y-132445480D01*
X105570671Y-132455970D01*
X105547571Y-132464235D01*
X105523773Y-132470196D01*
X105499504Y-132473796D01*
X105475000Y-132475000D01*
X104725000Y-132475000D01*
X104700496Y-132473796D01*
X104676227Y-132470196D01*
X104652429Y-132464235D01*
X104629329Y-132455970D01*
X104607151Y-132445480D01*
X104586107Y-132432867D01*
X104566402Y-132418253D01*
X104548223Y-132401777D01*
X104531747Y-132383598D01*
X104517133Y-132363893D01*
X104504520Y-132342849D01*
X104494030Y-132320671D01*
X104485765Y-132297571D01*
X104479804Y-132273773D01*
X104476204Y-132249504D01*
X104475000Y-132225000D01*
X104475000Y-130975000D01*
X104476204Y-130950496D01*
X104479804Y-130926227D01*
X104485765Y-130902429D01*
X104494030Y-130879329D01*
X104504520Y-130857151D01*
X104517133Y-130836107D01*
X104531747Y-130816402D01*
X104548223Y-130798223D01*
X104566402Y-130781747D01*
X104586107Y-130767133D01*
X104607151Y-130754520D01*
X104629329Y-130744030D01*
X104652429Y-130735765D01*
X104676227Y-130729804D01*
X104700496Y-130726204D01*
X104725000Y-130725000D01*
X105475000Y-130725000D01*
X105499504Y-130726204D01*
X105499504Y-130726204D01*
G37*
D16*
X105100000Y-131600000D03*
D15*
G36*
X102699504Y-130726204D02*
X102723773Y-130729804D01*
X102747571Y-130735765D01*
X102770671Y-130744030D01*
X102792849Y-130754520D01*
X102813893Y-130767133D01*
X102833598Y-130781747D01*
X102851777Y-130798223D01*
X102868253Y-130816402D01*
X102882867Y-130836107D01*
X102895480Y-130857151D01*
X102905970Y-130879329D01*
X102914235Y-130902429D01*
X102920196Y-130926227D01*
X102923796Y-130950496D01*
X102925000Y-130975000D01*
X102925000Y-132225000D01*
X102923796Y-132249504D01*
X102920196Y-132273773D01*
X102914235Y-132297571D01*
X102905970Y-132320671D01*
X102895480Y-132342849D01*
X102882867Y-132363893D01*
X102868253Y-132383598D01*
X102851777Y-132401777D01*
X102833598Y-132418253D01*
X102813893Y-132432867D01*
X102792849Y-132445480D01*
X102770671Y-132455970D01*
X102747571Y-132464235D01*
X102723773Y-132470196D01*
X102699504Y-132473796D01*
X102675000Y-132475000D01*
X101925000Y-132475000D01*
X101900496Y-132473796D01*
X101876227Y-132470196D01*
X101852429Y-132464235D01*
X101829329Y-132455970D01*
X101807151Y-132445480D01*
X101786107Y-132432867D01*
X101766402Y-132418253D01*
X101748223Y-132401777D01*
X101731747Y-132383598D01*
X101717133Y-132363893D01*
X101704520Y-132342849D01*
X101694030Y-132320671D01*
X101685765Y-132297571D01*
X101679804Y-132273773D01*
X101676204Y-132249504D01*
X101675000Y-132225000D01*
X101675000Y-130975000D01*
X101676204Y-130950496D01*
X101679804Y-130926227D01*
X101685765Y-130902429D01*
X101694030Y-130879329D01*
X101704520Y-130857151D01*
X101717133Y-130836107D01*
X101731747Y-130816402D01*
X101748223Y-130798223D01*
X101766402Y-130781747D01*
X101786107Y-130767133D01*
X101807151Y-130754520D01*
X101829329Y-130744030D01*
X101852429Y-130735765D01*
X101876227Y-130729804D01*
X101900496Y-130726204D01*
X101925000Y-130725000D01*
X102675000Y-130725000D01*
X102699504Y-130726204D01*
X102699504Y-130726204D01*
G37*
D16*
X102300000Y-131600000D03*
G04 #@! TD*
D15*
G04 #@! TO.C,C5*
G36*
X128349504Y-118976204D02*
X128373773Y-118979804D01*
X128397571Y-118985765D01*
X128420671Y-118994030D01*
X128442849Y-119004520D01*
X128463893Y-119017133D01*
X128483598Y-119031747D01*
X128501777Y-119048223D01*
X128518253Y-119066402D01*
X128532867Y-119086107D01*
X128545480Y-119107151D01*
X128555970Y-119129329D01*
X128564235Y-119152429D01*
X128570196Y-119176227D01*
X128573796Y-119200496D01*
X128575000Y-119225000D01*
X128575000Y-119975000D01*
X128573796Y-119999504D01*
X128570196Y-120023773D01*
X128564235Y-120047571D01*
X128555970Y-120070671D01*
X128545480Y-120092849D01*
X128532867Y-120113893D01*
X128518253Y-120133598D01*
X128501777Y-120151777D01*
X128483598Y-120168253D01*
X128463893Y-120182867D01*
X128442849Y-120195480D01*
X128420671Y-120205970D01*
X128397571Y-120214235D01*
X128373773Y-120220196D01*
X128349504Y-120223796D01*
X128325000Y-120225000D01*
X127075000Y-120225000D01*
X127050496Y-120223796D01*
X127026227Y-120220196D01*
X127002429Y-120214235D01*
X126979329Y-120205970D01*
X126957151Y-120195480D01*
X126936107Y-120182867D01*
X126916402Y-120168253D01*
X126898223Y-120151777D01*
X126881747Y-120133598D01*
X126867133Y-120113893D01*
X126854520Y-120092849D01*
X126844030Y-120070671D01*
X126835765Y-120047571D01*
X126829804Y-120023773D01*
X126826204Y-119999504D01*
X126825000Y-119975000D01*
X126825000Y-119225000D01*
X126826204Y-119200496D01*
X126829804Y-119176227D01*
X126835765Y-119152429D01*
X126844030Y-119129329D01*
X126854520Y-119107151D01*
X126867133Y-119086107D01*
X126881747Y-119066402D01*
X126898223Y-119048223D01*
X126916402Y-119031747D01*
X126936107Y-119017133D01*
X126957151Y-119004520D01*
X126979329Y-118994030D01*
X127002429Y-118985765D01*
X127026227Y-118979804D01*
X127050496Y-118976204D01*
X127075000Y-118975000D01*
X128325000Y-118975000D01*
X128349504Y-118976204D01*
X128349504Y-118976204D01*
G37*
D16*
X127700000Y-119600000D03*
D15*
G36*
X128349504Y-121776204D02*
X128373773Y-121779804D01*
X128397571Y-121785765D01*
X128420671Y-121794030D01*
X128442849Y-121804520D01*
X128463893Y-121817133D01*
X128483598Y-121831747D01*
X128501777Y-121848223D01*
X128518253Y-121866402D01*
X128532867Y-121886107D01*
X128545480Y-121907151D01*
X128555970Y-121929329D01*
X128564235Y-121952429D01*
X128570196Y-121976227D01*
X128573796Y-122000496D01*
X128575000Y-122025000D01*
X128575000Y-122775000D01*
X128573796Y-122799504D01*
X128570196Y-122823773D01*
X128564235Y-122847571D01*
X128555970Y-122870671D01*
X128545480Y-122892849D01*
X128532867Y-122913893D01*
X128518253Y-122933598D01*
X128501777Y-122951777D01*
X128483598Y-122968253D01*
X128463893Y-122982867D01*
X128442849Y-122995480D01*
X128420671Y-123005970D01*
X128397571Y-123014235D01*
X128373773Y-123020196D01*
X128349504Y-123023796D01*
X128325000Y-123025000D01*
X127075000Y-123025000D01*
X127050496Y-123023796D01*
X127026227Y-123020196D01*
X127002429Y-123014235D01*
X126979329Y-123005970D01*
X126957151Y-122995480D01*
X126936107Y-122982867D01*
X126916402Y-122968253D01*
X126898223Y-122951777D01*
X126881747Y-122933598D01*
X126867133Y-122913893D01*
X126854520Y-122892849D01*
X126844030Y-122870671D01*
X126835765Y-122847571D01*
X126829804Y-122823773D01*
X126826204Y-122799504D01*
X126825000Y-122775000D01*
X126825000Y-122025000D01*
X126826204Y-122000496D01*
X126829804Y-121976227D01*
X126835765Y-121952429D01*
X126844030Y-121929329D01*
X126854520Y-121907151D01*
X126867133Y-121886107D01*
X126881747Y-121866402D01*
X126898223Y-121848223D01*
X126916402Y-121831747D01*
X126936107Y-121817133D01*
X126957151Y-121804520D01*
X126979329Y-121794030D01*
X127002429Y-121785765D01*
X127026227Y-121779804D01*
X127050496Y-121776204D01*
X127075000Y-121775000D01*
X128325000Y-121775000D01*
X128349504Y-121776204D01*
X128349504Y-121776204D01*
G37*
D16*
X127700000Y-122400000D03*
G04 #@! TD*
D15*
G04 #@! TO.C,R5*
G36*
X112699504Y-105726204D02*
X112723773Y-105729804D01*
X112747571Y-105735765D01*
X112770671Y-105744030D01*
X112792849Y-105754520D01*
X112813893Y-105767133D01*
X112833598Y-105781747D01*
X112851777Y-105798223D01*
X112868253Y-105816402D01*
X112882867Y-105836107D01*
X112895480Y-105857151D01*
X112905970Y-105879329D01*
X112914235Y-105902429D01*
X112920196Y-105926227D01*
X112923796Y-105950496D01*
X112925000Y-105975000D01*
X112925000Y-107225000D01*
X112923796Y-107249504D01*
X112920196Y-107273773D01*
X112914235Y-107297571D01*
X112905970Y-107320671D01*
X112895480Y-107342849D01*
X112882867Y-107363893D01*
X112868253Y-107383598D01*
X112851777Y-107401777D01*
X112833598Y-107418253D01*
X112813893Y-107432867D01*
X112792849Y-107445480D01*
X112770671Y-107455970D01*
X112747571Y-107464235D01*
X112723773Y-107470196D01*
X112699504Y-107473796D01*
X112675000Y-107475000D01*
X111925000Y-107475000D01*
X111900496Y-107473796D01*
X111876227Y-107470196D01*
X111852429Y-107464235D01*
X111829329Y-107455970D01*
X111807151Y-107445480D01*
X111786107Y-107432867D01*
X111766402Y-107418253D01*
X111748223Y-107401777D01*
X111731747Y-107383598D01*
X111717133Y-107363893D01*
X111704520Y-107342849D01*
X111694030Y-107320671D01*
X111685765Y-107297571D01*
X111679804Y-107273773D01*
X111676204Y-107249504D01*
X111675000Y-107225000D01*
X111675000Y-105975000D01*
X111676204Y-105950496D01*
X111679804Y-105926227D01*
X111685765Y-105902429D01*
X111694030Y-105879329D01*
X111704520Y-105857151D01*
X111717133Y-105836107D01*
X111731747Y-105816402D01*
X111748223Y-105798223D01*
X111766402Y-105781747D01*
X111786107Y-105767133D01*
X111807151Y-105754520D01*
X111829329Y-105744030D01*
X111852429Y-105735765D01*
X111876227Y-105729804D01*
X111900496Y-105726204D01*
X111925000Y-105725000D01*
X112675000Y-105725000D01*
X112699504Y-105726204D01*
X112699504Y-105726204D01*
G37*
D16*
X112300000Y-106600000D03*
D15*
G36*
X115499504Y-105726204D02*
X115523773Y-105729804D01*
X115547571Y-105735765D01*
X115570671Y-105744030D01*
X115592849Y-105754520D01*
X115613893Y-105767133D01*
X115633598Y-105781747D01*
X115651777Y-105798223D01*
X115668253Y-105816402D01*
X115682867Y-105836107D01*
X115695480Y-105857151D01*
X115705970Y-105879329D01*
X115714235Y-105902429D01*
X115720196Y-105926227D01*
X115723796Y-105950496D01*
X115725000Y-105975000D01*
X115725000Y-107225000D01*
X115723796Y-107249504D01*
X115720196Y-107273773D01*
X115714235Y-107297571D01*
X115705970Y-107320671D01*
X115695480Y-107342849D01*
X115682867Y-107363893D01*
X115668253Y-107383598D01*
X115651777Y-107401777D01*
X115633598Y-107418253D01*
X115613893Y-107432867D01*
X115592849Y-107445480D01*
X115570671Y-107455970D01*
X115547571Y-107464235D01*
X115523773Y-107470196D01*
X115499504Y-107473796D01*
X115475000Y-107475000D01*
X114725000Y-107475000D01*
X114700496Y-107473796D01*
X114676227Y-107470196D01*
X114652429Y-107464235D01*
X114629329Y-107455970D01*
X114607151Y-107445480D01*
X114586107Y-107432867D01*
X114566402Y-107418253D01*
X114548223Y-107401777D01*
X114531747Y-107383598D01*
X114517133Y-107363893D01*
X114504520Y-107342849D01*
X114494030Y-107320671D01*
X114485765Y-107297571D01*
X114479804Y-107273773D01*
X114476204Y-107249504D01*
X114475000Y-107225000D01*
X114475000Y-105975000D01*
X114476204Y-105950496D01*
X114479804Y-105926227D01*
X114485765Y-105902429D01*
X114494030Y-105879329D01*
X114504520Y-105857151D01*
X114517133Y-105836107D01*
X114531747Y-105816402D01*
X114548223Y-105798223D01*
X114566402Y-105781747D01*
X114586107Y-105767133D01*
X114607151Y-105754520D01*
X114629329Y-105744030D01*
X114652429Y-105735765D01*
X114676227Y-105729804D01*
X114700496Y-105726204D01*
X114725000Y-105725000D01*
X115475000Y-105725000D01*
X115499504Y-105726204D01*
X115499504Y-105726204D01*
G37*
D16*
X115100000Y-106600000D03*
G04 #@! TD*
M02*
