M48
; DRILL file {KiCad (6.0.0)} date Mon Jan 31 19:46:39 2022
; FORMAT={-:-/ absolute / metric / decimal}
; #@! TF.CreationDate,2022-01-31T19:46:39-05:00
; #@! TF.GenerationSoftware,Kicad,Pcbnew,(6.0.0)
; #@! TF.FileFunction,Plated,1,2,PTH
FMAT,2
METRIC
; #@! TA.AperFunction,Plated,PTH,ViaDrill
T1C0.300
; #@! TA.AperFunction,Plated,PTH,ViaDrill
T2C0.600
; #@! TA.AperFunction,Plated,PTH,ComponentDrill
T3C1.000
%
G90
G05
T1
X101.4Y-117.3
X101.63Y-127.4
X102.7Y-123.2
X105.5Y-107.8
X105.5Y-109.1
X105.5Y-114.1
X105.6Y-110.4
X106.48Y-127.4
X108.3Y-125.9
X108.9Y-120.0
X109.6Y-114.1
X109.8Y-116.0
X110.0Y-112.6
X110.1Y-107.7
X110.2Y-110.4
X110.2Y-111.4
X110.3Y-109.0
X110.4Y-122.9
X111.8Y-132.3
X112.5Y-115.9
X113.0Y-129.1
X114.5Y-121.5
X114.7Y-123.6
X116.4Y-109.0
X116.4Y-110.3
X118.6Y-120.4
X120.036Y-125.555
X120.1Y-120.7
X120.7Y-109.6
X121.2Y-108.7
X121.8Y-121.6
X122.0Y-111.7
X122.7Y-114.0
X123.3Y-115.9
X123.7Y-118.1
X127.1Y-107.7
X127.57Y-130.84
X127.6Y-128.6
X128.0Y-109.3
X130.3Y-118.1
X130.5Y-107.7
X131.4Y-106.9
X132.8Y-115.7
X137.8Y-127.5
T2
X107.7Y-131.6
X107.7Y-132.6
X107.7Y-133.6
X107.7Y-134.6
X107.7Y-135.6
X108.7Y-131.6
X108.7Y-132.6
X108.7Y-133.6
X108.7Y-134.6
X108.7Y-135.6
X130.7Y-129.6
X130.7Y-130.6
X130.7Y-131.6
X130.7Y-132.6
X130.7Y-133.6
X130.7Y-134.6
X130.7Y-135.6
X131.7Y-129.6
X131.7Y-130.6
X131.7Y-131.6
X131.7Y-132.6
X131.7Y-133.6
X131.7Y-134.6
X131.7Y-135.6
T3
X114.72Y-113.2
X114.72Y-115.74
X116.52Y-127.3
X117.26Y-113.2
X117.26Y-115.74
X119.06Y-127.3
X119.8Y-113.2
X119.8Y-115.74
X121.6Y-127.3
T0
M30
