G04 #@! TF.GenerationSoftware,KiCad,Pcbnew,(5.99.0-12157-g5a28a06597)*
G04 #@! TF.CreationDate,2021-09-27T15:07:42-04:00*
G04 #@! TF.ProjectId,megadesk,6d656761-6465-4736-9b2e-6b696361645f,rev?*
G04 #@! TF.SameCoordinates,Original*
G04 #@! TF.FileFunction,Legend,Bot*
G04 #@! TF.FilePolarity,Positive*
%FSLAX46Y46*%
G04 Gerber Fmt 4.6, Leading zero omitted, Abs format (unit mm)*
G04 Created by KiCad (PCBNEW (5.99.0-12157-g5a28a06597)) date 2021-09-27 15:07:42*
%MOMM*%
%LPD*%
G01*
G04 APERTURE LIST*
%ADD10C,0.150000*%
%ADD11C,0.100000*%
%ADD12C,0.200000*%
G04 APERTURE END LIST*
D10*
X138838095Y-113647380D02*
X138838095Y-112647380D01*
X138600000Y-112647380D01*
X138457142Y-112695000D01*
X138361904Y-112790238D01*
X138314285Y-112885476D01*
X138266666Y-113075952D01*
X138266666Y-113218809D01*
X138314285Y-113409285D01*
X138361904Y-113504523D01*
X138457142Y-113599761D01*
X138600000Y-113647380D01*
X138838095Y-113647380D01*
X137695238Y-113647380D02*
X137790476Y-113599761D01*
X137838095Y-113552142D01*
X137885714Y-113456904D01*
X137885714Y-113171190D01*
X137838095Y-113075952D01*
X137790476Y-113028333D01*
X137695238Y-112980714D01*
X137552380Y-112980714D01*
X137457142Y-113028333D01*
X137409523Y-113075952D01*
X137361904Y-113171190D01*
X137361904Y-113456904D01*
X137409523Y-113552142D01*
X137457142Y-113599761D01*
X137552380Y-113647380D01*
X137695238Y-113647380D01*
X136171428Y-113647380D02*
X136171428Y-112647380D01*
X135600000Y-113647380D01*
X135600000Y-112647380D01*
X134933333Y-112647380D02*
X134742857Y-112647380D01*
X134647619Y-112695000D01*
X134552380Y-112790238D01*
X134504761Y-112980714D01*
X134504761Y-113314047D01*
X134552380Y-113504523D01*
X134647619Y-113599761D01*
X134742857Y-113647380D01*
X134933333Y-113647380D01*
X135028571Y-113599761D01*
X135123809Y-113504523D01*
X135171428Y-113314047D01*
X135171428Y-112980714D01*
X135123809Y-112790238D01*
X135028571Y-112695000D01*
X134933333Y-112647380D01*
X134219047Y-112647380D02*
X133647619Y-112647380D01*
X133933333Y-113647380D02*
X133933333Y-112647380D01*
X132552380Y-112980714D02*
X132552380Y-113980714D01*
X132552380Y-113028333D02*
X132457142Y-112980714D01*
X132266666Y-112980714D01*
X132171428Y-113028333D01*
X132123809Y-113075952D01*
X132076190Y-113171190D01*
X132076190Y-113456904D01*
X132123809Y-113552142D01*
X132171428Y-113599761D01*
X132266666Y-113647380D01*
X132457142Y-113647380D01*
X132552380Y-113599761D01*
X131504761Y-113647380D02*
X131600000Y-113599761D01*
X131647619Y-113552142D01*
X131695238Y-113456904D01*
X131695238Y-113171190D01*
X131647619Y-113075952D01*
X131600000Y-113028333D01*
X131504761Y-112980714D01*
X131361904Y-112980714D01*
X131266666Y-113028333D01*
X131219047Y-113075952D01*
X131171428Y-113171190D01*
X131171428Y-113456904D01*
X131219047Y-113552142D01*
X131266666Y-113599761D01*
X131361904Y-113647380D01*
X131504761Y-113647380D01*
X130838095Y-112980714D02*
X130647619Y-113647380D01*
X130457142Y-113171190D01*
X130266666Y-113647380D01*
X130076190Y-112980714D01*
X129314285Y-113599761D02*
X129409523Y-113647380D01*
X129600000Y-113647380D01*
X129695238Y-113599761D01*
X129742857Y-113504523D01*
X129742857Y-113123571D01*
X129695238Y-113028333D01*
X129600000Y-112980714D01*
X129409523Y-112980714D01*
X129314285Y-113028333D01*
X129266666Y-113123571D01*
X129266666Y-113218809D01*
X129742857Y-113314047D01*
X128838095Y-113647380D02*
X128838095Y-112980714D01*
X128838095Y-113171190D02*
X128790476Y-113075952D01*
X128742857Y-113028333D01*
X128647619Y-112980714D01*
X128552380Y-112980714D01*
X127028571Y-113647380D02*
X127028571Y-113123571D01*
X127076190Y-113028333D01*
X127171428Y-112980714D01*
X127361904Y-112980714D01*
X127457142Y-113028333D01*
X127028571Y-113599761D02*
X127123809Y-113647380D01*
X127361904Y-113647380D01*
X127457142Y-113599761D01*
X127504761Y-113504523D01*
X127504761Y-113409285D01*
X127457142Y-113314047D01*
X127361904Y-113266428D01*
X127123809Y-113266428D01*
X127028571Y-113218809D01*
X126552380Y-112980714D02*
X126552380Y-113647380D01*
X126552380Y-113075952D02*
X126504761Y-113028333D01*
X126409523Y-112980714D01*
X126266666Y-112980714D01*
X126171428Y-113028333D01*
X126123809Y-113123571D01*
X126123809Y-113647380D01*
X125742857Y-112980714D02*
X125504761Y-113647380D01*
X125266666Y-112980714D02*
X125504761Y-113647380D01*
X125600000Y-113885476D01*
X125647619Y-113933095D01*
X125742857Y-113980714D01*
X137814285Y-115257380D02*
X137909523Y-115209761D01*
X137957142Y-115162142D01*
X138004761Y-115066904D01*
X138004761Y-114781190D01*
X137957142Y-114685952D01*
X137909523Y-114638333D01*
X137814285Y-114590714D01*
X137671428Y-114590714D01*
X137576190Y-114638333D01*
X137528571Y-114685952D01*
X137480952Y-114781190D01*
X137480952Y-115066904D01*
X137528571Y-115162142D01*
X137576190Y-115209761D01*
X137671428Y-115257380D01*
X137814285Y-115257380D01*
X137195238Y-114590714D02*
X136814285Y-114590714D01*
X137052380Y-114257380D02*
X137052380Y-115114523D01*
X137004761Y-115209761D01*
X136909523Y-115257380D01*
X136814285Y-115257380D01*
X136480952Y-115257380D02*
X136480952Y-114257380D01*
X136052380Y-115257380D02*
X136052380Y-114733571D01*
X136100000Y-114638333D01*
X136195238Y-114590714D01*
X136338095Y-114590714D01*
X136433333Y-114638333D01*
X136480952Y-114685952D01*
X135195238Y-115209761D02*
X135290476Y-115257380D01*
X135480952Y-115257380D01*
X135576190Y-115209761D01*
X135623809Y-115114523D01*
X135623809Y-114733571D01*
X135576190Y-114638333D01*
X135480952Y-114590714D01*
X135290476Y-114590714D01*
X135195238Y-114638333D01*
X135147619Y-114733571D01*
X135147619Y-114828809D01*
X135623809Y-114924047D01*
X134719047Y-115257380D02*
X134719047Y-114590714D01*
X134719047Y-114781190D02*
X134671428Y-114685952D01*
X134623809Y-114638333D01*
X134528571Y-114590714D01*
X134433333Y-114590714D01*
X133338095Y-114590714D02*
X133338095Y-115590714D01*
X133338095Y-114638333D02*
X133242857Y-114590714D01*
X133052380Y-114590714D01*
X132957142Y-114638333D01*
X132909523Y-114685952D01*
X132861904Y-114781190D01*
X132861904Y-115066904D01*
X132909523Y-115162142D01*
X132957142Y-115209761D01*
X133052380Y-115257380D01*
X133242857Y-115257380D01*
X133338095Y-115209761D01*
X132052380Y-115209761D02*
X132147619Y-115257380D01*
X132338095Y-115257380D01*
X132433333Y-115209761D01*
X132480952Y-115114523D01*
X132480952Y-114733571D01*
X132433333Y-114638333D01*
X132338095Y-114590714D01*
X132147619Y-114590714D01*
X132052380Y-114638333D01*
X132004761Y-114733571D01*
X132004761Y-114828809D01*
X132480952Y-114924047D01*
X131576190Y-115257380D02*
X131576190Y-114590714D01*
X131576190Y-114781190D02*
X131528571Y-114685952D01*
X131480952Y-114638333D01*
X131385714Y-114590714D01*
X131290476Y-114590714D01*
X130957142Y-115257380D02*
X130957142Y-114590714D01*
X130957142Y-114257380D02*
X131004761Y-114305000D01*
X130957142Y-114352619D01*
X130909523Y-114305000D01*
X130957142Y-114257380D01*
X130957142Y-114352619D01*
X130480952Y-114590714D02*
X130480952Y-115590714D01*
X130480952Y-114638333D02*
X130385714Y-114590714D01*
X130195238Y-114590714D01*
X130100000Y-114638333D01*
X130052380Y-114685952D01*
X130004761Y-114781190D01*
X130004761Y-115066904D01*
X130052380Y-115162142D01*
X130100000Y-115209761D01*
X130195238Y-115257380D01*
X130385714Y-115257380D01*
X130480952Y-115209761D01*
X129576190Y-115257380D02*
X129576190Y-114257380D01*
X129147619Y-115257380D02*
X129147619Y-114733571D01*
X129195238Y-114638333D01*
X129290476Y-114590714D01*
X129433333Y-114590714D01*
X129528571Y-114638333D01*
X129576190Y-114685952D01*
X128290476Y-115209761D02*
X128385714Y-115257380D01*
X128576190Y-115257380D01*
X128671428Y-115209761D01*
X128719047Y-115114523D01*
X128719047Y-114733571D01*
X128671428Y-114638333D01*
X128576190Y-114590714D01*
X128385714Y-114590714D01*
X128290476Y-114638333D01*
X128242857Y-114733571D01*
X128242857Y-114828809D01*
X128719047Y-114924047D01*
X127814285Y-115257380D02*
X127814285Y-114590714D01*
X127814285Y-114781190D02*
X127766666Y-114685952D01*
X127719047Y-114638333D01*
X127623809Y-114590714D01*
X127528571Y-114590714D01*
X126766666Y-115257380D02*
X126766666Y-114733571D01*
X126814285Y-114638333D01*
X126909523Y-114590714D01*
X127100000Y-114590714D01*
X127195238Y-114638333D01*
X126766666Y-115209761D02*
X126861904Y-115257380D01*
X127100000Y-115257380D01*
X127195238Y-115209761D01*
X127242857Y-115114523D01*
X127242857Y-115019285D01*
X127195238Y-114924047D01*
X127100000Y-114876428D01*
X126861904Y-114876428D01*
X126766666Y-114828809D01*
X126147619Y-115257380D02*
X126242857Y-115209761D01*
X126290476Y-115114523D01*
X126290476Y-114257380D01*
D11*
X118092140Y-118759857D02*
X118006426Y-118788428D01*
X117863568Y-118788428D01*
X117806426Y-118759857D01*
X117777854Y-118731285D01*
X117749283Y-118674142D01*
X117749283Y-118617000D01*
X117777854Y-118559857D01*
X117806426Y-118531285D01*
X117863568Y-118502714D01*
X117977854Y-118474142D01*
X118034997Y-118445571D01*
X118063568Y-118417000D01*
X118092140Y-118359857D01*
X118092140Y-118302714D01*
X118063568Y-118245571D01*
X118034997Y-118217000D01*
X117977854Y-118188428D01*
X117834997Y-118188428D01*
X117749283Y-118217000D01*
X117149283Y-118731285D02*
X117177854Y-118759857D01*
X117263568Y-118788428D01*
X117320711Y-118788428D01*
X117406426Y-118759857D01*
X117463568Y-118702714D01*
X117492140Y-118645571D01*
X117520711Y-118531285D01*
X117520711Y-118445571D01*
X117492140Y-118331285D01*
X117463568Y-118274142D01*
X117406426Y-118217000D01*
X117320711Y-118188428D01*
X117263568Y-118188428D01*
X117177854Y-118217000D01*
X117149283Y-118245571D01*
X116892140Y-118788428D02*
X116892140Y-118188428D01*
X116549283Y-118788428D02*
X116806426Y-118445571D01*
X116549283Y-118188428D02*
X116892140Y-118531285D01*
X118063568Y-119754428D02*
X118063568Y-119154428D01*
X117863568Y-119583000D01*
X117663568Y-119154428D01*
X117663568Y-119754428D01*
X117263568Y-119154428D02*
X117149283Y-119154428D01*
X117092140Y-119183000D01*
X117034997Y-119240142D01*
X117006426Y-119354428D01*
X117006426Y-119554428D01*
X117034997Y-119668714D01*
X117092140Y-119725857D01*
X117149283Y-119754428D01*
X117263568Y-119754428D01*
X117320711Y-119725857D01*
X117377854Y-119668714D01*
X117406426Y-119554428D01*
X117406426Y-119354428D01*
X117377854Y-119240142D01*
X117320711Y-119183000D01*
X117263568Y-119154428D01*
X116777854Y-119725857D02*
X116692140Y-119754428D01*
X116549283Y-119754428D01*
X116492140Y-119725857D01*
X116463568Y-119697285D01*
X116434997Y-119640142D01*
X116434997Y-119583000D01*
X116463568Y-119525857D01*
X116492140Y-119497285D01*
X116549283Y-119468714D01*
X116663568Y-119440142D01*
X116720711Y-119411571D01*
X116749283Y-119383000D01*
X116777854Y-119325857D01*
X116777854Y-119268714D01*
X116749283Y-119211571D01*
X116720711Y-119183000D01*
X116663568Y-119154428D01*
X116520711Y-119154428D01*
X116434997Y-119183000D01*
X116177854Y-119754428D02*
X116177854Y-119154428D01*
X114949285Y-118788428D02*
X115149285Y-118502714D01*
X115292142Y-118788428D02*
X115292142Y-118188428D01*
X115063571Y-118188428D01*
X115006428Y-118217000D01*
X114977857Y-118245571D01*
X114949285Y-118302714D01*
X114949285Y-118388428D01*
X114977857Y-118445571D01*
X115006428Y-118474142D01*
X115063571Y-118502714D01*
X115292142Y-118502714D01*
X114720714Y-118759857D02*
X114635000Y-118788428D01*
X114492142Y-118788428D01*
X114435000Y-118759857D01*
X114406428Y-118731285D01*
X114377857Y-118674142D01*
X114377857Y-118617000D01*
X114406428Y-118559857D01*
X114435000Y-118531285D01*
X114492142Y-118502714D01*
X114606428Y-118474142D01*
X114663571Y-118445571D01*
X114692142Y-118417000D01*
X114720714Y-118359857D01*
X114720714Y-118302714D01*
X114692142Y-118245571D01*
X114663571Y-118217000D01*
X114606428Y-118188428D01*
X114463571Y-118188428D01*
X114377857Y-118217000D01*
X114206428Y-118188428D02*
X113863571Y-118188428D01*
X114035000Y-118788428D02*
X114035000Y-118188428D01*
X114977857Y-119183000D02*
X115035000Y-119154428D01*
X115120714Y-119154428D01*
X115206428Y-119183000D01*
X115263571Y-119240142D01*
X115292142Y-119297285D01*
X115320714Y-119411571D01*
X115320714Y-119497285D01*
X115292142Y-119611571D01*
X115263571Y-119668714D01*
X115206428Y-119725857D01*
X115120714Y-119754428D01*
X115063571Y-119754428D01*
X114977857Y-119725857D01*
X114949285Y-119697285D01*
X114949285Y-119497285D01*
X115063571Y-119497285D01*
X114692142Y-119754428D02*
X114692142Y-119154428D01*
X114349285Y-119754428D01*
X114349285Y-119154428D01*
X114063571Y-119754428D02*
X114063571Y-119154428D01*
X113920714Y-119154428D01*
X113835000Y-119183000D01*
X113777857Y-119240142D01*
X113749285Y-119297285D01*
X113720714Y-119411571D01*
X113720714Y-119497285D01*
X113749285Y-119611571D01*
X113777857Y-119668714D01*
X113835000Y-119725857D01*
X113920714Y-119754428D01*
X114063571Y-119754428D01*
X120792142Y-118788428D02*
X120792142Y-118188428D01*
X120592142Y-118617000D01*
X120392142Y-118188428D01*
X120392142Y-118788428D01*
X120106428Y-118788428D02*
X120106428Y-118188428D01*
X119849285Y-118759857D02*
X119763571Y-118788428D01*
X119620714Y-118788428D01*
X119563571Y-118759857D01*
X119535000Y-118731285D01*
X119506428Y-118674142D01*
X119506428Y-118617000D01*
X119535000Y-118559857D01*
X119563571Y-118531285D01*
X119620714Y-118502714D01*
X119735000Y-118474142D01*
X119792142Y-118445571D01*
X119820714Y-118417000D01*
X119849285Y-118359857D01*
X119849285Y-118302714D01*
X119820714Y-118245571D01*
X119792142Y-118217000D01*
X119735000Y-118188428D01*
X119592142Y-118188428D01*
X119506428Y-118217000D01*
X119135000Y-118188428D02*
X119020714Y-118188428D01*
X118963571Y-118217000D01*
X118906428Y-118274142D01*
X118877857Y-118388428D01*
X118877857Y-118588428D01*
X118906428Y-118702714D01*
X118963571Y-118759857D01*
X119020714Y-118788428D01*
X119135000Y-118788428D01*
X119192142Y-118759857D01*
X119249285Y-118702714D01*
X119277857Y-118588428D01*
X119277857Y-118388428D01*
X119249285Y-118274142D01*
X119192142Y-118217000D01*
X119135000Y-118188428D01*
X120792142Y-119525857D02*
X120335000Y-119525857D01*
X120563571Y-119754428D02*
X120563571Y-119297285D01*
X119763571Y-119154428D02*
X120049285Y-119154428D01*
X120077857Y-119440142D01*
X120049285Y-119411571D01*
X119992142Y-119383000D01*
X119849285Y-119383000D01*
X119792142Y-119411571D01*
X119763571Y-119440142D01*
X119735000Y-119497285D01*
X119735000Y-119640142D01*
X119763571Y-119697285D01*
X119792142Y-119725857D01*
X119849285Y-119754428D01*
X119992142Y-119754428D01*
X120049285Y-119725857D01*
X120077857Y-119697285D01*
D12*
X123042857Y-122276857D02*
X123042857Y-121476857D01*
X123042857Y-121591142D02*
X122985714Y-121534000D01*
X122871428Y-121476857D01*
X122700000Y-121476857D01*
X122585714Y-121534000D01*
X122528571Y-121648285D01*
X122528571Y-122276857D01*
X122528571Y-121648285D02*
X122471428Y-121534000D01*
X122357142Y-121476857D01*
X122185714Y-121476857D01*
X122071428Y-121534000D01*
X122014285Y-121648285D01*
X122014285Y-122276857D01*
X120985714Y-122219714D02*
X121100000Y-122276857D01*
X121328571Y-122276857D01*
X121442857Y-122219714D01*
X121500000Y-122105428D01*
X121500000Y-121648285D01*
X121442857Y-121534000D01*
X121328571Y-121476857D01*
X121100000Y-121476857D01*
X120985714Y-121534000D01*
X120928571Y-121648285D01*
X120928571Y-121762571D01*
X121500000Y-121876857D01*
X119900000Y-121476857D02*
X119900000Y-122448285D01*
X119957142Y-122562571D01*
X120014285Y-122619714D01*
X120128571Y-122676857D01*
X120300000Y-122676857D01*
X120414285Y-122619714D01*
X119900000Y-122219714D02*
X120014285Y-122276857D01*
X120242857Y-122276857D01*
X120357142Y-122219714D01*
X120414285Y-122162571D01*
X120471428Y-122048285D01*
X120471428Y-121705428D01*
X120414285Y-121591142D01*
X120357142Y-121534000D01*
X120242857Y-121476857D01*
X120014285Y-121476857D01*
X119900000Y-121534000D01*
X118814285Y-122276857D02*
X118814285Y-121648285D01*
X118871428Y-121534000D01*
X118985714Y-121476857D01*
X119214285Y-121476857D01*
X119328571Y-121534000D01*
X118814285Y-122219714D02*
X118928571Y-122276857D01*
X119214285Y-122276857D01*
X119328571Y-122219714D01*
X119385714Y-122105428D01*
X119385714Y-121991142D01*
X119328571Y-121876857D01*
X119214285Y-121819714D01*
X118928571Y-121819714D01*
X118814285Y-121762571D01*
X117728571Y-122276857D02*
X117728571Y-121076857D01*
X117728571Y-122219714D02*
X117842857Y-122276857D01*
X118071428Y-122276857D01*
X118185714Y-122219714D01*
X118242857Y-122162571D01*
X118300000Y-122048285D01*
X118300000Y-121705428D01*
X118242857Y-121591142D01*
X118185714Y-121534000D01*
X118071428Y-121476857D01*
X117842857Y-121476857D01*
X117728571Y-121534000D01*
X116700000Y-122219714D02*
X116814285Y-122276857D01*
X117042857Y-122276857D01*
X117157142Y-122219714D01*
X117214285Y-122105428D01*
X117214285Y-121648285D01*
X117157142Y-121534000D01*
X117042857Y-121476857D01*
X116814285Y-121476857D01*
X116700000Y-121534000D01*
X116642857Y-121648285D01*
X116642857Y-121762571D01*
X117214285Y-121876857D01*
X116185714Y-122219714D02*
X116071428Y-122276857D01*
X115842857Y-122276857D01*
X115728571Y-122219714D01*
X115671428Y-122105428D01*
X115671428Y-122048285D01*
X115728571Y-121934000D01*
X115842857Y-121876857D01*
X116014285Y-121876857D01*
X116128571Y-121819714D01*
X116185714Y-121705428D01*
X116185714Y-121648285D01*
X116128571Y-121534000D01*
X116014285Y-121476857D01*
X115842857Y-121476857D01*
X115728571Y-121534000D01*
X115157142Y-122276857D02*
X115157142Y-121076857D01*
X115042857Y-121819714D02*
X114700000Y-122276857D01*
X114700000Y-121476857D02*
X115157142Y-121934000D01*
X119757142Y-123408857D02*
X119471428Y-124208857D01*
X119185714Y-123408857D01*
X118842857Y-123008857D02*
X118042857Y-123008857D01*
X118557142Y-124208857D01*
M02*
