G04 #@! TF.GenerationSoftware,KiCad,Pcbnew,5.1.5-52549c5~84~ubuntu18.04.1*
G04 #@! TF.CreationDate,2019-12-15T09:51:59+00:00*
G04 #@! TF.ProjectId,megadesk,6d656761-6465-4736-9b2e-6b696361645f,rev?*
G04 #@! TF.SameCoordinates,Original*
G04 #@! TF.FileFunction,Soldermask,Bot*
G04 #@! TF.FilePolarity,Negative*
%FSLAX46Y46*%
G04 Gerber Fmt 4.6, Leading zero omitted, Abs format (unit mm)*
G04 Created by KiCad (PCBNEW 5.1.5-52549c5~84~ubuntu18.04.1) date 2019-12-15 09:51:59*
%MOMM*%
%LPD*%
G04 APERTURE LIST*
%ADD10C,0.100000*%
G04 APERTURE END LIST*
D10*
G36*
X104550520Y-133706586D02*
G01*
X104714310Y-133774430D01*
X104861717Y-133872924D01*
X104987076Y-133998283D01*
X105085570Y-134145690D01*
X105153414Y-134309480D01*
X105188000Y-134483358D01*
X105188000Y-134660642D01*
X105153414Y-134834520D01*
X105085570Y-134998310D01*
X104987076Y-135145717D01*
X104861717Y-135271076D01*
X104714310Y-135369570D01*
X104714309Y-135369571D01*
X104714308Y-135369571D01*
X104550520Y-135437414D01*
X104376644Y-135472000D01*
X104199356Y-135472000D01*
X104025480Y-135437414D01*
X103861692Y-135369571D01*
X103861691Y-135369571D01*
X103861690Y-135369570D01*
X103714283Y-135271076D01*
X103588924Y-135145717D01*
X103490430Y-134998310D01*
X103422586Y-134834520D01*
X103388000Y-134660642D01*
X103388000Y-134483358D01*
X103422586Y-134309480D01*
X103490430Y-134145690D01*
X103588924Y-133998283D01*
X103714283Y-133872924D01*
X103861690Y-133774430D01*
X104025480Y-133706586D01*
X104199356Y-133672000D01*
X104376644Y-133672000D01*
X104550520Y-133706586D01*
G37*
G36*
X102010520Y-133706586D02*
G01*
X102174310Y-133774430D01*
X102321717Y-133872924D01*
X102447076Y-133998283D01*
X102545570Y-134145690D01*
X102613414Y-134309480D01*
X102648000Y-134483358D01*
X102648000Y-134660642D01*
X102613414Y-134834520D01*
X102545570Y-134998310D01*
X102447076Y-135145717D01*
X102321717Y-135271076D01*
X102174310Y-135369570D01*
X102174309Y-135369571D01*
X102174308Y-135369571D01*
X102010520Y-135437414D01*
X101836644Y-135472000D01*
X101659356Y-135472000D01*
X101485480Y-135437414D01*
X101321692Y-135369571D01*
X101321691Y-135369571D01*
X101321690Y-135369570D01*
X101174283Y-135271076D01*
X101048924Y-135145717D01*
X100950430Y-134998310D01*
X100882586Y-134834520D01*
X100848000Y-134660642D01*
X100848000Y-134483358D01*
X100882586Y-134309480D01*
X100950430Y-134145690D01*
X101048924Y-133998283D01*
X101174283Y-133872924D01*
X101321690Y-133774430D01*
X101485480Y-133706586D01*
X101659356Y-133672000D01*
X101836644Y-133672000D01*
X102010520Y-133706586D01*
G37*
G36*
X107728000Y-135472000D02*
G01*
X105928000Y-135472000D01*
X105928000Y-133672000D01*
X107728000Y-133672000D01*
X107728000Y-135472000D01*
G37*
G36*
X102010520Y-131166586D02*
G01*
X102174310Y-131234430D01*
X102321717Y-131332924D01*
X102447076Y-131458283D01*
X102545570Y-131605690D01*
X102613414Y-131769480D01*
X102648000Y-131943358D01*
X102648000Y-132120642D01*
X102613414Y-132294520D01*
X102545570Y-132458310D01*
X102447076Y-132605717D01*
X102321717Y-132731076D01*
X102174310Y-132829570D01*
X102174309Y-132829571D01*
X102174308Y-132829571D01*
X102010520Y-132897414D01*
X101836644Y-132932000D01*
X101659356Y-132932000D01*
X101485480Y-132897414D01*
X101321692Y-132829571D01*
X101321691Y-132829571D01*
X101321690Y-132829570D01*
X101174283Y-132731076D01*
X101048924Y-132605717D01*
X100950430Y-132458310D01*
X100882586Y-132294520D01*
X100848000Y-132120642D01*
X100848000Y-131943358D01*
X100882586Y-131769480D01*
X100950430Y-131605690D01*
X101048924Y-131458283D01*
X101174283Y-131332924D01*
X101321690Y-131234430D01*
X101485480Y-131166586D01*
X101659356Y-131132000D01*
X101836644Y-131132000D01*
X102010520Y-131166586D01*
G37*
G36*
X107090520Y-131166586D02*
G01*
X107254310Y-131234430D01*
X107401717Y-131332924D01*
X107527076Y-131458283D01*
X107625570Y-131605690D01*
X107693414Y-131769480D01*
X107728000Y-131943358D01*
X107728000Y-132120642D01*
X107693414Y-132294520D01*
X107625570Y-132458310D01*
X107527076Y-132605717D01*
X107401717Y-132731076D01*
X107254310Y-132829570D01*
X107254309Y-132829571D01*
X107254308Y-132829571D01*
X107090520Y-132897414D01*
X106916644Y-132932000D01*
X106739356Y-132932000D01*
X106565480Y-132897414D01*
X106401692Y-132829571D01*
X106401691Y-132829571D01*
X106401690Y-132829570D01*
X106254283Y-132731076D01*
X106128924Y-132605717D01*
X106030430Y-132458310D01*
X105962586Y-132294520D01*
X105928000Y-132120642D01*
X105928000Y-131943358D01*
X105962586Y-131769480D01*
X106030430Y-131605690D01*
X106128924Y-131458283D01*
X106254283Y-131332924D01*
X106401690Y-131234430D01*
X106565480Y-131166586D01*
X106739356Y-131132000D01*
X106916644Y-131132000D01*
X107090520Y-131166586D01*
G37*
G36*
X104550520Y-131166586D02*
G01*
X104714310Y-131234430D01*
X104861717Y-131332924D01*
X104987076Y-131458283D01*
X105085570Y-131605690D01*
X105153414Y-131769480D01*
X105188000Y-131943358D01*
X105188000Y-132120642D01*
X105153414Y-132294520D01*
X105085570Y-132458310D01*
X104987076Y-132605717D01*
X104861717Y-132731076D01*
X104714310Y-132829570D01*
X104714309Y-132829571D01*
X104714308Y-132829571D01*
X104550520Y-132897414D01*
X104376644Y-132932000D01*
X104199356Y-132932000D01*
X104025480Y-132897414D01*
X103861692Y-132829571D01*
X103861691Y-132829571D01*
X103861690Y-132829570D01*
X103714283Y-132731076D01*
X103588924Y-132605717D01*
X103490430Y-132458310D01*
X103422586Y-132294520D01*
X103388000Y-132120642D01*
X103388000Y-131943358D01*
X103422586Y-131769480D01*
X103490430Y-131605690D01*
X103588924Y-131458283D01*
X103714283Y-131332924D01*
X103861690Y-131234430D01*
X104025480Y-131166586D01*
X104199356Y-131132000D01*
X104376644Y-131132000D01*
X104550520Y-131166586D01*
G37*
G36*
X116782520Y-126434586D02*
G01*
X116946310Y-126502430D01*
X117093717Y-126600924D01*
X117219076Y-126726283D01*
X117317570Y-126873690D01*
X117385414Y-127037480D01*
X117420000Y-127211358D01*
X117420000Y-127388642D01*
X117385414Y-127562520D01*
X117317570Y-127726310D01*
X117219076Y-127873717D01*
X117093717Y-127999076D01*
X116946310Y-128097570D01*
X116946309Y-128097571D01*
X116946308Y-128097571D01*
X116782520Y-128165414D01*
X116608644Y-128200000D01*
X116431356Y-128200000D01*
X116257480Y-128165414D01*
X116093692Y-128097571D01*
X116093691Y-128097571D01*
X116093690Y-128097570D01*
X115946283Y-127999076D01*
X115820924Y-127873717D01*
X115722430Y-127726310D01*
X115654586Y-127562520D01*
X115620000Y-127388642D01*
X115620000Y-127211358D01*
X115654586Y-127037480D01*
X115722430Y-126873690D01*
X115820924Y-126726283D01*
X115946283Y-126600924D01*
X116093690Y-126502430D01*
X116257480Y-126434586D01*
X116431356Y-126400000D01*
X116608644Y-126400000D01*
X116782520Y-126434586D01*
G37*
G36*
X119322520Y-126434586D02*
G01*
X119486310Y-126502430D01*
X119633717Y-126600924D01*
X119759076Y-126726283D01*
X119857570Y-126873690D01*
X119925414Y-127037480D01*
X119960000Y-127211358D01*
X119960000Y-127388642D01*
X119925414Y-127562520D01*
X119857570Y-127726310D01*
X119759076Y-127873717D01*
X119633717Y-127999076D01*
X119486310Y-128097570D01*
X119486309Y-128097571D01*
X119486308Y-128097571D01*
X119322520Y-128165414D01*
X119148644Y-128200000D01*
X118971356Y-128200000D01*
X118797480Y-128165414D01*
X118633692Y-128097571D01*
X118633691Y-128097571D01*
X118633690Y-128097570D01*
X118486283Y-127999076D01*
X118360924Y-127873717D01*
X118262430Y-127726310D01*
X118194586Y-127562520D01*
X118160000Y-127388642D01*
X118160000Y-127211358D01*
X118194586Y-127037480D01*
X118262430Y-126873690D01*
X118360924Y-126726283D01*
X118486283Y-126600924D01*
X118633690Y-126502430D01*
X118797480Y-126434586D01*
X118971356Y-126400000D01*
X119148644Y-126400000D01*
X119322520Y-126434586D01*
G37*
G36*
X122500000Y-128200000D02*
G01*
X120700000Y-128200000D01*
X120700000Y-126400000D01*
X122500000Y-126400000D01*
X122500000Y-128200000D01*
G37*
M02*
