G04 #@! TF.GenerationSoftware,KiCad,Pcbnew,(5.0.2)-1*
G04 #@! TF.CreationDate,2019-02-13T20:53:48-05:00*
G04 #@! TF.ProjectId,megadesk,6d656761-6465-4736-9b2e-6b696361645f,rev?*
G04 #@! TF.SameCoordinates,Original*
G04 #@! TF.FileFunction,Legend,Bot*
G04 #@! TF.FilePolarity,Positive*
%FSLAX46Y46*%
G04 Gerber Fmt 4.6, Leading zero omitted, Abs format (unit mm)*
G04 Created by KiCad (PCBNEW (5.0.2)-1) date 2/13/2019 8:53:48 PM*
%MOMM*%
%LPD*%
G01*
G04 APERTURE LIST*
%ADD10C,0.150000*%
%ADD11C,0.120000*%
G04 APERTURE END LIST*
D10*
G04 #@! TO.C,U3*
X116425000Y-118240000D02*
X116425000Y-118215000D01*
X120575000Y-118240000D02*
X120575000Y-118125000D01*
X120575000Y-109340000D02*
X120575000Y-109455000D01*
X116425000Y-109340000D02*
X116425000Y-109455000D01*
X116425000Y-118240000D02*
X120575000Y-118240000D01*
X116425000Y-109340000D02*
X120575000Y-109340000D01*
X116425000Y-118215000D02*
X115050000Y-118215000D01*
D11*
G04 #@! TO.C,D2*
X131150000Y-134650000D02*
X129450000Y-134650000D01*
X129450000Y-134650000D02*
X129450000Y-131500000D01*
X131150000Y-134650000D02*
X131150000Y-131500000D01*
G04 #@! TO.C,D1*
X126250000Y-130900000D02*
X127950000Y-130900000D01*
X127950000Y-130900000D02*
X127950000Y-134050000D01*
X126250000Y-130900000D02*
X126250000Y-134050000D01*
G04 #@! TO.C,BZ1*
X129850000Y-108000000D02*
X129850000Y-117200000D01*
X129850000Y-117200000D02*
X132050000Y-117200000D01*
X139050000Y-117200000D02*
X139050000Y-108000000D01*
X136850000Y-117200000D02*
X139050000Y-117200000D01*
X136850000Y-108000000D02*
X139050000Y-108000000D01*
X129850000Y-108000000D02*
X132050000Y-108000000D01*
X132050000Y-108000000D02*
X132050000Y-107600000D01*
G04 #@! TO.C,C1*
X122447936Y-124510000D02*
X123652064Y-124510000D01*
X122447936Y-122690000D02*
X123652064Y-122690000D01*
G04 #@! TO.C,C6*
X118097936Y-133510000D02*
X119302064Y-133510000D01*
X118097936Y-131690000D02*
X119302064Y-131690000D01*
G04 #@! TO.C,R1*
X133552064Y-122190000D02*
X132347936Y-122190000D01*
X133552064Y-124010000D02*
X132347936Y-124010000D01*
G04 #@! TO.C,R3*
X103597936Y-125510000D02*
X104802064Y-125510000D01*
X103597936Y-123690000D02*
X104802064Y-123690000D01*
G04 #@! TO.C,R4*
X104802064Y-129010000D02*
X103597936Y-129010000D01*
X104802064Y-127190000D02*
X103597936Y-127190000D01*
G04 #@! TO.C,R6*
X111302064Y-129690000D02*
X110097936Y-129690000D01*
X111302064Y-131510000D02*
X110097936Y-131510000D01*
G04 #@! TO.C,U3*
D10*
X119261904Y-118617380D02*
X119261904Y-119426904D01*
X119214285Y-119522142D01*
X119166666Y-119569761D01*
X119071428Y-119617380D01*
X118880952Y-119617380D01*
X118785714Y-119569761D01*
X118738095Y-119522142D01*
X118690476Y-119426904D01*
X118690476Y-118617380D01*
X118309523Y-118617380D02*
X117690476Y-118617380D01*
X118023809Y-118998333D01*
X117880952Y-118998333D01*
X117785714Y-119045952D01*
X117738095Y-119093571D01*
X117690476Y-119188809D01*
X117690476Y-119426904D01*
X117738095Y-119522142D01*
X117785714Y-119569761D01*
X117880952Y-119617380D01*
X118166666Y-119617380D01*
X118261904Y-119569761D01*
X118309523Y-119522142D01*
G04 #@! TO.C,D2*
X132602380Y-132011904D02*
X131602380Y-132011904D01*
X131602380Y-132250000D01*
X131650000Y-132392857D01*
X131745238Y-132488095D01*
X131840476Y-132535714D01*
X132030952Y-132583333D01*
X132173809Y-132583333D01*
X132364285Y-132535714D01*
X132459523Y-132488095D01*
X132554761Y-132392857D01*
X132602380Y-132250000D01*
X132602380Y-132011904D01*
X131697619Y-132964285D02*
X131650000Y-133011904D01*
X131602380Y-133107142D01*
X131602380Y-133345238D01*
X131650000Y-133440476D01*
X131697619Y-133488095D01*
X131792857Y-133535714D01*
X131888095Y-133535714D01*
X132030952Y-133488095D01*
X132602380Y-132916666D01*
X132602380Y-133535714D01*
G04 #@! TO.C,D1*
X125702380Y-132061904D02*
X124702380Y-132061904D01*
X124702380Y-132300000D01*
X124750000Y-132442857D01*
X124845238Y-132538095D01*
X124940476Y-132585714D01*
X125130952Y-132633333D01*
X125273809Y-132633333D01*
X125464285Y-132585714D01*
X125559523Y-132538095D01*
X125654761Y-132442857D01*
X125702380Y-132300000D01*
X125702380Y-132061904D01*
X125702380Y-133585714D02*
X125702380Y-133014285D01*
X125702380Y-133300000D02*
X124702380Y-133300000D01*
X124845238Y-133204761D01*
X124940476Y-133109523D01*
X124988095Y-133014285D01*
G04 #@! TO.C,BZ1*
X135330952Y-112528571D02*
X135188095Y-112576190D01*
X135140476Y-112623809D01*
X135092857Y-112719047D01*
X135092857Y-112861904D01*
X135140476Y-112957142D01*
X135188095Y-113004761D01*
X135283333Y-113052380D01*
X135664285Y-113052380D01*
X135664285Y-112052380D01*
X135330952Y-112052380D01*
X135235714Y-112100000D01*
X135188095Y-112147619D01*
X135140476Y-112242857D01*
X135140476Y-112338095D01*
X135188095Y-112433333D01*
X135235714Y-112480952D01*
X135330952Y-112528571D01*
X135664285Y-112528571D01*
X134759523Y-112052380D02*
X134092857Y-112052380D01*
X134759523Y-113052380D01*
X134092857Y-113052380D01*
X133188095Y-113052380D02*
X133759523Y-113052380D01*
X133473809Y-113052380D02*
X133473809Y-112052380D01*
X133569047Y-112195238D01*
X133664285Y-112290476D01*
X133759523Y-112338095D01*
G04 #@! TO.C,C1*
X123116666Y-122207142D02*
X123164285Y-122254761D01*
X123307142Y-122302380D01*
X123402380Y-122302380D01*
X123545238Y-122254761D01*
X123640476Y-122159523D01*
X123688095Y-122064285D01*
X123735714Y-121873809D01*
X123735714Y-121730952D01*
X123688095Y-121540476D01*
X123640476Y-121445238D01*
X123545238Y-121350000D01*
X123402380Y-121302380D01*
X123307142Y-121302380D01*
X123164285Y-121350000D01*
X123116666Y-121397619D01*
X122164285Y-122302380D02*
X122735714Y-122302380D01*
X122450000Y-122302380D02*
X122450000Y-121302380D01*
X122545238Y-121445238D01*
X122640476Y-121540476D01*
X122735714Y-121588095D01*
X125069047Y-125052380D02*
X124973809Y-125052380D01*
X124878571Y-125100000D01*
X124830952Y-125147619D01*
X124783333Y-125242857D01*
X124735714Y-125433333D01*
X124735714Y-125671428D01*
X124783333Y-125861904D01*
X124830952Y-125957142D01*
X124878571Y-126004761D01*
X124973809Y-126052380D01*
X125069047Y-126052380D01*
X125164285Y-126004761D01*
X125211904Y-125957142D01*
X125259523Y-125861904D01*
X125307142Y-125671428D01*
X125307142Y-125433333D01*
X125259523Y-125242857D01*
X125211904Y-125147619D01*
X125164285Y-125100000D01*
X125069047Y-125052380D01*
X124307142Y-125957142D02*
X124259523Y-126004761D01*
X124307142Y-126052380D01*
X124354761Y-126004761D01*
X124307142Y-125957142D01*
X124307142Y-126052380D01*
X123926190Y-125052380D02*
X123307142Y-125052380D01*
X123640476Y-125433333D01*
X123497619Y-125433333D01*
X123402380Y-125480952D01*
X123354761Y-125528571D01*
X123307142Y-125623809D01*
X123307142Y-125861904D01*
X123354761Y-125957142D01*
X123402380Y-126004761D01*
X123497619Y-126052380D01*
X123783333Y-126052380D01*
X123878571Y-126004761D01*
X123926190Y-125957142D01*
X122973809Y-125052380D02*
X122354761Y-125052380D01*
X122688095Y-125433333D01*
X122545238Y-125433333D01*
X122450000Y-125480952D01*
X122402380Y-125528571D01*
X122354761Y-125623809D01*
X122354761Y-125861904D01*
X122402380Y-125957142D01*
X122450000Y-126004761D01*
X122545238Y-126052380D01*
X122830952Y-126052380D01*
X122926190Y-126004761D01*
X122973809Y-125957142D01*
X121497619Y-125385714D02*
X121497619Y-126052380D01*
X121926190Y-125385714D02*
X121926190Y-125909523D01*
X121878571Y-126004761D01*
X121783333Y-126052380D01*
X121640476Y-126052380D01*
X121545238Y-126004761D01*
X121497619Y-125957142D01*
X120688095Y-125528571D02*
X121021428Y-125528571D01*
X121021428Y-126052380D02*
X121021428Y-125052380D01*
X120545238Y-125052380D01*
G04 #@! TO.C,C6*
X118866666Y-130957142D02*
X118914285Y-131004761D01*
X119057142Y-131052380D01*
X119152380Y-131052380D01*
X119295238Y-131004761D01*
X119390476Y-130909523D01*
X119438095Y-130814285D01*
X119485714Y-130623809D01*
X119485714Y-130480952D01*
X119438095Y-130290476D01*
X119390476Y-130195238D01*
X119295238Y-130100000D01*
X119152380Y-130052380D01*
X119057142Y-130052380D01*
X118914285Y-130100000D01*
X118866666Y-130147619D01*
X118009523Y-130052380D02*
X118200000Y-130052380D01*
X118295238Y-130100000D01*
X118342857Y-130147619D01*
X118438095Y-130290476D01*
X118485714Y-130480952D01*
X118485714Y-130861904D01*
X118438095Y-130957142D01*
X118390476Y-131004761D01*
X118295238Y-131052380D01*
X118104761Y-131052380D01*
X118009523Y-131004761D01*
X117961904Y-130957142D01*
X117914285Y-130861904D01*
X117914285Y-130623809D01*
X117961904Y-130528571D01*
X118009523Y-130480952D01*
X118104761Y-130433333D01*
X118295238Y-130433333D01*
X118390476Y-130480952D01*
X118438095Y-130528571D01*
X118485714Y-130623809D01*
X120819047Y-134147619D02*
X120771428Y-134100000D01*
X120676190Y-134052380D01*
X120438095Y-134052380D01*
X120342857Y-134100000D01*
X120295238Y-134147619D01*
X120247619Y-134242857D01*
X120247619Y-134338095D01*
X120295238Y-134480952D01*
X120866666Y-135052380D01*
X120247619Y-135052380D01*
X119866666Y-134147619D02*
X119819047Y-134100000D01*
X119723809Y-134052380D01*
X119485714Y-134052380D01*
X119390476Y-134100000D01*
X119342857Y-134147619D01*
X119295238Y-134242857D01*
X119295238Y-134338095D01*
X119342857Y-134480952D01*
X119914285Y-135052380D01*
X119295238Y-135052380D01*
X118676190Y-134052380D02*
X118580952Y-134052380D01*
X118485714Y-134100000D01*
X118438095Y-134147619D01*
X118390476Y-134242857D01*
X118342857Y-134433333D01*
X118342857Y-134671428D01*
X118390476Y-134861904D01*
X118438095Y-134957142D01*
X118485714Y-135004761D01*
X118580952Y-135052380D01*
X118676190Y-135052380D01*
X118771428Y-135004761D01*
X118819047Y-134957142D01*
X118866666Y-134861904D01*
X118914285Y-134671428D01*
X118914285Y-134433333D01*
X118866666Y-134242857D01*
X118819047Y-134147619D01*
X118771428Y-134100000D01*
X118676190Y-134052380D01*
X117914285Y-134385714D02*
X117914285Y-135385714D01*
X117914285Y-134433333D02*
X117819047Y-134385714D01*
X117628571Y-134385714D01*
X117533333Y-134433333D01*
X117485714Y-134480952D01*
X117438095Y-134576190D01*
X117438095Y-134861904D01*
X117485714Y-134957142D01*
X117533333Y-135004761D01*
X117628571Y-135052380D01*
X117819047Y-135052380D01*
X117914285Y-135004761D01*
X116676190Y-134528571D02*
X117009523Y-134528571D01*
X117009523Y-135052380D02*
X117009523Y-134052380D01*
X116533333Y-134052380D01*
G04 #@! TO.C,R1*
X133116666Y-121732380D02*
X133450000Y-121256190D01*
X133688095Y-121732380D02*
X133688095Y-120732380D01*
X133307142Y-120732380D01*
X133211904Y-120780000D01*
X133164285Y-120827619D01*
X133116666Y-120922857D01*
X133116666Y-121065714D01*
X133164285Y-121160952D01*
X133211904Y-121208571D01*
X133307142Y-121256190D01*
X133688095Y-121256190D01*
X132164285Y-121732380D02*
X132735714Y-121732380D01*
X132450000Y-121732380D02*
X132450000Y-120732380D01*
X132545238Y-120875238D01*
X132640476Y-120970476D01*
X132735714Y-121018095D01*
X133069047Y-125372380D02*
X133640476Y-125372380D01*
X133354761Y-125372380D02*
X133354761Y-124372380D01*
X133450000Y-124515238D01*
X133545238Y-124610476D01*
X133640476Y-124658095D01*
X132640476Y-125372380D02*
X132640476Y-124372380D01*
X132545238Y-124991428D02*
X132259523Y-125372380D01*
X132259523Y-124705714D02*
X132640476Y-125086666D01*
G04 #@! TO.C,R3*
X104366666Y-123302380D02*
X104700000Y-122826190D01*
X104938095Y-123302380D02*
X104938095Y-122302380D01*
X104557142Y-122302380D01*
X104461904Y-122350000D01*
X104414285Y-122397619D01*
X104366666Y-122492857D01*
X104366666Y-122635714D01*
X104414285Y-122730952D01*
X104461904Y-122778571D01*
X104557142Y-122826190D01*
X104938095Y-122826190D01*
X104033333Y-122302380D02*
X103414285Y-122302380D01*
X103747619Y-122683333D01*
X103604761Y-122683333D01*
X103509523Y-122730952D01*
X103461904Y-122778571D01*
X103414285Y-122873809D01*
X103414285Y-123111904D01*
X103461904Y-123207142D01*
X103509523Y-123254761D01*
X103604761Y-123302380D01*
X103890476Y-123302380D01*
X103985714Y-123254761D01*
X104033333Y-123207142D01*
X109128571Y-124385714D02*
X109128571Y-125052380D01*
X109366666Y-124004761D02*
X109604761Y-124719047D01*
X108985714Y-124719047D01*
X108604761Y-124957142D02*
X108557142Y-125004761D01*
X108604761Y-125052380D01*
X108652380Y-125004761D01*
X108604761Y-124957142D01*
X108604761Y-125052380D01*
X108223809Y-124052380D02*
X107557142Y-124052380D01*
X107985714Y-125052380D01*
X107176190Y-125052380D02*
X107176190Y-124052380D01*
X107080952Y-124671428D02*
X106795238Y-125052380D01*
X106795238Y-124385714D02*
X107176190Y-124766666D01*
G04 #@! TO.C,R4*
X104366666Y-126732380D02*
X104700000Y-126256190D01*
X104938095Y-126732380D02*
X104938095Y-125732380D01*
X104557142Y-125732380D01*
X104461904Y-125780000D01*
X104414285Y-125827619D01*
X104366666Y-125922857D01*
X104366666Y-126065714D01*
X104414285Y-126160952D01*
X104461904Y-126208571D01*
X104557142Y-126256190D01*
X104938095Y-126256190D01*
X103509523Y-126065714D02*
X103509523Y-126732380D01*
X103747619Y-125684761D02*
X103985714Y-126399047D01*
X103366666Y-126399047D01*
X105604761Y-129897619D02*
X105557142Y-129850000D01*
X105461904Y-129802380D01*
X105223809Y-129802380D01*
X105128571Y-129850000D01*
X105080952Y-129897619D01*
X105033333Y-129992857D01*
X105033333Y-130088095D01*
X105080952Y-130230952D01*
X105652380Y-130802380D01*
X105033333Y-130802380D01*
X104604761Y-130707142D02*
X104557142Y-130754761D01*
X104604761Y-130802380D01*
X104652380Y-130754761D01*
X104604761Y-130707142D01*
X104604761Y-130802380D01*
X104176190Y-129897619D02*
X104128571Y-129850000D01*
X104033333Y-129802380D01*
X103795238Y-129802380D01*
X103700000Y-129850000D01*
X103652380Y-129897619D01*
X103604761Y-129992857D01*
X103604761Y-130088095D01*
X103652380Y-130230952D01*
X104223809Y-130802380D01*
X103604761Y-130802380D01*
X103176190Y-130802380D02*
X103176190Y-129802380D01*
X103080952Y-130421428D02*
X102795238Y-130802380D01*
X102795238Y-130135714D02*
X103176190Y-130516666D01*
G04 #@! TO.C,R6*
X110866666Y-129232380D02*
X111200000Y-128756190D01*
X111438095Y-129232380D02*
X111438095Y-128232380D01*
X111057142Y-128232380D01*
X110961904Y-128280000D01*
X110914285Y-128327619D01*
X110866666Y-128422857D01*
X110866666Y-128565714D01*
X110914285Y-128660952D01*
X110961904Y-128708571D01*
X111057142Y-128756190D01*
X111438095Y-128756190D01*
X110009523Y-128232380D02*
X110200000Y-128232380D01*
X110295238Y-128280000D01*
X110342857Y-128327619D01*
X110438095Y-128470476D01*
X110485714Y-128660952D01*
X110485714Y-129041904D01*
X110438095Y-129137142D01*
X110390476Y-129184761D01*
X110295238Y-129232380D01*
X110104761Y-129232380D01*
X110009523Y-129184761D01*
X109961904Y-129137142D01*
X109914285Y-129041904D01*
X109914285Y-128803809D01*
X109961904Y-128708571D01*
X110009523Y-128660952D01*
X110104761Y-128613333D01*
X110295238Y-128613333D01*
X110390476Y-128660952D01*
X110438095Y-128708571D01*
X110485714Y-128803809D01*
X110819047Y-132872380D02*
X111390476Y-132872380D01*
X111104761Y-132872380D02*
X111104761Y-131872380D01*
X111200000Y-132015238D01*
X111295238Y-132110476D01*
X111390476Y-132158095D01*
X110390476Y-132872380D02*
X110390476Y-131872380D01*
X110295238Y-132491428D02*
X110009523Y-132872380D01*
X110009523Y-132205714D02*
X110390476Y-132586666D01*
G04 #@! TD*
M02*
