G04 #@! TF.GenerationSoftware,KiCad,Pcbnew,(5.1.8)-1*
G04 #@! TF.CreationDate,2020-12-08T15:00:02-05:00*
G04 #@! TF.ProjectId,megadesk,6d656761-6465-4736-9b2e-6b696361645f,rev?*
G04 #@! TF.SameCoordinates,Original*
G04 #@! TF.FileFunction,Copper,L2,Bot*
G04 #@! TF.FilePolarity,Positive*
%FSLAX46Y46*%
G04 Gerber Fmt 4.6, Leading zero omitted, Abs format (unit mm)*
G04 Created by KiCad (PCBNEW (5.1.8)-1) date 2020-12-08 15:00:02*
%MOMM*%
%LPD*%
G01*
G04 APERTURE LIST*
G04 #@! TA.AperFunction,ComponentPad*
%ADD10R,1.700000X1.700000*%
G04 #@! TD*
G04 #@! TA.AperFunction,ComponentPad*
%ADD11O,1.700000X1.700000*%
G04 #@! TD*
G04 #@! TA.AperFunction,ViaPad*
%ADD12C,0.450000*%
G04 #@! TD*
G04 #@! TA.AperFunction,Conductor*
%ADD13C,0.250000*%
G04 #@! TD*
G04 #@! TA.AperFunction,Conductor*
%ADD14C,0.254000*%
G04 #@! TD*
G04 #@! TA.AperFunction,Conductor*
%ADD15C,0.100000*%
G04 #@! TD*
G04 APERTURE END LIST*
D10*
X119800000Y-113200000D03*
D11*
X119800000Y-115740000D03*
X117260000Y-113200000D03*
X117260000Y-115740000D03*
X114720000Y-113200000D03*
X114720000Y-115740000D03*
D10*
X121600000Y-127300000D03*
D11*
X119060000Y-127300000D03*
X116520000Y-127300000D03*
D12*
X102700000Y-123200000D03*
X101630000Y-127400000D03*
X106480000Y-127400000D03*
X114700000Y-123600000D03*
X112500000Y-115900000D03*
X109800000Y-116000000D03*
X130300000Y-118100000D03*
X131700000Y-129600000D03*
X131700000Y-130600000D03*
X131700000Y-131600000D03*
X131700000Y-132600000D03*
X131700000Y-133600000D03*
X131700000Y-134600000D03*
X131700000Y-135600000D03*
X130700000Y-129600000D03*
X130700000Y-130600000D03*
X130700000Y-131600000D03*
X130700000Y-132600000D03*
X130700000Y-133600000D03*
X130700000Y-134600000D03*
X130700000Y-135600000D03*
X108900000Y-120000000D03*
X114500000Y-121500000D03*
X107700000Y-131600000D03*
X107700000Y-132600000D03*
X107700000Y-133600000D03*
X107700000Y-134600000D03*
X108700000Y-131600000D03*
X108700000Y-132600000D03*
X108700000Y-133600000D03*
X108700000Y-134600000D03*
X108700000Y-135600000D03*
X107700000Y-135600000D03*
X128000000Y-109300000D03*
X132800000Y-115700000D03*
X118700000Y-119600000D03*
X121800000Y-121600000D03*
X111800000Y-132300000D03*
X127570000Y-130840000D03*
X113000000Y-129100000D03*
X109600000Y-114100000D03*
X110000000Y-112600000D03*
X104900000Y-114200000D03*
X104900000Y-110400000D03*
X137800000Y-127500000D03*
X107700000Y-124600000D03*
X127600000Y-128600000D03*
X120036000Y-125555000D03*
X110300000Y-109000000D03*
X117400000Y-109000000D03*
X117800000Y-110200000D03*
X110200000Y-110400000D03*
X120100000Y-120700000D03*
X110400000Y-122899994D03*
X131400000Y-106900000D03*
X105300000Y-107900000D03*
X130500000Y-107700000D03*
X105500000Y-109100000D03*
X123700000Y-118100000D03*
X101400000Y-117300000D03*
D13*
X103100000Y-123600000D02*
X102700000Y-123200000D01*
X114700000Y-123600000D02*
X103100000Y-123600000D01*
X101630000Y-127400000D02*
X106480000Y-127400000D01*
X126110000Y-132300000D02*
X127570000Y-130840000D01*
X111800000Y-132300000D02*
X126110000Y-132300000D01*
X116520000Y-127300000D02*
X114800000Y-127300000D01*
X114800000Y-127300000D02*
X113000000Y-129100000D01*
X118435001Y-114564999D02*
X119800000Y-113200000D01*
X110064999Y-114564999D02*
X118435001Y-114564999D01*
X109600000Y-114100000D02*
X110064999Y-114564999D01*
X116084999Y-112024999D02*
X117260000Y-113200000D01*
X110575001Y-112024999D02*
X116084999Y-112024999D01*
X110000000Y-112600000D02*
X110575001Y-112024999D01*
X116430002Y-117200000D02*
X117260000Y-116370002D01*
X107900000Y-117200000D02*
X116430002Y-117200000D01*
X117260000Y-116370002D02*
X117260000Y-115740000D01*
X104900000Y-114200000D02*
X107900000Y-117200000D01*
X107700000Y-113200000D02*
X114720000Y-113200000D01*
X104900000Y-110400000D02*
X107700000Y-113200000D01*
X136700000Y-128600000D02*
X127600000Y-128600000D01*
X137800000Y-127500000D02*
X136700000Y-128600000D01*
X119081000Y-124600000D02*
X120036000Y-125555000D01*
X107700000Y-124600000D02*
X119081000Y-124600000D01*
X110300000Y-109000000D02*
X117400000Y-109000000D01*
X110400000Y-110200000D02*
X110200000Y-110400000D01*
X117800000Y-110200000D02*
X110400000Y-110200000D01*
X120100000Y-120700000D02*
X117900006Y-122899994D01*
X117900006Y-122899994D02*
X110400000Y-122899994D01*
X106300000Y-106900000D02*
X105300000Y-107900000D01*
X131400000Y-106900000D02*
X106300000Y-106900000D01*
X106900000Y-107700000D02*
X105500000Y-109100000D01*
X130500000Y-107700000D02*
X106900000Y-107700000D01*
X123700000Y-118100000D02*
X102200000Y-118100000D01*
X102200000Y-118100000D02*
X101400000Y-117300000D01*
D14*
X140240000Y-136640000D02*
X99410000Y-136640000D01*
X99410000Y-132215297D01*
X110940000Y-132215297D01*
X110940000Y-132384703D01*
X110973049Y-132550853D01*
X111037878Y-132707363D01*
X111131995Y-132848218D01*
X111251782Y-132968005D01*
X111392637Y-133062122D01*
X111549147Y-133126951D01*
X111715297Y-133160000D01*
X111884703Y-133160000D01*
X112050853Y-133126951D01*
X112207363Y-133062122D01*
X112210539Y-133060000D01*
X126072678Y-133060000D01*
X126110000Y-133063676D01*
X126147322Y-133060000D01*
X126147333Y-133060000D01*
X126258986Y-133049003D01*
X126402247Y-133005546D01*
X126534276Y-132934974D01*
X126650001Y-132840001D01*
X126673804Y-132810997D01*
X127817105Y-131667696D01*
X127820853Y-131666951D01*
X127977363Y-131602122D01*
X128118218Y-131508005D01*
X128238005Y-131388218D01*
X128332122Y-131247363D01*
X128396951Y-131090853D01*
X128430000Y-130924703D01*
X128430000Y-130755297D01*
X128396951Y-130589147D01*
X128332122Y-130432637D01*
X128238005Y-130291782D01*
X128118218Y-130171995D01*
X127977363Y-130077878D01*
X127820853Y-130013049D01*
X127654703Y-129980000D01*
X127485297Y-129980000D01*
X127319147Y-130013049D01*
X127162637Y-130077878D01*
X127021782Y-130171995D01*
X126901995Y-130291782D01*
X126807878Y-130432637D01*
X126743049Y-130589147D01*
X126742304Y-130592895D01*
X125795199Y-131540000D01*
X112210539Y-131540000D01*
X112207363Y-131537878D01*
X112050853Y-131473049D01*
X111884703Y-131440000D01*
X111715297Y-131440000D01*
X111549147Y-131473049D01*
X111392637Y-131537878D01*
X111251782Y-131631995D01*
X111131995Y-131751782D01*
X111037878Y-131892637D01*
X110973049Y-132049147D01*
X110940000Y-132215297D01*
X99410000Y-132215297D01*
X99410000Y-129015297D01*
X112140000Y-129015297D01*
X112140000Y-129184703D01*
X112173049Y-129350853D01*
X112237878Y-129507363D01*
X112331995Y-129648218D01*
X112451782Y-129768005D01*
X112592637Y-129862122D01*
X112749147Y-129926951D01*
X112915297Y-129960000D01*
X113084703Y-129960000D01*
X113250853Y-129926951D01*
X113407363Y-129862122D01*
X113548218Y-129768005D01*
X113668005Y-129648218D01*
X113762122Y-129507363D01*
X113826951Y-129350853D01*
X113827697Y-129347105D01*
X115114803Y-128060000D01*
X115241822Y-128060000D01*
X115366525Y-128246632D01*
X115573368Y-128453475D01*
X115816589Y-128615990D01*
X116086842Y-128727932D01*
X116373740Y-128785000D01*
X116666260Y-128785000D01*
X116953158Y-128727932D01*
X117223411Y-128615990D01*
X117466632Y-128453475D01*
X117673475Y-128246632D01*
X117795195Y-128064466D01*
X117864822Y-128181355D01*
X118059731Y-128397588D01*
X118293080Y-128571641D01*
X118555901Y-128696825D01*
X118703110Y-128741476D01*
X118933000Y-128620155D01*
X118933000Y-127427000D01*
X118913000Y-127427000D01*
X118913000Y-127173000D01*
X118933000Y-127173000D01*
X118933000Y-125979845D01*
X118703110Y-125858524D01*
X118555901Y-125903175D01*
X118293080Y-126028359D01*
X118059731Y-126202412D01*
X117864822Y-126418645D01*
X117795195Y-126535534D01*
X117673475Y-126353368D01*
X117466632Y-126146525D01*
X117223411Y-125984010D01*
X116953158Y-125872068D01*
X116666260Y-125815000D01*
X116373740Y-125815000D01*
X116086842Y-125872068D01*
X115816589Y-125984010D01*
X115573368Y-126146525D01*
X115366525Y-126353368D01*
X115241822Y-126540000D01*
X114837322Y-126540000D01*
X114799999Y-126536324D01*
X114762676Y-126540000D01*
X114762667Y-126540000D01*
X114651014Y-126550997D01*
X114507753Y-126594454D01*
X114375724Y-126665026D01*
X114375722Y-126665027D01*
X114375723Y-126665027D01*
X114288996Y-126736201D01*
X114288992Y-126736205D01*
X114259999Y-126759999D01*
X114236205Y-126788992D01*
X112752895Y-128272303D01*
X112749147Y-128273049D01*
X112592637Y-128337878D01*
X112451782Y-128431995D01*
X112331995Y-128551782D01*
X112237878Y-128692637D01*
X112173049Y-128849147D01*
X112140000Y-129015297D01*
X99410000Y-129015297D01*
X99410000Y-127315297D01*
X100770000Y-127315297D01*
X100770000Y-127484703D01*
X100803049Y-127650853D01*
X100867878Y-127807363D01*
X100961995Y-127948218D01*
X101081782Y-128068005D01*
X101222637Y-128162122D01*
X101379147Y-128226951D01*
X101545297Y-128260000D01*
X101714703Y-128260000D01*
X101880853Y-128226951D01*
X102037363Y-128162122D01*
X102040539Y-128160000D01*
X106069461Y-128160000D01*
X106072637Y-128162122D01*
X106229147Y-128226951D01*
X106395297Y-128260000D01*
X106564703Y-128260000D01*
X106730853Y-128226951D01*
X106887363Y-128162122D01*
X107028218Y-128068005D01*
X107148005Y-127948218D01*
X107242122Y-127807363D01*
X107306951Y-127650853D01*
X107340000Y-127484703D01*
X107340000Y-127315297D01*
X107306951Y-127149147D01*
X107242122Y-126992637D01*
X107148005Y-126851782D01*
X107028218Y-126731995D01*
X106887363Y-126637878D01*
X106730853Y-126573049D01*
X106564703Y-126540000D01*
X106395297Y-126540000D01*
X106229147Y-126573049D01*
X106072637Y-126637878D01*
X106069461Y-126640000D01*
X102040539Y-126640000D01*
X102037363Y-126637878D01*
X101880853Y-126573049D01*
X101714703Y-126540000D01*
X101545297Y-126540000D01*
X101379147Y-126573049D01*
X101222637Y-126637878D01*
X101081782Y-126731995D01*
X100961995Y-126851782D01*
X100867878Y-126992637D01*
X100803049Y-127149147D01*
X100770000Y-127315297D01*
X99410000Y-127315297D01*
X99410000Y-123115297D01*
X101840000Y-123115297D01*
X101840000Y-123284703D01*
X101873049Y-123450853D01*
X101937878Y-123607363D01*
X102031995Y-123748218D01*
X102151782Y-123868005D01*
X102292637Y-123962122D01*
X102449147Y-124026951D01*
X102452895Y-124027696D01*
X102536200Y-124111002D01*
X102559999Y-124140001D01*
X102675724Y-124234974D01*
X102807753Y-124305546D01*
X102951014Y-124349003D01*
X103062667Y-124360000D01*
X103062676Y-124360000D01*
X103099999Y-124363676D01*
X103137322Y-124360000D01*
X106870890Y-124360000D01*
X106840000Y-124515297D01*
X106840000Y-124684703D01*
X106873049Y-124850853D01*
X106937878Y-125007363D01*
X107031995Y-125148218D01*
X107151782Y-125268005D01*
X107292637Y-125362122D01*
X107449147Y-125426951D01*
X107615297Y-125460000D01*
X107784703Y-125460000D01*
X107950853Y-125426951D01*
X108107363Y-125362122D01*
X108110539Y-125360000D01*
X118766199Y-125360000D01*
X119208304Y-125802105D01*
X119209049Y-125805853D01*
X119264236Y-125939085D01*
X119187000Y-125979845D01*
X119187000Y-127173000D01*
X119207000Y-127173000D01*
X119207000Y-127427000D01*
X119187000Y-127427000D01*
X119187000Y-128620155D01*
X119416890Y-128741476D01*
X119564099Y-128696825D01*
X119826920Y-128571641D01*
X120060269Y-128397588D01*
X120136034Y-128313534D01*
X120160498Y-128394180D01*
X120219463Y-128504494D01*
X120298815Y-128601185D01*
X120395506Y-128680537D01*
X120505820Y-128739502D01*
X120625518Y-128775812D01*
X120750000Y-128788072D01*
X122450000Y-128788072D01*
X122574482Y-128775812D01*
X122694180Y-128739502D01*
X122804494Y-128680537D01*
X122901185Y-128601185D01*
X122971671Y-128515297D01*
X126740000Y-128515297D01*
X126740000Y-128684703D01*
X126773049Y-128850853D01*
X126837878Y-129007363D01*
X126931995Y-129148218D01*
X127051782Y-129268005D01*
X127192637Y-129362122D01*
X127349147Y-129426951D01*
X127515297Y-129460000D01*
X127684703Y-129460000D01*
X127850853Y-129426951D01*
X128007363Y-129362122D01*
X128010539Y-129360000D01*
X136662678Y-129360000D01*
X136700000Y-129363676D01*
X136737322Y-129360000D01*
X136737333Y-129360000D01*
X136848986Y-129349003D01*
X136992247Y-129305546D01*
X137124276Y-129234974D01*
X137240001Y-129140001D01*
X137263804Y-129110998D01*
X138047105Y-128327696D01*
X138050853Y-128326951D01*
X138207363Y-128262122D01*
X138348218Y-128168005D01*
X138468005Y-128048218D01*
X138562122Y-127907363D01*
X138626951Y-127750853D01*
X138660000Y-127584703D01*
X138660000Y-127415297D01*
X138626951Y-127249147D01*
X138562122Y-127092637D01*
X138468005Y-126951782D01*
X138348218Y-126831995D01*
X138207363Y-126737878D01*
X138050853Y-126673049D01*
X137884703Y-126640000D01*
X137715297Y-126640000D01*
X137549147Y-126673049D01*
X137392637Y-126737878D01*
X137251782Y-126831995D01*
X137131995Y-126951782D01*
X137037878Y-127092637D01*
X136973049Y-127249147D01*
X136972304Y-127252895D01*
X136385199Y-127840000D01*
X128010539Y-127840000D01*
X128007363Y-127837878D01*
X127850853Y-127773049D01*
X127684703Y-127740000D01*
X127515297Y-127740000D01*
X127349147Y-127773049D01*
X127192637Y-127837878D01*
X127051782Y-127931995D01*
X126931995Y-128051782D01*
X126837878Y-128192637D01*
X126773049Y-128349147D01*
X126740000Y-128515297D01*
X122971671Y-128515297D01*
X122980537Y-128504494D01*
X123039502Y-128394180D01*
X123075812Y-128274482D01*
X123088072Y-128150000D01*
X123088072Y-126450000D01*
X123075812Y-126325518D01*
X123039502Y-126205820D01*
X122980537Y-126095506D01*
X122901185Y-125998815D01*
X122804494Y-125919463D01*
X122694180Y-125860498D01*
X122574482Y-125824188D01*
X122450000Y-125811928D01*
X120860435Y-125811928D01*
X120862951Y-125805853D01*
X120896000Y-125639703D01*
X120896000Y-125470297D01*
X120862951Y-125304147D01*
X120798122Y-125147637D01*
X120704005Y-125006782D01*
X120584218Y-124886995D01*
X120443363Y-124792878D01*
X120286853Y-124728049D01*
X120283105Y-124727304D01*
X119644804Y-124089002D01*
X119621001Y-124059999D01*
X119505276Y-123965026D01*
X119373247Y-123894454D01*
X119229986Y-123850997D01*
X119118333Y-123840000D01*
X119118322Y-123840000D01*
X119081000Y-123836324D01*
X119043678Y-123840000D01*
X115529110Y-123840000D01*
X115560000Y-123684703D01*
X115560000Y-123659994D01*
X117862684Y-123659994D01*
X117900006Y-123663670D01*
X117937328Y-123659994D01*
X117937339Y-123659994D01*
X118048992Y-123648997D01*
X118192253Y-123605540D01*
X118324282Y-123534968D01*
X118440007Y-123439995D01*
X118463810Y-123410991D01*
X120347105Y-121527696D01*
X120350853Y-121526951D01*
X120507363Y-121462122D01*
X120648218Y-121368005D01*
X120768005Y-121248218D01*
X120862122Y-121107363D01*
X120926951Y-120950853D01*
X120960000Y-120784703D01*
X120960000Y-120615297D01*
X120926951Y-120449147D01*
X120862122Y-120292637D01*
X120768005Y-120151782D01*
X120648218Y-120031995D01*
X120507363Y-119937878D01*
X120350853Y-119873049D01*
X120184703Y-119840000D01*
X120015297Y-119840000D01*
X119849147Y-119873049D01*
X119692637Y-119937878D01*
X119551782Y-120031995D01*
X119431995Y-120151782D01*
X119337878Y-120292637D01*
X119273049Y-120449147D01*
X119272304Y-120452895D01*
X117585205Y-122139994D01*
X110810539Y-122139994D01*
X110807363Y-122137872D01*
X110650853Y-122073043D01*
X110484703Y-122039994D01*
X110315297Y-122039994D01*
X110149147Y-122073043D01*
X109992637Y-122137872D01*
X109851782Y-122231989D01*
X109731995Y-122351776D01*
X109637878Y-122492631D01*
X109573049Y-122649141D01*
X109540000Y-122815291D01*
X109540000Y-122840000D01*
X103481741Y-122840000D01*
X103462122Y-122792637D01*
X103368005Y-122651782D01*
X103248218Y-122531995D01*
X103107363Y-122437878D01*
X102950853Y-122373049D01*
X102784703Y-122340000D01*
X102615297Y-122340000D01*
X102449147Y-122373049D01*
X102292637Y-122437878D01*
X102151782Y-122531995D01*
X102031995Y-122651782D01*
X101937878Y-122792637D01*
X101873049Y-122949147D01*
X101840000Y-123115297D01*
X99410000Y-123115297D01*
X99410000Y-117215297D01*
X100540000Y-117215297D01*
X100540000Y-117384703D01*
X100573049Y-117550853D01*
X100637878Y-117707363D01*
X100731995Y-117848218D01*
X100851782Y-117968005D01*
X100992637Y-118062122D01*
X101149147Y-118126951D01*
X101152895Y-118127697D01*
X101636201Y-118611002D01*
X101659999Y-118640001D01*
X101775724Y-118734974D01*
X101907753Y-118805546D01*
X102051014Y-118849003D01*
X102162667Y-118860000D01*
X102162677Y-118860000D01*
X102200000Y-118863676D01*
X102237323Y-118860000D01*
X123289461Y-118860000D01*
X123292637Y-118862122D01*
X123449147Y-118926951D01*
X123615297Y-118960000D01*
X123784703Y-118960000D01*
X123950853Y-118926951D01*
X124107363Y-118862122D01*
X124248218Y-118768005D01*
X124368005Y-118648218D01*
X124462122Y-118507363D01*
X124526951Y-118350853D01*
X124560000Y-118184703D01*
X124560000Y-118015297D01*
X124526951Y-117849147D01*
X124462122Y-117692637D01*
X124368005Y-117551782D01*
X124248218Y-117431995D01*
X124107363Y-117337878D01*
X123950853Y-117273049D01*
X123784703Y-117240000D01*
X123615297Y-117240000D01*
X123449147Y-117273049D01*
X123292637Y-117337878D01*
X123289461Y-117340000D01*
X117364804Y-117340000D01*
X117498066Y-117206739D01*
X117693158Y-117167932D01*
X117963411Y-117055990D01*
X118206632Y-116893475D01*
X118413475Y-116686632D01*
X118530000Y-116512240D01*
X118646525Y-116686632D01*
X118853368Y-116893475D01*
X119096589Y-117055990D01*
X119366842Y-117167932D01*
X119653740Y-117225000D01*
X119946260Y-117225000D01*
X120233158Y-117167932D01*
X120503411Y-117055990D01*
X120746632Y-116893475D01*
X120953475Y-116686632D01*
X121115990Y-116443411D01*
X121227932Y-116173158D01*
X121285000Y-115886260D01*
X121285000Y-115593740D01*
X121227932Y-115306842D01*
X121115990Y-115036589D01*
X120953475Y-114793368D01*
X120821620Y-114661513D01*
X120894180Y-114639502D01*
X121004494Y-114580537D01*
X121101185Y-114501185D01*
X121180537Y-114404494D01*
X121239502Y-114294180D01*
X121275812Y-114174482D01*
X121288072Y-114050000D01*
X121288072Y-112350000D01*
X121275812Y-112225518D01*
X121239502Y-112105820D01*
X121180537Y-111995506D01*
X121101185Y-111898815D01*
X121004494Y-111819463D01*
X120894180Y-111760498D01*
X120774482Y-111724188D01*
X120650000Y-111711928D01*
X118950000Y-111711928D01*
X118825518Y-111724188D01*
X118705820Y-111760498D01*
X118595506Y-111819463D01*
X118498815Y-111898815D01*
X118419463Y-111995506D01*
X118360498Y-112105820D01*
X118338487Y-112178380D01*
X118206632Y-112046525D01*
X117963411Y-111884010D01*
X117693158Y-111772068D01*
X117406260Y-111715000D01*
X117113740Y-111715000D01*
X116893592Y-111758791D01*
X116648803Y-111514002D01*
X116625000Y-111484998D01*
X116509275Y-111390025D01*
X116377246Y-111319453D01*
X116233985Y-111275996D01*
X116122332Y-111264999D01*
X116122321Y-111264999D01*
X116084999Y-111261323D01*
X116047677Y-111264999D01*
X110612323Y-111264999D01*
X110575000Y-111261323D01*
X110537677Y-111264999D01*
X110537668Y-111264999D01*
X110426015Y-111275996D01*
X110282754Y-111319453D01*
X110150725Y-111390025D01*
X110035000Y-111484998D01*
X110011201Y-111513997D01*
X109752895Y-111772303D01*
X109749147Y-111773049D01*
X109592637Y-111837878D01*
X109451782Y-111931995D01*
X109331995Y-112051782D01*
X109237878Y-112192637D01*
X109173049Y-112349147D01*
X109154977Y-112440000D01*
X108014802Y-112440000D01*
X105727697Y-110152896D01*
X105726951Y-110149147D01*
X105662122Y-109992637D01*
X105633790Y-109950236D01*
X105750853Y-109926951D01*
X105907363Y-109862122D01*
X106048218Y-109768005D01*
X106168005Y-109648218D01*
X106262122Y-109507363D01*
X106326951Y-109350853D01*
X106327697Y-109347105D01*
X107214802Y-108460000D01*
X109626504Y-108460000D01*
X109537878Y-108592637D01*
X109473049Y-108749147D01*
X109440000Y-108915297D01*
X109440000Y-109084703D01*
X109473049Y-109250853D01*
X109537878Y-109407363D01*
X109631995Y-109548218D01*
X109750087Y-109666310D01*
X109651782Y-109731995D01*
X109531995Y-109851782D01*
X109437878Y-109992637D01*
X109373049Y-110149147D01*
X109340000Y-110315297D01*
X109340000Y-110484703D01*
X109373049Y-110650853D01*
X109437878Y-110807363D01*
X109531995Y-110948218D01*
X109651782Y-111068005D01*
X109792637Y-111162122D01*
X109949147Y-111226951D01*
X110115297Y-111260000D01*
X110284703Y-111260000D01*
X110450853Y-111226951D01*
X110607363Y-111162122D01*
X110748218Y-111068005D01*
X110856223Y-110960000D01*
X117389461Y-110960000D01*
X117392637Y-110962122D01*
X117549147Y-111026951D01*
X117715297Y-111060000D01*
X117884703Y-111060000D01*
X118050853Y-111026951D01*
X118207363Y-110962122D01*
X118348218Y-110868005D01*
X118468005Y-110748218D01*
X118562122Y-110607363D01*
X118626951Y-110450853D01*
X118660000Y-110284703D01*
X118660000Y-110115297D01*
X118626951Y-109949147D01*
X118562122Y-109792637D01*
X118468005Y-109651782D01*
X118348218Y-109531995D01*
X118207363Y-109437878D01*
X118155959Y-109416586D01*
X118162122Y-109407363D01*
X118226951Y-109250853D01*
X118260000Y-109084703D01*
X118260000Y-108915297D01*
X118226951Y-108749147D01*
X118162122Y-108592637D01*
X118073496Y-108460000D01*
X130089461Y-108460000D01*
X130092637Y-108462122D01*
X130249147Y-108526951D01*
X130415297Y-108560000D01*
X130584703Y-108560000D01*
X130750853Y-108526951D01*
X130907363Y-108462122D01*
X131048218Y-108368005D01*
X131168005Y-108248218D01*
X131262122Y-108107363D01*
X131326951Y-107950853D01*
X131360000Y-107784703D01*
X131360000Y-107760000D01*
X131484703Y-107760000D01*
X131650853Y-107726951D01*
X131807363Y-107662122D01*
X131948218Y-107568005D01*
X132068005Y-107448218D01*
X132162122Y-107307363D01*
X132226951Y-107150853D01*
X132260000Y-106984703D01*
X132260000Y-106815297D01*
X132226951Y-106649147D01*
X132162122Y-106492637D01*
X132068005Y-106351782D01*
X131948218Y-106231995D01*
X131807363Y-106137878D01*
X131650853Y-106073049D01*
X131484703Y-106040000D01*
X131315297Y-106040000D01*
X131149147Y-106073049D01*
X130992637Y-106137878D01*
X130989461Y-106140000D01*
X106337333Y-106140000D01*
X106300000Y-106136323D01*
X106262667Y-106140000D01*
X106151014Y-106150997D01*
X106007753Y-106194454D01*
X105875724Y-106265026D01*
X105759999Y-106359999D01*
X105736201Y-106388997D01*
X105052895Y-107072303D01*
X105049147Y-107073049D01*
X104892637Y-107137878D01*
X104751782Y-107231995D01*
X104631995Y-107351782D01*
X104537878Y-107492637D01*
X104473049Y-107649147D01*
X104440000Y-107815297D01*
X104440000Y-107984703D01*
X104473049Y-108150853D01*
X104537878Y-108307363D01*
X104631995Y-108448218D01*
X104751782Y-108568005D01*
X104799742Y-108600051D01*
X104737878Y-108692637D01*
X104673049Y-108849147D01*
X104640000Y-109015297D01*
X104640000Y-109184703D01*
X104673049Y-109350853D01*
X104737878Y-109507363D01*
X104766210Y-109549764D01*
X104649147Y-109573049D01*
X104492637Y-109637878D01*
X104351782Y-109731995D01*
X104231995Y-109851782D01*
X104137878Y-109992637D01*
X104073049Y-110149147D01*
X104040000Y-110315297D01*
X104040000Y-110484703D01*
X104073049Y-110650853D01*
X104137878Y-110807363D01*
X104231995Y-110948218D01*
X104351782Y-111068005D01*
X104492637Y-111162122D01*
X104649147Y-111226951D01*
X104652896Y-111227697D01*
X107136201Y-113711003D01*
X107159999Y-113740001D01*
X107188997Y-113763799D01*
X107275723Y-113834974D01*
X107302239Y-113849147D01*
X107407753Y-113905546D01*
X107551014Y-113949003D01*
X107662667Y-113960000D01*
X107662677Y-113960000D01*
X107700000Y-113963676D01*
X107737323Y-113960000D01*
X108750999Y-113960000D01*
X108740000Y-114015297D01*
X108740000Y-114184703D01*
X108773049Y-114350853D01*
X108837878Y-114507363D01*
X108931995Y-114648218D01*
X109051782Y-114768005D01*
X109192637Y-114862122D01*
X109349147Y-114926951D01*
X109352896Y-114927697D01*
X109501195Y-115075996D01*
X109524998Y-115105000D01*
X109598145Y-115165030D01*
X109640722Y-115199973D01*
X109772752Y-115270545D01*
X109916013Y-115314002D01*
X110027666Y-115324999D01*
X110027676Y-115324999D01*
X110064999Y-115328675D01*
X110102322Y-115324999D01*
X113299132Y-115324999D01*
X113278519Y-115383109D01*
X113399186Y-115613000D01*
X114593000Y-115613000D01*
X114593000Y-115593000D01*
X114847000Y-115593000D01*
X114847000Y-115613000D01*
X114867000Y-115613000D01*
X114867000Y-115867000D01*
X114847000Y-115867000D01*
X114847000Y-115887000D01*
X114593000Y-115887000D01*
X114593000Y-115867000D01*
X113399186Y-115867000D01*
X113278519Y-116096891D01*
X113375843Y-116371252D01*
X113416794Y-116440000D01*
X108214802Y-116440000D01*
X105727697Y-113952896D01*
X105726951Y-113949147D01*
X105662122Y-113792637D01*
X105568005Y-113651782D01*
X105448218Y-113531995D01*
X105307363Y-113437878D01*
X105150853Y-113373049D01*
X104984703Y-113340000D01*
X104815297Y-113340000D01*
X104649147Y-113373049D01*
X104492637Y-113437878D01*
X104351782Y-113531995D01*
X104231995Y-113651782D01*
X104137878Y-113792637D01*
X104073049Y-113949147D01*
X104040000Y-114115297D01*
X104040000Y-114284703D01*
X104073049Y-114450853D01*
X104137878Y-114607363D01*
X104231995Y-114748218D01*
X104351782Y-114868005D01*
X104492637Y-114962122D01*
X104649147Y-115026951D01*
X104652896Y-115027697D01*
X106965198Y-117340000D01*
X102514802Y-117340000D01*
X102227697Y-117052895D01*
X102226951Y-117049147D01*
X102162122Y-116892637D01*
X102068005Y-116751782D01*
X101948218Y-116631995D01*
X101807363Y-116537878D01*
X101650853Y-116473049D01*
X101484703Y-116440000D01*
X101315297Y-116440000D01*
X101149147Y-116473049D01*
X100992637Y-116537878D01*
X100851782Y-116631995D01*
X100731995Y-116751782D01*
X100637878Y-116892637D01*
X100573049Y-117049147D01*
X100540000Y-117215297D01*
X99410000Y-117215297D01*
X99410000Y-105310000D01*
X140240001Y-105310000D01*
X140240000Y-136640000D01*
G04 #@! TA.AperFunction,Conductor*
D15*
G36*
X140240000Y-136640000D02*
G01*
X99410000Y-136640000D01*
X99410000Y-132215297D01*
X110940000Y-132215297D01*
X110940000Y-132384703D01*
X110973049Y-132550853D01*
X111037878Y-132707363D01*
X111131995Y-132848218D01*
X111251782Y-132968005D01*
X111392637Y-133062122D01*
X111549147Y-133126951D01*
X111715297Y-133160000D01*
X111884703Y-133160000D01*
X112050853Y-133126951D01*
X112207363Y-133062122D01*
X112210539Y-133060000D01*
X126072678Y-133060000D01*
X126110000Y-133063676D01*
X126147322Y-133060000D01*
X126147333Y-133060000D01*
X126258986Y-133049003D01*
X126402247Y-133005546D01*
X126534276Y-132934974D01*
X126650001Y-132840001D01*
X126673804Y-132810997D01*
X127817105Y-131667696D01*
X127820853Y-131666951D01*
X127977363Y-131602122D01*
X128118218Y-131508005D01*
X128238005Y-131388218D01*
X128332122Y-131247363D01*
X128396951Y-131090853D01*
X128430000Y-130924703D01*
X128430000Y-130755297D01*
X128396951Y-130589147D01*
X128332122Y-130432637D01*
X128238005Y-130291782D01*
X128118218Y-130171995D01*
X127977363Y-130077878D01*
X127820853Y-130013049D01*
X127654703Y-129980000D01*
X127485297Y-129980000D01*
X127319147Y-130013049D01*
X127162637Y-130077878D01*
X127021782Y-130171995D01*
X126901995Y-130291782D01*
X126807878Y-130432637D01*
X126743049Y-130589147D01*
X126742304Y-130592895D01*
X125795199Y-131540000D01*
X112210539Y-131540000D01*
X112207363Y-131537878D01*
X112050853Y-131473049D01*
X111884703Y-131440000D01*
X111715297Y-131440000D01*
X111549147Y-131473049D01*
X111392637Y-131537878D01*
X111251782Y-131631995D01*
X111131995Y-131751782D01*
X111037878Y-131892637D01*
X110973049Y-132049147D01*
X110940000Y-132215297D01*
X99410000Y-132215297D01*
X99410000Y-129015297D01*
X112140000Y-129015297D01*
X112140000Y-129184703D01*
X112173049Y-129350853D01*
X112237878Y-129507363D01*
X112331995Y-129648218D01*
X112451782Y-129768005D01*
X112592637Y-129862122D01*
X112749147Y-129926951D01*
X112915297Y-129960000D01*
X113084703Y-129960000D01*
X113250853Y-129926951D01*
X113407363Y-129862122D01*
X113548218Y-129768005D01*
X113668005Y-129648218D01*
X113762122Y-129507363D01*
X113826951Y-129350853D01*
X113827697Y-129347105D01*
X115114803Y-128060000D01*
X115241822Y-128060000D01*
X115366525Y-128246632D01*
X115573368Y-128453475D01*
X115816589Y-128615990D01*
X116086842Y-128727932D01*
X116373740Y-128785000D01*
X116666260Y-128785000D01*
X116953158Y-128727932D01*
X117223411Y-128615990D01*
X117466632Y-128453475D01*
X117673475Y-128246632D01*
X117795195Y-128064466D01*
X117864822Y-128181355D01*
X118059731Y-128397588D01*
X118293080Y-128571641D01*
X118555901Y-128696825D01*
X118703110Y-128741476D01*
X118933000Y-128620155D01*
X118933000Y-127427000D01*
X118913000Y-127427000D01*
X118913000Y-127173000D01*
X118933000Y-127173000D01*
X118933000Y-125979845D01*
X118703110Y-125858524D01*
X118555901Y-125903175D01*
X118293080Y-126028359D01*
X118059731Y-126202412D01*
X117864822Y-126418645D01*
X117795195Y-126535534D01*
X117673475Y-126353368D01*
X117466632Y-126146525D01*
X117223411Y-125984010D01*
X116953158Y-125872068D01*
X116666260Y-125815000D01*
X116373740Y-125815000D01*
X116086842Y-125872068D01*
X115816589Y-125984010D01*
X115573368Y-126146525D01*
X115366525Y-126353368D01*
X115241822Y-126540000D01*
X114837322Y-126540000D01*
X114799999Y-126536324D01*
X114762676Y-126540000D01*
X114762667Y-126540000D01*
X114651014Y-126550997D01*
X114507753Y-126594454D01*
X114375724Y-126665026D01*
X114375722Y-126665027D01*
X114375723Y-126665027D01*
X114288996Y-126736201D01*
X114288992Y-126736205D01*
X114259999Y-126759999D01*
X114236205Y-126788992D01*
X112752895Y-128272303D01*
X112749147Y-128273049D01*
X112592637Y-128337878D01*
X112451782Y-128431995D01*
X112331995Y-128551782D01*
X112237878Y-128692637D01*
X112173049Y-128849147D01*
X112140000Y-129015297D01*
X99410000Y-129015297D01*
X99410000Y-127315297D01*
X100770000Y-127315297D01*
X100770000Y-127484703D01*
X100803049Y-127650853D01*
X100867878Y-127807363D01*
X100961995Y-127948218D01*
X101081782Y-128068005D01*
X101222637Y-128162122D01*
X101379147Y-128226951D01*
X101545297Y-128260000D01*
X101714703Y-128260000D01*
X101880853Y-128226951D01*
X102037363Y-128162122D01*
X102040539Y-128160000D01*
X106069461Y-128160000D01*
X106072637Y-128162122D01*
X106229147Y-128226951D01*
X106395297Y-128260000D01*
X106564703Y-128260000D01*
X106730853Y-128226951D01*
X106887363Y-128162122D01*
X107028218Y-128068005D01*
X107148005Y-127948218D01*
X107242122Y-127807363D01*
X107306951Y-127650853D01*
X107340000Y-127484703D01*
X107340000Y-127315297D01*
X107306951Y-127149147D01*
X107242122Y-126992637D01*
X107148005Y-126851782D01*
X107028218Y-126731995D01*
X106887363Y-126637878D01*
X106730853Y-126573049D01*
X106564703Y-126540000D01*
X106395297Y-126540000D01*
X106229147Y-126573049D01*
X106072637Y-126637878D01*
X106069461Y-126640000D01*
X102040539Y-126640000D01*
X102037363Y-126637878D01*
X101880853Y-126573049D01*
X101714703Y-126540000D01*
X101545297Y-126540000D01*
X101379147Y-126573049D01*
X101222637Y-126637878D01*
X101081782Y-126731995D01*
X100961995Y-126851782D01*
X100867878Y-126992637D01*
X100803049Y-127149147D01*
X100770000Y-127315297D01*
X99410000Y-127315297D01*
X99410000Y-123115297D01*
X101840000Y-123115297D01*
X101840000Y-123284703D01*
X101873049Y-123450853D01*
X101937878Y-123607363D01*
X102031995Y-123748218D01*
X102151782Y-123868005D01*
X102292637Y-123962122D01*
X102449147Y-124026951D01*
X102452895Y-124027696D01*
X102536200Y-124111002D01*
X102559999Y-124140001D01*
X102675724Y-124234974D01*
X102807753Y-124305546D01*
X102951014Y-124349003D01*
X103062667Y-124360000D01*
X103062676Y-124360000D01*
X103099999Y-124363676D01*
X103137322Y-124360000D01*
X106870890Y-124360000D01*
X106840000Y-124515297D01*
X106840000Y-124684703D01*
X106873049Y-124850853D01*
X106937878Y-125007363D01*
X107031995Y-125148218D01*
X107151782Y-125268005D01*
X107292637Y-125362122D01*
X107449147Y-125426951D01*
X107615297Y-125460000D01*
X107784703Y-125460000D01*
X107950853Y-125426951D01*
X108107363Y-125362122D01*
X108110539Y-125360000D01*
X118766199Y-125360000D01*
X119208304Y-125802105D01*
X119209049Y-125805853D01*
X119264236Y-125939085D01*
X119187000Y-125979845D01*
X119187000Y-127173000D01*
X119207000Y-127173000D01*
X119207000Y-127427000D01*
X119187000Y-127427000D01*
X119187000Y-128620155D01*
X119416890Y-128741476D01*
X119564099Y-128696825D01*
X119826920Y-128571641D01*
X120060269Y-128397588D01*
X120136034Y-128313534D01*
X120160498Y-128394180D01*
X120219463Y-128504494D01*
X120298815Y-128601185D01*
X120395506Y-128680537D01*
X120505820Y-128739502D01*
X120625518Y-128775812D01*
X120750000Y-128788072D01*
X122450000Y-128788072D01*
X122574482Y-128775812D01*
X122694180Y-128739502D01*
X122804494Y-128680537D01*
X122901185Y-128601185D01*
X122971671Y-128515297D01*
X126740000Y-128515297D01*
X126740000Y-128684703D01*
X126773049Y-128850853D01*
X126837878Y-129007363D01*
X126931995Y-129148218D01*
X127051782Y-129268005D01*
X127192637Y-129362122D01*
X127349147Y-129426951D01*
X127515297Y-129460000D01*
X127684703Y-129460000D01*
X127850853Y-129426951D01*
X128007363Y-129362122D01*
X128010539Y-129360000D01*
X136662678Y-129360000D01*
X136700000Y-129363676D01*
X136737322Y-129360000D01*
X136737333Y-129360000D01*
X136848986Y-129349003D01*
X136992247Y-129305546D01*
X137124276Y-129234974D01*
X137240001Y-129140001D01*
X137263804Y-129110998D01*
X138047105Y-128327696D01*
X138050853Y-128326951D01*
X138207363Y-128262122D01*
X138348218Y-128168005D01*
X138468005Y-128048218D01*
X138562122Y-127907363D01*
X138626951Y-127750853D01*
X138660000Y-127584703D01*
X138660000Y-127415297D01*
X138626951Y-127249147D01*
X138562122Y-127092637D01*
X138468005Y-126951782D01*
X138348218Y-126831995D01*
X138207363Y-126737878D01*
X138050853Y-126673049D01*
X137884703Y-126640000D01*
X137715297Y-126640000D01*
X137549147Y-126673049D01*
X137392637Y-126737878D01*
X137251782Y-126831995D01*
X137131995Y-126951782D01*
X137037878Y-127092637D01*
X136973049Y-127249147D01*
X136972304Y-127252895D01*
X136385199Y-127840000D01*
X128010539Y-127840000D01*
X128007363Y-127837878D01*
X127850853Y-127773049D01*
X127684703Y-127740000D01*
X127515297Y-127740000D01*
X127349147Y-127773049D01*
X127192637Y-127837878D01*
X127051782Y-127931995D01*
X126931995Y-128051782D01*
X126837878Y-128192637D01*
X126773049Y-128349147D01*
X126740000Y-128515297D01*
X122971671Y-128515297D01*
X122980537Y-128504494D01*
X123039502Y-128394180D01*
X123075812Y-128274482D01*
X123088072Y-128150000D01*
X123088072Y-126450000D01*
X123075812Y-126325518D01*
X123039502Y-126205820D01*
X122980537Y-126095506D01*
X122901185Y-125998815D01*
X122804494Y-125919463D01*
X122694180Y-125860498D01*
X122574482Y-125824188D01*
X122450000Y-125811928D01*
X120860435Y-125811928D01*
X120862951Y-125805853D01*
X120896000Y-125639703D01*
X120896000Y-125470297D01*
X120862951Y-125304147D01*
X120798122Y-125147637D01*
X120704005Y-125006782D01*
X120584218Y-124886995D01*
X120443363Y-124792878D01*
X120286853Y-124728049D01*
X120283105Y-124727304D01*
X119644804Y-124089002D01*
X119621001Y-124059999D01*
X119505276Y-123965026D01*
X119373247Y-123894454D01*
X119229986Y-123850997D01*
X119118333Y-123840000D01*
X119118322Y-123840000D01*
X119081000Y-123836324D01*
X119043678Y-123840000D01*
X115529110Y-123840000D01*
X115560000Y-123684703D01*
X115560000Y-123659994D01*
X117862684Y-123659994D01*
X117900006Y-123663670D01*
X117937328Y-123659994D01*
X117937339Y-123659994D01*
X118048992Y-123648997D01*
X118192253Y-123605540D01*
X118324282Y-123534968D01*
X118440007Y-123439995D01*
X118463810Y-123410991D01*
X120347105Y-121527696D01*
X120350853Y-121526951D01*
X120507363Y-121462122D01*
X120648218Y-121368005D01*
X120768005Y-121248218D01*
X120862122Y-121107363D01*
X120926951Y-120950853D01*
X120960000Y-120784703D01*
X120960000Y-120615297D01*
X120926951Y-120449147D01*
X120862122Y-120292637D01*
X120768005Y-120151782D01*
X120648218Y-120031995D01*
X120507363Y-119937878D01*
X120350853Y-119873049D01*
X120184703Y-119840000D01*
X120015297Y-119840000D01*
X119849147Y-119873049D01*
X119692637Y-119937878D01*
X119551782Y-120031995D01*
X119431995Y-120151782D01*
X119337878Y-120292637D01*
X119273049Y-120449147D01*
X119272304Y-120452895D01*
X117585205Y-122139994D01*
X110810539Y-122139994D01*
X110807363Y-122137872D01*
X110650853Y-122073043D01*
X110484703Y-122039994D01*
X110315297Y-122039994D01*
X110149147Y-122073043D01*
X109992637Y-122137872D01*
X109851782Y-122231989D01*
X109731995Y-122351776D01*
X109637878Y-122492631D01*
X109573049Y-122649141D01*
X109540000Y-122815291D01*
X109540000Y-122840000D01*
X103481741Y-122840000D01*
X103462122Y-122792637D01*
X103368005Y-122651782D01*
X103248218Y-122531995D01*
X103107363Y-122437878D01*
X102950853Y-122373049D01*
X102784703Y-122340000D01*
X102615297Y-122340000D01*
X102449147Y-122373049D01*
X102292637Y-122437878D01*
X102151782Y-122531995D01*
X102031995Y-122651782D01*
X101937878Y-122792637D01*
X101873049Y-122949147D01*
X101840000Y-123115297D01*
X99410000Y-123115297D01*
X99410000Y-117215297D01*
X100540000Y-117215297D01*
X100540000Y-117384703D01*
X100573049Y-117550853D01*
X100637878Y-117707363D01*
X100731995Y-117848218D01*
X100851782Y-117968005D01*
X100992637Y-118062122D01*
X101149147Y-118126951D01*
X101152895Y-118127697D01*
X101636201Y-118611002D01*
X101659999Y-118640001D01*
X101775724Y-118734974D01*
X101907753Y-118805546D01*
X102051014Y-118849003D01*
X102162667Y-118860000D01*
X102162677Y-118860000D01*
X102200000Y-118863676D01*
X102237323Y-118860000D01*
X123289461Y-118860000D01*
X123292637Y-118862122D01*
X123449147Y-118926951D01*
X123615297Y-118960000D01*
X123784703Y-118960000D01*
X123950853Y-118926951D01*
X124107363Y-118862122D01*
X124248218Y-118768005D01*
X124368005Y-118648218D01*
X124462122Y-118507363D01*
X124526951Y-118350853D01*
X124560000Y-118184703D01*
X124560000Y-118015297D01*
X124526951Y-117849147D01*
X124462122Y-117692637D01*
X124368005Y-117551782D01*
X124248218Y-117431995D01*
X124107363Y-117337878D01*
X123950853Y-117273049D01*
X123784703Y-117240000D01*
X123615297Y-117240000D01*
X123449147Y-117273049D01*
X123292637Y-117337878D01*
X123289461Y-117340000D01*
X117364804Y-117340000D01*
X117498066Y-117206739D01*
X117693158Y-117167932D01*
X117963411Y-117055990D01*
X118206632Y-116893475D01*
X118413475Y-116686632D01*
X118530000Y-116512240D01*
X118646525Y-116686632D01*
X118853368Y-116893475D01*
X119096589Y-117055990D01*
X119366842Y-117167932D01*
X119653740Y-117225000D01*
X119946260Y-117225000D01*
X120233158Y-117167932D01*
X120503411Y-117055990D01*
X120746632Y-116893475D01*
X120953475Y-116686632D01*
X121115990Y-116443411D01*
X121227932Y-116173158D01*
X121285000Y-115886260D01*
X121285000Y-115593740D01*
X121227932Y-115306842D01*
X121115990Y-115036589D01*
X120953475Y-114793368D01*
X120821620Y-114661513D01*
X120894180Y-114639502D01*
X121004494Y-114580537D01*
X121101185Y-114501185D01*
X121180537Y-114404494D01*
X121239502Y-114294180D01*
X121275812Y-114174482D01*
X121288072Y-114050000D01*
X121288072Y-112350000D01*
X121275812Y-112225518D01*
X121239502Y-112105820D01*
X121180537Y-111995506D01*
X121101185Y-111898815D01*
X121004494Y-111819463D01*
X120894180Y-111760498D01*
X120774482Y-111724188D01*
X120650000Y-111711928D01*
X118950000Y-111711928D01*
X118825518Y-111724188D01*
X118705820Y-111760498D01*
X118595506Y-111819463D01*
X118498815Y-111898815D01*
X118419463Y-111995506D01*
X118360498Y-112105820D01*
X118338487Y-112178380D01*
X118206632Y-112046525D01*
X117963411Y-111884010D01*
X117693158Y-111772068D01*
X117406260Y-111715000D01*
X117113740Y-111715000D01*
X116893592Y-111758791D01*
X116648803Y-111514002D01*
X116625000Y-111484998D01*
X116509275Y-111390025D01*
X116377246Y-111319453D01*
X116233985Y-111275996D01*
X116122332Y-111264999D01*
X116122321Y-111264999D01*
X116084999Y-111261323D01*
X116047677Y-111264999D01*
X110612323Y-111264999D01*
X110575000Y-111261323D01*
X110537677Y-111264999D01*
X110537668Y-111264999D01*
X110426015Y-111275996D01*
X110282754Y-111319453D01*
X110150725Y-111390025D01*
X110035000Y-111484998D01*
X110011201Y-111513997D01*
X109752895Y-111772303D01*
X109749147Y-111773049D01*
X109592637Y-111837878D01*
X109451782Y-111931995D01*
X109331995Y-112051782D01*
X109237878Y-112192637D01*
X109173049Y-112349147D01*
X109154977Y-112440000D01*
X108014802Y-112440000D01*
X105727697Y-110152896D01*
X105726951Y-110149147D01*
X105662122Y-109992637D01*
X105633790Y-109950236D01*
X105750853Y-109926951D01*
X105907363Y-109862122D01*
X106048218Y-109768005D01*
X106168005Y-109648218D01*
X106262122Y-109507363D01*
X106326951Y-109350853D01*
X106327697Y-109347105D01*
X107214802Y-108460000D01*
X109626504Y-108460000D01*
X109537878Y-108592637D01*
X109473049Y-108749147D01*
X109440000Y-108915297D01*
X109440000Y-109084703D01*
X109473049Y-109250853D01*
X109537878Y-109407363D01*
X109631995Y-109548218D01*
X109750087Y-109666310D01*
X109651782Y-109731995D01*
X109531995Y-109851782D01*
X109437878Y-109992637D01*
X109373049Y-110149147D01*
X109340000Y-110315297D01*
X109340000Y-110484703D01*
X109373049Y-110650853D01*
X109437878Y-110807363D01*
X109531995Y-110948218D01*
X109651782Y-111068005D01*
X109792637Y-111162122D01*
X109949147Y-111226951D01*
X110115297Y-111260000D01*
X110284703Y-111260000D01*
X110450853Y-111226951D01*
X110607363Y-111162122D01*
X110748218Y-111068005D01*
X110856223Y-110960000D01*
X117389461Y-110960000D01*
X117392637Y-110962122D01*
X117549147Y-111026951D01*
X117715297Y-111060000D01*
X117884703Y-111060000D01*
X118050853Y-111026951D01*
X118207363Y-110962122D01*
X118348218Y-110868005D01*
X118468005Y-110748218D01*
X118562122Y-110607363D01*
X118626951Y-110450853D01*
X118660000Y-110284703D01*
X118660000Y-110115297D01*
X118626951Y-109949147D01*
X118562122Y-109792637D01*
X118468005Y-109651782D01*
X118348218Y-109531995D01*
X118207363Y-109437878D01*
X118155959Y-109416586D01*
X118162122Y-109407363D01*
X118226951Y-109250853D01*
X118260000Y-109084703D01*
X118260000Y-108915297D01*
X118226951Y-108749147D01*
X118162122Y-108592637D01*
X118073496Y-108460000D01*
X130089461Y-108460000D01*
X130092637Y-108462122D01*
X130249147Y-108526951D01*
X130415297Y-108560000D01*
X130584703Y-108560000D01*
X130750853Y-108526951D01*
X130907363Y-108462122D01*
X131048218Y-108368005D01*
X131168005Y-108248218D01*
X131262122Y-108107363D01*
X131326951Y-107950853D01*
X131360000Y-107784703D01*
X131360000Y-107760000D01*
X131484703Y-107760000D01*
X131650853Y-107726951D01*
X131807363Y-107662122D01*
X131948218Y-107568005D01*
X132068005Y-107448218D01*
X132162122Y-107307363D01*
X132226951Y-107150853D01*
X132260000Y-106984703D01*
X132260000Y-106815297D01*
X132226951Y-106649147D01*
X132162122Y-106492637D01*
X132068005Y-106351782D01*
X131948218Y-106231995D01*
X131807363Y-106137878D01*
X131650853Y-106073049D01*
X131484703Y-106040000D01*
X131315297Y-106040000D01*
X131149147Y-106073049D01*
X130992637Y-106137878D01*
X130989461Y-106140000D01*
X106337333Y-106140000D01*
X106300000Y-106136323D01*
X106262667Y-106140000D01*
X106151014Y-106150997D01*
X106007753Y-106194454D01*
X105875724Y-106265026D01*
X105759999Y-106359999D01*
X105736201Y-106388997D01*
X105052895Y-107072303D01*
X105049147Y-107073049D01*
X104892637Y-107137878D01*
X104751782Y-107231995D01*
X104631995Y-107351782D01*
X104537878Y-107492637D01*
X104473049Y-107649147D01*
X104440000Y-107815297D01*
X104440000Y-107984703D01*
X104473049Y-108150853D01*
X104537878Y-108307363D01*
X104631995Y-108448218D01*
X104751782Y-108568005D01*
X104799742Y-108600051D01*
X104737878Y-108692637D01*
X104673049Y-108849147D01*
X104640000Y-109015297D01*
X104640000Y-109184703D01*
X104673049Y-109350853D01*
X104737878Y-109507363D01*
X104766210Y-109549764D01*
X104649147Y-109573049D01*
X104492637Y-109637878D01*
X104351782Y-109731995D01*
X104231995Y-109851782D01*
X104137878Y-109992637D01*
X104073049Y-110149147D01*
X104040000Y-110315297D01*
X104040000Y-110484703D01*
X104073049Y-110650853D01*
X104137878Y-110807363D01*
X104231995Y-110948218D01*
X104351782Y-111068005D01*
X104492637Y-111162122D01*
X104649147Y-111226951D01*
X104652896Y-111227697D01*
X107136201Y-113711003D01*
X107159999Y-113740001D01*
X107188997Y-113763799D01*
X107275723Y-113834974D01*
X107302239Y-113849147D01*
X107407753Y-113905546D01*
X107551014Y-113949003D01*
X107662667Y-113960000D01*
X107662677Y-113960000D01*
X107700000Y-113963676D01*
X107737323Y-113960000D01*
X108750999Y-113960000D01*
X108740000Y-114015297D01*
X108740000Y-114184703D01*
X108773049Y-114350853D01*
X108837878Y-114507363D01*
X108931995Y-114648218D01*
X109051782Y-114768005D01*
X109192637Y-114862122D01*
X109349147Y-114926951D01*
X109352896Y-114927697D01*
X109501195Y-115075996D01*
X109524998Y-115105000D01*
X109598145Y-115165030D01*
X109640722Y-115199973D01*
X109772752Y-115270545D01*
X109916013Y-115314002D01*
X110027666Y-115324999D01*
X110027676Y-115324999D01*
X110064999Y-115328675D01*
X110102322Y-115324999D01*
X113299132Y-115324999D01*
X113278519Y-115383109D01*
X113399186Y-115613000D01*
X114593000Y-115613000D01*
X114593000Y-115593000D01*
X114847000Y-115593000D01*
X114847000Y-115613000D01*
X114867000Y-115613000D01*
X114867000Y-115867000D01*
X114847000Y-115867000D01*
X114847000Y-115887000D01*
X114593000Y-115887000D01*
X114593000Y-115867000D01*
X113399186Y-115867000D01*
X113278519Y-116096891D01*
X113375843Y-116371252D01*
X113416794Y-116440000D01*
X108214802Y-116440000D01*
X105727697Y-113952896D01*
X105726951Y-113949147D01*
X105662122Y-113792637D01*
X105568005Y-113651782D01*
X105448218Y-113531995D01*
X105307363Y-113437878D01*
X105150853Y-113373049D01*
X104984703Y-113340000D01*
X104815297Y-113340000D01*
X104649147Y-113373049D01*
X104492637Y-113437878D01*
X104351782Y-113531995D01*
X104231995Y-113651782D01*
X104137878Y-113792637D01*
X104073049Y-113949147D01*
X104040000Y-114115297D01*
X104040000Y-114284703D01*
X104073049Y-114450853D01*
X104137878Y-114607363D01*
X104231995Y-114748218D01*
X104351782Y-114868005D01*
X104492637Y-114962122D01*
X104649147Y-115026951D01*
X104652896Y-115027697D01*
X106965198Y-117340000D01*
X102514802Y-117340000D01*
X102227697Y-117052895D01*
X102226951Y-117049147D01*
X102162122Y-116892637D01*
X102068005Y-116751782D01*
X101948218Y-116631995D01*
X101807363Y-116537878D01*
X101650853Y-116473049D01*
X101484703Y-116440000D01*
X101315297Y-116440000D01*
X101149147Y-116473049D01*
X100992637Y-116537878D01*
X100851782Y-116631995D01*
X100731995Y-116751782D01*
X100637878Y-116892637D01*
X100573049Y-117049147D01*
X100540000Y-117215297D01*
X99410000Y-117215297D01*
X99410000Y-105310000D01*
X140240001Y-105310000D01*
X140240000Y-136640000D01*
G37*
G04 #@! TD.AperFunction*
M02*
