M48
; DRILL file {KiCad (5.1.8)-1} date 12/08/20 15:00:04
; FORMAT={-:-/ absolute / inch / decimal}
; #@! TF.CreationDate,2020-12-08T15:00:04-05:00
; #@! TF.GenerationSoftware,Kicad,Pcbnew,(5.1.8)-1
; #@! TF.FileFunction,Plated,1,2,PTH
FMAT,2
INCH
T1C0.0118
T2C0.0394
%
G90
G05
T1
X3.9921Y-4.6181
X4.0012Y-5.0157
X4.0433Y-4.8504
X4.1299Y-4.3465
X4.1299Y-4.4961
X4.1457Y-4.248
X4.1535Y-4.2953
X4.1921Y-5.0157
X4.2402Y-4.9055
X4.2402Y-5.1811
X4.2402Y-5.2205
X4.2402Y-5.2598
X4.2402Y-5.2992
X4.2402Y-5.3386
X4.2795Y-5.1811
X4.2795Y-5.2205
X4.2795Y-5.2598
X4.2795Y-5.2992
X4.2795Y-5.3386
X4.2874Y-4.7244
X4.315Y-4.4921
X4.3228Y-4.5669
X4.3307Y-4.4331
X4.3386Y-4.3465
X4.3425Y-4.2913
X4.3465Y-4.8386
X4.4016Y-5.2087
X4.4291Y-4.563
X4.4488Y-5.0827
X4.5079Y-4.7835
X4.5157Y-4.8661
X4.622Y-4.2913
X4.6378Y-4.3386
X4.6732Y-4.7087
X4.7258Y-4.9431
X4.7283Y-4.752
X4.7953Y-4.7874
X4.8701Y-4.6496
X5.0224Y-5.1512
X5.0236Y-5.063
X5.0394Y-4.3031
X5.1299Y-4.6496
X5.1378Y-4.2402
X5.1457Y-5.1024
X5.1457Y-5.1417
X5.1457Y-5.1811
X5.1457Y-5.2205
X5.1457Y-5.2598
X5.1457Y-5.2992
X5.1457Y-5.3386
X5.1732Y-4.2087
X5.185Y-5.1024
X5.185Y-5.1417
X5.185Y-5.1811
X5.185Y-5.2205
X5.185Y-5.2598
X5.185Y-5.2992
X5.185Y-5.3386
X5.2283Y-4.5551
X5.4252Y-5.0197
T2
X4.5165Y-4.4567
X4.5165Y-4.5567
X4.6165Y-4.4567
X4.6165Y-4.5567
X4.7165Y-4.4567
X4.7165Y-4.5567
X4.5874Y-5.0118
X4.6874Y-5.0118
X4.7874Y-5.0118
T0
M30
