G04 #@! TF.GenerationSoftware,KiCad,Pcbnew,(6.0.0)*
G04 #@! TF.CreationDate,2022-01-31T19:46:37-05:00*
G04 #@! TF.ProjectId,megadesk,6d656761-6465-4736-9b2e-6b696361645f,rev?*
G04 #@! TF.SameCoordinates,Original*
G04 #@! TF.FileFunction,Legend,Top*
G04 #@! TF.FilePolarity,Positive*
%FSLAX46Y46*%
G04 Gerber Fmt 4.6, Leading zero omitted, Abs format (unit mm)*
G04 Created by KiCad (PCBNEW (6.0.0)) date 2022-01-31 19:46:37*
%MOMM*%
%LPD*%
G01*
G04 APERTURE LIST*
G04 Aperture macros list*
%AMRoundRect*
0 Rectangle with rounded corners*
0 $1 Rounding radius*
0 $2 $3 $4 $5 $6 $7 $8 $9 X,Y pos of 4 corners*
0 Add a 4 corners polygon primitive as box body*
4,1,4,$2,$3,$4,$5,$6,$7,$8,$9,$2,$3,0*
0 Add four circle primitives for the rounded corners*
1,1,$1+$1,$2,$3*
1,1,$1+$1,$4,$5*
1,1,$1+$1,$6,$7*
1,1,$1+$1,$8,$9*
0 Add four rect primitives between the rounded corners*
20,1,$1+$1,$2,$3,$4,$5,0*
20,1,$1+$1,$4,$5,$6,$7,0*
20,1,$1+$1,$6,$7,$8,$9,0*
20,1,$1+$1,$8,$9,$2,$3,0*%
G04 Aperture macros list end*
%ADD10C,0.150000*%
%ADD11C,0.125000*%
%ADD12C,0.100000*%
%ADD13C,0.120000*%
%ADD14C,1.300000*%
%ADD15RoundRect,0.050000X-0.850000X0.850000X-0.850000X-0.850000X0.850000X-0.850000X0.850000X0.850000X0*%
%ADD16O,1.800000X1.800000*%
%ADD17RoundRect,0.050000X0.225000X-0.300000X0.225000X0.300000X-0.225000X0.300000X-0.225000X-0.300000X0*%
%ADD18RoundRect,0.050000X-0.600000X1.100000X-0.600000X-1.100000X0.600000X-1.100000X0.600000X1.100000X0*%
%ADD19RoundRect,0.050000X-2.900000X3.200000X-2.900000X-3.200000X2.900000X-3.200000X2.900000X3.200000X0*%
%ADD20RoundRect,0.050000X0.800000X1.400000X-0.800000X1.400000X-0.800000X-1.400000X0.800000X-1.400000X0*%
%ADD21RoundRect,0.050000X0.150000X0.650000X-0.150000X0.650000X-0.150000X-0.650000X0.150000X-0.650000X0*%
%ADD22RoundRect,0.275000X0.225000X0.250000X-0.225000X0.250000X-0.225000X-0.250000X0.225000X-0.250000X0*%
%ADD23RoundRect,0.250000X-0.275000X0.200000X-0.275000X-0.200000X0.275000X-0.200000X0.275000X0.200000X0*%
%ADD24RoundRect,0.250000X0.200000X0.275000X-0.200000X0.275000X-0.200000X-0.275000X0.200000X-0.275000X0*%
%ADD25RoundRect,0.050000X-0.650000X-1.700000X0.650000X-1.700000X0.650000X1.700000X-0.650000X1.700000X0*%
%ADD26RoundRect,0.300000X-0.475000X0.250000X-0.475000X-0.250000X0.475000X-0.250000X0.475000X0.250000X0*%
%ADD27RoundRect,0.050000X-0.225000X0.300000X-0.225000X-0.300000X0.225000X-0.300000X0.225000X0.300000X0*%
%ADD28RoundRect,0.200000X-0.825000X-0.150000X0.825000X-0.150000X0.825000X0.150000X-0.825000X0.150000X0*%
%ADD29RoundRect,0.250000X-0.200000X-0.275000X0.200000X-0.275000X0.200000X0.275000X-0.200000X0.275000X0*%
%ADD30RoundRect,0.200000X0.825000X0.150000X-0.825000X0.150000X-0.825000X-0.150000X0.825000X-0.150000X0*%
G04 APERTURE END LIST*
D10*
X129053000Y-113363000D02*
X131720000Y-113363000D01*
D11*
X127004761Y-107961904D02*
X127004761Y-108533333D01*
X126966666Y-108647619D01*
X126890476Y-108723809D01*
X126776190Y-108761904D01*
X126700000Y-108761904D01*
X127766666Y-108761904D02*
X127385714Y-108761904D01*
X127385714Y-107961904D01*
X128490476Y-108685714D02*
X128452380Y-108723809D01*
X128338095Y-108761904D01*
X128261904Y-108761904D01*
X128147619Y-108723809D01*
X128071428Y-108647619D01*
X128033333Y-108571428D01*
X127995238Y-108419047D01*
X127995238Y-108304761D01*
X128033333Y-108152380D01*
X128071428Y-108076190D01*
X128147619Y-108000000D01*
X128261904Y-107961904D01*
X128338095Y-107961904D01*
X128452380Y-108000000D01*
X128490476Y-108038095D01*
X129061904Y-107961904D02*
X129061904Y-108533333D01*
X129023809Y-108647619D01*
X128947619Y-108723809D01*
X128833333Y-108761904D01*
X128757142Y-108761904D01*
X129823809Y-108761904D02*
X129442857Y-108761904D01*
X129442857Y-107961904D01*
X130547619Y-108685714D02*
X130509523Y-108723809D01*
X130395238Y-108761904D01*
X130319047Y-108761904D01*
X130204761Y-108723809D01*
X130128571Y-108647619D01*
X130090476Y-108571428D01*
X130052380Y-108419047D01*
X130052380Y-108304761D01*
X130090476Y-108152380D01*
X130128571Y-108076190D01*
X130204761Y-108000000D01*
X130319047Y-107961904D01*
X130395238Y-107961904D01*
X130509523Y-108000000D01*
X130547619Y-108038095D01*
X131119047Y-107961904D02*
X131119047Y-108533333D01*
X131080952Y-108647619D01*
X131004761Y-108723809D01*
X130890476Y-108761904D01*
X130814285Y-108761904D01*
X131880952Y-108761904D02*
X131500000Y-108761904D01*
X131500000Y-107961904D01*
X132604761Y-108685714D02*
X132566666Y-108723809D01*
X132452380Y-108761904D01*
X132376190Y-108761904D01*
X132261904Y-108723809D01*
X132185714Y-108647619D01*
X132147619Y-108571428D01*
X132109523Y-108419047D01*
X132109523Y-108304761D01*
X132147619Y-108152380D01*
X132185714Y-108076190D01*
X132261904Y-108000000D01*
X132376190Y-107961904D01*
X132452380Y-107961904D01*
X132566666Y-108000000D01*
X132604761Y-108038095D01*
X133176190Y-107961904D02*
X133176190Y-108533333D01*
X133138095Y-108647619D01*
X133061904Y-108723809D01*
X132947619Y-108761904D01*
X132871428Y-108761904D01*
X133938095Y-108761904D02*
X133557142Y-108761904D01*
X133557142Y-107961904D01*
X134661904Y-108685714D02*
X134623809Y-108723809D01*
X134509523Y-108761904D01*
X134433333Y-108761904D01*
X134319047Y-108723809D01*
X134242857Y-108647619D01*
X134204761Y-108571428D01*
X134166666Y-108419047D01*
X134166666Y-108304761D01*
X134204761Y-108152380D01*
X134242857Y-108076190D01*
X134319047Y-108000000D01*
X134433333Y-107961904D01*
X134509523Y-107961904D01*
X134623809Y-108000000D01*
X134661904Y-108038095D01*
D12*
X114001666Y-118653166D02*
X113768333Y-118319833D01*
X113601666Y-118653166D02*
X113601666Y-117953166D01*
X113868333Y-117953166D01*
X113935000Y-117986500D01*
X113968333Y-118019833D01*
X114001666Y-118086500D01*
X114001666Y-118186500D01*
X113968333Y-118253166D01*
X113935000Y-118286500D01*
X113868333Y-118319833D01*
X113601666Y-118319833D01*
X114268333Y-118619833D02*
X114368333Y-118653166D01*
X114535000Y-118653166D01*
X114601666Y-118619833D01*
X114635000Y-118586500D01*
X114668333Y-118519833D01*
X114668333Y-118453166D01*
X114635000Y-118386500D01*
X114601666Y-118353166D01*
X114535000Y-118319833D01*
X114401666Y-118286500D01*
X114335000Y-118253166D01*
X114301666Y-118219833D01*
X114268333Y-118153166D01*
X114268333Y-118086500D01*
X114301666Y-118019833D01*
X114335000Y-117986500D01*
X114401666Y-117953166D01*
X114568333Y-117953166D01*
X114668333Y-117986500D01*
X114868333Y-117953166D02*
X115268333Y-117953166D01*
X115068333Y-118653166D02*
X115068333Y-117953166D01*
X113735000Y-119113500D02*
X113668333Y-119080166D01*
X113568333Y-119080166D01*
X113468333Y-119113500D01*
X113401666Y-119180166D01*
X113368333Y-119246833D01*
X113335000Y-119380166D01*
X113335000Y-119480166D01*
X113368333Y-119613500D01*
X113401666Y-119680166D01*
X113468333Y-119746833D01*
X113568333Y-119780166D01*
X113635000Y-119780166D01*
X113735000Y-119746833D01*
X113768333Y-119713500D01*
X113768333Y-119480166D01*
X113635000Y-119480166D01*
X114068333Y-119780166D02*
X114068333Y-119080166D01*
X114468333Y-119780166D01*
X114468333Y-119080166D01*
X114801666Y-119780166D02*
X114801666Y-119080166D01*
X114968333Y-119080166D01*
X115068333Y-119113500D01*
X115135000Y-119180166D01*
X115168333Y-119246833D01*
X115201666Y-119380166D01*
X115201666Y-119480166D01*
X115168333Y-119613500D01*
X115135000Y-119680166D01*
X115068333Y-119746833D01*
X114968333Y-119780166D01*
X114801666Y-119780166D01*
X116300000Y-118619833D02*
X116400000Y-118653166D01*
X116566666Y-118653166D01*
X116633333Y-118619833D01*
X116666666Y-118586500D01*
X116700000Y-118519833D01*
X116700000Y-118453166D01*
X116666666Y-118386500D01*
X116633333Y-118353166D01*
X116566666Y-118319833D01*
X116433333Y-118286500D01*
X116366666Y-118253166D01*
X116333333Y-118219833D01*
X116300000Y-118153166D01*
X116300000Y-118086500D01*
X116333333Y-118019833D01*
X116366666Y-117986500D01*
X116433333Y-117953166D01*
X116600000Y-117953166D01*
X116700000Y-117986500D01*
X117400000Y-118586500D02*
X117366666Y-118619833D01*
X117266666Y-118653166D01*
X117200000Y-118653166D01*
X117100000Y-118619833D01*
X117033333Y-118553166D01*
X117000000Y-118486500D01*
X116966666Y-118353166D01*
X116966666Y-118253166D01*
X117000000Y-118119833D01*
X117033333Y-118053166D01*
X117100000Y-117986500D01*
X117200000Y-117953166D01*
X117266666Y-117953166D01*
X117366666Y-117986500D01*
X117400000Y-118019833D01*
X117700000Y-118653166D02*
X117700000Y-117953166D01*
X118100000Y-118653166D02*
X117800000Y-118253166D01*
X118100000Y-117953166D02*
X117700000Y-118353166D01*
X116100000Y-119780166D02*
X116100000Y-119080166D01*
X116333333Y-119580166D01*
X116566666Y-119080166D01*
X116566666Y-119780166D01*
X117033333Y-119080166D02*
X117166666Y-119080166D01*
X117233333Y-119113500D01*
X117300000Y-119180166D01*
X117333333Y-119313500D01*
X117333333Y-119546833D01*
X117300000Y-119680166D01*
X117233333Y-119746833D01*
X117166666Y-119780166D01*
X117033333Y-119780166D01*
X116966666Y-119746833D01*
X116900000Y-119680166D01*
X116866666Y-119546833D01*
X116866666Y-119313500D01*
X116900000Y-119180166D01*
X116966666Y-119113500D01*
X117033333Y-119080166D01*
X117600000Y-119746833D02*
X117700000Y-119780166D01*
X117866666Y-119780166D01*
X117933333Y-119746833D01*
X117966666Y-119713500D01*
X118000000Y-119646833D01*
X118000000Y-119580166D01*
X117966666Y-119513500D01*
X117933333Y-119480166D01*
X117866666Y-119446833D01*
X117733333Y-119413500D01*
X117666666Y-119380166D01*
X117633333Y-119346833D01*
X117600000Y-119280166D01*
X117600000Y-119213500D01*
X117633333Y-119146833D01*
X117666666Y-119113500D01*
X117733333Y-119080166D01*
X117900000Y-119080166D01*
X118000000Y-119113500D01*
X118300000Y-119780166D02*
X118300000Y-119080166D01*
D10*
X123747619Y-132838095D02*
X124223809Y-132504761D01*
X123747619Y-132266666D02*
X124747619Y-132266666D01*
X124747619Y-132647619D01*
X124700000Y-132742857D01*
X124652380Y-132790476D01*
X124557142Y-132838095D01*
X124414285Y-132838095D01*
X124319047Y-132790476D01*
X124271428Y-132742857D01*
X124223809Y-132647619D01*
X124223809Y-132266666D01*
X124271428Y-133266666D02*
X124271428Y-133600000D01*
X123747619Y-133742857D02*
X123747619Y-133266666D01*
X124747619Y-133266666D01*
X124747619Y-133742857D01*
X123747619Y-134171428D02*
X124747619Y-134171428D01*
X124747619Y-134409523D01*
X124700000Y-134552380D01*
X124604761Y-134647619D01*
X124509523Y-134695238D01*
X124319047Y-134742857D01*
X124176190Y-134742857D01*
X123985714Y-134695238D01*
X123890476Y-134647619D01*
X123795238Y-134552380D01*
X123747619Y-134409523D01*
X123747619Y-134171428D01*
X124128571Y-135171428D02*
X124128571Y-135933333D01*
X123747619Y-135552380D02*
X124509523Y-135552380D01*
D12*
X119331666Y-118653166D02*
X119331666Y-117953166D01*
X119565000Y-118453166D01*
X119798333Y-117953166D01*
X119798333Y-118653166D01*
X120131666Y-118653166D02*
X120131666Y-117953166D01*
X120431666Y-118619833D02*
X120531666Y-118653166D01*
X120698333Y-118653166D01*
X120765000Y-118619833D01*
X120798333Y-118586500D01*
X120831666Y-118519833D01*
X120831666Y-118453166D01*
X120798333Y-118386500D01*
X120765000Y-118353166D01*
X120698333Y-118319833D01*
X120565000Y-118286500D01*
X120498333Y-118253166D01*
X120465000Y-118219833D01*
X120431666Y-118153166D01*
X120431666Y-118086500D01*
X120465000Y-118019833D01*
X120498333Y-117986500D01*
X120565000Y-117953166D01*
X120731666Y-117953166D01*
X120831666Y-117986500D01*
X121265000Y-117953166D02*
X121398333Y-117953166D01*
X121465000Y-117986500D01*
X121531666Y-118053166D01*
X121565000Y-118186500D01*
X121565000Y-118419833D01*
X121531666Y-118553166D01*
X121465000Y-118619833D01*
X121398333Y-118653166D01*
X121265000Y-118653166D01*
X121198333Y-118619833D01*
X121131666Y-118553166D01*
X121098333Y-118419833D01*
X121098333Y-118186500D01*
X121131666Y-118053166D01*
X121198333Y-117986500D01*
X121265000Y-117953166D01*
X119331666Y-119513500D02*
X119865000Y-119513500D01*
X119598333Y-119780166D02*
X119598333Y-119246833D01*
X120531666Y-119080166D02*
X120198333Y-119080166D01*
X120165000Y-119413500D01*
X120198333Y-119380166D01*
X120265000Y-119346833D01*
X120431666Y-119346833D01*
X120498333Y-119380166D01*
X120531666Y-119413500D01*
X120565000Y-119480166D01*
X120565000Y-119646833D01*
X120531666Y-119713500D01*
X120498333Y-119746833D01*
X120431666Y-119780166D01*
X120265000Y-119780166D01*
X120198333Y-119746833D01*
X120165000Y-119713500D01*
D13*
X117790000Y-128740000D02*
X117790000Y-131400000D01*
X122930000Y-128740000D02*
X115190000Y-128740000D01*
X116900000Y-128342929D02*
X116900000Y-128740000D01*
X121980000Y-128410000D02*
X121980000Y-128740000D01*
X121320000Y-131400000D02*
X121320000Y-137400000D01*
X120330000Y-128740000D02*
X120330000Y-131400000D01*
X121560000Y-131400000D02*
X121560000Y-137400000D01*
X119440000Y-128342929D02*
X119440000Y-128740000D01*
X122930000Y-131400000D02*
X122930000Y-128740000D01*
X121800000Y-131400000D02*
X121800000Y-137400000D01*
X121600000Y-126030000D02*
X122870000Y-126030000D01*
X116140000Y-137400000D02*
X116140000Y-131400000D01*
X115190000Y-128740000D02*
X115190000Y-131400000D01*
X118680000Y-128342929D02*
X118680000Y-128740000D01*
X121920000Y-131400000D02*
X121920000Y-137400000D01*
X122870000Y-126030000D02*
X122870000Y-127300000D01*
X116900000Y-137400000D02*
X116140000Y-137400000D01*
X121680000Y-131400000D02*
X121680000Y-137400000D01*
X121220000Y-137400000D02*
X121220000Y-131400000D01*
X118680000Y-137400000D02*
X118680000Y-131400000D01*
X121980000Y-137400000D02*
X121220000Y-137400000D01*
X116900000Y-131400000D02*
X116900000Y-137400000D01*
X121440000Y-131400000D02*
X121440000Y-137400000D01*
X121220000Y-128410000D02*
X121220000Y-128740000D01*
X116140000Y-128342929D02*
X116140000Y-128740000D01*
X115190000Y-131400000D02*
X122930000Y-131400000D01*
X121980000Y-131400000D02*
X121980000Y-137400000D01*
X119440000Y-137400000D02*
X118680000Y-137400000D01*
X119440000Y-131400000D02*
X119440000Y-137400000D01*
X109850000Y-133850000D02*
X109850000Y-131300000D01*
X111550000Y-133850000D02*
X111550000Y-131300000D01*
X109850000Y-133850000D02*
X111550000Y-133850000D01*
X138880000Y-127130000D02*
X138880000Y-124300000D01*
X132520000Y-127130000D02*
X132520000Y-126030000D01*
X132250000Y-127130000D02*
X132520000Y-127130000D01*
X132250000Y-128630000D02*
X132250000Y-127130000D01*
X139150000Y-128630000D02*
X139150000Y-127130000D01*
X139150000Y-127130000D02*
X138880000Y-127130000D01*
X139060000Y-107380000D02*
X139060000Y-110540000D01*
X125900000Y-107380000D02*
X122740000Y-107380000D01*
X135900000Y-107380000D02*
X139060000Y-107380000D01*
X122740000Y-107380000D02*
X122740000Y-110540000D01*
X125900000Y-111170000D02*
X125900000Y-107380000D01*
X122740000Y-110540000D02*
X125900000Y-110540000D01*
X125900000Y-110540000D02*
X125900000Y-112830000D01*
X135900000Y-111170000D02*
X125900000Y-111170000D01*
X139060000Y-110540000D02*
X135900000Y-110540000D01*
X135900000Y-110540000D02*
X135900000Y-112830000D01*
X135900000Y-112830000D02*
X125900000Y-112830000D01*
X135900000Y-111170000D02*
X135900000Y-107380000D01*
X112340580Y-128110000D02*
X112059420Y-128110000D01*
X112340580Y-127090000D02*
X112059420Y-127090000D01*
X127677500Y-125862742D02*
X127677500Y-126337258D01*
X128722500Y-125862742D02*
X128722500Y-126337258D01*
X116908258Y-124934500D02*
X116433742Y-124934500D01*
X116908258Y-123889500D02*
X116433742Y-123889500D01*
X112437258Y-125622500D02*
X111962742Y-125622500D01*
X112437258Y-124577500D02*
X111962742Y-124577500D01*
X136710000Y-123410000D02*
X127490000Y-123410000D01*
X127490000Y-116840000D02*
X127160000Y-116840000D01*
X127490000Y-114190000D02*
X136710000Y-114190000D01*
X136710000Y-120760000D02*
X136710000Y-123410000D01*
X127490000Y-123410000D02*
X127490000Y-120760000D01*
X127490000Y-116840000D02*
X127490000Y-114190000D01*
X136710000Y-114190000D02*
X136710000Y-116840000D01*
X129965000Y-125888748D02*
X129965000Y-126411252D01*
X131435000Y-125888748D02*
X131435000Y-126411252D01*
X114050000Y-130850000D02*
X112350000Y-130850000D01*
X114050000Y-130850000D02*
X114050000Y-133400000D01*
X112350000Y-130850000D02*
X112350000Y-133400000D01*
X107150000Y-127030000D02*
X106880000Y-127030000D01*
X106880000Y-127030000D02*
X106880000Y-124200000D01*
X100250000Y-128530000D02*
X100250000Y-127030000D01*
X107150000Y-128530000D02*
X107150000Y-127030000D01*
X100250000Y-127030000D02*
X100520000Y-127030000D01*
X100520000Y-127030000D02*
X100520000Y-125930000D01*
X121130000Y-117070000D02*
X113390000Y-117070000D01*
X119800000Y-111870000D02*
X121130000Y-111870000D01*
X118530000Y-111870000D02*
X118530000Y-114470000D01*
X118530000Y-111870000D02*
X113390000Y-111870000D01*
X121130000Y-114470000D02*
X121130000Y-117070000D01*
X118530000Y-114470000D02*
X121130000Y-114470000D01*
X113390000Y-111870000D02*
X113390000Y-117070000D01*
X121130000Y-111870000D02*
X121130000Y-113200000D01*
X105700000Y-114735000D02*
X107650000Y-114735000D01*
X105700000Y-105865000D02*
X107650000Y-105865000D01*
X105700000Y-114735000D02*
X103750000Y-114735000D01*
X105700000Y-105865000D02*
X102250000Y-105865000D01*
X107765000Y-128088748D02*
X107765000Y-128611252D01*
X109235000Y-128088748D02*
X109235000Y-128611252D01*
X108737742Y-123777500D02*
X109212258Y-123777500D01*
X108737742Y-124822500D02*
X109212258Y-124822500D01*
X124465000Y-127938748D02*
X124465000Y-128461252D01*
X125935000Y-127938748D02*
X125935000Y-128461252D01*
X121737258Y-123889500D02*
X121262742Y-123889500D01*
X121737258Y-124934500D02*
X121262742Y-124934500D01*
X116400000Y-105840000D02*
X118350000Y-105840000D01*
X116400000Y-110960000D02*
X114450000Y-110960000D01*
X116400000Y-110960000D02*
X119850000Y-110960000D01*
X116400000Y-105840000D02*
X114450000Y-105840000D01*
%LPC*%
D14*
X139950000Y-105600000D03*
X99700000Y-136350000D03*
D15*
X121600000Y-127300000D03*
D16*
X119060000Y-127300000D03*
X116520000Y-127300000D03*
D17*
X110700000Y-133400000D03*
X110700000Y-131300000D03*
D18*
X137980000Y-125400000D03*
X135700000Y-125400000D03*
D19*
X135700000Y-131700000D03*
D18*
X133420000Y-125400000D03*
D20*
X123900000Y-108900000D03*
X137900000Y-108900000D03*
D21*
X135400000Y-112000000D03*
X134400000Y-112000000D03*
X133400000Y-112000000D03*
X132400000Y-112000000D03*
X131400000Y-112000000D03*
X130400000Y-112000000D03*
X129400000Y-112000000D03*
X128400000Y-112000000D03*
X127400000Y-112000000D03*
X126400000Y-112000000D03*
D22*
X112975000Y-127600000D03*
X111425000Y-127600000D03*
D23*
X128200000Y-125275000D03*
X128200000Y-126925000D03*
D24*
X117496000Y-124412000D03*
X115846000Y-124412000D03*
X113025000Y-125100000D03*
X111375000Y-125100000D03*
D25*
X127750000Y-118800000D03*
X136450000Y-118800000D03*
D26*
X130700000Y-125200000D03*
X130700000Y-127100000D03*
D27*
X113200000Y-131300000D03*
X113200000Y-133400000D03*
D18*
X105980000Y-125300000D03*
D19*
X103700000Y-131600000D03*
D18*
X103700000Y-125300000D03*
X101420000Y-125300000D03*
D15*
X119800000Y-113200000D03*
D16*
X119800000Y-115740000D03*
X117260000Y-113200000D03*
X117260000Y-115740000D03*
X114720000Y-113200000D03*
X114720000Y-115740000D03*
D28*
X103225000Y-106490000D03*
X103225000Y-107760000D03*
X103225000Y-109030000D03*
X103225000Y-110300000D03*
X103225000Y-111570000D03*
X103225000Y-112840000D03*
X103225000Y-114110000D03*
X108175000Y-114110000D03*
X108175000Y-112840000D03*
X108175000Y-111570000D03*
X108175000Y-110300000D03*
X108175000Y-109030000D03*
X108175000Y-107760000D03*
X108175000Y-106490000D03*
D26*
X108500000Y-127400000D03*
X108500000Y-129300000D03*
D29*
X108150000Y-124300000D03*
X109800000Y-124300000D03*
D26*
X125200000Y-127250000D03*
X125200000Y-129150000D03*
D24*
X122325000Y-124412000D03*
X120675000Y-124412000D03*
D30*
X118875000Y-110305000D03*
X118875000Y-109035000D03*
X118875000Y-107765000D03*
X118875000Y-106495000D03*
X113925000Y-106495000D03*
X113925000Y-107765000D03*
X113925000Y-109035000D03*
X113925000Y-110305000D03*
M02*
