G04 #@! TF.GenerationSoftware,KiCad,Pcbnew,(5.99.0-12157-g5a28a06597)*
G04 #@! TF.CreationDate,2021-09-27T15:07:42-04:00*
G04 #@! TF.ProjectId,megadesk,6d656761-6465-4736-9b2e-6b696361645f,rev?*
G04 #@! TF.SameCoordinates,Original*
G04 #@! TF.FileFunction,Legend,Top*
G04 #@! TF.FilePolarity,Positive*
%FSLAX46Y46*%
G04 Gerber Fmt 4.6, Leading zero omitted, Abs format (unit mm)*
G04 Created by KiCad (PCBNEW (5.99.0-12157-g5a28a06597)) date 2021-09-27 15:07:42*
%MOMM*%
%LPD*%
G01*
G04 APERTURE LIST*
%ADD10C,0.100000*%
%ADD11C,0.150000*%
%ADD12C,0.125000*%
%ADD13C,0.120000*%
G04 APERTURE END LIST*
D10*
X119207857Y-118688428D02*
X119207857Y-118088428D01*
X119407857Y-118517000D01*
X119607857Y-118088428D01*
X119607857Y-118688428D01*
X119893571Y-118688428D02*
X119893571Y-118088428D01*
X120150714Y-118659857D02*
X120236428Y-118688428D01*
X120379285Y-118688428D01*
X120436428Y-118659857D01*
X120465000Y-118631285D01*
X120493571Y-118574142D01*
X120493571Y-118517000D01*
X120465000Y-118459857D01*
X120436428Y-118431285D01*
X120379285Y-118402714D01*
X120265000Y-118374142D01*
X120207857Y-118345571D01*
X120179285Y-118317000D01*
X120150714Y-118259857D01*
X120150714Y-118202714D01*
X120179285Y-118145571D01*
X120207857Y-118117000D01*
X120265000Y-118088428D01*
X120407857Y-118088428D01*
X120493571Y-118117000D01*
X120865000Y-118088428D02*
X120979285Y-118088428D01*
X121036428Y-118117000D01*
X121093571Y-118174142D01*
X121122142Y-118288428D01*
X121122142Y-118488428D01*
X121093571Y-118602714D01*
X121036428Y-118659857D01*
X120979285Y-118688428D01*
X120865000Y-118688428D01*
X120807857Y-118659857D01*
X120750714Y-118602714D01*
X120722142Y-118488428D01*
X120722142Y-118288428D01*
X120750714Y-118174142D01*
X120807857Y-118117000D01*
X120865000Y-118088428D01*
X119207857Y-119425857D02*
X119665000Y-119425857D01*
X119436428Y-119654428D02*
X119436428Y-119197285D01*
X120236428Y-119054428D02*
X119950714Y-119054428D01*
X119922142Y-119340142D01*
X119950714Y-119311571D01*
X120007857Y-119283000D01*
X120150714Y-119283000D01*
X120207857Y-119311571D01*
X120236428Y-119340142D01*
X120265000Y-119397285D01*
X120265000Y-119540142D01*
X120236428Y-119597285D01*
X120207857Y-119625857D01*
X120150714Y-119654428D01*
X120007857Y-119654428D01*
X119950714Y-119625857D01*
X119922142Y-119597285D01*
X116579285Y-118659857D02*
X116665000Y-118688428D01*
X116807857Y-118688428D01*
X116865000Y-118659857D01*
X116893571Y-118631285D01*
X116922142Y-118574142D01*
X116922142Y-118517000D01*
X116893571Y-118459857D01*
X116865000Y-118431285D01*
X116807857Y-118402714D01*
X116693571Y-118374142D01*
X116636428Y-118345571D01*
X116607857Y-118317000D01*
X116579285Y-118259857D01*
X116579285Y-118202714D01*
X116607857Y-118145571D01*
X116636428Y-118117000D01*
X116693571Y-118088428D01*
X116836428Y-118088428D01*
X116922142Y-118117000D01*
X117522142Y-118631285D02*
X117493571Y-118659857D01*
X117407857Y-118688428D01*
X117350714Y-118688428D01*
X117265000Y-118659857D01*
X117207857Y-118602714D01*
X117179285Y-118545571D01*
X117150714Y-118431285D01*
X117150714Y-118345571D01*
X117179285Y-118231285D01*
X117207857Y-118174142D01*
X117265000Y-118117000D01*
X117350714Y-118088428D01*
X117407857Y-118088428D01*
X117493571Y-118117000D01*
X117522142Y-118145571D01*
X117779285Y-118688428D02*
X117779285Y-118088428D01*
X118122142Y-118688428D02*
X117865000Y-118345571D01*
X118122142Y-118088428D02*
X117779285Y-118431285D01*
X116607857Y-119654428D02*
X116607857Y-119054428D01*
X116807857Y-119483000D01*
X117007857Y-119054428D01*
X117007857Y-119654428D01*
X117407857Y-119054428D02*
X117522142Y-119054428D01*
X117579285Y-119083000D01*
X117636428Y-119140142D01*
X117665000Y-119254428D01*
X117665000Y-119454428D01*
X117636428Y-119568714D01*
X117579285Y-119625857D01*
X117522142Y-119654428D01*
X117407857Y-119654428D01*
X117350714Y-119625857D01*
X117293571Y-119568714D01*
X117265000Y-119454428D01*
X117265000Y-119254428D01*
X117293571Y-119140142D01*
X117350714Y-119083000D01*
X117407857Y-119054428D01*
X117893571Y-119625857D02*
X117979285Y-119654428D01*
X118122142Y-119654428D01*
X118179285Y-119625857D01*
X118207857Y-119597285D01*
X118236428Y-119540142D01*
X118236428Y-119483000D01*
X118207857Y-119425857D01*
X118179285Y-119397285D01*
X118122142Y-119368714D01*
X118007857Y-119340142D01*
X117950714Y-119311571D01*
X117922142Y-119283000D01*
X117893571Y-119225857D01*
X117893571Y-119168714D01*
X117922142Y-119111571D01*
X117950714Y-119083000D01*
X118007857Y-119054428D01*
X118150714Y-119054428D01*
X118236428Y-119083000D01*
X118493571Y-119654428D02*
X118493571Y-119054428D01*
X114450714Y-118688428D02*
X114250714Y-118402714D01*
X114107857Y-118688428D02*
X114107857Y-118088428D01*
X114336428Y-118088428D01*
X114393571Y-118117000D01*
X114422142Y-118145571D01*
X114450714Y-118202714D01*
X114450714Y-118288428D01*
X114422142Y-118345571D01*
X114393571Y-118374142D01*
X114336428Y-118402714D01*
X114107857Y-118402714D01*
X114679285Y-118659857D02*
X114765000Y-118688428D01*
X114907857Y-118688428D01*
X114965000Y-118659857D01*
X114993571Y-118631285D01*
X115022142Y-118574142D01*
X115022142Y-118517000D01*
X114993571Y-118459857D01*
X114965000Y-118431285D01*
X114907857Y-118402714D01*
X114793571Y-118374142D01*
X114736428Y-118345571D01*
X114707857Y-118317000D01*
X114679285Y-118259857D01*
X114679285Y-118202714D01*
X114707857Y-118145571D01*
X114736428Y-118117000D01*
X114793571Y-118088428D01*
X114936428Y-118088428D01*
X115022142Y-118117000D01*
X115193571Y-118088428D02*
X115536428Y-118088428D01*
X115365000Y-118688428D02*
X115365000Y-118088428D01*
X114422142Y-119083000D02*
X114365000Y-119054428D01*
X114279285Y-119054428D01*
X114193571Y-119083000D01*
X114136428Y-119140142D01*
X114107857Y-119197285D01*
X114079285Y-119311571D01*
X114079285Y-119397285D01*
X114107857Y-119511571D01*
X114136428Y-119568714D01*
X114193571Y-119625857D01*
X114279285Y-119654428D01*
X114336428Y-119654428D01*
X114422142Y-119625857D01*
X114450714Y-119597285D01*
X114450714Y-119397285D01*
X114336428Y-119397285D01*
X114707857Y-119654428D02*
X114707857Y-119054428D01*
X115050714Y-119654428D01*
X115050714Y-119054428D01*
X115336428Y-119654428D02*
X115336428Y-119054428D01*
X115479285Y-119054428D01*
X115565000Y-119083000D01*
X115622142Y-119140142D01*
X115650714Y-119197285D01*
X115679285Y-119311571D01*
X115679285Y-119397285D01*
X115650714Y-119511571D01*
X115622142Y-119568714D01*
X115565000Y-119625857D01*
X115479285Y-119654428D01*
X115336428Y-119654428D01*
D11*
X123747619Y-132838095D02*
X124223809Y-132504761D01*
X123747619Y-132266666D02*
X124747619Y-132266666D01*
X124747619Y-132647619D01*
X124700000Y-132742857D01*
X124652380Y-132790476D01*
X124557142Y-132838095D01*
X124414285Y-132838095D01*
X124319047Y-132790476D01*
X124271428Y-132742857D01*
X124223809Y-132647619D01*
X124223809Y-132266666D01*
X124271428Y-133266666D02*
X124271428Y-133600000D01*
X123747619Y-133742857D02*
X123747619Y-133266666D01*
X124747619Y-133266666D01*
X124747619Y-133742857D01*
X123747619Y-134171428D02*
X124747619Y-134171428D01*
X124747619Y-134409523D01*
X124700000Y-134552380D01*
X124604761Y-134647619D01*
X124509523Y-134695238D01*
X124319047Y-134742857D01*
X124176190Y-134742857D01*
X123985714Y-134695238D01*
X123890476Y-134647619D01*
X123795238Y-134552380D01*
X123747619Y-134409523D01*
X123747619Y-134171428D01*
X124128571Y-135171428D02*
X124128571Y-135933333D01*
X123747619Y-135552380D02*
X124509523Y-135552380D01*
X129053000Y-113363000D02*
X131720000Y-113363000D01*
D12*
X127004761Y-107961904D02*
X127004761Y-108533333D01*
X126966666Y-108647619D01*
X126890476Y-108723809D01*
X126776190Y-108761904D01*
X126700000Y-108761904D01*
X127766666Y-108761904D02*
X127385714Y-108761904D01*
X127385714Y-107961904D01*
X128490476Y-108685714D02*
X128452380Y-108723809D01*
X128338095Y-108761904D01*
X128261904Y-108761904D01*
X128147619Y-108723809D01*
X128071428Y-108647619D01*
X128033333Y-108571428D01*
X127995238Y-108419047D01*
X127995238Y-108304761D01*
X128033333Y-108152380D01*
X128071428Y-108076190D01*
X128147619Y-108000000D01*
X128261904Y-107961904D01*
X128338095Y-107961904D01*
X128452380Y-108000000D01*
X128490476Y-108038095D01*
X129061904Y-107961904D02*
X129061904Y-108533333D01*
X129023809Y-108647619D01*
X128947619Y-108723809D01*
X128833333Y-108761904D01*
X128757142Y-108761904D01*
X129823809Y-108761904D02*
X129442857Y-108761904D01*
X129442857Y-107961904D01*
X130547619Y-108685714D02*
X130509523Y-108723809D01*
X130395238Y-108761904D01*
X130319047Y-108761904D01*
X130204761Y-108723809D01*
X130128571Y-108647619D01*
X130090476Y-108571428D01*
X130052380Y-108419047D01*
X130052380Y-108304761D01*
X130090476Y-108152380D01*
X130128571Y-108076190D01*
X130204761Y-108000000D01*
X130319047Y-107961904D01*
X130395238Y-107961904D01*
X130509523Y-108000000D01*
X130547619Y-108038095D01*
X131119047Y-107961904D02*
X131119047Y-108533333D01*
X131080952Y-108647619D01*
X131004761Y-108723809D01*
X130890476Y-108761904D01*
X130814285Y-108761904D01*
X131880952Y-108761904D02*
X131500000Y-108761904D01*
X131500000Y-107961904D01*
X132604761Y-108685714D02*
X132566666Y-108723809D01*
X132452380Y-108761904D01*
X132376190Y-108761904D01*
X132261904Y-108723809D01*
X132185714Y-108647619D01*
X132147619Y-108571428D01*
X132109523Y-108419047D01*
X132109523Y-108304761D01*
X132147619Y-108152380D01*
X132185714Y-108076190D01*
X132261904Y-108000000D01*
X132376190Y-107961904D01*
X132452380Y-107961904D01*
X132566666Y-108000000D01*
X132604761Y-108038095D01*
X133176190Y-107961904D02*
X133176190Y-108533333D01*
X133138095Y-108647619D01*
X133061904Y-108723809D01*
X132947619Y-108761904D01*
X132871428Y-108761904D01*
X133938095Y-108761904D02*
X133557142Y-108761904D01*
X133557142Y-107961904D01*
X134661904Y-108685714D02*
X134623809Y-108723809D01*
X134509523Y-108761904D01*
X134433333Y-108761904D01*
X134319047Y-108723809D01*
X134242857Y-108647619D01*
X134204761Y-108571428D01*
X134166666Y-108419047D01*
X134166666Y-108304761D01*
X134204761Y-108152380D01*
X134242857Y-108076190D01*
X134319047Y-108000000D01*
X134433333Y-107961904D01*
X134509523Y-107961904D01*
X134623809Y-108000000D01*
X134661904Y-108038095D01*
D11*
X133999761Y-136552380D02*
X133523571Y-136552380D01*
X133523571Y-135552380D01*
X134237857Y-135552380D02*
X134904523Y-135552380D01*
X134475952Y-136552380D01*
X135428333Y-135980952D02*
X135333095Y-135933333D01*
X135285476Y-135885714D01*
X135237857Y-135790476D01*
X135237857Y-135742857D01*
X135285476Y-135647619D01*
X135333095Y-135600000D01*
X135428333Y-135552380D01*
X135618809Y-135552380D01*
X135714047Y-135600000D01*
X135761666Y-135647619D01*
X135809285Y-135742857D01*
X135809285Y-135790476D01*
X135761666Y-135885714D01*
X135714047Y-135933333D01*
X135618809Y-135980952D01*
X135428333Y-135980952D01*
X135333095Y-136028571D01*
X135285476Y-136076190D01*
X135237857Y-136171428D01*
X135237857Y-136361904D01*
X135285476Y-136457142D01*
X135333095Y-136504761D01*
X135428333Y-136552380D01*
X135618809Y-136552380D01*
X135714047Y-136504761D01*
X135761666Y-136457142D01*
X135809285Y-136361904D01*
X135809285Y-136171428D01*
X135761666Y-136076190D01*
X135714047Y-136028571D01*
X135618809Y-135980952D01*
X136761666Y-136552380D02*
X136190238Y-136552380D01*
X136475952Y-136552380D02*
X136475952Y-135552380D01*
X136380714Y-135695238D01*
X136285476Y-135790476D01*
X136190238Y-135838095D01*
X137142619Y-135647619D02*
X137190238Y-135600000D01*
X137285476Y-135552380D01*
X137523571Y-135552380D01*
X137618809Y-135600000D01*
X137666428Y-135647619D01*
X137714047Y-135742857D01*
X137714047Y-135838095D01*
X137666428Y-135980952D01*
X137095000Y-136552380D01*
X137714047Y-136552380D01*
X102004761Y-136552380D02*
X101528571Y-136552380D01*
X101528571Y-135552380D01*
X102242857Y-135552380D02*
X102909523Y-135552380D01*
X102480952Y-136552380D01*
X103433333Y-135980952D02*
X103338095Y-135933333D01*
X103290476Y-135885714D01*
X103242857Y-135790476D01*
X103242857Y-135742857D01*
X103290476Y-135647619D01*
X103338095Y-135600000D01*
X103433333Y-135552380D01*
X103623809Y-135552380D01*
X103719047Y-135600000D01*
X103766666Y-135647619D01*
X103814285Y-135742857D01*
X103814285Y-135790476D01*
X103766666Y-135885714D01*
X103719047Y-135933333D01*
X103623809Y-135980952D01*
X103433333Y-135980952D01*
X103338095Y-136028571D01*
X103290476Y-136076190D01*
X103242857Y-136171428D01*
X103242857Y-136361904D01*
X103290476Y-136457142D01*
X103338095Y-136504761D01*
X103433333Y-136552380D01*
X103623809Y-136552380D01*
X103719047Y-136504761D01*
X103766666Y-136457142D01*
X103814285Y-136361904D01*
X103814285Y-136171428D01*
X103766666Y-136076190D01*
X103719047Y-136028571D01*
X103623809Y-135980952D01*
X104433333Y-135552380D02*
X104528571Y-135552380D01*
X104623809Y-135600000D01*
X104671428Y-135647619D01*
X104719047Y-135742857D01*
X104766666Y-135933333D01*
X104766666Y-136171428D01*
X104719047Y-136361904D01*
X104671428Y-136457142D01*
X104623809Y-136504761D01*
X104528571Y-136552380D01*
X104433333Y-136552380D01*
X104338095Y-136504761D01*
X104290476Y-136457142D01*
X104242857Y-136361904D01*
X104195238Y-136171428D01*
X104195238Y-135933333D01*
X104242857Y-135742857D01*
X104290476Y-135647619D01*
X104338095Y-135600000D01*
X104433333Y-135552380D01*
X105671428Y-135552380D02*
X105195238Y-135552380D01*
X105147619Y-136028571D01*
X105195238Y-135980952D01*
X105290476Y-135933333D01*
X105528571Y-135933333D01*
X105623809Y-135980952D01*
X105671428Y-136028571D01*
X105719047Y-136123809D01*
X105719047Y-136361904D01*
X105671428Y-136457142D01*
X105623809Y-136504761D01*
X105528571Y-136552380D01*
X105290476Y-136552380D01*
X105195238Y-136504761D01*
X105147619Y-136457142D01*
D13*
X125900000Y-110870000D02*
X125900000Y-108070000D01*
X121840000Y-108070000D02*
X121840000Y-111230000D01*
X139960000Y-108070000D02*
X139960000Y-111230000D01*
X135900000Y-110870000D02*
X135900000Y-108070000D01*
X125900000Y-108070000D02*
X121840000Y-108070000D01*
X135900000Y-113130000D02*
X125900000Y-113130000D01*
X139960000Y-111230000D02*
X135900000Y-111230000D01*
X121840000Y-111230000D02*
X125900000Y-111230000D01*
X135900000Y-110340000D02*
X135900000Y-113130000D01*
X135900000Y-110870000D02*
X125900000Y-110870000D01*
X125900000Y-110340000D02*
X125900000Y-113130000D01*
X135900000Y-108070000D02*
X139960000Y-108070000D01*
X119440000Y-131400000D02*
X119440000Y-137400000D01*
X115190000Y-128740000D02*
X115190000Y-131400000D01*
X118680000Y-128342929D02*
X118680000Y-128740000D01*
X117790000Y-128740000D02*
X117790000Y-131400000D01*
X121920000Y-131400000D02*
X121920000Y-137400000D01*
X118680000Y-137400000D02*
X118680000Y-131400000D01*
X121600000Y-126030000D02*
X122870000Y-126030000D01*
X122930000Y-131400000D02*
X122930000Y-128740000D01*
X121980000Y-128410000D02*
X121980000Y-128740000D01*
X120330000Y-128740000D02*
X120330000Y-131400000D01*
X121680000Y-131400000D02*
X121680000Y-137400000D01*
X119440000Y-137400000D02*
X118680000Y-137400000D01*
X116900000Y-131400000D02*
X116900000Y-137400000D01*
X116140000Y-137400000D02*
X116140000Y-131400000D01*
X116140000Y-128342929D02*
X116140000Y-128740000D01*
X121320000Y-131400000D02*
X121320000Y-137400000D01*
X121560000Y-131400000D02*
X121560000Y-137400000D01*
X119440000Y-128342929D02*
X119440000Y-128740000D01*
X121980000Y-137400000D02*
X121220000Y-137400000D01*
X121220000Y-128410000D02*
X121220000Y-128740000D01*
X121980000Y-131400000D02*
X121980000Y-137400000D01*
X122870000Y-126030000D02*
X122870000Y-127300000D01*
X121800000Y-131400000D02*
X121800000Y-137400000D01*
X121220000Y-137400000D02*
X121220000Y-131400000D01*
X115190000Y-131400000D02*
X122930000Y-131400000D01*
X121440000Y-131400000D02*
X121440000Y-137400000D01*
X116900000Y-128342929D02*
X116900000Y-128740000D01*
X122930000Y-128740000D02*
X115190000Y-128740000D01*
X116900000Y-137400000D02*
X116140000Y-137400000D01*
X111550000Y-134382000D02*
X111550000Y-131100000D01*
X109850000Y-134382000D02*
X111550000Y-134382000D01*
X109850000Y-134382000D02*
X109850000Y-131100000D01*
X139150000Y-127130000D02*
X138880000Y-127130000D01*
X139150000Y-128630000D02*
X139150000Y-127130000D01*
X132250000Y-128630000D02*
X132250000Y-127130000D01*
X132250000Y-127130000D02*
X132520000Y-127130000D01*
X132520000Y-127130000D02*
X132520000Y-126030000D01*
X138880000Y-127130000D02*
X138880000Y-124300000D01*
X112340580Y-128110000D02*
X112059420Y-128110000D01*
X112340580Y-127090000D02*
X112059420Y-127090000D01*
X127677500Y-125862742D02*
X127677500Y-126337258D01*
X128722500Y-125862742D02*
X128722500Y-126337258D01*
X116908258Y-124934500D02*
X116433742Y-124934500D01*
X116908258Y-123889500D02*
X116433742Y-123889500D01*
X112437258Y-125622500D02*
X111962742Y-125622500D01*
X112437258Y-124577500D02*
X111962742Y-124577500D01*
X136710000Y-120760000D02*
X136710000Y-123410000D01*
X136710000Y-114190000D02*
X136710000Y-116840000D01*
X127490000Y-123410000D02*
X127490000Y-120760000D01*
X127490000Y-116840000D02*
X127490000Y-114190000D01*
X136710000Y-123410000D02*
X127490000Y-123410000D01*
X127490000Y-114190000D02*
X136710000Y-114190000D01*
X127490000Y-116840000D02*
X127160000Y-116840000D01*
X131435000Y-125888748D02*
X131435000Y-126411252D01*
X129965000Y-125888748D02*
X129965000Y-126411252D01*
X112374500Y-130318000D02*
X112374500Y-133468000D01*
X114050000Y-130318000D02*
X114050000Y-133468000D01*
X114050000Y-130318000D02*
X112374500Y-130318000D01*
X100520000Y-127030000D02*
X100520000Y-125930000D01*
X100250000Y-127030000D02*
X100520000Y-127030000D01*
X107150000Y-128530000D02*
X107150000Y-127030000D01*
X100250000Y-128530000D02*
X100250000Y-127030000D01*
X106880000Y-127030000D02*
X106880000Y-124200000D01*
X107150000Y-127030000D02*
X106880000Y-127030000D01*
X116400000Y-105840000D02*
X118350000Y-105840000D01*
X116400000Y-110960000D02*
X114450000Y-110960000D01*
X116400000Y-110960000D02*
X119850000Y-110960000D01*
X116400000Y-105840000D02*
X114450000Y-105840000D01*
X121130000Y-114470000D02*
X121130000Y-117070000D01*
X119800000Y-111870000D02*
X121130000Y-111870000D01*
X113390000Y-111870000D02*
X113390000Y-117070000D01*
X118530000Y-114470000D02*
X121130000Y-114470000D01*
X118530000Y-111870000D02*
X118530000Y-114470000D01*
X121130000Y-117070000D02*
X113390000Y-117070000D01*
X118530000Y-111870000D02*
X113390000Y-111870000D01*
X121130000Y-111870000D02*
X121130000Y-113200000D01*
X105700000Y-105865000D02*
X102250000Y-105865000D01*
X105700000Y-114735000D02*
X103750000Y-114735000D01*
X105700000Y-105865000D02*
X107650000Y-105865000D01*
X105700000Y-114735000D02*
X107650000Y-114735000D01*
X107765000Y-128088748D02*
X107765000Y-128611252D01*
X109235000Y-128088748D02*
X109235000Y-128611252D01*
X108737742Y-123777500D02*
X109212258Y-123777500D01*
X108737742Y-124822500D02*
X109212258Y-124822500D01*
X125935000Y-127938748D02*
X125935000Y-128461252D01*
X124465000Y-127938748D02*
X124465000Y-128461252D01*
X121737258Y-123889500D02*
X121262742Y-123889500D01*
X121737258Y-124934500D02*
X121262742Y-124934500D01*
M02*
