G04 #@! TF.GenerationSoftware,KiCad,Pcbnew,5.1.5-52549c5~84~ubuntu18.04.1*
G04 #@! TF.CreationDate,2019-12-15T09:51:59+00:00*
G04 #@! TF.ProjectId,megadesk,6d656761-6465-4736-9b2e-6b696361645f,rev?*
G04 #@! TF.SameCoordinates,Original*
G04 #@! TF.FileFunction,Copper,L2,Bot*
G04 #@! TF.FilePolarity,Positive*
%FSLAX46Y46*%
G04 Gerber Fmt 4.6, Leading zero omitted, Abs format (unit mm)*
G04 Created by KiCad (PCBNEW 5.1.5-52549c5~84~ubuntu18.04.1) date 2019-12-15 09:51:59*
%MOMM*%
%LPD*%
G04 APERTURE LIST*
%ADD10O,1.700000X1.700000*%
%ADD11R,1.700000X1.700000*%
%ADD12C,0.450000*%
%ADD13C,0.250000*%
%ADD14C,0.254000*%
G04 APERTURE END LIST*
D10*
X101748000Y-132032000D03*
X101748000Y-134572000D03*
X104288000Y-132032000D03*
X104288000Y-134572000D03*
X106828000Y-132032000D03*
D11*
X106828000Y-134572000D03*
X121600000Y-127300000D03*
D10*
X119060000Y-127300000D03*
X116520000Y-127300000D03*
D12*
X129180000Y-120856000D03*
X132482000Y-131778004D03*
X138832000Y-124666000D03*
X127148000Y-125428000D03*
X124862000Y-121872000D03*
X108860000Y-123650000D03*
X106574000Y-108918000D03*
X130958000Y-107902000D03*
X136038000Y-135842000D03*
X120290000Y-135588000D03*
X121306000Y-114252000D03*
X113940000Y-121872000D03*
X115972000Y-124666000D03*
X123846000Y-131778000D03*
X112670000Y-131270000D03*
X113431994Y-125174000D03*
X114984998Y-134600998D03*
X117750000Y-135334000D03*
X113686000Y-116792000D03*
X116226000Y-115014000D03*
X121560000Y-132286000D03*
X107224138Y-129031664D03*
X121560000Y-108918000D03*
X119274000Y-119078000D03*
X125624000Y-134572000D03*
X114194000Y-134022000D03*
X130196000Y-130762000D03*
X111877000Y-129777000D03*
X117496000Y-113744000D03*
X118258000Y-119840000D03*
X131199998Y-113600000D03*
X122208165Y-120150010D03*
X120750001Y-119600000D03*
X130199996Y-113600004D03*
X115464000Y-119585996D03*
X107843996Y-119585984D03*
D13*
X107677999Y-132881999D02*
X131378005Y-132881999D01*
X131378005Y-132881999D02*
X132482000Y-131778004D01*
X106828000Y-132032000D02*
X107677999Y-132881999D01*
X138513802Y-124666000D02*
X138832000Y-124666000D01*
X129180000Y-120856000D02*
X134703802Y-120856000D01*
X134703802Y-120856000D02*
X138513802Y-124666000D01*
X123338000Y-131270000D02*
X112670000Y-131270000D01*
X123846000Y-131778000D02*
X123338000Y-131270000D01*
X114394000Y-125174000D02*
X113431994Y-125174000D01*
X116520000Y-127300000D02*
X114394000Y-125174000D01*
X106828000Y-134572000D02*
X114956000Y-134572000D01*
X114956000Y-134572000D02*
X114984998Y-134600998D01*
X104288000Y-134572000D02*
X105463001Y-135747001D01*
X117336999Y-135747001D02*
X117750000Y-135334000D01*
X105463001Y-135747001D02*
X117336999Y-135747001D01*
X104288000Y-132032000D02*
X104288000Y-117300000D01*
X104288000Y-117300000D02*
X104796000Y-116792000D01*
X104796000Y-116792000D02*
X113686000Y-116792000D01*
X101748000Y-134572000D02*
X100224000Y-133048000D01*
X100224000Y-133048000D02*
X100224000Y-117808000D01*
X100224000Y-117808000D02*
X103018000Y-115014000D01*
X103018000Y-115014000D02*
X116226000Y-115014000D01*
X110478474Y-132286000D02*
X107224138Y-129031664D01*
X121560000Y-132286000D02*
X110478474Y-132286000D01*
X121560000Y-108918000D02*
X119274000Y-111204000D01*
X119274000Y-111204000D02*
X119274000Y-119078000D01*
X125624000Y-134572000D02*
X125116000Y-134064000D01*
X125116000Y-134064000D02*
X115972000Y-134064000D01*
X115930000Y-134022000D02*
X114194000Y-134022000D01*
X115972000Y-134064000D02*
X115930000Y-134022000D01*
X112565998Y-130465998D02*
X111877000Y-129777000D01*
X130196000Y-130762000D02*
X129899998Y-130465998D01*
X129899998Y-130465998D02*
X112565998Y-130465998D01*
X117496000Y-113744000D02*
X117496000Y-119078000D01*
X117496000Y-119078000D02*
X118258000Y-119840000D01*
X124649988Y-120150010D02*
X122208165Y-120150010D01*
X131199998Y-113600000D02*
X124649988Y-120150010D01*
X130199996Y-113740004D02*
X130199996Y-113600004D01*
X120750001Y-119600000D02*
X124340000Y-119600000D01*
X124340000Y-119600000D02*
X130199996Y-113740004D01*
X107844008Y-119585996D02*
X107843996Y-119585984D01*
X115464000Y-119585996D02*
X107844008Y-119585996D01*
D14*
G36*
X140240000Y-136640000D02*
G01*
X99410000Y-136640000D01*
X99410000Y-117808000D01*
X99460324Y-117808000D01*
X99464001Y-117845333D01*
X99464000Y-133010678D01*
X99460324Y-133048000D01*
X99464000Y-133085322D01*
X99464000Y-133085332D01*
X99474997Y-133196985D01*
X99494719Y-133262000D01*
X99518454Y-133340246D01*
X99589026Y-133472276D01*
X99628871Y-133520826D01*
X99683999Y-133588001D01*
X99713002Y-133611803D01*
X100306790Y-134205592D01*
X100263000Y-134425740D01*
X100263000Y-134718260D01*
X100320068Y-135005158D01*
X100432010Y-135275411D01*
X100594525Y-135518632D01*
X100801368Y-135725475D01*
X101044589Y-135887990D01*
X101314842Y-135999932D01*
X101601740Y-136057000D01*
X101894260Y-136057000D01*
X102181158Y-135999932D01*
X102451411Y-135887990D01*
X102694632Y-135725475D01*
X102901475Y-135518632D01*
X103018000Y-135344240D01*
X103134525Y-135518632D01*
X103341368Y-135725475D01*
X103584589Y-135887990D01*
X103854842Y-135999932D01*
X104141740Y-136057000D01*
X104434260Y-136057000D01*
X104654408Y-136013210D01*
X104899202Y-136258004D01*
X104923000Y-136287002D01*
X105038725Y-136381975D01*
X105170754Y-136452547D01*
X105314015Y-136496004D01*
X105425668Y-136507001D01*
X105425677Y-136507001D01*
X105463000Y-136510677D01*
X105500323Y-136507001D01*
X117299677Y-136507001D01*
X117336999Y-136510677D01*
X117374321Y-136507001D01*
X117374332Y-136507001D01*
X117485985Y-136496004D01*
X117629246Y-136452547D01*
X117761275Y-136381975D01*
X117877000Y-136287002D01*
X117900803Y-136257998D01*
X117997104Y-136161697D01*
X118000853Y-136160951D01*
X118157363Y-136096122D01*
X118298218Y-136002005D01*
X118418005Y-135882218D01*
X118512122Y-135741363D01*
X118576951Y-135584853D01*
X118610000Y-135418703D01*
X118610000Y-135249297D01*
X118576951Y-135083147D01*
X118512122Y-134926637D01*
X118443542Y-134824000D01*
X124797524Y-134824000D01*
X124861878Y-134979363D01*
X124955995Y-135120218D01*
X125075782Y-135240005D01*
X125216637Y-135334122D01*
X125373147Y-135398951D01*
X125539297Y-135432000D01*
X125708703Y-135432000D01*
X125874853Y-135398951D01*
X126031363Y-135334122D01*
X126172218Y-135240005D01*
X126292005Y-135120218D01*
X126386122Y-134979363D01*
X126450951Y-134822853D01*
X126484000Y-134656703D01*
X126484000Y-134487297D01*
X126450951Y-134321147D01*
X126386122Y-134164637D01*
X126292005Y-134023782D01*
X126172218Y-133903995D01*
X126031363Y-133809878D01*
X125874853Y-133745049D01*
X125871105Y-133744303D01*
X125768800Y-133641999D01*
X131340683Y-133641999D01*
X131378005Y-133645675D01*
X131415327Y-133641999D01*
X131415338Y-133641999D01*
X131526991Y-133631002D01*
X131670252Y-133587545D01*
X131802281Y-133516973D01*
X131918006Y-133422000D01*
X131941809Y-133392997D01*
X132729105Y-132605700D01*
X132732853Y-132604955D01*
X132889363Y-132540126D01*
X133030218Y-132446009D01*
X133150005Y-132326222D01*
X133244122Y-132185367D01*
X133308951Y-132028857D01*
X133342000Y-131862707D01*
X133342000Y-131693301D01*
X133308951Y-131527151D01*
X133244122Y-131370641D01*
X133150005Y-131229786D01*
X133030218Y-131109999D01*
X132889363Y-131015882D01*
X132732853Y-130951053D01*
X132566703Y-130918004D01*
X132397297Y-130918004D01*
X132231147Y-130951053D01*
X132074637Y-131015882D01*
X131933782Y-131109999D01*
X131813995Y-131229786D01*
X131719878Y-131370641D01*
X131655049Y-131527151D01*
X131654304Y-131530899D01*
X131063204Y-132121999D01*
X124634368Y-132121999D01*
X124672951Y-132028853D01*
X124706000Y-131862703D01*
X124706000Y-131693297D01*
X124672951Y-131527147D01*
X124608122Y-131370637D01*
X124514005Y-131229782D01*
X124510221Y-131225998D01*
X129471721Y-131225998D01*
X129527995Y-131310218D01*
X129647782Y-131430005D01*
X129788637Y-131524122D01*
X129945147Y-131588951D01*
X130111297Y-131622000D01*
X130280703Y-131622000D01*
X130446853Y-131588951D01*
X130603363Y-131524122D01*
X130744218Y-131430005D01*
X130864005Y-131310218D01*
X130958122Y-131169363D01*
X131022951Y-131012853D01*
X131056000Y-130846703D01*
X131056000Y-130677297D01*
X131022951Y-130511147D01*
X130958122Y-130354637D01*
X130864005Y-130213782D01*
X130744218Y-130093995D01*
X130603363Y-129999878D01*
X130447724Y-129935410D01*
X130439999Y-129925997D01*
X130324274Y-129831024D01*
X130192245Y-129760452D01*
X130048984Y-129716995D01*
X129937331Y-129705998D01*
X129937320Y-129705998D01*
X129899998Y-129702322D01*
X129862676Y-129705998D01*
X112880800Y-129705998D01*
X112704697Y-129529895D01*
X112703951Y-129526147D01*
X112639122Y-129369637D01*
X112545005Y-129228782D01*
X112425218Y-129108995D01*
X112284363Y-129014878D01*
X112127853Y-128950049D01*
X111961703Y-128917000D01*
X111792297Y-128917000D01*
X111626147Y-128950049D01*
X111469637Y-129014878D01*
X111328782Y-129108995D01*
X111208995Y-129228782D01*
X111114878Y-129369637D01*
X111050049Y-129526147D01*
X111017000Y-129692297D01*
X111017000Y-129861703D01*
X111050049Y-130027853D01*
X111114878Y-130184363D01*
X111208995Y-130325218D01*
X111328782Y-130445005D01*
X111469637Y-130539122D01*
X111626147Y-130603951D01*
X111629895Y-130604697D01*
X111902008Y-130876809D01*
X111843049Y-131019147D01*
X111810000Y-131185297D01*
X111810000Y-131354703D01*
X111843049Y-131520853D01*
X111845181Y-131526000D01*
X110793276Y-131526000D01*
X108051835Y-128784560D01*
X108051089Y-128780811D01*
X107986260Y-128624301D01*
X107892143Y-128483446D01*
X107772356Y-128363659D01*
X107631501Y-128269542D01*
X107474991Y-128204713D01*
X107308841Y-128171664D01*
X107139435Y-128171664D01*
X106973285Y-128204713D01*
X106816775Y-128269542D01*
X106675920Y-128363659D01*
X106556133Y-128483446D01*
X106462016Y-128624301D01*
X106397187Y-128780811D01*
X106364138Y-128946961D01*
X106364138Y-129116367D01*
X106397187Y-129282517D01*
X106462016Y-129439027D01*
X106556133Y-129579882D01*
X106675920Y-129699669D01*
X106816775Y-129793786D01*
X106973285Y-129858615D01*
X106977034Y-129859361D01*
X109239671Y-132121999D01*
X108313000Y-132121999D01*
X108313000Y-131885740D01*
X108255932Y-131598842D01*
X108143990Y-131328589D01*
X107981475Y-131085368D01*
X107774632Y-130878525D01*
X107531411Y-130716010D01*
X107261158Y-130604068D01*
X106974260Y-130547000D01*
X106681740Y-130547000D01*
X106394842Y-130604068D01*
X106124589Y-130716010D01*
X105881368Y-130878525D01*
X105674525Y-131085368D01*
X105558000Y-131259760D01*
X105441475Y-131085368D01*
X105234632Y-130878525D01*
X105048000Y-130753822D01*
X105048000Y-125089297D01*
X112571994Y-125089297D01*
X112571994Y-125258703D01*
X112605043Y-125424853D01*
X112669872Y-125581363D01*
X112763989Y-125722218D01*
X112883776Y-125842005D01*
X113024631Y-125936122D01*
X113181141Y-126000951D01*
X113347291Y-126034000D01*
X113516697Y-126034000D01*
X113682847Y-126000951D01*
X113839357Y-125936122D01*
X113842533Y-125934000D01*
X114079199Y-125934000D01*
X115078790Y-126933592D01*
X115035000Y-127153740D01*
X115035000Y-127446260D01*
X115092068Y-127733158D01*
X115204010Y-128003411D01*
X115366525Y-128246632D01*
X115573368Y-128453475D01*
X115816589Y-128615990D01*
X116086842Y-128727932D01*
X116373740Y-128785000D01*
X116666260Y-128785000D01*
X116953158Y-128727932D01*
X117223411Y-128615990D01*
X117466632Y-128453475D01*
X117673475Y-128246632D01*
X117795195Y-128064466D01*
X117864822Y-128181355D01*
X118059731Y-128397588D01*
X118293080Y-128571641D01*
X118555901Y-128696825D01*
X118703110Y-128741476D01*
X118933000Y-128620155D01*
X118933000Y-127427000D01*
X118913000Y-127427000D01*
X118913000Y-127173000D01*
X118933000Y-127173000D01*
X118933000Y-125979845D01*
X119187000Y-125979845D01*
X119187000Y-127173000D01*
X119207000Y-127173000D01*
X119207000Y-127427000D01*
X119187000Y-127427000D01*
X119187000Y-128620155D01*
X119416890Y-128741476D01*
X119564099Y-128696825D01*
X119826920Y-128571641D01*
X120060269Y-128397588D01*
X120136034Y-128313534D01*
X120160498Y-128394180D01*
X120219463Y-128504494D01*
X120298815Y-128601185D01*
X120395506Y-128680537D01*
X120505820Y-128739502D01*
X120625518Y-128775812D01*
X120750000Y-128788072D01*
X122450000Y-128788072D01*
X122574482Y-128775812D01*
X122694180Y-128739502D01*
X122804494Y-128680537D01*
X122901185Y-128601185D01*
X122980537Y-128504494D01*
X123039502Y-128394180D01*
X123075812Y-128274482D01*
X123088072Y-128150000D01*
X123088072Y-126450000D01*
X123075812Y-126325518D01*
X123039502Y-126205820D01*
X122980537Y-126095506D01*
X122901185Y-125998815D01*
X122804494Y-125919463D01*
X122694180Y-125860498D01*
X122574482Y-125824188D01*
X122450000Y-125811928D01*
X120750000Y-125811928D01*
X120625518Y-125824188D01*
X120505820Y-125860498D01*
X120395506Y-125919463D01*
X120298815Y-125998815D01*
X120219463Y-126095506D01*
X120160498Y-126205820D01*
X120136034Y-126286466D01*
X120060269Y-126202412D01*
X119826920Y-126028359D01*
X119564099Y-125903175D01*
X119416890Y-125858524D01*
X119187000Y-125979845D01*
X118933000Y-125979845D01*
X118703110Y-125858524D01*
X118555901Y-125903175D01*
X118293080Y-126028359D01*
X118059731Y-126202412D01*
X117864822Y-126418645D01*
X117795195Y-126535534D01*
X117673475Y-126353368D01*
X117466632Y-126146525D01*
X117223411Y-125984010D01*
X116953158Y-125872068D01*
X116666260Y-125815000D01*
X116373740Y-125815000D01*
X116153592Y-125858790D01*
X114957804Y-124663003D01*
X114934001Y-124633999D01*
X114818276Y-124539026D01*
X114686247Y-124468454D01*
X114542986Y-124424997D01*
X114431333Y-124414000D01*
X114431322Y-124414000D01*
X114394000Y-124410324D01*
X114356678Y-124414000D01*
X113842533Y-124414000D01*
X113839357Y-124411878D01*
X113682847Y-124347049D01*
X113516697Y-124314000D01*
X113347291Y-124314000D01*
X113181141Y-124347049D01*
X113024631Y-124411878D01*
X112883776Y-124505995D01*
X112763989Y-124625782D01*
X112669872Y-124766637D01*
X112605043Y-124923147D01*
X112571994Y-125089297D01*
X105048000Y-125089297D01*
X105048000Y-119501281D01*
X106983996Y-119501281D01*
X106983996Y-119670687D01*
X107017045Y-119836837D01*
X107081874Y-119993347D01*
X107175991Y-120134202D01*
X107295778Y-120253989D01*
X107436633Y-120348106D01*
X107593143Y-120412935D01*
X107759293Y-120445984D01*
X107928699Y-120445984D01*
X108094849Y-120412935D01*
X108251359Y-120348106D01*
X108254517Y-120345996D01*
X115053461Y-120345996D01*
X115056637Y-120348118D01*
X115213147Y-120412947D01*
X115379297Y-120445996D01*
X115548703Y-120445996D01*
X115714853Y-120412947D01*
X115871363Y-120348118D01*
X116012218Y-120254001D01*
X116132005Y-120134214D01*
X116226122Y-119993359D01*
X116290951Y-119836849D01*
X116324000Y-119670699D01*
X116324000Y-119501293D01*
X116290951Y-119335143D01*
X116226122Y-119178633D01*
X116132005Y-119037778D01*
X116012218Y-118917991D01*
X115871363Y-118823874D01*
X115714853Y-118759045D01*
X115548703Y-118725996D01*
X115379297Y-118725996D01*
X115213147Y-118759045D01*
X115056637Y-118823874D01*
X115053461Y-118825996D01*
X108254553Y-118825996D01*
X108251359Y-118823862D01*
X108094849Y-118759033D01*
X107928699Y-118725984D01*
X107759293Y-118725984D01*
X107593143Y-118759033D01*
X107436633Y-118823862D01*
X107295778Y-118917979D01*
X107175991Y-119037766D01*
X107081874Y-119178621D01*
X107017045Y-119335131D01*
X106983996Y-119501281D01*
X105048000Y-119501281D01*
X105048000Y-117614801D01*
X105110802Y-117552000D01*
X113275461Y-117552000D01*
X113278637Y-117554122D01*
X113435147Y-117618951D01*
X113601297Y-117652000D01*
X113770703Y-117652000D01*
X113936853Y-117618951D01*
X114093363Y-117554122D01*
X114234218Y-117460005D01*
X114354005Y-117340218D01*
X114448122Y-117199363D01*
X114512951Y-117042853D01*
X114546000Y-116876703D01*
X114546000Y-116707297D01*
X114512951Y-116541147D01*
X114448122Y-116384637D01*
X114354005Y-116243782D01*
X114234218Y-116123995D01*
X114093363Y-116029878D01*
X113936853Y-115965049D01*
X113770703Y-115932000D01*
X113601297Y-115932000D01*
X113435147Y-115965049D01*
X113278637Y-116029878D01*
X113275461Y-116032000D01*
X104833322Y-116032000D01*
X104795999Y-116028324D01*
X104758676Y-116032000D01*
X104758667Y-116032000D01*
X104647014Y-116042997D01*
X104503753Y-116086454D01*
X104371724Y-116157026D01*
X104255999Y-116251999D01*
X104232200Y-116280998D01*
X103776998Y-116736201D01*
X103748000Y-116759999D01*
X103724202Y-116788997D01*
X103724201Y-116788998D01*
X103653026Y-116875724D01*
X103582454Y-117007754D01*
X103538998Y-117151015D01*
X103524324Y-117300000D01*
X103528001Y-117337332D01*
X103528000Y-130753821D01*
X103341368Y-130878525D01*
X103134525Y-131085368D01*
X103012805Y-131267534D01*
X102943178Y-131150645D01*
X102748269Y-130934412D01*
X102514920Y-130760359D01*
X102252099Y-130635175D01*
X102104890Y-130590524D01*
X101875000Y-130711845D01*
X101875000Y-131905000D01*
X101895000Y-131905000D01*
X101895000Y-132159000D01*
X101875000Y-132159000D01*
X101875000Y-132179000D01*
X101621000Y-132179000D01*
X101621000Y-132159000D01*
X101601000Y-132159000D01*
X101601000Y-131905000D01*
X101621000Y-131905000D01*
X101621000Y-130711845D01*
X101391110Y-130590524D01*
X101243901Y-130635175D01*
X100984000Y-130758968D01*
X100984000Y-118122801D01*
X103332802Y-115774000D01*
X115815461Y-115774000D01*
X115818637Y-115776122D01*
X115975147Y-115840951D01*
X116141297Y-115874000D01*
X116310703Y-115874000D01*
X116476853Y-115840951D01*
X116633363Y-115776122D01*
X116736000Y-115707541D01*
X116736001Y-119040668D01*
X116732324Y-119078000D01*
X116746998Y-119226985D01*
X116790454Y-119370246D01*
X116861026Y-119502276D01*
X116929724Y-119585984D01*
X116956000Y-119618001D01*
X116984998Y-119641799D01*
X117430304Y-120087105D01*
X117431049Y-120090853D01*
X117495878Y-120247363D01*
X117589995Y-120388218D01*
X117709782Y-120508005D01*
X117850637Y-120602122D01*
X118007147Y-120666951D01*
X118173297Y-120700000D01*
X118342703Y-120700000D01*
X118508853Y-120666951D01*
X118665363Y-120602122D01*
X118806218Y-120508005D01*
X118926005Y-120388218D01*
X119020122Y-120247363D01*
X119084951Y-120090853D01*
X119118000Y-119924703D01*
X119118000Y-119923818D01*
X119189297Y-119938000D01*
X119358703Y-119938000D01*
X119524853Y-119904951D01*
X119681363Y-119840122D01*
X119822218Y-119746005D01*
X119890001Y-119678222D01*
X119890001Y-119684703D01*
X119923050Y-119850853D01*
X119987879Y-120007363D01*
X120081996Y-120148218D01*
X120201783Y-120268005D01*
X120342638Y-120362122D01*
X120499148Y-120426951D01*
X120665298Y-120460000D01*
X120834704Y-120460000D01*
X121000854Y-120426951D01*
X121157364Y-120362122D01*
X121160540Y-120360000D01*
X121373086Y-120360000D01*
X121381214Y-120400863D01*
X121446043Y-120557373D01*
X121540160Y-120698228D01*
X121659947Y-120818015D01*
X121800802Y-120912132D01*
X121957312Y-120976961D01*
X122123462Y-121010010D01*
X122292868Y-121010010D01*
X122459018Y-120976961D01*
X122615528Y-120912132D01*
X122618704Y-120910010D01*
X124612666Y-120910010D01*
X124649988Y-120913686D01*
X124687310Y-120910010D01*
X124687321Y-120910010D01*
X124798974Y-120899013D01*
X124942235Y-120855556D01*
X125074264Y-120784984D01*
X125090941Y-120771297D01*
X128320000Y-120771297D01*
X128320000Y-120940703D01*
X128353049Y-121106853D01*
X128417878Y-121263363D01*
X128511995Y-121404218D01*
X128631782Y-121524005D01*
X128772637Y-121618122D01*
X128929147Y-121682951D01*
X129095297Y-121716000D01*
X129264703Y-121716000D01*
X129430853Y-121682951D01*
X129587363Y-121618122D01*
X129590539Y-121616000D01*
X134389001Y-121616000D01*
X137950003Y-125177003D01*
X137973801Y-125206001D01*
X138089526Y-125300974D01*
X138221555Y-125371546D01*
X138364816Y-125415003D01*
X138411951Y-125419645D01*
X138424637Y-125428122D01*
X138581147Y-125492951D01*
X138747297Y-125526000D01*
X138916703Y-125526000D01*
X139082853Y-125492951D01*
X139239363Y-125428122D01*
X139380218Y-125334005D01*
X139500005Y-125214218D01*
X139594122Y-125073363D01*
X139658951Y-124916853D01*
X139692000Y-124750703D01*
X139692000Y-124581297D01*
X139658951Y-124415147D01*
X139594122Y-124258637D01*
X139500005Y-124117782D01*
X139380218Y-123997995D01*
X139239363Y-123903878D01*
X139082853Y-123839049D01*
X138916703Y-123806000D01*
X138747297Y-123806000D01*
X138731705Y-123809101D01*
X135267606Y-120345003D01*
X135243803Y-120315999D01*
X135128078Y-120221026D01*
X134996049Y-120150454D01*
X134852788Y-120106997D01*
X134741135Y-120096000D01*
X134741124Y-120096000D01*
X134703802Y-120092324D01*
X134666480Y-120096000D01*
X129590539Y-120096000D01*
X129587363Y-120093878D01*
X129430853Y-120029049D01*
X129264703Y-119996000D01*
X129095297Y-119996000D01*
X128929147Y-120029049D01*
X128772637Y-120093878D01*
X128631782Y-120187995D01*
X128511995Y-120307782D01*
X128417878Y-120448637D01*
X128353049Y-120605147D01*
X128320000Y-120771297D01*
X125090941Y-120771297D01*
X125189989Y-120690011D01*
X125213792Y-120661007D01*
X131447104Y-114427696D01*
X131450851Y-114426951D01*
X131607361Y-114362122D01*
X131748216Y-114268005D01*
X131868003Y-114148218D01*
X131962120Y-114007363D01*
X132026949Y-113850853D01*
X132059998Y-113684703D01*
X132059998Y-113515297D01*
X132026949Y-113349147D01*
X131962120Y-113192637D01*
X131868003Y-113051782D01*
X131748216Y-112931995D01*
X131607361Y-112837878D01*
X131450851Y-112773049D01*
X131284701Y-112740000D01*
X131115295Y-112740000D01*
X130949145Y-112773049D01*
X130792635Y-112837878D01*
X130699994Y-112899779D01*
X130607359Y-112837882D01*
X130450849Y-112773053D01*
X130284699Y-112740004D01*
X130115293Y-112740004D01*
X129949143Y-112773053D01*
X129792633Y-112837882D01*
X129651778Y-112931999D01*
X129531991Y-113051786D01*
X129437874Y-113192641D01*
X129373045Y-113349151D01*
X129339996Y-113515301D01*
X129339996Y-113525202D01*
X124025199Y-118840000D01*
X121160540Y-118840000D01*
X121157364Y-118837878D01*
X121000854Y-118773049D01*
X120834704Y-118740000D01*
X120665298Y-118740000D01*
X120499148Y-118773049D01*
X120342638Y-118837878D01*
X120201783Y-118931995D01*
X120134000Y-118999778D01*
X120134000Y-118993297D01*
X120100951Y-118827147D01*
X120036122Y-118670637D01*
X120034000Y-118667461D01*
X120034000Y-111518801D01*
X121807105Y-109745696D01*
X121810853Y-109744951D01*
X121967363Y-109680122D01*
X122108218Y-109586005D01*
X122228005Y-109466218D01*
X122322122Y-109325363D01*
X122386951Y-109168853D01*
X122420000Y-109002703D01*
X122420000Y-108833297D01*
X122386951Y-108667147D01*
X122322122Y-108510637D01*
X122228005Y-108369782D01*
X122108218Y-108249995D01*
X121967363Y-108155878D01*
X121810853Y-108091049D01*
X121644703Y-108058000D01*
X121475297Y-108058000D01*
X121309147Y-108091049D01*
X121152637Y-108155878D01*
X121011782Y-108249995D01*
X120891995Y-108369782D01*
X120797878Y-108510637D01*
X120733049Y-108667147D01*
X120732304Y-108670895D01*
X118763003Y-110640196D01*
X118733999Y-110663999D01*
X118678871Y-110731174D01*
X118639026Y-110779724D01*
X118568455Y-110911753D01*
X118568454Y-110911754D01*
X118524997Y-111055015D01*
X118514000Y-111166668D01*
X118514000Y-111166678D01*
X118510324Y-111204000D01*
X118514000Y-111241322D01*
X118514001Y-118667460D01*
X118511878Y-118670637D01*
X118447049Y-118827147D01*
X118425962Y-118933160D01*
X118256000Y-118763199D01*
X118256000Y-114154539D01*
X118258122Y-114151363D01*
X118322951Y-113994853D01*
X118356000Y-113828703D01*
X118356000Y-113659297D01*
X118322951Y-113493147D01*
X118258122Y-113336637D01*
X118164005Y-113195782D01*
X118044218Y-113075995D01*
X117903363Y-112981878D01*
X117746853Y-112917049D01*
X117580703Y-112884000D01*
X117411297Y-112884000D01*
X117245147Y-112917049D01*
X117088637Y-112981878D01*
X116947782Y-113075995D01*
X116827995Y-113195782D01*
X116733878Y-113336637D01*
X116669049Y-113493147D01*
X116636000Y-113659297D01*
X116636000Y-113828703D01*
X116669049Y-113994853D01*
X116733878Y-114151363D01*
X116736000Y-114154539D01*
X116736000Y-114320458D01*
X116633363Y-114251878D01*
X116476853Y-114187049D01*
X116310703Y-114154000D01*
X116141297Y-114154000D01*
X115975147Y-114187049D01*
X115818637Y-114251878D01*
X115815461Y-114254000D01*
X103055325Y-114254000D01*
X103018000Y-114250324D01*
X102980675Y-114254000D01*
X102980667Y-114254000D01*
X102869014Y-114264997D01*
X102725753Y-114308454D01*
X102593724Y-114379026D01*
X102477999Y-114473999D01*
X102454201Y-114502997D01*
X99712998Y-117244201D01*
X99684000Y-117267999D01*
X99660202Y-117296997D01*
X99660201Y-117296998D01*
X99589026Y-117383724D01*
X99518454Y-117515754D01*
X99474998Y-117659015D01*
X99460324Y-117808000D01*
X99410000Y-117808000D01*
X99410000Y-105310000D01*
X140240001Y-105310000D01*
X140240000Y-136640000D01*
G37*
X140240000Y-136640000D02*
X99410000Y-136640000D01*
X99410000Y-117808000D01*
X99460324Y-117808000D01*
X99464001Y-117845333D01*
X99464000Y-133010678D01*
X99460324Y-133048000D01*
X99464000Y-133085322D01*
X99464000Y-133085332D01*
X99474997Y-133196985D01*
X99494719Y-133262000D01*
X99518454Y-133340246D01*
X99589026Y-133472276D01*
X99628871Y-133520826D01*
X99683999Y-133588001D01*
X99713002Y-133611803D01*
X100306790Y-134205592D01*
X100263000Y-134425740D01*
X100263000Y-134718260D01*
X100320068Y-135005158D01*
X100432010Y-135275411D01*
X100594525Y-135518632D01*
X100801368Y-135725475D01*
X101044589Y-135887990D01*
X101314842Y-135999932D01*
X101601740Y-136057000D01*
X101894260Y-136057000D01*
X102181158Y-135999932D01*
X102451411Y-135887990D01*
X102694632Y-135725475D01*
X102901475Y-135518632D01*
X103018000Y-135344240D01*
X103134525Y-135518632D01*
X103341368Y-135725475D01*
X103584589Y-135887990D01*
X103854842Y-135999932D01*
X104141740Y-136057000D01*
X104434260Y-136057000D01*
X104654408Y-136013210D01*
X104899202Y-136258004D01*
X104923000Y-136287002D01*
X105038725Y-136381975D01*
X105170754Y-136452547D01*
X105314015Y-136496004D01*
X105425668Y-136507001D01*
X105425677Y-136507001D01*
X105463000Y-136510677D01*
X105500323Y-136507001D01*
X117299677Y-136507001D01*
X117336999Y-136510677D01*
X117374321Y-136507001D01*
X117374332Y-136507001D01*
X117485985Y-136496004D01*
X117629246Y-136452547D01*
X117761275Y-136381975D01*
X117877000Y-136287002D01*
X117900803Y-136257998D01*
X117997104Y-136161697D01*
X118000853Y-136160951D01*
X118157363Y-136096122D01*
X118298218Y-136002005D01*
X118418005Y-135882218D01*
X118512122Y-135741363D01*
X118576951Y-135584853D01*
X118610000Y-135418703D01*
X118610000Y-135249297D01*
X118576951Y-135083147D01*
X118512122Y-134926637D01*
X118443542Y-134824000D01*
X124797524Y-134824000D01*
X124861878Y-134979363D01*
X124955995Y-135120218D01*
X125075782Y-135240005D01*
X125216637Y-135334122D01*
X125373147Y-135398951D01*
X125539297Y-135432000D01*
X125708703Y-135432000D01*
X125874853Y-135398951D01*
X126031363Y-135334122D01*
X126172218Y-135240005D01*
X126292005Y-135120218D01*
X126386122Y-134979363D01*
X126450951Y-134822853D01*
X126484000Y-134656703D01*
X126484000Y-134487297D01*
X126450951Y-134321147D01*
X126386122Y-134164637D01*
X126292005Y-134023782D01*
X126172218Y-133903995D01*
X126031363Y-133809878D01*
X125874853Y-133745049D01*
X125871105Y-133744303D01*
X125768800Y-133641999D01*
X131340683Y-133641999D01*
X131378005Y-133645675D01*
X131415327Y-133641999D01*
X131415338Y-133641999D01*
X131526991Y-133631002D01*
X131670252Y-133587545D01*
X131802281Y-133516973D01*
X131918006Y-133422000D01*
X131941809Y-133392997D01*
X132729105Y-132605700D01*
X132732853Y-132604955D01*
X132889363Y-132540126D01*
X133030218Y-132446009D01*
X133150005Y-132326222D01*
X133244122Y-132185367D01*
X133308951Y-132028857D01*
X133342000Y-131862707D01*
X133342000Y-131693301D01*
X133308951Y-131527151D01*
X133244122Y-131370641D01*
X133150005Y-131229786D01*
X133030218Y-131109999D01*
X132889363Y-131015882D01*
X132732853Y-130951053D01*
X132566703Y-130918004D01*
X132397297Y-130918004D01*
X132231147Y-130951053D01*
X132074637Y-131015882D01*
X131933782Y-131109999D01*
X131813995Y-131229786D01*
X131719878Y-131370641D01*
X131655049Y-131527151D01*
X131654304Y-131530899D01*
X131063204Y-132121999D01*
X124634368Y-132121999D01*
X124672951Y-132028853D01*
X124706000Y-131862703D01*
X124706000Y-131693297D01*
X124672951Y-131527147D01*
X124608122Y-131370637D01*
X124514005Y-131229782D01*
X124510221Y-131225998D01*
X129471721Y-131225998D01*
X129527995Y-131310218D01*
X129647782Y-131430005D01*
X129788637Y-131524122D01*
X129945147Y-131588951D01*
X130111297Y-131622000D01*
X130280703Y-131622000D01*
X130446853Y-131588951D01*
X130603363Y-131524122D01*
X130744218Y-131430005D01*
X130864005Y-131310218D01*
X130958122Y-131169363D01*
X131022951Y-131012853D01*
X131056000Y-130846703D01*
X131056000Y-130677297D01*
X131022951Y-130511147D01*
X130958122Y-130354637D01*
X130864005Y-130213782D01*
X130744218Y-130093995D01*
X130603363Y-129999878D01*
X130447724Y-129935410D01*
X130439999Y-129925997D01*
X130324274Y-129831024D01*
X130192245Y-129760452D01*
X130048984Y-129716995D01*
X129937331Y-129705998D01*
X129937320Y-129705998D01*
X129899998Y-129702322D01*
X129862676Y-129705998D01*
X112880800Y-129705998D01*
X112704697Y-129529895D01*
X112703951Y-129526147D01*
X112639122Y-129369637D01*
X112545005Y-129228782D01*
X112425218Y-129108995D01*
X112284363Y-129014878D01*
X112127853Y-128950049D01*
X111961703Y-128917000D01*
X111792297Y-128917000D01*
X111626147Y-128950049D01*
X111469637Y-129014878D01*
X111328782Y-129108995D01*
X111208995Y-129228782D01*
X111114878Y-129369637D01*
X111050049Y-129526147D01*
X111017000Y-129692297D01*
X111017000Y-129861703D01*
X111050049Y-130027853D01*
X111114878Y-130184363D01*
X111208995Y-130325218D01*
X111328782Y-130445005D01*
X111469637Y-130539122D01*
X111626147Y-130603951D01*
X111629895Y-130604697D01*
X111902008Y-130876809D01*
X111843049Y-131019147D01*
X111810000Y-131185297D01*
X111810000Y-131354703D01*
X111843049Y-131520853D01*
X111845181Y-131526000D01*
X110793276Y-131526000D01*
X108051835Y-128784560D01*
X108051089Y-128780811D01*
X107986260Y-128624301D01*
X107892143Y-128483446D01*
X107772356Y-128363659D01*
X107631501Y-128269542D01*
X107474991Y-128204713D01*
X107308841Y-128171664D01*
X107139435Y-128171664D01*
X106973285Y-128204713D01*
X106816775Y-128269542D01*
X106675920Y-128363659D01*
X106556133Y-128483446D01*
X106462016Y-128624301D01*
X106397187Y-128780811D01*
X106364138Y-128946961D01*
X106364138Y-129116367D01*
X106397187Y-129282517D01*
X106462016Y-129439027D01*
X106556133Y-129579882D01*
X106675920Y-129699669D01*
X106816775Y-129793786D01*
X106973285Y-129858615D01*
X106977034Y-129859361D01*
X109239671Y-132121999D01*
X108313000Y-132121999D01*
X108313000Y-131885740D01*
X108255932Y-131598842D01*
X108143990Y-131328589D01*
X107981475Y-131085368D01*
X107774632Y-130878525D01*
X107531411Y-130716010D01*
X107261158Y-130604068D01*
X106974260Y-130547000D01*
X106681740Y-130547000D01*
X106394842Y-130604068D01*
X106124589Y-130716010D01*
X105881368Y-130878525D01*
X105674525Y-131085368D01*
X105558000Y-131259760D01*
X105441475Y-131085368D01*
X105234632Y-130878525D01*
X105048000Y-130753822D01*
X105048000Y-125089297D01*
X112571994Y-125089297D01*
X112571994Y-125258703D01*
X112605043Y-125424853D01*
X112669872Y-125581363D01*
X112763989Y-125722218D01*
X112883776Y-125842005D01*
X113024631Y-125936122D01*
X113181141Y-126000951D01*
X113347291Y-126034000D01*
X113516697Y-126034000D01*
X113682847Y-126000951D01*
X113839357Y-125936122D01*
X113842533Y-125934000D01*
X114079199Y-125934000D01*
X115078790Y-126933592D01*
X115035000Y-127153740D01*
X115035000Y-127446260D01*
X115092068Y-127733158D01*
X115204010Y-128003411D01*
X115366525Y-128246632D01*
X115573368Y-128453475D01*
X115816589Y-128615990D01*
X116086842Y-128727932D01*
X116373740Y-128785000D01*
X116666260Y-128785000D01*
X116953158Y-128727932D01*
X117223411Y-128615990D01*
X117466632Y-128453475D01*
X117673475Y-128246632D01*
X117795195Y-128064466D01*
X117864822Y-128181355D01*
X118059731Y-128397588D01*
X118293080Y-128571641D01*
X118555901Y-128696825D01*
X118703110Y-128741476D01*
X118933000Y-128620155D01*
X118933000Y-127427000D01*
X118913000Y-127427000D01*
X118913000Y-127173000D01*
X118933000Y-127173000D01*
X118933000Y-125979845D01*
X119187000Y-125979845D01*
X119187000Y-127173000D01*
X119207000Y-127173000D01*
X119207000Y-127427000D01*
X119187000Y-127427000D01*
X119187000Y-128620155D01*
X119416890Y-128741476D01*
X119564099Y-128696825D01*
X119826920Y-128571641D01*
X120060269Y-128397588D01*
X120136034Y-128313534D01*
X120160498Y-128394180D01*
X120219463Y-128504494D01*
X120298815Y-128601185D01*
X120395506Y-128680537D01*
X120505820Y-128739502D01*
X120625518Y-128775812D01*
X120750000Y-128788072D01*
X122450000Y-128788072D01*
X122574482Y-128775812D01*
X122694180Y-128739502D01*
X122804494Y-128680537D01*
X122901185Y-128601185D01*
X122980537Y-128504494D01*
X123039502Y-128394180D01*
X123075812Y-128274482D01*
X123088072Y-128150000D01*
X123088072Y-126450000D01*
X123075812Y-126325518D01*
X123039502Y-126205820D01*
X122980537Y-126095506D01*
X122901185Y-125998815D01*
X122804494Y-125919463D01*
X122694180Y-125860498D01*
X122574482Y-125824188D01*
X122450000Y-125811928D01*
X120750000Y-125811928D01*
X120625518Y-125824188D01*
X120505820Y-125860498D01*
X120395506Y-125919463D01*
X120298815Y-125998815D01*
X120219463Y-126095506D01*
X120160498Y-126205820D01*
X120136034Y-126286466D01*
X120060269Y-126202412D01*
X119826920Y-126028359D01*
X119564099Y-125903175D01*
X119416890Y-125858524D01*
X119187000Y-125979845D01*
X118933000Y-125979845D01*
X118703110Y-125858524D01*
X118555901Y-125903175D01*
X118293080Y-126028359D01*
X118059731Y-126202412D01*
X117864822Y-126418645D01*
X117795195Y-126535534D01*
X117673475Y-126353368D01*
X117466632Y-126146525D01*
X117223411Y-125984010D01*
X116953158Y-125872068D01*
X116666260Y-125815000D01*
X116373740Y-125815000D01*
X116153592Y-125858790D01*
X114957804Y-124663003D01*
X114934001Y-124633999D01*
X114818276Y-124539026D01*
X114686247Y-124468454D01*
X114542986Y-124424997D01*
X114431333Y-124414000D01*
X114431322Y-124414000D01*
X114394000Y-124410324D01*
X114356678Y-124414000D01*
X113842533Y-124414000D01*
X113839357Y-124411878D01*
X113682847Y-124347049D01*
X113516697Y-124314000D01*
X113347291Y-124314000D01*
X113181141Y-124347049D01*
X113024631Y-124411878D01*
X112883776Y-124505995D01*
X112763989Y-124625782D01*
X112669872Y-124766637D01*
X112605043Y-124923147D01*
X112571994Y-125089297D01*
X105048000Y-125089297D01*
X105048000Y-119501281D01*
X106983996Y-119501281D01*
X106983996Y-119670687D01*
X107017045Y-119836837D01*
X107081874Y-119993347D01*
X107175991Y-120134202D01*
X107295778Y-120253989D01*
X107436633Y-120348106D01*
X107593143Y-120412935D01*
X107759293Y-120445984D01*
X107928699Y-120445984D01*
X108094849Y-120412935D01*
X108251359Y-120348106D01*
X108254517Y-120345996D01*
X115053461Y-120345996D01*
X115056637Y-120348118D01*
X115213147Y-120412947D01*
X115379297Y-120445996D01*
X115548703Y-120445996D01*
X115714853Y-120412947D01*
X115871363Y-120348118D01*
X116012218Y-120254001D01*
X116132005Y-120134214D01*
X116226122Y-119993359D01*
X116290951Y-119836849D01*
X116324000Y-119670699D01*
X116324000Y-119501293D01*
X116290951Y-119335143D01*
X116226122Y-119178633D01*
X116132005Y-119037778D01*
X116012218Y-118917991D01*
X115871363Y-118823874D01*
X115714853Y-118759045D01*
X115548703Y-118725996D01*
X115379297Y-118725996D01*
X115213147Y-118759045D01*
X115056637Y-118823874D01*
X115053461Y-118825996D01*
X108254553Y-118825996D01*
X108251359Y-118823862D01*
X108094849Y-118759033D01*
X107928699Y-118725984D01*
X107759293Y-118725984D01*
X107593143Y-118759033D01*
X107436633Y-118823862D01*
X107295778Y-118917979D01*
X107175991Y-119037766D01*
X107081874Y-119178621D01*
X107017045Y-119335131D01*
X106983996Y-119501281D01*
X105048000Y-119501281D01*
X105048000Y-117614801D01*
X105110802Y-117552000D01*
X113275461Y-117552000D01*
X113278637Y-117554122D01*
X113435147Y-117618951D01*
X113601297Y-117652000D01*
X113770703Y-117652000D01*
X113936853Y-117618951D01*
X114093363Y-117554122D01*
X114234218Y-117460005D01*
X114354005Y-117340218D01*
X114448122Y-117199363D01*
X114512951Y-117042853D01*
X114546000Y-116876703D01*
X114546000Y-116707297D01*
X114512951Y-116541147D01*
X114448122Y-116384637D01*
X114354005Y-116243782D01*
X114234218Y-116123995D01*
X114093363Y-116029878D01*
X113936853Y-115965049D01*
X113770703Y-115932000D01*
X113601297Y-115932000D01*
X113435147Y-115965049D01*
X113278637Y-116029878D01*
X113275461Y-116032000D01*
X104833322Y-116032000D01*
X104795999Y-116028324D01*
X104758676Y-116032000D01*
X104758667Y-116032000D01*
X104647014Y-116042997D01*
X104503753Y-116086454D01*
X104371724Y-116157026D01*
X104255999Y-116251999D01*
X104232200Y-116280998D01*
X103776998Y-116736201D01*
X103748000Y-116759999D01*
X103724202Y-116788997D01*
X103724201Y-116788998D01*
X103653026Y-116875724D01*
X103582454Y-117007754D01*
X103538998Y-117151015D01*
X103524324Y-117300000D01*
X103528001Y-117337332D01*
X103528000Y-130753821D01*
X103341368Y-130878525D01*
X103134525Y-131085368D01*
X103012805Y-131267534D01*
X102943178Y-131150645D01*
X102748269Y-130934412D01*
X102514920Y-130760359D01*
X102252099Y-130635175D01*
X102104890Y-130590524D01*
X101875000Y-130711845D01*
X101875000Y-131905000D01*
X101895000Y-131905000D01*
X101895000Y-132159000D01*
X101875000Y-132159000D01*
X101875000Y-132179000D01*
X101621000Y-132179000D01*
X101621000Y-132159000D01*
X101601000Y-132159000D01*
X101601000Y-131905000D01*
X101621000Y-131905000D01*
X101621000Y-130711845D01*
X101391110Y-130590524D01*
X101243901Y-130635175D01*
X100984000Y-130758968D01*
X100984000Y-118122801D01*
X103332802Y-115774000D01*
X115815461Y-115774000D01*
X115818637Y-115776122D01*
X115975147Y-115840951D01*
X116141297Y-115874000D01*
X116310703Y-115874000D01*
X116476853Y-115840951D01*
X116633363Y-115776122D01*
X116736000Y-115707541D01*
X116736001Y-119040668D01*
X116732324Y-119078000D01*
X116746998Y-119226985D01*
X116790454Y-119370246D01*
X116861026Y-119502276D01*
X116929724Y-119585984D01*
X116956000Y-119618001D01*
X116984998Y-119641799D01*
X117430304Y-120087105D01*
X117431049Y-120090853D01*
X117495878Y-120247363D01*
X117589995Y-120388218D01*
X117709782Y-120508005D01*
X117850637Y-120602122D01*
X118007147Y-120666951D01*
X118173297Y-120700000D01*
X118342703Y-120700000D01*
X118508853Y-120666951D01*
X118665363Y-120602122D01*
X118806218Y-120508005D01*
X118926005Y-120388218D01*
X119020122Y-120247363D01*
X119084951Y-120090853D01*
X119118000Y-119924703D01*
X119118000Y-119923818D01*
X119189297Y-119938000D01*
X119358703Y-119938000D01*
X119524853Y-119904951D01*
X119681363Y-119840122D01*
X119822218Y-119746005D01*
X119890001Y-119678222D01*
X119890001Y-119684703D01*
X119923050Y-119850853D01*
X119987879Y-120007363D01*
X120081996Y-120148218D01*
X120201783Y-120268005D01*
X120342638Y-120362122D01*
X120499148Y-120426951D01*
X120665298Y-120460000D01*
X120834704Y-120460000D01*
X121000854Y-120426951D01*
X121157364Y-120362122D01*
X121160540Y-120360000D01*
X121373086Y-120360000D01*
X121381214Y-120400863D01*
X121446043Y-120557373D01*
X121540160Y-120698228D01*
X121659947Y-120818015D01*
X121800802Y-120912132D01*
X121957312Y-120976961D01*
X122123462Y-121010010D01*
X122292868Y-121010010D01*
X122459018Y-120976961D01*
X122615528Y-120912132D01*
X122618704Y-120910010D01*
X124612666Y-120910010D01*
X124649988Y-120913686D01*
X124687310Y-120910010D01*
X124687321Y-120910010D01*
X124798974Y-120899013D01*
X124942235Y-120855556D01*
X125074264Y-120784984D01*
X125090941Y-120771297D01*
X128320000Y-120771297D01*
X128320000Y-120940703D01*
X128353049Y-121106853D01*
X128417878Y-121263363D01*
X128511995Y-121404218D01*
X128631782Y-121524005D01*
X128772637Y-121618122D01*
X128929147Y-121682951D01*
X129095297Y-121716000D01*
X129264703Y-121716000D01*
X129430853Y-121682951D01*
X129587363Y-121618122D01*
X129590539Y-121616000D01*
X134389001Y-121616000D01*
X137950003Y-125177003D01*
X137973801Y-125206001D01*
X138089526Y-125300974D01*
X138221555Y-125371546D01*
X138364816Y-125415003D01*
X138411951Y-125419645D01*
X138424637Y-125428122D01*
X138581147Y-125492951D01*
X138747297Y-125526000D01*
X138916703Y-125526000D01*
X139082853Y-125492951D01*
X139239363Y-125428122D01*
X139380218Y-125334005D01*
X139500005Y-125214218D01*
X139594122Y-125073363D01*
X139658951Y-124916853D01*
X139692000Y-124750703D01*
X139692000Y-124581297D01*
X139658951Y-124415147D01*
X139594122Y-124258637D01*
X139500005Y-124117782D01*
X139380218Y-123997995D01*
X139239363Y-123903878D01*
X139082853Y-123839049D01*
X138916703Y-123806000D01*
X138747297Y-123806000D01*
X138731705Y-123809101D01*
X135267606Y-120345003D01*
X135243803Y-120315999D01*
X135128078Y-120221026D01*
X134996049Y-120150454D01*
X134852788Y-120106997D01*
X134741135Y-120096000D01*
X134741124Y-120096000D01*
X134703802Y-120092324D01*
X134666480Y-120096000D01*
X129590539Y-120096000D01*
X129587363Y-120093878D01*
X129430853Y-120029049D01*
X129264703Y-119996000D01*
X129095297Y-119996000D01*
X128929147Y-120029049D01*
X128772637Y-120093878D01*
X128631782Y-120187995D01*
X128511995Y-120307782D01*
X128417878Y-120448637D01*
X128353049Y-120605147D01*
X128320000Y-120771297D01*
X125090941Y-120771297D01*
X125189989Y-120690011D01*
X125213792Y-120661007D01*
X131447104Y-114427696D01*
X131450851Y-114426951D01*
X131607361Y-114362122D01*
X131748216Y-114268005D01*
X131868003Y-114148218D01*
X131962120Y-114007363D01*
X132026949Y-113850853D01*
X132059998Y-113684703D01*
X132059998Y-113515297D01*
X132026949Y-113349147D01*
X131962120Y-113192637D01*
X131868003Y-113051782D01*
X131748216Y-112931995D01*
X131607361Y-112837878D01*
X131450851Y-112773049D01*
X131284701Y-112740000D01*
X131115295Y-112740000D01*
X130949145Y-112773049D01*
X130792635Y-112837878D01*
X130699994Y-112899779D01*
X130607359Y-112837882D01*
X130450849Y-112773053D01*
X130284699Y-112740004D01*
X130115293Y-112740004D01*
X129949143Y-112773053D01*
X129792633Y-112837882D01*
X129651778Y-112931999D01*
X129531991Y-113051786D01*
X129437874Y-113192641D01*
X129373045Y-113349151D01*
X129339996Y-113515301D01*
X129339996Y-113525202D01*
X124025199Y-118840000D01*
X121160540Y-118840000D01*
X121157364Y-118837878D01*
X121000854Y-118773049D01*
X120834704Y-118740000D01*
X120665298Y-118740000D01*
X120499148Y-118773049D01*
X120342638Y-118837878D01*
X120201783Y-118931995D01*
X120134000Y-118999778D01*
X120134000Y-118993297D01*
X120100951Y-118827147D01*
X120036122Y-118670637D01*
X120034000Y-118667461D01*
X120034000Y-111518801D01*
X121807105Y-109745696D01*
X121810853Y-109744951D01*
X121967363Y-109680122D01*
X122108218Y-109586005D01*
X122228005Y-109466218D01*
X122322122Y-109325363D01*
X122386951Y-109168853D01*
X122420000Y-109002703D01*
X122420000Y-108833297D01*
X122386951Y-108667147D01*
X122322122Y-108510637D01*
X122228005Y-108369782D01*
X122108218Y-108249995D01*
X121967363Y-108155878D01*
X121810853Y-108091049D01*
X121644703Y-108058000D01*
X121475297Y-108058000D01*
X121309147Y-108091049D01*
X121152637Y-108155878D01*
X121011782Y-108249995D01*
X120891995Y-108369782D01*
X120797878Y-108510637D01*
X120733049Y-108667147D01*
X120732304Y-108670895D01*
X118763003Y-110640196D01*
X118733999Y-110663999D01*
X118678871Y-110731174D01*
X118639026Y-110779724D01*
X118568455Y-110911753D01*
X118568454Y-110911754D01*
X118524997Y-111055015D01*
X118514000Y-111166668D01*
X118514000Y-111166678D01*
X118510324Y-111204000D01*
X118514000Y-111241322D01*
X118514001Y-118667460D01*
X118511878Y-118670637D01*
X118447049Y-118827147D01*
X118425962Y-118933160D01*
X118256000Y-118763199D01*
X118256000Y-114154539D01*
X118258122Y-114151363D01*
X118322951Y-113994853D01*
X118356000Y-113828703D01*
X118356000Y-113659297D01*
X118322951Y-113493147D01*
X118258122Y-113336637D01*
X118164005Y-113195782D01*
X118044218Y-113075995D01*
X117903363Y-112981878D01*
X117746853Y-112917049D01*
X117580703Y-112884000D01*
X117411297Y-112884000D01*
X117245147Y-112917049D01*
X117088637Y-112981878D01*
X116947782Y-113075995D01*
X116827995Y-113195782D01*
X116733878Y-113336637D01*
X116669049Y-113493147D01*
X116636000Y-113659297D01*
X116636000Y-113828703D01*
X116669049Y-113994853D01*
X116733878Y-114151363D01*
X116736000Y-114154539D01*
X116736000Y-114320458D01*
X116633363Y-114251878D01*
X116476853Y-114187049D01*
X116310703Y-114154000D01*
X116141297Y-114154000D01*
X115975147Y-114187049D01*
X115818637Y-114251878D01*
X115815461Y-114254000D01*
X103055325Y-114254000D01*
X103018000Y-114250324D01*
X102980675Y-114254000D01*
X102980667Y-114254000D01*
X102869014Y-114264997D01*
X102725753Y-114308454D01*
X102593724Y-114379026D01*
X102477999Y-114473999D01*
X102454201Y-114502997D01*
X99712998Y-117244201D01*
X99684000Y-117267999D01*
X99660202Y-117296997D01*
X99660201Y-117296998D01*
X99589026Y-117383724D01*
X99518454Y-117515754D01*
X99474998Y-117659015D01*
X99460324Y-117808000D01*
X99410000Y-117808000D01*
X99410000Y-105310000D01*
X140240001Y-105310000D01*
X140240000Y-136640000D01*
M02*
