M48
; DRILL file {KiCad (5.1.5)-3} date 2020-04-28 8:17:51 PM
; FORMAT={-:-/ absolute / inch / decimal}
; #@! TF.CreationDate,2020-04-28T20:17:51-04:00
; #@! TF.GenerationSoftware,Kicad,Pcbnew,(5.1.5)-3
; #@! TF.FileFunction,Plated,1,2,PTH
FMAT,2
INCH
T1C0.0118
T2C0.0394
%
G90
G05
T1
X4.1958Y-4.2881
X4.2214Y-5.08
X4.2458Y-4.7081
X4.2858Y-4.8681
X4.4046Y-5.1093
X4.4358Y-5.1681
X4.4658Y-4.9281
X4.4758Y-4.5981
X4.4858Y-4.7981
X4.4958Y-5.2765
X4.527Y-5.2993
X4.5458Y-4.7081
X4.5658Y-4.9081
X4.5758Y-4.5281
X4.6283Y-4.4731
X4.6358Y-5.3281
X4.6508Y-4.7181
X4.6958Y-4.6881
X4.7358Y-5.3381
X4.7539Y-4.7087
X4.7758Y-4.4981
X4.7858Y-4.2881
X4.7858Y-5.2081
X4.8113Y-4.7303
X4.8758Y-5.1881
X4.9158Y-4.7981
X4.9458Y-5.2981
X5.0058Y-4.9381
X5.0858Y-4.7581
X5.1258Y-5.1481
X5.126Y-4.4724
X5.1558Y-4.2481
X5.1654Y-4.4724
X5.2158Y-5.1881
X5.3558Y-5.3481
X5.4658Y-4.9081
T2
X4.0058Y-5.1981
X4.0058Y-5.2981
X4.1058Y-5.1981
X4.1058Y-5.2981
X4.2058Y-5.1981
X4.2058Y-5.2981
X4.5874Y-5.0118
X4.6874Y-5.0118
X4.7874Y-5.0118
T0
M30
