G04 #@! TF.GenerationSoftware,KiCad,Pcbnew,(5.0.2)-1*
G04 #@! TF.CreationDate,2019-02-13T20:53:48-05:00*
G04 #@! TF.ProjectId,megadesk,6d656761-6465-4736-9b2e-6b696361645f,rev?*
G04 #@! TF.SameCoordinates,Original*
G04 #@! TF.FileFunction,Soldermask,Top*
G04 #@! TF.FilePolarity,Negative*
%FSLAX46Y46*%
G04 Gerber Fmt 4.6, Leading zero omitted, Abs format (unit mm)*
G04 Created by KiCad (PCBNEW (5.0.2)-1) date 2/13/2019 8:53:48 PM*
%MOMM*%
%LPD*%
G01*
G04 APERTURE LIST*
%ADD10C,0.100000*%
G04 APERTURE END LIST*
D10*
G36*
X136600000Y-135500000D02*
X134800000Y-135500000D01*
X134800000Y-133700000D01*
X136600000Y-133700000D01*
X136600000Y-135500000D01*
X136600000Y-135500000D01*
G37*
G36*
X103600000Y-135500000D02*
X101800000Y-135500000D01*
X101800000Y-133700000D01*
X103600000Y-133700000D01*
X103600000Y-135500000D01*
X103600000Y-135500000D01*
G37*
G36*
X105617926Y-130679340D02*
X105654390Y-130690402D01*
X105687998Y-130708366D01*
X105717458Y-130732542D01*
X105741634Y-130762002D01*
X105759598Y-130795610D01*
X105770660Y-130832074D01*
X105775000Y-130876141D01*
X105775000Y-132323859D01*
X105770660Y-132367926D01*
X105759598Y-132404390D01*
X105741634Y-132437998D01*
X105717458Y-132467458D01*
X105687998Y-132491634D01*
X105654390Y-132509598D01*
X105617926Y-132520660D01*
X105573859Y-132525000D01*
X104626141Y-132525000D01*
X104582074Y-132520660D01*
X104545610Y-132509598D01*
X104512002Y-132491634D01*
X104482542Y-132467458D01*
X104458366Y-132437998D01*
X104440402Y-132404390D01*
X104429340Y-132367926D01*
X104425000Y-132323859D01*
X104425000Y-130876141D01*
X104429340Y-130832074D01*
X104440402Y-130795610D01*
X104458366Y-130762002D01*
X104482542Y-130732542D01*
X104512002Y-130708366D01*
X104545610Y-130690402D01*
X104582074Y-130679340D01*
X104626141Y-130675000D01*
X105573859Y-130675000D01*
X105617926Y-130679340D01*
X105617926Y-130679340D01*
G37*
G36*
X102817926Y-130679340D02*
X102854390Y-130690402D01*
X102887998Y-130708366D01*
X102917458Y-130732542D01*
X102941634Y-130762002D01*
X102959598Y-130795610D01*
X102970660Y-130832074D01*
X102975000Y-130876141D01*
X102975000Y-132323859D01*
X102970660Y-132367926D01*
X102959598Y-132404390D01*
X102941634Y-132437998D01*
X102917458Y-132467458D01*
X102887998Y-132491634D01*
X102854390Y-132509598D01*
X102817926Y-132520660D01*
X102773859Y-132525000D01*
X101826141Y-132525000D01*
X101782074Y-132520660D01*
X101745610Y-132509598D01*
X101712002Y-132491634D01*
X101682542Y-132467458D01*
X101658366Y-132437998D01*
X101640402Y-132404390D01*
X101629340Y-132367926D01*
X101625000Y-132323859D01*
X101625000Y-130876141D01*
X101629340Y-130832074D01*
X101640402Y-130795610D01*
X101658366Y-130762002D01*
X101682542Y-130732542D01*
X101712002Y-130708366D01*
X101745610Y-130690402D01*
X101782074Y-130679340D01*
X101826141Y-130675000D01*
X102773859Y-130675000D01*
X102817926Y-130679340D01*
X102817926Y-130679340D01*
G37*
G36*
X137105000Y-128975000D02*
X135805000Y-128975000D01*
X135805000Y-126675000D01*
X137105000Y-126675000D01*
X137105000Y-128975000D01*
X137105000Y-128975000D01*
G37*
G36*
X132545000Y-128975000D02*
X131245000Y-128975000D01*
X131245000Y-126675000D01*
X132545000Y-126675000D01*
X132545000Y-128975000D01*
X132545000Y-128975000D01*
G37*
G36*
X134825000Y-128975000D02*
X133525000Y-128975000D01*
X133525000Y-126675000D01*
X134825000Y-126675000D01*
X134825000Y-128975000D01*
X134825000Y-128975000D01*
G37*
G36*
X106605000Y-128975000D02*
X105305000Y-128975000D01*
X105305000Y-126675000D01*
X106605000Y-126675000D01*
X106605000Y-128975000D01*
X106605000Y-128975000D01*
G37*
G36*
X104325000Y-128975000D02*
X103025000Y-128975000D01*
X103025000Y-126675000D01*
X104325000Y-126675000D01*
X104325000Y-128975000D01*
X104325000Y-128975000D01*
G37*
G36*
X102045000Y-128975000D02*
X100745000Y-128975000D01*
X100745000Y-126675000D01*
X102045000Y-126675000D01*
X102045000Y-128975000D01*
X102045000Y-128975000D01*
G37*
G36*
X122500000Y-128200000D02*
X120700000Y-128200000D01*
X120700000Y-126400000D01*
X122500000Y-126400000D01*
X122500000Y-128200000D01*
X122500000Y-128200000D01*
G37*
G36*
X119236432Y-126413022D02*
X119406081Y-126464485D01*
X119562433Y-126548056D01*
X119699475Y-126660525D01*
X119811944Y-126797567D01*
X119895515Y-126953919D01*
X119946978Y-127123568D01*
X119964354Y-127300000D01*
X119946978Y-127476432D01*
X119895515Y-127646081D01*
X119811944Y-127802433D01*
X119699475Y-127939475D01*
X119562433Y-128051944D01*
X119406081Y-128135515D01*
X119236432Y-128186978D01*
X119104211Y-128200000D01*
X119015789Y-128200000D01*
X118883568Y-128186978D01*
X118713919Y-128135515D01*
X118557567Y-128051944D01*
X118420525Y-127939475D01*
X118308056Y-127802433D01*
X118224485Y-127646081D01*
X118173022Y-127476432D01*
X118155646Y-127300000D01*
X118173022Y-127123568D01*
X118224485Y-126953919D01*
X118308056Y-126797567D01*
X118420525Y-126660525D01*
X118557567Y-126548056D01*
X118713919Y-126464485D01*
X118883568Y-126413022D01*
X119015789Y-126400000D01*
X119104211Y-126400000D01*
X119236432Y-126413022D01*
X119236432Y-126413022D01*
G37*
G36*
X116696432Y-126413022D02*
X116866081Y-126464485D01*
X117022433Y-126548056D01*
X117159475Y-126660525D01*
X117271944Y-126797567D01*
X117355515Y-126953919D01*
X117406978Y-127123568D01*
X117424354Y-127300000D01*
X117406978Y-127476432D01*
X117355515Y-127646081D01*
X117271944Y-127802433D01*
X117159475Y-127939475D01*
X117022433Y-128051944D01*
X116866081Y-128135515D01*
X116696432Y-128186978D01*
X116564211Y-128200000D01*
X116475789Y-128200000D01*
X116343568Y-128186978D01*
X116173919Y-128135515D01*
X116017567Y-128051944D01*
X115880525Y-127939475D01*
X115768056Y-127802433D01*
X115684485Y-127646081D01*
X115633022Y-127476432D01*
X115615646Y-127300000D01*
X115633022Y-127123568D01*
X115684485Y-126953919D01*
X115768056Y-126797567D01*
X115880525Y-126660525D01*
X116017567Y-126548056D01*
X116173919Y-126464485D01*
X116343568Y-126413022D01*
X116475789Y-126400000D01*
X116564211Y-126400000D01*
X116696432Y-126413022D01*
X116696432Y-126413022D01*
G37*
G36*
X106625000Y-124775000D02*
X100725000Y-124775000D01*
X100725000Y-118275000D01*
X106625000Y-118275000D01*
X106625000Y-124775000D01*
X106625000Y-124775000D01*
G37*
G36*
X137125000Y-124775000D02*
X131225000Y-124775000D01*
X131225000Y-118275000D01*
X137125000Y-118275000D01*
X137125000Y-124775000D01*
X137125000Y-124775000D01*
G37*
G36*
X128467926Y-121729340D02*
X128504390Y-121740402D01*
X128537998Y-121758366D01*
X128567458Y-121782542D01*
X128591634Y-121812002D01*
X128609598Y-121845610D01*
X128620660Y-121882074D01*
X128625000Y-121926141D01*
X128625000Y-122873859D01*
X128620660Y-122917926D01*
X128609598Y-122954390D01*
X128591634Y-122987998D01*
X128567458Y-123017458D01*
X128537998Y-123041634D01*
X128504390Y-123059598D01*
X128467926Y-123070660D01*
X128423859Y-123075000D01*
X126976141Y-123075000D01*
X126932074Y-123070660D01*
X126895610Y-123059598D01*
X126862002Y-123041634D01*
X126832542Y-123017458D01*
X126808366Y-122987998D01*
X126790402Y-122954390D01*
X126779340Y-122917926D01*
X126775000Y-122873859D01*
X126775000Y-121926141D01*
X126779340Y-121882074D01*
X126790402Y-121845610D01*
X126808366Y-121812002D01*
X126832542Y-121782542D01*
X126862002Y-121758366D01*
X126895610Y-121740402D01*
X126932074Y-121729340D01*
X126976141Y-121725000D01*
X128423859Y-121725000D01*
X128467926Y-121729340D01*
X128467926Y-121729340D01*
G37*
G36*
X115717926Y-121679340D02*
X115754390Y-121690402D01*
X115787998Y-121708366D01*
X115817458Y-121732542D01*
X115841634Y-121762002D01*
X115859598Y-121795610D01*
X115870660Y-121832074D01*
X115875000Y-121876141D01*
X115875000Y-122823859D01*
X115870660Y-122867926D01*
X115859598Y-122904390D01*
X115841634Y-122937998D01*
X115817458Y-122967458D01*
X115787998Y-122991634D01*
X115754390Y-123009598D01*
X115717926Y-123020660D01*
X115673859Y-123025000D01*
X114226141Y-123025000D01*
X114182074Y-123020660D01*
X114145610Y-123009598D01*
X114112002Y-122991634D01*
X114082542Y-122967458D01*
X114058366Y-122937998D01*
X114040402Y-122904390D01*
X114029340Y-122867926D01*
X114025000Y-122823859D01*
X114025000Y-121876141D01*
X114029340Y-121832074D01*
X114040402Y-121795610D01*
X114058366Y-121762002D01*
X114082542Y-121732542D01*
X114112002Y-121708366D01*
X114145610Y-121690402D01*
X114182074Y-121679340D01*
X114226141Y-121675000D01*
X115673859Y-121675000D01*
X115717926Y-121679340D01*
X115717926Y-121679340D01*
G37*
G36*
X128467926Y-118929340D02*
X128504390Y-118940402D01*
X128537998Y-118958366D01*
X128567458Y-118982542D01*
X128591634Y-119012002D01*
X128609598Y-119045610D01*
X128620660Y-119082074D01*
X128625000Y-119126141D01*
X128625000Y-120073859D01*
X128620660Y-120117926D01*
X128609598Y-120154390D01*
X128591634Y-120187998D01*
X128567458Y-120217458D01*
X128537998Y-120241634D01*
X128504390Y-120259598D01*
X128467926Y-120270660D01*
X128423859Y-120275000D01*
X126976141Y-120275000D01*
X126932074Y-120270660D01*
X126895610Y-120259598D01*
X126862002Y-120241634D01*
X126832542Y-120217458D01*
X126808366Y-120187998D01*
X126790402Y-120154390D01*
X126779340Y-120117926D01*
X126775000Y-120073859D01*
X126775000Y-119126141D01*
X126779340Y-119082074D01*
X126790402Y-119045610D01*
X126808366Y-119012002D01*
X126832542Y-118982542D01*
X126862002Y-118958366D01*
X126895610Y-118940402D01*
X126932074Y-118929340D01*
X126976141Y-118925000D01*
X128423859Y-118925000D01*
X128467926Y-118929340D01*
X128467926Y-118929340D01*
G37*
G36*
X115717926Y-118879340D02*
X115754390Y-118890402D01*
X115787998Y-118908366D01*
X115817458Y-118932542D01*
X115841634Y-118962002D01*
X115859598Y-118995610D01*
X115870660Y-119032074D01*
X115875000Y-119076141D01*
X115875000Y-120023859D01*
X115870660Y-120067926D01*
X115859598Y-120104390D01*
X115841634Y-120137998D01*
X115817458Y-120167458D01*
X115787998Y-120191634D01*
X115754390Y-120209598D01*
X115717926Y-120220660D01*
X115673859Y-120225000D01*
X114226141Y-120225000D01*
X114182074Y-120220660D01*
X114145610Y-120209598D01*
X114112002Y-120191634D01*
X114082542Y-120167458D01*
X114058366Y-120137998D01*
X114040402Y-120104390D01*
X114029340Y-120067926D01*
X114025000Y-120023859D01*
X114025000Y-119076141D01*
X114029340Y-119032074D01*
X114040402Y-118995610D01*
X114058366Y-118962002D01*
X114082542Y-118932542D01*
X114112002Y-118908366D01*
X114145610Y-118890402D01*
X114182074Y-118879340D01*
X114226141Y-118875000D01*
X115673859Y-118875000D01*
X115717926Y-118879340D01*
X115717926Y-118879340D01*
G37*
G36*
X115625000Y-113655000D02*
X113975000Y-113655000D01*
X113975000Y-112955000D01*
X115625000Y-112955000D01*
X115625000Y-113655000D01*
X115625000Y-113655000D01*
G37*
G36*
X121025000Y-113655000D02*
X119375000Y-113655000D01*
X119375000Y-112955000D01*
X121025000Y-112955000D01*
X121025000Y-113655000D01*
X121025000Y-113655000D01*
G37*
G36*
X103460000Y-113040000D02*
X101660000Y-113040000D01*
X101660000Y-111240000D01*
X103460000Y-111240000D01*
X103460000Y-113040000D01*
X103460000Y-113040000D01*
G37*
G36*
X105276432Y-111253022D02*
X105446081Y-111304485D01*
X105602433Y-111388056D01*
X105739475Y-111500525D01*
X105851944Y-111637567D01*
X105935515Y-111793919D01*
X105986978Y-111963568D01*
X106004354Y-112140000D01*
X105986978Y-112316432D01*
X105935515Y-112486081D01*
X105851944Y-112642433D01*
X105739475Y-112779475D01*
X105602433Y-112891944D01*
X105446081Y-112975515D01*
X105276432Y-113026978D01*
X105144211Y-113040000D01*
X105055789Y-113040000D01*
X104923568Y-113026978D01*
X104753919Y-112975515D01*
X104597567Y-112891944D01*
X104460525Y-112779475D01*
X104348056Y-112642433D01*
X104264485Y-112486081D01*
X104213022Y-112316432D01*
X104195646Y-112140000D01*
X104213022Y-111963568D01*
X104264485Y-111793919D01*
X104348056Y-111637567D01*
X104460525Y-111500525D01*
X104597567Y-111388056D01*
X104753919Y-111304485D01*
X104923568Y-111253022D01*
X105055789Y-111240000D01*
X105144211Y-111240000D01*
X105276432Y-111253022D01*
X105276432Y-111253022D01*
G37*
G36*
X107816432Y-111253022D02*
X107986081Y-111304485D01*
X108142433Y-111388056D01*
X108279475Y-111500525D01*
X108391944Y-111637567D01*
X108475515Y-111793919D01*
X108526978Y-111963568D01*
X108544354Y-112140000D01*
X108526978Y-112316432D01*
X108475515Y-112486081D01*
X108391944Y-112642433D01*
X108279475Y-112779475D01*
X108142433Y-112891944D01*
X107986081Y-112975515D01*
X107816432Y-113026978D01*
X107684211Y-113040000D01*
X107595789Y-113040000D01*
X107463568Y-113026978D01*
X107293919Y-112975515D01*
X107137567Y-112891944D01*
X107000525Y-112779475D01*
X106888056Y-112642433D01*
X106804485Y-112486081D01*
X106753022Y-112316432D01*
X106735646Y-112140000D01*
X106753022Y-111963568D01*
X106804485Y-111793919D01*
X106888056Y-111637567D01*
X107000525Y-111500525D01*
X107137567Y-111388056D01*
X107293919Y-111304485D01*
X107463568Y-111253022D01*
X107595789Y-111240000D01*
X107684211Y-111240000D01*
X107816432Y-111253022D01*
X107816432Y-111253022D01*
G37*
G36*
X135750000Y-112450000D02*
X135050000Y-112450000D01*
X135050000Y-110650000D01*
X135750000Y-110650000D01*
X135750000Y-112450000D01*
X135750000Y-112450000D01*
G37*
G36*
X126750000Y-112450000D02*
X126050000Y-112450000D01*
X126050000Y-110650000D01*
X126750000Y-110650000D01*
X126750000Y-112450000D01*
X126750000Y-112450000D01*
G37*
G36*
X127750000Y-112450000D02*
X127050000Y-112450000D01*
X127050000Y-110650000D01*
X127750000Y-110650000D01*
X127750000Y-112450000D01*
X127750000Y-112450000D01*
G37*
G36*
X128750000Y-112450000D02*
X128050000Y-112450000D01*
X128050000Y-110650000D01*
X128750000Y-110650000D01*
X128750000Y-112450000D01*
X128750000Y-112450000D01*
G37*
G36*
X129750000Y-112450000D02*
X129050000Y-112450000D01*
X129050000Y-110650000D01*
X129750000Y-110650000D01*
X129750000Y-112450000D01*
X129750000Y-112450000D01*
G37*
G36*
X131750000Y-112450000D02*
X131050000Y-112450000D01*
X131050000Y-110650000D01*
X131750000Y-110650000D01*
X131750000Y-112450000D01*
X131750000Y-112450000D01*
G37*
G36*
X130750000Y-112450000D02*
X130050000Y-112450000D01*
X130050000Y-110650000D01*
X130750000Y-110650000D01*
X130750000Y-112450000D01*
X130750000Y-112450000D01*
G37*
G36*
X133750000Y-112450000D02*
X133050000Y-112450000D01*
X133050000Y-110650000D01*
X133750000Y-110650000D01*
X133750000Y-112450000D01*
X133750000Y-112450000D01*
G37*
G36*
X134750000Y-112450000D02*
X134050000Y-112450000D01*
X134050000Y-110650000D01*
X134750000Y-110650000D01*
X134750000Y-112450000D01*
X134750000Y-112450000D01*
G37*
G36*
X132750000Y-112450000D02*
X132050000Y-112450000D01*
X132050000Y-110650000D01*
X132750000Y-110650000D01*
X132750000Y-112450000D01*
X132750000Y-112450000D01*
G37*
G36*
X121025000Y-112385000D02*
X119375000Y-112385000D01*
X119375000Y-111685000D01*
X121025000Y-111685000D01*
X121025000Y-112385000D01*
X121025000Y-112385000D01*
G37*
G36*
X115625000Y-112385000D02*
X113975000Y-112385000D01*
X113975000Y-111685000D01*
X115625000Y-111685000D01*
X115625000Y-112385000D01*
X115625000Y-112385000D01*
G37*
G36*
X121025000Y-111115000D02*
X119375000Y-111115000D01*
X119375000Y-110415000D01*
X121025000Y-110415000D01*
X121025000Y-111115000D01*
X121025000Y-111115000D01*
G37*
G36*
X115625000Y-111115000D02*
X113975000Y-111115000D01*
X113975000Y-110415000D01*
X115625000Y-110415000D01*
X115625000Y-111115000D01*
X115625000Y-111115000D01*
G37*
G36*
X105276432Y-108713022D02*
X105446081Y-108764485D01*
X105602433Y-108848056D01*
X105739475Y-108960525D01*
X105851944Y-109097567D01*
X105935515Y-109253919D01*
X105986978Y-109423568D01*
X106004354Y-109600000D01*
X105986978Y-109776432D01*
X105935515Y-109946081D01*
X105851944Y-110102433D01*
X105739475Y-110239475D01*
X105602433Y-110351944D01*
X105446081Y-110435515D01*
X105276432Y-110486978D01*
X105144211Y-110500000D01*
X105055789Y-110500000D01*
X104923568Y-110486978D01*
X104753919Y-110435515D01*
X104597567Y-110351944D01*
X104460525Y-110239475D01*
X104348056Y-110102433D01*
X104264485Y-109946081D01*
X104213022Y-109776432D01*
X104195646Y-109600000D01*
X104213022Y-109423568D01*
X104264485Y-109253919D01*
X104348056Y-109097567D01*
X104460525Y-108960525D01*
X104597567Y-108848056D01*
X104753919Y-108764485D01*
X104923568Y-108713022D01*
X105055789Y-108700000D01*
X105144211Y-108700000D01*
X105276432Y-108713022D01*
X105276432Y-108713022D01*
G37*
G36*
X107816432Y-108713022D02*
X107986081Y-108764485D01*
X108142433Y-108848056D01*
X108279475Y-108960525D01*
X108391944Y-109097567D01*
X108475515Y-109253919D01*
X108526978Y-109423568D01*
X108544354Y-109600000D01*
X108526978Y-109776432D01*
X108475515Y-109946081D01*
X108391944Y-110102433D01*
X108279475Y-110239475D01*
X108142433Y-110351944D01*
X107986081Y-110435515D01*
X107816432Y-110486978D01*
X107684211Y-110500000D01*
X107595789Y-110500000D01*
X107463568Y-110486978D01*
X107293919Y-110435515D01*
X107137567Y-110351944D01*
X107000525Y-110239475D01*
X106888056Y-110102433D01*
X106804485Y-109946081D01*
X106753022Y-109776432D01*
X106735646Y-109600000D01*
X106753022Y-109423568D01*
X106804485Y-109253919D01*
X106888056Y-109097567D01*
X107000525Y-108960525D01*
X107137567Y-108848056D01*
X107293919Y-108764485D01*
X107463568Y-108713022D01*
X107595789Y-108700000D01*
X107684211Y-108700000D01*
X107816432Y-108713022D01*
X107816432Y-108713022D01*
G37*
G36*
X102736432Y-108713022D02*
X102906081Y-108764485D01*
X103062433Y-108848056D01*
X103199475Y-108960525D01*
X103311944Y-109097567D01*
X103395515Y-109253919D01*
X103446978Y-109423568D01*
X103464354Y-109600000D01*
X103446978Y-109776432D01*
X103395515Y-109946081D01*
X103311944Y-110102433D01*
X103199475Y-110239475D01*
X103062433Y-110351944D01*
X102906081Y-110435515D01*
X102736432Y-110486978D01*
X102604211Y-110500000D01*
X102515789Y-110500000D01*
X102383568Y-110486978D01*
X102213919Y-110435515D01*
X102057567Y-110351944D01*
X101920525Y-110239475D01*
X101808056Y-110102433D01*
X101724485Y-109946081D01*
X101673022Y-109776432D01*
X101655646Y-109600000D01*
X101673022Y-109423568D01*
X101724485Y-109253919D01*
X101808056Y-109097567D01*
X101920525Y-108960525D01*
X102057567Y-108848056D01*
X102213919Y-108764485D01*
X102383568Y-108713022D01*
X102515789Y-108700000D01*
X102604211Y-108700000D01*
X102736432Y-108713022D01*
X102736432Y-108713022D01*
G37*
G36*
X121025000Y-109845000D02*
X119375000Y-109845000D01*
X119375000Y-109145000D01*
X121025000Y-109145000D01*
X121025000Y-109845000D01*
X121025000Y-109845000D01*
G37*
G36*
X115625000Y-109845000D02*
X113975000Y-109845000D01*
X113975000Y-109145000D01*
X115625000Y-109145000D01*
X115625000Y-109845000D01*
X115625000Y-109845000D01*
G37*
G36*
X115617926Y-105679340D02*
X115654390Y-105690402D01*
X115687998Y-105708366D01*
X115717458Y-105732542D01*
X115741634Y-105762002D01*
X115759598Y-105795610D01*
X115770660Y-105832074D01*
X115775000Y-105876141D01*
X115775000Y-107323859D01*
X115770660Y-107367926D01*
X115759598Y-107404390D01*
X115741634Y-107437998D01*
X115717458Y-107467458D01*
X115687998Y-107491634D01*
X115654390Y-107509598D01*
X115617926Y-107520660D01*
X115573859Y-107525000D01*
X114626141Y-107525000D01*
X114582074Y-107520660D01*
X114545610Y-107509598D01*
X114512002Y-107491634D01*
X114482542Y-107467458D01*
X114458366Y-107437998D01*
X114440402Y-107404390D01*
X114429340Y-107367926D01*
X114425000Y-107323859D01*
X114425000Y-105876141D01*
X114429340Y-105832074D01*
X114440402Y-105795610D01*
X114458366Y-105762002D01*
X114482542Y-105732542D01*
X114512002Y-105708366D01*
X114545610Y-105690402D01*
X114582074Y-105679340D01*
X114626141Y-105675000D01*
X115573859Y-105675000D01*
X115617926Y-105679340D01*
X115617926Y-105679340D01*
G37*
G36*
X112817926Y-105679340D02*
X112854390Y-105690402D01*
X112887998Y-105708366D01*
X112917458Y-105732542D01*
X112941634Y-105762002D01*
X112959598Y-105795610D01*
X112970660Y-105832074D01*
X112975000Y-105876141D01*
X112975000Y-107323859D01*
X112970660Y-107367926D01*
X112959598Y-107404390D01*
X112941634Y-107437998D01*
X112917458Y-107467458D01*
X112887998Y-107491634D01*
X112854390Y-107509598D01*
X112817926Y-107520660D01*
X112773859Y-107525000D01*
X111826141Y-107525000D01*
X111782074Y-107520660D01*
X111745610Y-107509598D01*
X111712002Y-107491634D01*
X111682542Y-107467458D01*
X111658366Y-107437998D01*
X111640402Y-107404390D01*
X111629340Y-107367926D01*
X111625000Y-107323859D01*
X111625000Y-105876141D01*
X111629340Y-105832074D01*
X111640402Y-105795610D01*
X111658366Y-105762002D01*
X111682542Y-105732542D01*
X111712002Y-105708366D01*
X111745610Y-105690402D01*
X111782074Y-105679340D01*
X111826141Y-105675000D01*
X112773859Y-105675000D01*
X112817926Y-105679340D01*
X112817926Y-105679340D01*
G37*
G36*
X137850000Y-107250000D02*
X136550000Y-107250000D01*
X136550000Y-105350000D01*
X137850000Y-105350000D01*
X137850000Y-107250000D01*
X137850000Y-107250000D01*
G37*
G36*
X125250000Y-107250000D02*
X123950000Y-107250000D01*
X123950000Y-105350000D01*
X125250000Y-105350000D01*
X125250000Y-107250000D01*
X125250000Y-107250000D01*
G37*
M02*
