G04 #@! TF.GenerationSoftware,KiCad,Pcbnew,(5.1.6)-1*
G04 #@! TF.CreationDate,2020-06-28T16:20:24-04:00*
G04 #@! TF.ProjectId,megadesk,6d656761-6465-4736-9b2e-6b696361645f,rev?*
G04 #@! TF.SameCoordinates,Original*
G04 #@! TF.FileFunction,Paste,Top*
G04 #@! TF.FilePolarity,Positive*
%FSLAX46Y46*%
G04 Gerber Fmt 4.6, Leading zero omitted, Abs format (unit mm)*
G04 Created by KiCad (PCBNEW (5.1.6)-1) date 2020-06-28 16:20:24*
%MOMM*%
%LPD*%
G01*
G04 APERTURE LIST*
%ADD10R,2.300000X3.400000*%
%ADD11R,1.200000X2.200000*%
%ADD12R,2.750000X3.050000*%
%ADD13R,1.000000X1.000000*%
%ADD14R,1.200000X1.800000*%
%ADD15R,0.600000X1.700000*%
G04 APERTURE END LIST*
D10*
X110500000Y-111100000D03*
X100900000Y-111100000D03*
G36*
G01*
X120650000Y-111855000D02*
X120650000Y-112155000D01*
G75*
G02*
X120500000Y-112305000I-150000J0D01*
G01*
X118850000Y-112305000D01*
G75*
G02*
X118700000Y-112155000I0J150000D01*
G01*
X118700000Y-111855000D01*
G75*
G02*
X118850000Y-111705000I150000J0D01*
G01*
X120500000Y-111705000D01*
G75*
G02*
X120650000Y-111855000I0J-150000D01*
G01*
G37*
G36*
G01*
X120650000Y-110585000D02*
X120650000Y-110885000D01*
G75*
G02*
X120500000Y-111035000I-150000J0D01*
G01*
X118850000Y-111035000D01*
G75*
G02*
X118700000Y-110885000I0J150000D01*
G01*
X118700000Y-110585000D01*
G75*
G02*
X118850000Y-110435000I150000J0D01*
G01*
X120500000Y-110435000D01*
G75*
G02*
X120650000Y-110585000I0J-150000D01*
G01*
G37*
G36*
G01*
X120650000Y-109315000D02*
X120650000Y-109615000D01*
G75*
G02*
X120500000Y-109765000I-150000J0D01*
G01*
X118850000Y-109765000D01*
G75*
G02*
X118700000Y-109615000I0J150000D01*
G01*
X118700000Y-109315000D01*
G75*
G02*
X118850000Y-109165000I150000J0D01*
G01*
X120500000Y-109165000D01*
G75*
G02*
X120650000Y-109315000I0J-150000D01*
G01*
G37*
G36*
G01*
X120650000Y-108045000D02*
X120650000Y-108345000D01*
G75*
G02*
X120500000Y-108495000I-150000J0D01*
G01*
X118850000Y-108495000D01*
G75*
G02*
X118700000Y-108345000I0J150000D01*
G01*
X118700000Y-108045000D01*
G75*
G02*
X118850000Y-107895000I150000J0D01*
G01*
X120500000Y-107895000D01*
G75*
G02*
X120650000Y-108045000I0J-150000D01*
G01*
G37*
G36*
G01*
X115700000Y-108045000D02*
X115700000Y-108345000D01*
G75*
G02*
X115550000Y-108495000I-150000J0D01*
G01*
X113900000Y-108495000D01*
G75*
G02*
X113750000Y-108345000I0J150000D01*
G01*
X113750000Y-108045000D01*
G75*
G02*
X113900000Y-107895000I150000J0D01*
G01*
X115550000Y-107895000D01*
G75*
G02*
X115700000Y-108045000I0J-150000D01*
G01*
G37*
G36*
G01*
X115700000Y-109315000D02*
X115700000Y-109615000D01*
G75*
G02*
X115550000Y-109765000I-150000J0D01*
G01*
X113900000Y-109765000D01*
G75*
G02*
X113750000Y-109615000I0J150000D01*
G01*
X113750000Y-109315000D01*
G75*
G02*
X113900000Y-109165000I150000J0D01*
G01*
X115550000Y-109165000D01*
G75*
G02*
X115700000Y-109315000I0J-150000D01*
G01*
G37*
G36*
G01*
X115700000Y-110585000D02*
X115700000Y-110885000D01*
G75*
G02*
X115550000Y-111035000I-150000J0D01*
G01*
X113900000Y-111035000D01*
G75*
G02*
X113750000Y-110885000I0J150000D01*
G01*
X113750000Y-110585000D01*
G75*
G02*
X113900000Y-110435000I150000J0D01*
G01*
X115550000Y-110435000D01*
G75*
G02*
X115700000Y-110585000I0J-150000D01*
G01*
G37*
G36*
G01*
X115700000Y-111855000D02*
X115700000Y-112155000D01*
G75*
G02*
X115550000Y-112305000I-150000J0D01*
G01*
X113900000Y-112305000D01*
G75*
G02*
X113750000Y-112155000I0J150000D01*
G01*
X113750000Y-111855000D01*
G75*
G02*
X113900000Y-111705000I150000J0D01*
G01*
X115550000Y-111705000D01*
G75*
G02*
X115700000Y-111855000I0J-150000D01*
G01*
G37*
G36*
G01*
X122860000Y-116150000D02*
X123160000Y-116150000D01*
G75*
G02*
X123310000Y-116300000I0J-150000D01*
G01*
X123310000Y-117950000D01*
G75*
G02*
X123160000Y-118100000I-150000J0D01*
G01*
X122860000Y-118100000D01*
G75*
G02*
X122710000Y-117950000I0J150000D01*
G01*
X122710000Y-116300000D01*
G75*
G02*
X122860000Y-116150000I150000J0D01*
G01*
G37*
G36*
G01*
X121590000Y-116150000D02*
X121890000Y-116150000D01*
G75*
G02*
X122040000Y-116300000I0J-150000D01*
G01*
X122040000Y-117950000D01*
G75*
G02*
X121890000Y-118100000I-150000J0D01*
G01*
X121590000Y-118100000D01*
G75*
G02*
X121440000Y-117950000I0J150000D01*
G01*
X121440000Y-116300000D01*
G75*
G02*
X121590000Y-116150000I150000J0D01*
G01*
G37*
G36*
G01*
X120320000Y-116150000D02*
X120620000Y-116150000D01*
G75*
G02*
X120770000Y-116300000I0J-150000D01*
G01*
X120770000Y-117950000D01*
G75*
G02*
X120620000Y-118100000I-150000J0D01*
G01*
X120320000Y-118100000D01*
G75*
G02*
X120170000Y-117950000I0J150000D01*
G01*
X120170000Y-116300000D01*
G75*
G02*
X120320000Y-116150000I150000J0D01*
G01*
G37*
G36*
G01*
X119050000Y-116150000D02*
X119350000Y-116150000D01*
G75*
G02*
X119500000Y-116300000I0J-150000D01*
G01*
X119500000Y-117950000D01*
G75*
G02*
X119350000Y-118100000I-150000J0D01*
G01*
X119050000Y-118100000D01*
G75*
G02*
X118900000Y-117950000I0J150000D01*
G01*
X118900000Y-116300000D01*
G75*
G02*
X119050000Y-116150000I150000J0D01*
G01*
G37*
G36*
G01*
X117780000Y-116150000D02*
X118080000Y-116150000D01*
G75*
G02*
X118230000Y-116300000I0J-150000D01*
G01*
X118230000Y-117950000D01*
G75*
G02*
X118080000Y-118100000I-150000J0D01*
G01*
X117780000Y-118100000D01*
G75*
G02*
X117630000Y-117950000I0J150000D01*
G01*
X117630000Y-116300000D01*
G75*
G02*
X117780000Y-116150000I150000J0D01*
G01*
G37*
G36*
G01*
X116510000Y-116150000D02*
X116810000Y-116150000D01*
G75*
G02*
X116960000Y-116300000I0J-150000D01*
G01*
X116960000Y-117950000D01*
G75*
G02*
X116810000Y-118100000I-150000J0D01*
G01*
X116510000Y-118100000D01*
G75*
G02*
X116360000Y-117950000I0J150000D01*
G01*
X116360000Y-116300000D01*
G75*
G02*
X116510000Y-116150000I150000J0D01*
G01*
G37*
G36*
G01*
X115240000Y-116150000D02*
X115540000Y-116150000D01*
G75*
G02*
X115690000Y-116300000I0J-150000D01*
G01*
X115690000Y-117950000D01*
G75*
G02*
X115540000Y-118100000I-150000J0D01*
G01*
X115240000Y-118100000D01*
G75*
G02*
X115090000Y-117950000I0J150000D01*
G01*
X115090000Y-116300000D01*
G75*
G02*
X115240000Y-116150000I150000J0D01*
G01*
G37*
G36*
G01*
X115240000Y-121100000D02*
X115540000Y-121100000D01*
G75*
G02*
X115690000Y-121250000I0J-150000D01*
G01*
X115690000Y-122900000D01*
G75*
G02*
X115540000Y-123050000I-150000J0D01*
G01*
X115240000Y-123050000D01*
G75*
G02*
X115090000Y-122900000I0J150000D01*
G01*
X115090000Y-121250000D01*
G75*
G02*
X115240000Y-121100000I150000J0D01*
G01*
G37*
G36*
G01*
X116510000Y-121100000D02*
X116810000Y-121100000D01*
G75*
G02*
X116960000Y-121250000I0J-150000D01*
G01*
X116960000Y-122900000D01*
G75*
G02*
X116810000Y-123050000I-150000J0D01*
G01*
X116510000Y-123050000D01*
G75*
G02*
X116360000Y-122900000I0J150000D01*
G01*
X116360000Y-121250000D01*
G75*
G02*
X116510000Y-121100000I150000J0D01*
G01*
G37*
G36*
G01*
X117780000Y-121100000D02*
X118080000Y-121100000D01*
G75*
G02*
X118230000Y-121250000I0J-150000D01*
G01*
X118230000Y-122900000D01*
G75*
G02*
X118080000Y-123050000I-150000J0D01*
G01*
X117780000Y-123050000D01*
G75*
G02*
X117630000Y-122900000I0J150000D01*
G01*
X117630000Y-121250000D01*
G75*
G02*
X117780000Y-121100000I150000J0D01*
G01*
G37*
G36*
G01*
X119050000Y-121100000D02*
X119350000Y-121100000D01*
G75*
G02*
X119500000Y-121250000I0J-150000D01*
G01*
X119500000Y-122900000D01*
G75*
G02*
X119350000Y-123050000I-150000J0D01*
G01*
X119050000Y-123050000D01*
G75*
G02*
X118900000Y-122900000I0J150000D01*
G01*
X118900000Y-121250000D01*
G75*
G02*
X119050000Y-121100000I150000J0D01*
G01*
G37*
G36*
G01*
X120320000Y-121100000D02*
X120620000Y-121100000D01*
G75*
G02*
X120770000Y-121250000I0J-150000D01*
G01*
X120770000Y-122900000D01*
G75*
G02*
X120620000Y-123050000I-150000J0D01*
G01*
X120320000Y-123050000D01*
G75*
G02*
X120170000Y-122900000I0J150000D01*
G01*
X120170000Y-121250000D01*
G75*
G02*
X120320000Y-121100000I150000J0D01*
G01*
G37*
G36*
G01*
X121590000Y-121100000D02*
X121890000Y-121100000D01*
G75*
G02*
X122040000Y-121250000I0J-150000D01*
G01*
X122040000Y-122900000D01*
G75*
G02*
X121890000Y-123050000I-150000J0D01*
G01*
X121590000Y-123050000D01*
G75*
G02*
X121440000Y-122900000I0J150000D01*
G01*
X121440000Y-121250000D01*
G75*
G02*
X121590000Y-121100000I150000J0D01*
G01*
G37*
G36*
G01*
X122860000Y-121100000D02*
X123160000Y-121100000D01*
G75*
G02*
X123310000Y-121250000I0J-150000D01*
G01*
X123310000Y-122900000D01*
G75*
G02*
X123160000Y-123050000I-150000J0D01*
G01*
X122860000Y-123050000D01*
G75*
G02*
X122710000Y-122900000I0J150000D01*
G01*
X122710000Y-121250000D01*
G75*
G02*
X122860000Y-121100000I150000J0D01*
G01*
G37*
D11*
X131895000Y-127825000D03*
X134175000Y-127825000D03*
X136455000Y-127825000D03*
D12*
X135700000Y-119850000D03*
X132650000Y-123200000D03*
X132650000Y-119850000D03*
X135700000Y-123200000D03*
D11*
X101395000Y-127088000D03*
X103675000Y-127088000D03*
X105955000Y-127088000D03*
D12*
X105200000Y-119113000D03*
X102150000Y-122463000D03*
X102150000Y-119113000D03*
X105200000Y-122463000D03*
D13*
X127200000Y-134550000D03*
X127200000Y-132050000D03*
X130300000Y-132050000D03*
X130300000Y-134550000D03*
G36*
G01*
X111325000Y-126887500D02*
X110075000Y-126887500D01*
G75*
G02*
X109825000Y-126637500I0J250000D01*
G01*
X109825000Y-125887500D01*
G75*
G02*
X110075000Y-125637500I250000J0D01*
G01*
X111325000Y-125637500D01*
G75*
G02*
X111575000Y-125887500I0J-250000D01*
G01*
X111575000Y-126637500D01*
G75*
G02*
X111325000Y-126887500I-250000J0D01*
G01*
G37*
G36*
G01*
X111325000Y-129687500D02*
X110075000Y-129687500D01*
G75*
G02*
X109825000Y-129437500I0J250000D01*
G01*
X109825000Y-128687500D01*
G75*
G02*
X110075000Y-128437500I250000J0D01*
G01*
X111325000Y-128437500D01*
G75*
G02*
X111575000Y-128687500I0J-250000D01*
G01*
X111575000Y-129437500D01*
G75*
G02*
X111325000Y-129687500I-250000J0D01*
G01*
G37*
G36*
G01*
X116467000Y-105475000D02*
X116467000Y-106725000D01*
G75*
G02*
X116217000Y-106975000I-250000J0D01*
G01*
X115467000Y-106975000D01*
G75*
G02*
X115217000Y-106725000I0J250000D01*
G01*
X115217000Y-105475000D01*
G75*
G02*
X115467000Y-105225000I250000J0D01*
G01*
X116217000Y-105225000D01*
G75*
G02*
X116467000Y-105475000I0J-250000D01*
G01*
G37*
G36*
G01*
X119267000Y-105475000D02*
X119267000Y-106725000D01*
G75*
G02*
X119017000Y-106975000I-250000J0D01*
G01*
X118267000Y-106975000D01*
G75*
G02*
X118017000Y-106725000I0J250000D01*
G01*
X118017000Y-105475000D01*
G75*
G02*
X118267000Y-105225000I250000J0D01*
G01*
X119017000Y-105225000D01*
G75*
G02*
X119267000Y-105475000I0J-250000D01*
G01*
G37*
G36*
G01*
X122575000Y-111875000D02*
X123825000Y-111875000D01*
G75*
G02*
X124075000Y-112125000I0J-250000D01*
G01*
X124075000Y-112875000D01*
G75*
G02*
X123825000Y-113125000I-250000J0D01*
G01*
X122575000Y-113125000D01*
G75*
G02*
X122325000Y-112875000I0J250000D01*
G01*
X122325000Y-112125000D01*
G75*
G02*
X122575000Y-111875000I250000J0D01*
G01*
G37*
G36*
G01*
X122575000Y-109075000D02*
X123825000Y-109075000D01*
G75*
G02*
X124075000Y-109325000I0J-250000D01*
G01*
X124075000Y-110075000D01*
G75*
G02*
X123825000Y-110325000I-250000J0D01*
G01*
X122575000Y-110325000D01*
G75*
G02*
X122325000Y-110075000I0J250000D01*
G01*
X122325000Y-109325000D01*
G75*
G02*
X122575000Y-109075000I250000J0D01*
G01*
G37*
G36*
G01*
X126575000Y-119575000D02*
X127825000Y-119575000D01*
G75*
G02*
X128075000Y-119825000I0J-250000D01*
G01*
X128075000Y-120575000D01*
G75*
G02*
X127825000Y-120825000I-250000J0D01*
G01*
X126575000Y-120825000D01*
G75*
G02*
X126325000Y-120575000I0J250000D01*
G01*
X126325000Y-119825000D01*
G75*
G02*
X126575000Y-119575000I250000J0D01*
G01*
G37*
G36*
G01*
X126575000Y-122375000D02*
X127825000Y-122375000D01*
G75*
G02*
X128075000Y-122625000I0J-250000D01*
G01*
X128075000Y-123375000D01*
G75*
G02*
X127825000Y-123625000I-250000J0D01*
G01*
X126575000Y-123625000D01*
G75*
G02*
X126325000Y-123375000I0J250000D01*
G01*
X126325000Y-122625000D01*
G75*
G02*
X126575000Y-122375000I250000J0D01*
G01*
G37*
G36*
G01*
X109075000Y-120937500D02*
X110325000Y-120937500D01*
G75*
G02*
X110575000Y-121187500I0J-250000D01*
G01*
X110575000Y-121937500D01*
G75*
G02*
X110325000Y-122187500I-250000J0D01*
G01*
X109075000Y-122187500D01*
G75*
G02*
X108825000Y-121937500I0J250000D01*
G01*
X108825000Y-121187500D01*
G75*
G02*
X109075000Y-120937500I250000J0D01*
G01*
G37*
G36*
G01*
X109075000Y-118137500D02*
X110325000Y-118137500D01*
G75*
G02*
X110575000Y-118387500I0J-250000D01*
G01*
X110575000Y-119137500D01*
G75*
G02*
X110325000Y-119387500I-250000J0D01*
G01*
X109075000Y-119387500D01*
G75*
G02*
X108825000Y-119137500I0J250000D01*
G01*
X108825000Y-118387500D01*
G75*
G02*
X109075000Y-118137500I250000J0D01*
G01*
G37*
G36*
G01*
X112575000Y-128437500D02*
X113825000Y-128437500D01*
G75*
G02*
X114075000Y-128687500I0J-250000D01*
G01*
X114075000Y-129437500D01*
G75*
G02*
X113825000Y-129687500I-250000J0D01*
G01*
X112575000Y-129687500D01*
G75*
G02*
X112325000Y-129437500I0J250000D01*
G01*
X112325000Y-128687500D01*
G75*
G02*
X112575000Y-128437500I250000J0D01*
G01*
G37*
G36*
G01*
X112575000Y-125637500D02*
X113825000Y-125637500D01*
G75*
G02*
X114075000Y-125887500I0J-250000D01*
G01*
X114075000Y-126637500D01*
G75*
G02*
X113825000Y-126887500I-250000J0D01*
G01*
X112575000Y-126887500D01*
G75*
G02*
X112325000Y-126637500I0J250000D01*
G01*
X112325000Y-125887500D01*
G75*
G02*
X112575000Y-125637500I250000J0D01*
G01*
G37*
G36*
G01*
X137075000Y-133937500D02*
X138325000Y-133937500D01*
G75*
G02*
X138575000Y-134187500I0J-250000D01*
G01*
X138575000Y-134937500D01*
G75*
G02*
X138325000Y-135187500I-250000J0D01*
G01*
X137075000Y-135187500D01*
G75*
G02*
X136825000Y-134937500I0J250000D01*
G01*
X136825000Y-134187500D01*
G75*
G02*
X137075000Y-133937500I250000J0D01*
G01*
G37*
G36*
G01*
X137075000Y-131137500D02*
X138325000Y-131137500D01*
G75*
G02*
X138575000Y-131387500I0J-250000D01*
G01*
X138575000Y-132137500D01*
G75*
G02*
X138325000Y-132387500I-250000J0D01*
G01*
X137075000Y-132387500D01*
G75*
G02*
X136825000Y-132137500I0J250000D01*
G01*
X136825000Y-131387500D01*
G75*
G02*
X137075000Y-131137500I250000J0D01*
G01*
G37*
G36*
G01*
X133575000Y-133937500D02*
X134825000Y-133937500D01*
G75*
G02*
X135075000Y-134187500I0J-250000D01*
G01*
X135075000Y-134937500D01*
G75*
G02*
X134825000Y-135187500I-250000J0D01*
G01*
X133575000Y-135187500D01*
G75*
G02*
X133325000Y-134937500I0J250000D01*
G01*
X133325000Y-134187500D01*
G75*
G02*
X133575000Y-133937500I250000J0D01*
G01*
G37*
G36*
G01*
X133575000Y-131137500D02*
X134825000Y-131137500D01*
G75*
G02*
X135075000Y-131387500I0J-250000D01*
G01*
X135075000Y-132137500D01*
G75*
G02*
X134825000Y-132387500I-250000J0D01*
G01*
X133575000Y-132387500D01*
G75*
G02*
X133325000Y-132137500I0J250000D01*
G01*
X133325000Y-131387500D01*
G75*
G02*
X133575000Y-131137500I250000J0D01*
G01*
G37*
G36*
G01*
X110075000Y-133439000D02*
X111325000Y-133439000D01*
G75*
G02*
X111575000Y-133689000I0J-250000D01*
G01*
X111575000Y-134439000D01*
G75*
G02*
X111325000Y-134689000I-250000J0D01*
G01*
X110075000Y-134689000D01*
G75*
G02*
X109825000Y-134439000I0J250000D01*
G01*
X109825000Y-133689000D01*
G75*
G02*
X110075000Y-133439000I250000J0D01*
G01*
G37*
G36*
G01*
X110075000Y-130639000D02*
X111325000Y-130639000D01*
G75*
G02*
X111575000Y-130889000I0J-250000D01*
G01*
X111575000Y-131639000D01*
G75*
G02*
X111325000Y-131889000I-250000J0D01*
G01*
X110075000Y-131889000D01*
G75*
G02*
X109825000Y-131639000I0J250000D01*
G01*
X109825000Y-130889000D01*
G75*
G02*
X110075000Y-130639000I250000J0D01*
G01*
G37*
G36*
G01*
X126575000Y-129375000D02*
X127825000Y-129375000D01*
G75*
G02*
X128075000Y-129625000I0J-250000D01*
G01*
X128075000Y-130375000D01*
G75*
G02*
X127825000Y-130625000I-250000J0D01*
G01*
X126575000Y-130625000D01*
G75*
G02*
X126325000Y-130375000I0J250000D01*
G01*
X126325000Y-129625000D01*
G75*
G02*
X126575000Y-129375000I250000J0D01*
G01*
G37*
G36*
G01*
X126575000Y-126575000D02*
X127825000Y-126575000D01*
G75*
G02*
X128075000Y-126825000I0J-250000D01*
G01*
X128075000Y-127575000D01*
G75*
G02*
X127825000Y-127825000I-250000J0D01*
G01*
X126575000Y-127825000D01*
G75*
G02*
X126325000Y-127575000I0J250000D01*
G01*
X126325000Y-126825000D01*
G75*
G02*
X126575000Y-126575000I250000J0D01*
G01*
G37*
D14*
X124600000Y-106300000D03*
X137200000Y-106300000D03*
D15*
X126400000Y-111550000D03*
X127400000Y-111550000D03*
X128400000Y-111550000D03*
X129400000Y-111550000D03*
X130400000Y-111550000D03*
X131400000Y-111550000D03*
X132400000Y-111550000D03*
X133400000Y-111550000D03*
X134400000Y-111550000D03*
X135400000Y-111550000D03*
M02*
