M48
; DRILL file {KiCad (5.99.0-12157-g5a28a06597)} date Mon Sep 27 15:07:44 2021
; FORMAT={-:-/ absolute / inch / decimal}
; #@! TF.CreationDate,2021-09-27T15:07:44-04:00
; #@! TF.GenerationSoftware,Kicad,Pcbnew,(5.99.0-12157-g5a28a06597)
; #@! TF.FileFunction,Plated,1,2,PTH
FMAT,2
INCH
; #@! TA.AperFunction,Plated,PTH,ViaDrill
T1C0.0118
; #@! TA.AperFunction,Plated,PTH,ViaDrill
T2C0.0197
; #@! TA.AperFunction,Plated,PTH,ComponentDrill
T3C0.0394
%
G90
G05
T1
X3.9921Y-4.6181
X4.0012Y-5.0157
X4.0433Y-4.8504
X4.1535Y-4.2441
X4.1535Y-4.2953
X4.1535Y-4.4921
X4.1575Y-4.3465
X4.1921Y-5.0157
X4.2638Y-4.9567
X4.2874Y-4.7244
X4.315Y-4.4921
X4.3228Y-4.5669
X4.3307Y-4.4331
X4.3346Y-4.2402
X4.3386Y-4.3465
X4.3386Y-4.3858
X4.3425Y-4.2913
X4.3465Y-4.8386
X4.4016Y-5.2087
X4.4291Y-4.563
X4.4488Y-5.0827
X4.5079Y-4.7835
X4.5157Y-4.8661
X4.5827Y-4.2913
X4.5827Y-4.3425
X4.6732Y-4.7087
X4.7258Y-4.9431
X4.7283Y-4.752
X4.752Y-4.315
X4.7717Y-4.2795
X4.7953Y-4.7874
X4.8031Y-4.3976
X4.8307Y-4.4882
X4.8543Y-4.563
X4.8701Y-4.6496
X4.9606Y-4.2402
X5.0224Y-5.1512
X5.0236Y-5.063
X5.0394Y-4.3031
X5.1299Y-4.6496
X5.1378Y-4.2402
X5.1732Y-4.2087
X5.2283Y-4.5551
X5.4252Y-5.0197
T2
X4.2402Y-5.1811
X4.2402Y-5.2205
X4.2402Y-5.2598
X4.2402Y-5.2992
X4.2402Y-5.3386
X4.2795Y-5.1811
X4.2795Y-5.2205
X4.2795Y-5.2598
X4.2795Y-5.2992
X4.2795Y-5.3386
X5.1457Y-5.1024
X5.1457Y-5.1417
X5.1457Y-5.1811
X5.1457Y-5.2205
X5.1457Y-5.2598
X5.1457Y-5.2992
X5.1457Y-5.3386
X5.185Y-5.1024
X5.185Y-5.1417
X5.185Y-5.1811
X5.185Y-5.2205
X5.185Y-5.2598
X5.185Y-5.2992
X5.185Y-5.3386
T3
X4.5165Y-4.4567
X4.5165Y-4.5567
X4.5874Y-5.0118
X4.6165Y-4.4567
X4.6165Y-4.5567
X4.6874Y-5.0118
X4.7165Y-4.4567
X4.7165Y-4.5567
X4.7874Y-5.0118
T0
M30
