G04 #@! TF.GenerationSoftware,KiCad,Pcbnew,5.1.5-52549c5~84~ubuntu18.04.1*
G04 #@! TF.CreationDate,2019-12-15T09:51:59+00:00*
G04 #@! TF.ProjectId,megadesk,6d656761-6465-4736-9b2e-6b696361645f,rev?*
G04 #@! TF.SameCoordinates,Original*
G04 #@! TF.FileFunction,Soldermask,Top*
G04 #@! TF.FilePolarity,Negative*
%FSLAX46Y46*%
G04 Gerber Fmt 4.6, Leading zero omitted, Abs format (unit mm)*
G04 Created by KiCad (PCBNEW 5.1.5-52549c5~84~ubuntu18.04.1) date 2019-12-15 09:51:59*
%MOMM*%
%LPD*%
G04 APERTURE LIST*
%ADD10C,0.100000*%
G04 APERTURE END LIST*
D10*
G36*
X102010520Y-133706586D02*
G01*
X102174310Y-133774430D01*
X102321717Y-133872924D01*
X102447076Y-133998283D01*
X102545570Y-134145690D01*
X102545571Y-134145692D01*
X102613414Y-134309480D01*
X102648000Y-134483356D01*
X102648000Y-134660644D01*
X102633446Y-134733812D01*
X102613414Y-134834520D01*
X102545570Y-134998310D01*
X102447076Y-135145717D01*
X102321717Y-135271076D01*
X102174310Y-135369570D01*
X102174309Y-135369571D01*
X102174308Y-135369571D01*
X102010520Y-135437414D01*
X101836644Y-135472000D01*
X101659356Y-135472000D01*
X101485480Y-135437414D01*
X101321692Y-135369571D01*
X101321691Y-135369571D01*
X101321690Y-135369570D01*
X101174283Y-135271076D01*
X101048924Y-135145717D01*
X100950430Y-134998310D01*
X100882586Y-134834520D01*
X100862554Y-134733812D01*
X100848000Y-134660644D01*
X100848000Y-134483356D01*
X100882586Y-134309480D01*
X100950429Y-134145692D01*
X100950430Y-134145690D01*
X101048924Y-133998283D01*
X101174283Y-133872924D01*
X101321690Y-133774430D01*
X101485480Y-133706586D01*
X101659356Y-133672000D01*
X101836644Y-133672000D01*
X102010520Y-133706586D01*
G37*
G36*
X104550520Y-133706586D02*
G01*
X104714310Y-133774430D01*
X104861717Y-133872924D01*
X104987076Y-133998283D01*
X105085570Y-134145690D01*
X105085571Y-134145692D01*
X105153414Y-134309480D01*
X105188000Y-134483356D01*
X105188000Y-134660644D01*
X105173446Y-134733812D01*
X105153414Y-134834520D01*
X105085570Y-134998310D01*
X104987076Y-135145717D01*
X104861717Y-135271076D01*
X104714310Y-135369570D01*
X104714309Y-135369571D01*
X104714308Y-135369571D01*
X104550520Y-135437414D01*
X104376644Y-135472000D01*
X104199356Y-135472000D01*
X104025480Y-135437414D01*
X103861692Y-135369571D01*
X103861691Y-135369571D01*
X103861690Y-135369570D01*
X103714283Y-135271076D01*
X103588924Y-135145717D01*
X103490430Y-134998310D01*
X103422586Y-134834520D01*
X103402554Y-134733812D01*
X103388000Y-134660644D01*
X103388000Y-134483356D01*
X103422586Y-134309480D01*
X103490429Y-134145692D01*
X103490430Y-134145690D01*
X103588924Y-133998283D01*
X103714283Y-133872924D01*
X103861690Y-133774430D01*
X104025480Y-133706586D01*
X104199356Y-133672000D01*
X104376644Y-133672000D01*
X104550520Y-133706586D01*
G37*
G36*
X107728000Y-135472000D02*
G01*
X105928000Y-135472000D01*
X105928000Y-133672000D01*
X107728000Y-133672000D01*
X107728000Y-135472000D01*
G37*
G36*
X138467925Y-133891840D02*
G01*
X138504391Y-133902902D01*
X138538001Y-133920867D01*
X138567458Y-133945042D01*
X138591633Y-133974499D01*
X138609598Y-134008109D01*
X138620660Y-134044575D01*
X138625000Y-134088641D01*
X138625000Y-135036359D01*
X138620660Y-135080425D01*
X138609598Y-135116891D01*
X138591633Y-135150501D01*
X138567458Y-135179958D01*
X138538001Y-135204133D01*
X138504391Y-135222098D01*
X138467925Y-135233160D01*
X138423859Y-135237500D01*
X136976141Y-135237500D01*
X136932075Y-135233160D01*
X136895609Y-135222098D01*
X136861999Y-135204133D01*
X136832542Y-135179958D01*
X136808367Y-135150501D01*
X136790402Y-135116891D01*
X136779340Y-135080425D01*
X136775000Y-135036359D01*
X136775000Y-134088641D01*
X136779340Y-134044575D01*
X136790402Y-134008109D01*
X136808367Y-133974499D01*
X136832542Y-133945042D01*
X136861999Y-133920867D01*
X136895609Y-133902902D01*
X136932075Y-133891840D01*
X136976141Y-133887500D01*
X138423859Y-133887500D01*
X138467925Y-133891840D01*
G37*
G36*
X134967925Y-133891840D02*
G01*
X135004391Y-133902902D01*
X135038001Y-133920867D01*
X135067458Y-133945042D01*
X135091633Y-133974499D01*
X135109598Y-134008109D01*
X135120660Y-134044575D01*
X135125000Y-134088641D01*
X135125000Y-135036359D01*
X135120660Y-135080425D01*
X135109598Y-135116891D01*
X135091633Y-135150501D01*
X135067458Y-135179958D01*
X135038001Y-135204133D01*
X135004391Y-135222098D01*
X134967925Y-135233160D01*
X134923859Y-135237500D01*
X133476141Y-135237500D01*
X133432075Y-135233160D01*
X133395609Y-135222098D01*
X133361999Y-135204133D01*
X133332542Y-135179958D01*
X133308367Y-135150501D01*
X133290402Y-135116891D01*
X133279340Y-135080425D01*
X133275000Y-135036359D01*
X133275000Y-134088641D01*
X133279340Y-134044575D01*
X133290402Y-134008109D01*
X133308367Y-133974499D01*
X133332542Y-133945042D01*
X133361999Y-133920867D01*
X133395609Y-133902902D01*
X133432075Y-133891840D01*
X133476141Y-133887500D01*
X134923859Y-133887500D01*
X134967925Y-133891840D01*
G37*
G36*
X127750000Y-135100000D02*
G01*
X126650000Y-135100000D01*
X126650000Y-134000000D01*
X127750000Y-134000000D01*
X127750000Y-135100000D01*
G37*
G36*
X130850000Y-135100000D02*
G01*
X129750000Y-135100000D01*
X129750000Y-134000000D01*
X130850000Y-134000000D01*
X130850000Y-135100000D01*
G37*
G36*
X111467925Y-133393340D02*
G01*
X111504391Y-133404402D01*
X111538001Y-133422367D01*
X111567458Y-133446542D01*
X111591633Y-133475999D01*
X111609598Y-133509609D01*
X111620660Y-133546075D01*
X111625000Y-133590141D01*
X111625000Y-134537859D01*
X111620660Y-134581925D01*
X111609598Y-134618391D01*
X111591633Y-134652001D01*
X111567458Y-134681458D01*
X111538001Y-134705633D01*
X111504391Y-134723598D01*
X111467925Y-134734660D01*
X111423859Y-134739000D01*
X109976141Y-134739000D01*
X109932075Y-134734660D01*
X109895609Y-134723598D01*
X109861999Y-134705633D01*
X109832542Y-134681458D01*
X109808367Y-134652001D01*
X109790402Y-134618391D01*
X109779340Y-134581925D01*
X109775000Y-134537859D01*
X109775000Y-133590141D01*
X109779340Y-133546075D01*
X109790402Y-133509609D01*
X109808367Y-133475999D01*
X109832542Y-133446542D01*
X109861999Y-133422367D01*
X109895609Y-133404402D01*
X109932075Y-133393340D01*
X109976141Y-133389000D01*
X111423859Y-133389000D01*
X111467925Y-133393340D01*
G37*
G36*
X104550520Y-131166586D02*
G01*
X104650766Y-131208109D01*
X104714310Y-131234430D01*
X104861717Y-131332924D01*
X104987076Y-131458283D01*
X105014950Y-131500000D01*
X105085571Y-131605692D01*
X105153414Y-131769480D01*
X105188000Y-131943356D01*
X105188000Y-132120644D01*
X105153414Y-132294520D01*
X105095988Y-132433160D01*
X105085570Y-132458310D01*
X104987076Y-132605717D01*
X104861717Y-132731076D01*
X104714310Y-132829570D01*
X104714309Y-132829571D01*
X104714308Y-132829571D01*
X104550520Y-132897414D01*
X104376644Y-132932000D01*
X104199356Y-132932000D01*
X104025480Y-132897414D01*
X103861692Y-132829571D01*
X103861691Y-132829571D01*
X103861690Y-132829570D01*
X103714283Y-132731076D01*
X103588924Y-132605717D01*
X103490430Y-132458310D01*
X103480013Y-132433160D01*
X103422586Y-132294520D01*
X103388000Y-132120644D01*
X103388000Y-131943356D01*
X103422586Y-131769480D01*
X103490429Y-131605692D01*
X103561050Y-131500000D01*
X103588924Y-131458283D01*
X103714283Y-131332924D01*
X103861690Y-131234430D01*
X103925235Y-131208109D01*
X104025480Y-131166586D01*
X104199356Y-131132000D01*
X104376644Y-131132000D01*
X104550520Y-131166586D01*
G37*
G36*
X102010520Y-131166586D02*
G01*
X102110766Y-131208109D01*
X102174310Y-131234430D01*
X102321717Y-131332924D01*
X102447076Y-131458283D01*
X102474950Y-131500000D01*
X102545571Y-131605692D01*
X102613414Y-131769480D01*
X102648000Y-131943356D01*
X102648000Y-132120644D01*
X102613414Y-132294520D01*
X102555988Y-132433160D01*
X102545570Y-132458310D01*
X102447076Y-132605717D01*
X102321717Y-132731076D01*
X102174310Y-132829570D01*
X102174309Y-132829571D01*
X102174308Y-132829571D01*
X102010520Y-132897414D01*
X101836644Y-132932000D01*
X101659356Y-132932000D01*
X101485480Y-132897414D01*
X101321692Y-132829571D01*
X101321691Y-132829571D01*
X101321690Y-132829570D01*
X101174283Y-132731076D01*
X101048924Y-132605717D01*
X100950430Y-132458310D01*
X100940013Y-132433160D01*
X100882586Y-132294520D01*
X100848000Y-132120644D01*
X100848000Y-131943356D01*
X100882586Y-131769480D01*
X100950429Y-131605692D01*
X101021050Y-131500000D01*
X101048924Y-131458283D01*
X101174283Y-131332924D01*
X101321690Y-131234430D01*
X101385235Y-131208109D01*
X101485480Y-131166586D01*
X101659356Y-131132000D01*
X101836644Y-131132000D01*
X102010520Y-131166586D01*
G37*
G36*
X107090520Y-131166586D02*
G01*
X107190766Y-131208109D01*
X107254310Y-131234430D01*
X107401717Y-131332924D01*
X107527076Y-131458283D01*
X107554950Y-131500000D01*
X107625571Y-131605692D01*
X107693414Y-131769480D01*
X107728000Y-131943356D01*
X107728000Y-132120644D01*
X107693414Y-132294520D01*
X107635988Y-132433160D01*
X107625570Y-132458310D01*
X107527076Y-132605717D01*
X107401717Y-132731076D01*
X107254310Y-132829570D01*
X107254309Y-132829571D01*
X107254308Y-132829571D01*
X107090520Y-132897414D01*
X106916644Y-132932000D01*
X106739356Y-132932000D01*
X106565480Y-132897414D01*
X106401692Y-132829571D01*
X106401691Y-132829571D01*
X106401690Y-132829570D01*
X106254283Y-132731076D01*
X106128924Y-132605717D01*
X106030430Y-132458310D01*
X106020013Y-132433160D01*
X105962586Y-132294520D01*
X105928000Y-132120644D01*
X105928000Y-131943356D01*
X105962586Y-131769480D01*
X106030429Y-131605692D01*
X106101050Y-131500000D01*
X106128924Y-131458283D01*
X106254283Y-131332924D01*
X106401690Y-131234430D01*
X106465235Y-131208109D01*
X106565480Y-131166586D01*
X106739356Y-131132000D01*
X106916644Y-131132000D01*
X107090520Y-131166586D01*
G37*
G36*
X130850000Y-132600000D02*
G01*
X129750000Y-132600000D01*
X129750000Y-131500000D01*
X130850000Y-131500000D01*
X130850000Y-132600000D01*
G37*
G36*
X127750000Y-132600000D02*
G01*
X126650000Y-132600000D01*
X126650000Y-131500000D01*
X127750000Y-131500000D01*
X127750000Y-132600000D01*
G37*
G36*
X138467925Y-131091840D02*
G01*
X138504391Y-131102902D01*
X138538001Y-131120867D01*
X138567458Y-131145042D01*
X138591633Y-131174499D01*
X138609598Y-131208109D01*
X138620660Y-131244575D01*
X138625000Y-131288641D01*
X138625000Y-132236359D01*
X138620660Y-132280425D01*
X138609598Y-132316891D01*
X138591633Y-132350501D01*
X138567458Y-132379958D01*
X138538001Y-132404133D01*
X138504391Y-132422098D01*
X138467925Y-132433160D01*
X138423859Y-132437500D01*
X136976141Y-132437500D01*
X136932075Y-132433160D01*
X136895609Y-132422098D01*
X136861999Y-132404133D01*
X136832542Y-132379958D01*
X136808367Y-132350501D01*
X136790402Y-132316891D01*
X136779340Y-132280425D01*
X136775000Y-132236359D01*
X136775000Y-131288641D01*
X136779340Y-131244575D01*
X136790402Y-131208109D01*
X136808367Y-131174499D01*
X136832542Y-131145042D01*
X136861999Y-131120867D01*
X136895609Y-131102902D01*
X136932075Y-131091840D01*
X136976141Y-131087500D01*
X138423859Y-131087500D01*
X138467925Y-131091840D01*
G37*
G36*
X134967925Y-131091840D02*
G01*
X135004391Y-131102902D01*
X135038001Y-131120867D01*
X135067458Y-131145042D01*
X135091633Y-131174499D01*
X135109598Y-131208109D01*
X135120660Y-131244575D01*
X135125000Y-131288641D01*
X135125000Y-132236359D01*
X135120660Y-132280425D01*
X135109598Y-132316891D01*
X135091633Y-132350501D01*
X135067458Y-132379958D01*
X135038001Y-132404133D01*
X135004391Y-132422098D01*
X134967925Y-132433160D01*
X134923859Y-132437500D01*
X133476141Y-132437500D01*
X133432075Y-132433160D01*
X133395609Y-132422098D01*
X133361999Y-132404133D01*
X133332542Y-132379958D01*
X133308367Y-132350501D01*
X133290402Y-132316891D01*
X133279340Y-132280425D01*
X133275000Y-132236359D01*
X133275000Y-131288641D01*
X133279340Y-131244575D01*
X133290402Y-131208109D01*
X133308367Y-131174499D01*
X133332542Y-131145042D01*
X133361999Y-131120867D01*
X133395609Y-131102902D01*
X133432075Y-131091840D01*
X133476141Y-131087500D01*
X134923859Y-131087500D01*
X134967925Y-131091840D01*
G37*
G36*
X111467925Y-130593340D02*
G01*
X111504391Y-130604402D01*
X111538001Y-130622367D01*
X111567458Y-130646542D01*
X111591633Y-130675999D01*
X111609598Y-130709609D01*
X111620660Y-130746075D01*
X111625000Y-130790141D01*
X111625000Y-131737859D01*
X111620660Y-131781925D01*
X111609598Y-131818391D01*
X111591633Y-131852001D01*
X111567458Y-131881458D01*
X111538001Y-131905633D01*
X111504391Y-131923598D01*
X111467925Y-131934660D01*
X111423859Y-131939000D01*
X109976141Y-131939000D01*
X109932075Y-131934660D01*
X109895609Y-131923598D01*
X109861999Y-131905633D01*
X109832542Y-131881458D01*
X109808367Y-131852001D01*
X109790402Y-131818391D01*
X109779340Y-131781925D01*
X109775000Y-131737859D01*
X109775000Y-130790141D01*
X109779340Y-130746075D01*
X109790402Y-130709609D01*
X109808367Y-130675999D01*
X109832542Y-130646542D01*
X109861999Y-130622367D01*
X109895609Y-130604402D01*
X109932075Y-130593340D01*
X109976141Y-130589000D01*
X111423859Y-130589000D01*
X111467925Y-130593340D01*
G37*
G36*
X127967925Y-129329340D02*
G01*
X128004391Y-129340402D01*
X128038001Y-129358367D01*
X128067458Y-129382542D01*
X128091633Y-129411999D01*
X128109598Y-129445609D01*
X128120660Y-129482075D01*
X128125000Y-129526141D01*
X128125000Y-130473859D01*
X128120660Y-130517925D01*
X128109598Y-130554391D01*
X128091633Y-130588001D01*
X128067458Y-130617458D01*
X128038001Y-130641633D01*
X128004391Y-130659598D01*
X127967925Y-130670660D01*
X127923859Y-130675000D01*
X126476141Y-130675000D01*
X126432075Y-130670660D01*
X126395609Y-130659598D01*
X126361999Y-130641633D01*
X126332542Y-130617458D01*
X126308367Y-130588001D01*
X126290402Y-130554391D01*
X126279340Y-130517925D01*
X126275000Y-130473859D01*
X126275000Y-129526141D01*
X126279340Y-129482075D01*
X126290402Y-129445609D01*
X126308367Y-129411999D01*
X126332542Y-129382542D01*
X126361999Y-129358367D01*
X126395609Y-129340402D01*
X126432075Y-129329340D01*
X126476141Y-129325000D01*
X127923859Y-129325000D01*
X127967925Y-129329340D01*
G37*
G36*
X113967925Y-128391840D02*
G01*
X114004391Y-128402902D01*
X114038001Y-128420867D01*
X114067458Y-128445042D01*
X114091633Y-128474499D01*
X114109598Y-128508109D01*
X114120660Y-128544575D01*
X114125000Y-128588641D01*
X114125000Y-129536359D01*
X114120660Y-129580425D01*
X114109598Y-129616891D01*
X114091633Y-129650501D01*
X114067458Y-129679958D01*
X114038001Y-129704133D01*
X114004391Y-129722098D01*
X113967925Y-129733160D01*
X113923859Y-129737500D01*
X112476141Y-129737500D01*
X112432075Y-129733160D01*
X112395609Y-129722098D01*
X112361999Y-129704133D01*
X112332542Y-129679958D01*
X112308367Y-129650501D01*
X112290402Y-129616891D01*
X112279340Y-129580425D01*
X112275000Y-129536359D01*
X112275000Y-128588641D01*
X112279340Y-128544575D01*
X112290402Y-128508109D01*
X112308367Y-128474499D01*
X112332542Y-128445042D01*
X112361999Y-128420867D01*
X112395609Y-128402902D01*
X112432075Y-128391840D01*
X112476141Y-128387500D01*
X113923859Y-128387500D01*
X113967925Y-128391840D01*
G37*
G36*
X111467925Y-128391840D02*
G01*
X111504391Y-128402902D01*
X111538001Y-128420867D01*
X111567458Y-128445042D01*
X111591633Y-128474499D01*
X111609598Y-128508109D01*
X111620660Y-128544575D01*
X111625000Y-128588641D01*
X111625000Y-129536359D01*
X111620660Y-129580425D01*
X111609598Y-129616891D01*
X111591633Y-129650501D01*
X111567458Y-129679958D01*
X111538001Y-129704133D01*
X111504391Y-129722098D01*
X111467925Y-129733160D01*
X111423859Y-129737500D01*
X109976141Y-129737500D01*
X109932075Y-129733160D01*
X109895609Y-129722098D01*
X109861999Y-129704133D01*
X109832542Y-129679958D01*
X109808367Y-129650501D01*
X109790402Y-129616891D01*
X109779340Y-129580425D01*
X109775000Y-129536359D01*
X109775000Y-128588641D01*
X109779340Y-128544575D01*
X109790402Y-128508109D01*
X109808367Y-128474499D01*
X109832542Y-128445042D01*
X109861999Y-128420867D01*
X109895609Y-128402902D01*
X109932075Y-128391840D01*
X109976141Y-128387500D01*
X111423859Y-128387500D01*
X111467925Y-128391840D01*
G37*
G36*
X134825000Y-128975000D02*
G01*
X133525000Y-128975000D01*
X133525000Y-126675000D01*
X134825000Y-126675000D01*
X134825000Y-128975000D01*
G37*
G36*
X132545000Y-128975000D02*
G01*
X131245000Y-128975000D01*
X131245000Y-126675000D01*
X132545000Y-126675000D01*
X132545000Y-128975000D01*
G37*
G36*
X137105000Y-128975000D02*
G01*
X135805000Y-128975000D01*
X135805000Y-126675000D01*
X137105000Y-126675000D01*
X137105000Y-128975000D01*
G37*
G36*
X102045000Y-128238000D02*
G01*
X100745000Y-128238000D01*
X100745000Y-125938000D01*
X102045000Y-125938000D01*
X102045000Y-128238000D01*
G37*
G36*
X104325000Y-128238000D02*
G01*
X103025000Y-128238000D01*
X103025000Y-125938000D01*
X104325000Y-125938000D01*
X104325000Y-128238000D01*
G37*
G36*
X106605000Y-128238000D02*
G01*
X105305000Y-128238000D01*
X105305000Y-125938000D01*
X106605000Y-125938000D01*
X106605000Y-128238000D01*
G37*
G36*
X116782520Y-126434586D02*
G01*
X116946310Y-126502430D01*
X117093717Y-126600924D01*
X117219076Y-126726283D01*
X117317570Y-126873690D01*
X117385414Y-127037480D01*
X117420000Y-127211358D01*
X117420000Y-127388642D01*
X117385414Y-127562520D01*
X117317570Y-127726310D01*
X117219076Y-127873717D01*
X117093717Y-127999076D01*
X116946310Y-128097570D01*
X116946309Y-128097571D01*
X116946308Y-128097571D01*
X116782520Y-128165414D01*
X116608644Y-128200000D01*
X116431356Y-128200000D01*
X116257480Y-128165414D01*
X116093692Y-128097571D01*
X116093691Y-128097571D01*
X116093690Y-128097570D01*
X115946283Y-127999076D01*
X115820924Y-127873717D01*
X115722430Y-127726310D01*
X115654586Y-127562520D01*
X115620000Y-127388642D01*
X115620000Y-127211358D01*
X115654586Y-127037480D01*
X115722430Y-126873690D01*
X115820924Y-126726283D01*
X115946283Y-126600924D01*
X116093690Y-126502430D01*
X116257480Y-126434586D01*
X116431356Y-126400000D01*
X116608644Y-126400000D01*
X116782520Y-126434586D01*
G37*
G36*
X119322520Y-126434586D02*
G01*
X119486310Y-126502430D01*
X119633717Y-126600924D01*
X119759076Y-126726283D01*
X119857570Y-126873690D01*
X119925414Y-127037480D01*
X119960000Y-127211358D01*
X119960000Y-127388642D01*
X119925414Y-127562520D01*
X119857570Y-127726310D01*
X119759076Y-127873717D01*
X119633717Y-127999076D01*
X119486310Y-128097570D01*
X119486309Y-128097571D01*
X119486308Y-128097571D01*
X119322520Y-128165414D01*
X119148644Y-128200000D01*
X118971356Y-128200000D01*
X118797480Y-128165414D01*
X118633692Y-128097571D01*
X118633691Y-128097571D01*
X118633690Y-128097570D01*
X118486283Y-127999076D01*
X118360924Y-127873717D01*
X118262430Y-127726310D01*
X118194586Y-127562520D01*
X118160000Y-127388642D01*
X118160000Y-127211358D01*
X118194586Y-127037480D01*
X118262430Y-126873690D01*
X118360924Y-126726283D01*
X118486283Y-126600924D01*
X118633690Y-126502430D01*
X118797480Y-126434586D01*
X118971356Y-126400000D01*
X119148644Y-126400000D01*
X119322520Y-126434586D01*
G37*
G36*
X122500000Y-128200000D02*
G01*
X120700000Y-128200000D01*
X120700000Y-126400000D01*
X122500000Y-126400000D01*
X122500000Y-128200000D01*
G37*
G36*
X127967925Y-126529340D02*
G01*
X128004391Y-126540402D01*
X128038001Y-126558367D01*
X128067458Y-126582542D01*
X128091633Y-126611999D01*
X128109598Y-126645609D01*
X128120660Y-126682075D01*
X128125000Y-126726141D01*
X128125000Y-127673859D01*
X128120660Y-127717925D01*
X128109598Y-127754391D01*
X128091633Y-127788001D01*
X128067458Y-127817458D01*
X128038001Y-127841633D01*
X128004391Y-127859598D01*
X127967925Y-127870660D01*
X127923859Y-127875000D01*
X126476141Y-127875000D01*
X126432075Y-127870660D01*
X126395609Y-127859598D01*
X126361999Y-127841633D01*
X126332542Y-127817458D01*
X126308367Y-127788001D01*
X126290402Y-127754391D01*
X126279340Y-127717925D01*
X126275000Y-127673859D01*
X126275000Y-126726141D01*
X126279340Y-126682075D01*
X126290402Y-126645609D01*
X126308367Y-126611999D01*
X126332542Y-126582542D01*
X126361999Y-126558367D01*
X126395609Y-126540402D01*
X126432075Y-126529340D01*
X126476141Y-126525000D01*
X127923859Y-126525000D01*
X127967925Y-126529340D01*
G37*
G36*
X111467925Y-125591840D02*
G01*
X111504391Y-125602902D01*
X111538001Y-125620867D01*
X111567458Y-125645042D01*
X111591633Y-125674499D01*
X111609598Y-125708109D01*
X111620660Y-125744575D01*
X111625000Y-125788641D01*
X111625000Y-126736359D01*
X111620660Y-126780425D01*
X111609598Y-126816891D01*
X111591633Y-126850501D01*
X111567458Y-126879958D01*
X111538001Y-126904133D01*
X111504391Y-126922098D01*
X111467925Y-126933160D01*
X111423859Y-126937500D01*
X109976141Y-126937500D01*
X109932075Y-126933160D01*
X109895609Y-126922098D01*
X109861999Y-126904133D01*
X109832542Y-126879958D01*
X109808367Y-126850501D01*
X109790402Y-126816891D01*
X109779340Y-126780425D01*
X109775000Y-126736359D01*
X109775000Y-125788641D01*
X109779340Y-125744575D01*
X109790402Y-125708109D01*
X109808367Y-125674499D01*
X109832542Y-125645042D01*
X109861999Y-125620867D01*
X109895609Y-125602902D01*
X109932075Y-125591840D01*
X109976141Y-125587500D01*
X111423859Y-125587500D01*
X111467925Y-125591840D01*
G37*
G36*
X113967925Y-125591840D02*
G01*
X114004391Y-125602902D01*
X114038001Y-125620867D01*
X114067458Y-125645042D01*
X114091633Y-125674499D01*
X114109598Y-125708109D01*
X114120660Y-125744575D01*
X114125000Y-125788641D01*
X114125000Y-126736359D01*
X114120660Y-126780425D01*
X114109598Y-126816891D01*
X114091633Y-126850501D01*
X114067458Y-126879958D01*
X114038001Y-126904133D01*
X114004391Y-126922098D01*
X113967925Y-126933160D01*
X113923859Y-126937500D01*
X112476141Y-126937500D01*
X112432075Y-126933160D01*
X112395609Y-126922098D01*
X112361999Y-126904133D01*
X112332542Y-126879958D01*
X112308367Y-126850501D01*
X112290402Y-126816891D01*
X112279340Y-126780425D01*
X112275000Y-126736359D01*
X112275000Y-125788641D01*
X112279340Y-125744575D01*
X112290402Y-125708109D01*
X112308367Y-125674499D01*
X112332542Y-125645042D01*
X112361999Y-125620867D01*
X112395609Y-125602902D01*
X112432075Y-125591840D01*
X112476141Y-125587500D01*
X113923859Y-125587500D01*
X113967925Y-125591840D01*
G37*
G36*
X137125000Y-124775000D02*
G01*
X131225000Y-124775000D01*
X131225000Y-118275000D01*
X137125000Y-118275000D01*
X137125000Y-124775000D01*
G37*
G36*
X106625000Y-124038000D02*
G01*
X100725000Y-124038000D01*
X100725000Y-117538000D01*
X106625000Y-117538000D01*
X106625000Y-124038000D01*
G37*
G36*
X127967925Y-122329340D02*
G01*
X128004391Y-122340402D01*
X128038001Y-122358367D01*
X128067458Y-122382542D01*
X128091633Y-122411999D01*
X128109598Y-122445609D01*
X128120660Y-122482075D01*
X128125000Y-122526141D01*
X128125000Y-123473859D01*
X128120660Y-123517925D01*
X128109598Y-123554391D01*
X128091633Y-123588001D01*
X128067458Y-123617458D01*
X128038001Y-123641633D01*
X128004391Y-123659598D01*
X127967925Y-123670660D01*
X127923859Y-123675000D01*
X126476141Y-123675000D01*
X126432075Y-123670660D01*
X126395609Y-123659598D01*
X126361999Y-123641633D01*
X126332542Y-123617458D01*
X126308367Y-123588001D01*
X126290402Y-123554391D01*
X126279340Y-123517925D01*
X126275000Y-123473859D01*
X126275000Y-122526141D01*
X126279340Y-122482075D01*
X126290402Y-122445609D01*
X126308367Y-122411999D01*
X126332542Y-122382542D01*
X126361999Y-122358367D01*
X126395609Y-122340402D01*
X126432075Y-122329340D01*
X126476141Y-122325000D01*
X127923859Y-122325000D01*
X127967925Y-122329340D01*
G37*
G36*
X118280000Y-123100000D02*
G01*
X117580000Y-123100000D01*
X117580000Y-121500000D01*
X118280000Y-121500000D01*
X118280000Y-123100000D01*
G37*
G36*
X119550000Y-123100000D02*
G01*
X118850000Y-123100000D01*
X118850000Y-121500000D01*
X119550000Y-121500000D01*
X119550000Y-123100000D01*
G37*
G36*
X122090000Y-123100000D02*
G01*
X121390000Y-123100000D01*
X121390000Y-121500000D01*
X122090000Y-121500000D01*
X122090000Y-123100000D01*
G37*
G36*
X117010000Y-123100000D02*
G01*
X116310000Y-123100000D01*
X116310000Y-121500000D01*
X117010000Y-121500000D01*
X117010000Y-123100000D01*
G37*
G36*
X115740000Y-123100000D02*
G01*
X115040000Y-123100000D01*
X115040000Y-121500000D01*
X115740000Y-121500000D01*
X115740000Y-123100000D01*
G37*
G36*
X120820000Y-123100000D02*
G01*
X120120000Y-123100000D01*
X120120000Y-121500000D01*
X120820000Y-121500000D01*
X120820000Y-123100000D01*
G37*
G36*
X123360000Y-123100000D02*
G01*
X122660000Y-123100000D01*
X122660000Y-121500000D01*
X123360000Y-121500000D01*
X123360000Y-123100000D01*
G37*
G36*
X110467925Y-120891840D02*
G01*
X110504391Y-120902902D01*
X110538001Y-120920867D01*
X110567458Y-120945042D01*
X110591633Y-120974499D01*
X110609598Y-121008109D01*
X110620660Y-121044575D01*
X110625000Y-121088641D01*
X110625000Y-122036359D01*
X110620660Y-122080425D01*
X110609598Y-122116891D01*
X110591633Y-122150501D01*
X110567458Y-122179958D01*
X110538001Y-122204133D01*
X110504391Y-122222098D01*
X110467925Y-122233160D01*
X110423859Y-122237500D01*
X108976141Y-122237500D01*
X108932075Y-122233160D01*
X108895609Y-122222098D01*
X108861999Y-122204133D01*
X108832542Y-122179958D01*
X108808367Y-122150501D01*
X108790402Y-122116891D01*
X108779340Y-122080425D01*
X108775000Y-122036359D01*
X108775000Y-121088641D01*
X108779340Y-121044575D01*
X108790402Y-121008109D01*
X108808367Y-120974499D01*
X108832542Y-120945042D01*
X108861999Y-120920867D01*
X108895609Y-120902902D01*
X108932075Y-120891840D01*
X108976141Y-120887500D01*
X110423859Y-120887500D01*
X110467925Y-120891840D01*
G37*
G36*
X127967925Y-119529340D02*
G01*
X128004391Y-119540402D01*
X128038001Y-119558367D01*
X128067458Y-119582542D01*
X128091633Y-119611999D01*
X128109598Y-119645609D01*
X128120660Y-119682075D01*
X128125000Y-119726141D01*
X128125000Y-120673859D01*
X128120660Y-120717925D01*
X128109598Y-120754391D01*
X128091633Y-120788001D01*
X128067458Y-120817458D01*
X128038001Y-120841633D01*
X128004391Y-120859598D01*
X127967925Y-120870660D01*
X127923859Y-120875000D01*
X126476141Y-120875000D01*
X126432075Y-120870660D01*
X126395609Y-120859598D01*
X126361999Y-120841633D01*
X126332542Y-120817458D01*
X126308367Y-120788001D01*
X126290402Y-120754391D01*
X126279340Y-120717925D01*
X126275000Y-120673859D01*
X126275000Y-119726141D01*
X126279340Y-119682075D01*
X126290402Y-119645609D01*
X126308367Y-119611999D01*
X126332542Y-119582542D01*
X126361999Y-119558367D01*
X126395609Y-119540402D01*
X126432075Y-119529340D01*
X126476141Y-119525000D01*
X127923859Y-119525000D01*
X127967925Y-119529340D01*
G37*
G36*
X110467925Y-118091840D02*
G01*
X110504391Y-118102902D01*
X110538001Y-118120867D01*
X110567458Y-118145042D01*
X110591633Y-118174499D01*
X110609598Y-118208109D01*
X110620660Y-118244575D01*
X110625000Y-118288641D01*
X110625000Y-119236359D01*
X110620660Y-119280425D01*
X110609598Y-119316891D01*
X110591633Y-119350501D01*
X110567458Y-119379958D01*
X110538001Y-119404133D01*
X110504391Y-119422098D01*
X110467925Y-119433160D01*
X110423859Y-119437500D01*
X108976141Y-119437500D01*
X108932075Y-119433160D01*
X108895609Y-119422098D01*
X108861999Y-119404133D01*
X108832542Y-119379958D01*
X108808367Y-119350501D01*
X108790402Y-119316891D01*
X108779340Y-119280425D01*
X108775000Y-119236359D01*
X108775000Y-118288641D01*
X108779340Y-118244575D01*
X108790402Y-118208109D01*
X108808367Y-118174499D01*
X108832542Y-118145042D01*
X108861999Y-118120867D01*
X108895609Y-118102902D01*
X108932075Y-118091840D01*
X108976141Y-118087500D01*
X110423859Y-118087500D01*
X110467925Y-118091840D01*
G37*
G36*
X119550000Y-117700000D02*
G01*
X118850000Y-117700000D01*
X118850000Y-116100000D01*
X119550000Y-116100000D01*
X119550000Y-117700000D01*
G37*
G36*
X117010000Y-117700000D02*
G01*
X116310000Y-117700000D01*
X116310000Y-116100000D01*
X117010000Y-116100000D01*
X117010000Y-117700000D01*
G37*
G36*
X118280000Y-117700000D02*
G01*
X117580000Y-117700000D01*
X117580000Y-116100000D01*
X118280000Y-116100000D01*
X118280000Y-117700000D01*
G37*
G36*
X120820000Y-117700000D02*
G01*
X120120000Y-117700000D01*
X120120000Y-116100000D01*
X120820000Y-116100000D01*
X120820000Y-117700000D01*
G37*
G36*
X122090000Y-117700000D02*
G01*
X121390000Y-117700000D01*
X121390000Y-116100000D01*
X122090000Y-116100000D01*
X122090000Y-117700000D01*
G37*
G36*
X123360000Y-117700000D02*
G01*
X122660000Y-117700000D01*
X122660000Y-116100000D01*
X123360000Y-116100000D01*
X123360000Y-117700000D01*
G37*
G36*
X115740000Y-117700000D02*
G01*
X115040000Y-117700000D01*
X115040000Y-116100000D01*
X115740000Y-116100000D01*
X115740000Y-117700000D01*
G37*
G36*
X102750000Y-113250000D02*
G01*
X100650000Y-113250000D01*
X100650000Y-108950000D01*
X102750000Y-108950000D01*
X102750000Y-113250000D01*
G37*
G36*
X110750000Y-113250000D02*
G01*
X108650000Y-113250000D01*
X108650000Y-108950000D01*
X110750000Y-108950000D01*
X110750000Y-113250000D01*
G37*
G36*
X123967925Y-111829340D02*
G01*
X124004391Y-111840402D01*
X124038001Y-111858367D01*
X124067458Y-111882542D01*
X124091633Y-111911999D01*
X124109598Y-111945609D01*
X124120660Y-111982075D01*
X124125000Y-112026141D01*
X124125000Y-112973859D01*
X124120660Y-113017925D01*
X124109598Y-113054391D01*
X124091633Y-113088001D01*
X124067458Y-113117458D01*
X124038001Y-113141633D01*
X124004391Y-113159598D01*
X123967925Y-113170660D01*
X123923859Y-113175000D01*
X122476141Y-113175000D01*
X122432075Y-113170660D01*
X122395609Y-113159598D01*
X122361999Y-113141633D01*
X122332542Y-113117458D01*
X122308367Y-113088001D01*
X122290402Y-113054391D01*
X122279340Y-113017925D01*
X122275000Y-112973859D01*
X122275000Y-112026141D01*
X122279340Y-111982075D01*
X122290402Y-111945609D01*
X122308367Y-111911999D01*
X122332542Y-111882542D01*
X122361999Y-111858367D01*
X122395609Y-111840402D01*
X122432075Y-111829340D01*
X122476141Y-111825000D01*
X123923859Y-111825000D01*
X123967925Y-111829340D01*
G37*
G36*
X129750000Y-112450000D02*
G01*
X129050000Y-112450000D01*
X129050000Y-110650000D01*
X129750000Y-110650000D01*
X129750000Y-112450000D01*
G37*
G36*
X135750000Y-112450000D02*
G01*
X135050000Y-112450000D01*
X135050000Y-110650000D01*
X135750000Y-110650000D01*
X135750000Y-112450000D01*
G37*
G36*
X134750000Y-112450000D02*
G01*
X134050000Y-112450000D01*
X134050000Y-110650000D01*
X134750000Y-110650000D01*
X134750000Y-112450000D01*
G37*
G36*
X133750000Y-112450000D02*
G01*
X133050000Y-112450000D01*
X133050000Y-110650000D01*
X133750000Y-110650000D01*
X133750000Y-112450000D01*
G37*
G36*
X132750000Y-112450000D02*
G01*
X132050000Y-112450000D01*
X132050000Y-110650000D01*
X132750000Y-110650000D01*
X132750000Y-112450000D01*
G37*
G36*
X130750000Y-112450000D02*
G01*
X130050000Y-112450000D01*
X130050000Y-110650000D01*
X130750000Y-110650000D01*
X130750000Y-112450000D01*
G37*
G36*
X128750000Y-112450000D02*
G01*
X128050000Y-112450000D01*
X128050000Y-110650000D01*
X128750000Y-110650000D01*
X128750000Y-112450000D01*
G37*
G36*
X127750000Y-112450000D02*
G01*
X127050000Y-112450000D01*
X127050000Y-110650000D01*
X127750000Y-110650000D01*
X127750000Y-112450000D01*
G37*
G36*
X126750000Y-112450000D02*
G01*
X126050000Y-112450000D01*
X126050000Y-110650000D01*
X126750000Y-110650000D01*
X126750000Y-112450000D01*
G37*
G36*
X131750000Y-112450000D02*
G01*
X131050000Y-112450000D01*
X131050000Y-110650000D01*
X131750000Y-110650000D01*
X131750000Y-112450000D01*
G37*
G36*
X115325000Y-112355000D02*
G01*
X113675000Y-112355000D01*
X113675000Y-111655000D01*
X115325000Y-111655000D01*
X115325000Y-112355000D01*
G37*
G36*
X120725000Y-112355000D02*
G01*
X119075000Y-112355000D01*
X119075000Y-111655000D01*
X120725000Y-111655000D01*
X120725000Y-112355000D01*
G37*
G36*
X120725000Y-111085000D02*
G01*
X119075000Y-111085000D01*
X119075000Y-110385000D01*
X120725000Y-110385000D01*
X120725000Y-111085000D01*
G37*
G36*
X115325000Y-111085000D02*
G01*
X113675000Y-111085000D01*
X113675000Y-110385000D01*
X115325000Y-110385000D01*
X115325000Y-111085000D01*
G37*
G36*
X123967925Y-109029340D02*
G01*
X124004391Y-109040402D01*
X124038001Y-109058367D01*
X124067458Y-109082542D01*
X124091633Y-109111999D01*
X124109598Y-109145609D01*
X124120660Y-109182075D01*
X124125000Y-109226141D01*
X124125000Y-110173859D01*
X124120660Y-110217925D01*
X124109598Y-110254391D01*
X124091633Y-110288001D01*
X124067458Y-110317458D01*
X124038001Y-110341633D01*
X124004391Y-110359598D01*
X123967925Y-110370660D01*
X123923859Y-110375000D01*
X122476141Y-110375000D01*
X122432075Y-110370660D01*
X122395609Y-110359598D01*
X122361999Y-110341633D01*
X122332542Y-110317458D01*
X122308367Y-110288001D01*
X122290402Y-110254391D01*
X122279340Y-110217925D01*
X122275000Y-110173859D01*
X122275000Y-109226141D01*
X122279340Y-109182075D01*
X122290402Y-109145609D01*
X122308367Y-109111999D01*
X122332542Y-109082542D01*
X122361999Y-109058367D01*
X122395609Y-109040402D01*
X122432075Y-109029340D01*
X122476141Y-109025000D01*
X123923859Y-109025000D01*
X123967925Y-109029340D01*
G37*
G36*
X115325000Y-109815000D02*
G01*
X113675000Y-109815000D01*
X113675000Y-109115000D01*
X115325000Y-109115000D01*
X115325000Y-109815000D01*
G37*
G36*
X120725000Y-109815000D02*
G01*
X119075000Y-109815000D01*
X119075000Y-109115000D01*
X120725000Y-109115000D01*
X120725000Y-109815000D01*
G37*
G36*
X120725000Y-108545000D02*
G01*
X119075000Y-108545000D01*
X119075000Y-107845000D01*
X120725000Y-107845000D01*
X120725000Y-108545000D01*
G37*
G36*
X115325000Y-108545000D02*
G01*
X113675000Y-108545000D01*
X113675000Y-107845000D01*
X115325000Y-107845000D01*
X115325000Y-108545000D01*
G37*
G36*
X125250000Y-107250000D02*
G01*
X123950000Y-107250000D01*
X123950000Y-105350000D01*
X125250000Y-105350000D01*
X125250000Y-107250000D01*
G37*
G36*
X137850000Y-107250000D02*
G01*
X136550000Y-107250000D01*
X136550000Y-105350000D01*
X137850000Y-105350000D01*
X137850000Y-107250000D01*
G37*
G36*
X116359925Y-105179340D02*
G01*
X116396391Y-105190402D01*
X116430001Y-105208367D01*
X116459458Y-105232542D01*
X116483633Y-105261999D01*
X116501598Y-105295609D01*
X116512660Y-105332075D01*
X116517000Y-105376141D01*
X116517000Y-106823859D01*
X116512660Y-106867925D01*
X116501598Y-106904391D01*
X116483633Y-106938001D01*
X116459458Y-106967458D01*
X116430001Y-106991633D01*
X116396391Y-107009598D01*
X116359925Y-107020660D01*
X116315859Y-107025000D01*
X115368141Y-107025000D01*
X115324075Y-107020660D01*
X115287609Y-107009598D01*
X115253999Y-106991633D01*
X115224542Y-106967458D01*
X115200367Y-106938001D01*
X115182402Y-106904391D01*
X115171340Y-106867925D01*
X115167000Y-106823859D01*
X115167000Y-105376141D01*
X115171340Y-105332075D01*
X115182402Y-105295609D01*
X115200367Y-105261999D01*
X115224542Y-105232542D01*
X115253999Y-105208367D01*
X115287609Y-105190402D01*
X115324075Y-105179340D01*
X115368141Y-105175000D01*
X116315859Y-105175000D01*
X116359925Y-105179340D01*
G37*
G36*
X119159925Y-105179340D02*
G01*
X119196391Y-105190402D01*
X119230001Y-105208367D01*
X119259458Y-105232542D01*
X119283633Y-105261999D01*
X119301598Y-105295609D01*
X119312660Y-105332075D01*
X119317000Y-105376141D01*
X119317000Y-106823859D01*
X119312660Y-106867925D01*
X119301598Y-106904391D01*
X119283633Y-106938001D01*
X119259458Y-106967458D01*
X119230001Y-106991633D01*
X119196391Y-107009598D01*
X119159925Y-107020660D01*
X119115859Y-107025000D01*
X118168141Y-107025000D01*
X118124075Y-107020660D01*
X118087609Y-107009598D01*
X118053999Y-106991633D01*
X118024542Y-106967458D01*
X118000367Y-106938001D01*
X117982402Y-106904391D01*
X117971340Y-106867925D01*
X117967000Y-106823859D01*
X117967000Y-105376141D01*
X117971340Y-105332075D01*
X117982402Y-105295609D01*
X118000367Y-105261999D01*
X118024542Y-105232542D01*
X118053999Y-105208367D01*
X118087609Y-105190402D01*
X118124075Y-105179340D01*
X118168141Y-105175000D01*
X119115859Y-105175000D01*
X119159925Y-105179340D01*
G37*
M02*
