G04 #@! TF.GenerationSoftware,KiCad,Pcbnew,(5.99.0-12157-g5a28a06597)*
G04 #@! TF.CreationDate,2021-09-27T15:07:42-04:00*
G04 #@! TF.ProjectId,megadesk,6d656761-6465-4736-9b2e-6b696361645f,rev?*
G04 #@! TF.SameCoordinates,Original*
G04 #@! TF.FileFunction,Soldermask,Top*
G04 #@! TF.FilePolarity,Negative*
%FSLAX46Y46*%
G04 Gerber Fmt 4.6, Leading zero omitted, Abs format (unit mm)*
G04 Created by KiCad (PCBNEW (5.99.0-12157-g5a28a06597)) date 2021-09-27 15:07:42*
%MOMM*%
%LPD*%
G01*
G04 APERTURE LIST*
G04 Aperture macros list*
%AMRoundRect*
0 Rectangle with rounded corners*
0 $1 Rounding radius*
0 $2 $3 $4 $5 $6 $7 $8 $9 X,Y pos of 4 corners*
0 Add a 4 corners polygon primitive as box body*
4,1,4,$2,$3,$4,$5,$6,$7,$8,$9,$2,$3,0*
0 Add four circle primitives for the rounded corners*
1,1,$1+$1,$2,$3*
1,1,$1+$1,$4,$5*
1,1,$1+$1,$6,$7*
1,1,$1+$1,$8,$9*
0 Add four rect primitives between the rounded corners*
20,1,$1+$1,$2,$3,$4,$5,0*
20,1,$1+$1,$4,$5,$6,$7,0*
20,1,$1+$1,$6,$7,$8,$9,0*
20,1,$1+$1,$8,$9,$2,$3,0*%
G04 Aperture macros list end*
%ADD10RoundRect,0.050000X1.050000X1.400000X-1.050000X1.400000X-1.050000X-1.400000X1.050000X-1.400000X0*%
%ADD11RoundRect,0.050000X0.300000X0.950000X-0.300000X0.950000X-0.300000X-0.950000X0.300000X-0.950000X0*%
%ADD12O,1.800000X1.800000*%
%ADD13RoundRect,0.050000X-0.850000X0.850000X-0.850000X-0.850000X0.850000X-0.850000X0.850000X0.850000X0*%
%ADD14RoundRect,0.050000X0.500000X-0.500000X0.500000X0.500000X-0.500000X0.500000X-0.500000X-0.500000X0*%
%ADD15RoundRect,0.050000X-0.600000X1.100000X-0.600000X-1.100000X0.600000X-1.100000X0.600000X1.100000X0*%
%ADD16RoundRect,0.050000X-2.900000X3.200000X-2.900000X-3.200000X2.900000X-3.200000X2.900000X3.200000X0*%
%ADD17RoundRect,0.275000X0.225000X0.250000X-0.225000X0.250000X-0.225000X-0.250000X0.225000X-0.250000X0*%
%ADD18RoundRect,0.250000X-0.275000X0.200000X-0.275000X-0.200000X0.275000X-0.200000X0.275000X0.200000X0*%
%ADD19RoundRect,0.250000X0.200000X0.275000X-0.200000X0.275000X-0.200000X-0.275000X0.200000X-0.275000X0*%
%ADD20RoundRect,0.050000X-1.150000X-1.700000X1.150000X-1.700000X1.150000X1.700000X-1.150000X1.700000X0*%
%ADD21RoundRect,0.300000X-0.475000X0.250000X-0.475000X-0.250000X0.475000X-0.250000X0.475000X0.250000X0*%
%ADD22RoundRect,0.050000X-0.500000X0.500000X-0.500000X-0.500000X0.500000X-0.500000X0.500000X0.500000X0*%
%ADD23RoundRect,0.200000X0.825000X0.150000X-0.825000X0.150000X-0.825000X-0.150000X0.825000X-0.150000X0*%
%ADD24RoundRect,0.200000X-0.825000X-0.150000X0.825000X-0.150000X0.825000X0.150000X-0.825000X0.150000X0*%
%ADD25RoundRect,0.250000X-0.200000X-0.275000X0.200000X-0.275000X0.200000X0.275000X-0.200000X0.275000X0*%
G04 APERTURE END LIST*
D10*
X138550000Y-109650000D03*
X123250000Y-109650000D03*
D11*
X135400000Y-112000000D03*
X134400000Y-112000000D03*
X133400000Y-112000000D03*
X132400000Y-112000000D03*
X131400000Y-112000000D03*
X130400000Y-112000000D03*
X129400000Y-112000000D03*
X128400000Y-112000000D03*
X127400000Y-112000000D03*
X126400000Y-112000000D03*
D12*
X116520000Y-127300000D03*
X119060000Y-127300000D03*
D13*
X121600000Y-127300000D03*
D14*
X110700000Y-131100000D03*
X110700000Y-133600000D03*
D15*
X133420000Y-125400000D03*
D16*
X135700000Y-131700000D03*
D15*
X135700000Y-125400000D03*
X137980000Y-125400000D03*
D17*
X112975000Y-127600000D03*
X111425000Y-127600000D03*
D18*
X128200000Y-125275000D03*
X128200000Y-126925000D03*
D19*
X117496000Y-124412000D03*
X115846000Y-124412000D03*
X113025000Y-125100000D03*
X111375000Y-125100000D03*
D20*
X127300000Y-118800000D03*
X136900000Y-118800000D03*
D21*
X130700000Y-127100000D03*
X130700000Y-125200000D03*
D22*
X113200000Y-131100000D03*
X113200000Y-133600000D03*
D15*
X101420000Y-125300000D03*
X103700000Y-125300000D03*
D16*
X103700000Y-131600000D03*
D15*
X105980000Y-125300000D03*
D23*
X118875000Y-110305000D03*
X118875000Y-109035000D03*
X118875000Y-107765000D03*
X118875000Y-106495000D03*
X113925000Y-106495000D03*
X113925000Y-107765000D03*
X113925000Y-109035000D03*
X113925000Y-110305000D03*
D13*
X119800000Y-113200000D03*
D12*
X119800000Y-115740000D03*
X117260000Y-113200000D03*
X117260000Y-115740000D03*
X114720000Y-113200000D03*
X114720000Y-115740000D03*
D24*
X108175000Y-106490000D03*
X108175000Y-107760000D03*
X108175000Y-109030000D03*
X108175000Y-110300000D03*
X108175000Y-111570000D03*
X108175000Y-112840000D03*
X108175000Y-114110000D03*
X103225000Y-114110000D03*
X103225000Y-112840000D03*
X103225000Y-111570000D03*
X103225000Y-110300000D03*
X103225000Y-109030000D03*
X103225000Y-107760000D03*
X103225000Y-106490000D03*
D21*
X108500000Y-127400000D03*
X108500000Y-129300000D03*
D25*
X108150000Y-124300000D03*
X109800000Y-124300000D03*
D21*
X125200000Y-129150000D03*
X125200000Y-127250000D03*
D19*
X122325000Y-124412000D03*
X120675000Y-124412000D03*
M02*
