G04 #@! TF.GenerationSoftware,KiCad,Pcbnew,(5.1.8)-1*
G04 #@! TF.CreationDate,2020-12-08T15:00:02-05:00*
G04 #@! TF.ProjectId,megadesk,6d656761-6465-4736-9b2e-6b696361645f,rev?*
G04 #@! TF.SameCoordinates,Original*
G04 #@! TF.FileFunction,Soldermask,Top*
G04 #@! TF.FilePolarity,Negative*
%FSLAX46Y46*%
G04 Gerber Fmt 4.6, Leading zero omitted, Abs format (unit mm)*
G04 Created by KiCad (PCBNEW (5.1.8)-1) date 2020-12-08 15:00:02*
%MOMM*%
%LPD*%
G01*
G04 APERTURE LIST*
%ADD10O,1.800000X1.800000*%
G04 APERTURE END LIST*
G36*
G01*
X111925000Y-127325000D02*
X111925000Y-127875000D01*
G75*
G02*
X111675000Y-128125000I-250000J0D01*
G01*
X111175000Y-128125000D01*
G75*
G02*
X110925000Y-127875000I0J250000D01*
G01*
X110925000Y-127325000D01*
G75*
G02*
X111175000Y-127075000I250000J0D01*
G01*
X111675000Y-127075000D01*
G75*
G02*
X111925000Y-127325000I0J-250000D01*
G01*
G37*
G36*
G01*
X113475000Y-127325000D02*
X113475000Y-127875000D01*
G75*
G02*
X113225000Y-128125000I-250000J0D01*
G01*
X112725000Y-128125000D01*
G75*
G02*
X112475000Y-127875000I0J250000D01*
G01*
X112475000Y-127325000D01*
G75*
G02*
X112725000Y-127075000I250000J0D01*
G01*
X113225000Y-127075000D01*
G75*
G02*
X113475000Y-127325000I0J-250000D01*
G01*
G37*
G36*
G01*
X111825000Y-124800000D02*
X111825000Y-125400000D01*
G75*
G02*
X111600000Y-125625000I-225000J0D01*
G01*
X111150000Y-125625000D01*
G75*
G02*
X110925000Y-125400000I0J225000D01*
G01*
X110925000Y-124800000D01*
G75*
G02*
X111150000Y-124575000I225000J0D01*
G01*
X111600000Y-124575000D01*
G75*
G02*
X111825000Y-124800000I0J-225000D01*
G01*
G37*
G36*
G01*
X113475000Y-124800000D02*
X113475000Y-125400000D01*
G75*
G02*
X113250000Y-125625000I-225000J0D01*
G01*
X112800000Y-125625000D01*
G75*
G02*
X112575000Y-125400000I0J225000D01*
G01*
X112575000Y-124800000D01*
G75*
G02*
X112800000Y-124575000I225000J0D01*
G01*
X113250000Y-124575000D01*
G75*
G02*
X113475000Y-124800000I0J-225000D01*
G01*
G37*
G36*
G01*
X121125000Y-124112000D02*
X121125000Y-124712000D01*
G75*
G02*
X120900000Y-124937000I-225000J0D01*
G01*
X120450000Y-124937000D01*
G75*
G02*
X120225000Y-124712000I0J225000D01*
G01*
X120225000Y-124112000D01*
G75*
G02*
X120450000Y-123887000I225000J0D01*
G01*
X120900000Y-123887000D01*
G75*
G02*
X121125000Y-124112000I0J-225000D01*
G01*
G37*
G36*
G01*
X122775000Y-124112000D02*
X122775000Y-124712000D01*
G75*
G02*
X122550000Y-124937000I-225000J0D01*
G01*
X122100000Y-124937000D01*
G75*
G02*
X121875000Y-124712000I0J225000D01*
G01*
X121875000Y-124112000D01*
G75*
G02*
X122100000Y-123887000I225000J0D01*
G01*
X122550000Y-123887000D01*
G75*
G02*
X122775000Y-124112000I0J-225000D01*
G01*
G37*
G36*
G01*
X116296000Y-124112000D02*
X116296000Y-124712000D01*
G75*
G02*
X116071000Y-124937000I-225000J0D01*
G01*
X115621000Y-124937000D01*
G75*
G02*
X115396000Y-124712000I0J225000D01*
G01*
X115396000Y-124112000D01*
G75*
G02*
X115621000Y-123887000I225000J0D01*
G01*
X116071000Y-123887000D01*
G75*
G02*
X116296000Y-124112000I0J-225000D01*
G01*
G37*
G36*
G01*
X117946000Y-124112000D02*
X117946000Y-124712000D01*
G75*
G02*
X117721000Y-124937000I-225000J0D01*
G01*
X117271000Y-124937000D01*
G75*
G02*
X117046000Y-124712000I0J225000D01*
G01*
X117046000Y-124112000D01*
G75*
G02*
X117271000Y-123887000I225000J0D01*
G01*
X117721000Y-123887000D01*
G75*
G02*
X117946000Y-124112000I0J-225000D01*
G01*
G37*
G36*
G01*
X109075000Y-123300000D02*
X109075000Y-122700000D01*
G75*
G02*
X109300000Y-122475000I225000J0D01*
G01*
X109750000Y-122475000D01*
G75*
G02*
X109975000Y-122700000I0J-225000D01*
G01*
X109975000Y-123300000D01*
G75*
G02*
X109750000Y-123525000I-225000J0D01*
G01*
X109300000Y-123525000D01*
G75*
G02*
X109075000Y-123300000I0J225000D01*
G01*
G37*
G36*
G01*
X107425000Y-123300000D02*
X107425000Y-122700000D01*
G75*
G02*
X107650000Y-122475000I225000J0D01*
G01*
X108100000Y-122475000D01*
G75*
G02*
X108325000Y-122700000I0J-225000D01*
G01*
X108325000Y-123300000D01*
G75*
G02*
X108100000Y-123525000I-225000J0D01*
G01*
X107650000Y-123525000D01*
G75*
G02*
X107425000Y-123300000I0J225000D01*
G01*
G37*
G36*
G01*
X127900000Y-126475000D02*
X128500000Y-126475000D01*
G75*
G02*
X128725000Y-126700000I0J-225000D01*
G01*
X128725000Y-127150000D01*
G75*
G02*
X128500000Y-127375000I-225000J0D01*
G01*
X127900000Y-127375000D01*
G75*
G02*
X127675000Y-127150000I0J225000D01*
G01*
X127675000Y-126700000D01*
G75*
G02*
X127900000Y-126475000I225000J0D01*
G01*
G37*
G36*
G01*
X127900000Y-124825000D02*
X128500000Y-124825000D01*
G75*
G02*
X128725000Y-125050000I0J-225000D01*
G01*
X128725000Y-125500000D01*
G75*
G02*
X128500000Y-125725000I-225000J0D01*
G01*
X127900000Y-125725000D01*
G75*
G02*
X127675000Y-125500000I0J225000D01*
G01*
X127675000Y-125050000D01*
G75*
G02*
X127900000Y-124825000I225000J0D01*
G01*
G37*
G36*
G01*
X107150000Y-106665000D02*
X107150000Y-106315000D01*
G75*
G02*
X107325000Y-106140000I175000J0D01*
G01*
X109025000Y-106140000D01*
G75*
G02*
X109200000Y-106315000I0J-175000D01*
G01*
X109200000Y-106665000D01*
G75*
G02*
X109025000Y-106840000I-175000J0D01*
G01*
X107325000Y-106840000D01*
G75*
G02*
X107150000Y-106665000I0J175000D01*
G01*
G37*
G36*
G01*
X107150000Y-107935000D02*
X107150000Y-107585000D01*
G75*
G02*
X107325000Y-107410000I175000J0D01*
G01*
X109025000Y-107410000D01*
G75*
G02*
X109200000Y-107585000I0J-175000D01*
G01*
X109200000Y-107935000D01*
G75*
G02*
X109025000Y-108110000I-175000J0D01*
G01*
X107325000Y-108110000D01*
G75*
G02*
X107150000Y-107935000I0J175000D01*
G01*
G37*
G36*
G01*
X107150000Y-109205000D02*
X107150000Y-108855000D01*
G75*
G02*
X107325000Y-108680000I175000J0D01*
G01*
X109025000Y-108680000D01*
G75*
G02*
X109200000Y-108855000I0J-175000D01*
G01*
X109200000Y-109205000D01*
G75*
G02*
X109025000Y-109380000I-175000J0D01*
G01*
X107325000Y-109380000D01*
G75*
G02*
X107150000Y-109205000I0J175000D01*
G01*
G37*
G36*
G01*
X107150000Y-110475000D02*
X107150000Y-110125000D01*
G75*
G02*
X107325000Y-109950000I175000J0D01*
G01*
X109025000Y-109950000D01*
G75*
G02*
X109200000Y-110125000I0J-175000D01*
G01*
X109200000Y-110475000D01*
G75*
G02*
X109025000Y-110650000I-175000J0D01*
G01*
X107325000Y-110650000D01*
G75*
G02*
X107150000Y-110475000I0J175000D01*
G01*
G37*
G36*
G01*
X107150000Y-111745000D02*
X107150000Y-111395000D01*
G75*
G02*
X107325000Y-111220000I175000J0D01*
G01*
X109025000Y-111220000D01*
G75*
G02*
X109200000Y-111395000I0J-175000D01*
G01*
X109200000Y-111745000D01*
G75*
G02*
X109025000Y-111920000I-175000J0D01*
G01*
X107325000Y-111920000D01*
G75*
G02*
X107150000Y-111745000I0J175000D01*
G01*
G37*
G36*
G01*
X107150000Y-113015000D02*
X107150000Y-112665000D01*
G75*
G02*
X107325000Y-112490000I175000J0D01*
G01*
X109025000Y-112490000D01*
G75*
G02*
X109200000Y-112665000I0J-175000D01*
G01*
X109200000Y-113015000D01*
G75*
G02*
X109025000Y-113190000I-175000J0D01*
G01*
X107325000Y-113190000D01*
G75*
G02*
X107150000Y-113015000I0J175000D01*
G01*
G37*
G36*
G01*
X107150000Y-114285000D02*
X107150000Y-113935000D01*
G75*
G02*
X107325000Y-113760000I175000J0D01*
G01*
X109025000Y-113760000D01*
G75*
G02*
X109200000Y-113935000I0J-175000D01*
G01*
X109200000Y-114285000D01*
G75*
G02*
X109025000Y-114460000I-175000J0D01*
G01*
X107325000Y-114460000D01*
G75*
G02*
X107150000Y-114285000I0J175000D01*
G01*
G37*
G36*
G01*
X102200000Y-114285000D02*
X102200000Y-113935000D01*
G75*
G02*
X102375000Y-113760000I175000J0D01*
G01*
X104075000Y-113760000D01*
G75*
G02*
X104250000Y-113935000I0J-175000D01*
G01*
X104250000Y-114285000D01*
G75*
G02*
X104075000Y-114460000I-175000J0D01*
G01*
X102375000Y-114460000D01*
G75*
G02*
X102200000Y-114285000I0J175000D01*
G01*
G37*
G36*
G01*
X102200000Y-113015000D02*
X102200000Y-112665000D01*
G75*
G02*
X102375000Y-112490000I175000J0D01*
G01*
X104075000Y-112490000D01*
G75*
G02*
X104250000Y-112665000I0J-175000D01*
G01*
X104250000Y-113015000D01*
G75*
G02*
X104075000Y-113190000I-175000J0D01*
G01*
X102375000Y-113190000D01*
G75*
G02*
X102200000Y-113015000I0J175000D01*
G01*
G37*
G36*
G01*
X102200000Y-111745000D02*
X102200000Y-111395000D01*
G75*
G02*
X102375000Y-111220000I175000J0D01*
G01*
X104075000Y-111220000D01*
G75*
G02*
X104250000Y-111395000I0J-175000D01*
G01*
X104250000Y-111745000D01*
G75*
G02*
X104075000Y-111920000I-175000J0D01*
G01*
X102375000Y-111920000D01*
G75*
G02*
X102200000Y-111745000I0J175000D01*
G01*
G37*
G36*
G01*
X102200000Y-110475000D02*
X102200000Y-110125000D01*
G75*
G02*
X102375000Y-109950000I175000J0D01*
G01*
X104075000Y-109950000D01*
G75*
G02*
X104250000Y-110125000I0J-175000D01*
G01*
X104250000Y-110475000D01*
G75*
G02*
X104075000Y-110650000I-175000J0D01*
G01*
X102375000Y-110650000D01*
G75*
G02*
X102200000Y-110475000I0J175000D01*
G01*
G37*
G36*
G01*
X102200000Y-109205000D02*
X102200000Y-108855000D01*
G75*
G02*
X102375000Y-108680000I175000J0D01*
G01*
X104075000Y-108680000D01*
G75*
G02*
X104250000Y-108855000I0J-175000D01*
G01*
X104250000Y-109205000D01*
G75*
G02*
X104075000Y-109380000I-175000J0D01*
G01*
X102375000Y-109380000D01*
G75*
G02*
X102200000Y-109205000I0J175000D01*
G01*
G37*
G36*
G01*
X102200000Y-107935000D02*
X102200000Y-107585000D01*
G75*
G02*
X102375000Y-107410000I175000J0D01*
G01*
X104075000Y-107410000D01*
G75*
G02*
X104250000Y-107585000I0J-175000D01*
G01*
X104250000Y-107935000D01*
G75*
G02*
X104075000Y-108110000I-175000J0D01*
G01*
X102375000Y-108110000D01*
G75*
G02*
X102200000Y-107935000I0J175000D01*
G01*
G37*
G36*
G01*
X102200000Y-106665000D02*
X102200000Y-106315000D01*
G75*
G02*
X102375000Y-106140000I175000J0D01*
G01*
X104075000Y-106140000D01*
G75*
G02*
X104250000Y-106315000I0J-175000D01*
G01*
X104250000Y-106665000D01*
G75*
G02*
X104075000Y-106840000I-175000J0D01*
G01*
X102375000Y-106840000D01*
G75*
G02*
X102200000Y-106665000I0J175000D01*
G01*
G37*
G36*
G01*
X108000000Y-128750000D02*
X109000000Y-128750000D01*
G75*
G02*
X109275000Y-129025000I0J-275000D01*
G01*
X109275000Y-129575000D01*
G75*
G02*
X109000000Y-129850000I-275000J0D01*
G01*
X108000000Y-129850000D01*
G75*
G02*
X107725000Y-129575000I0J275000D01*
G01*
X107725000Y-129025000D01*
G75*
G02*
X108000000Y-128750000I275000J0D01*
G01*
G37*
G36*
G01*
X108000000Y-126850000D02*
X109000000Y-126850000D01*
G75*
G02*
X109275000Y-127125000I0J-275000D01*
G01*
X109275000Y-127675000D01*
G75*
G02*
X109000000Y-127950000I-275000J0D01*
G01*
X108000000Y-127950000D01*
G75*
G02*
X107725000Y-127675000I0J275000D01*
G01*
X107725000Y-127125000D01*
G75*
G02*
X108000000Y-126850000I275000J0D01*
G01*
G37*
G36*
G01*
X130200000Y-126550000D02*
X131200000Y-126550000D01*
G75*
G02*
X131475000Y-126825000I0J-275000D01*
G01*
X131475000Y-127375000D01*
G75*
G02*
X131200000Y-127650000I-275000J0D01*
G01*
X130200000Y-127650000D01*
G75*
G02*
X129925000Y-127375000I0J275000D01*
G01*
X129925000Y-126825000D01*
G75*
G02*
X130200000Y-126550000I275000J0D01*
G01*
G37*
G36*
G01*
X130200000Y-124650000D02*
X131200000Y-124650000D01*
G75*
G02*
X131475000Y-124925000I0J-275000D01*
G01*
X131475000Y-125475000D01*
G75*
G02*
X131200000Y-125750000I-275000J0D01*
G01*
X130200000Y-125750000D01*
G75*
G02*
X129925000Y-125475000I0J275000D01*
G01*
X129925000Y-124925000D01*
G75*
G02*
X130200000Y-124650000I275000J0D01*
G01*
G37*
G36*
G01*
X124700000Y-128600000D02*
X125700000Y-128600000D01*
G75*
G02*
X125975000Y-128875000I0J-275000D01*
G01*
X125975000Y-129425000D01*
G75*
G02*
X125700000Y-129700000I-275000J0D01*
G01*
X124700000Y-129700000D01*
G75*
G02*
X124425000Y-129425000I0J275000D01*
G01*
X124425000Y-128875000D01*
G75*
G02*
X124700000Y-128600000I275000J0D01*
G01*
G37*
G36*
G01*
X124700000Y-126700000D02*
X125700000Y-126700000D01*
G75*
G02*
X125975000Y-126975000I0J-275000D01*
G01*
X125975000Y-127525000D01*
G75*
G02*
X125700000Y-127800000I-275000J0D01*
G01*
X124700000Y-127800000D01*
G75*
G02*
X124425000Y-127525000I0J275000D01*
G01*
X124425000Y-126975000D01*
G75*
G02*
X124700000Y-126700000I275000J0D01*
G01*
G37*
G36*
G01*
X135700000Y-120500000D02*
X135700000Y-117100000D01*
G75*
G02*
X135750000Y-117050000I50000J0D01*
G01*
X138050000Y-117050000D01*
G75*
G02*
X138100000Y-117100000I0J-50000D01*
G01*
X138100000Y-120500000D01*
G75*
G02*
X138050000Y-120550000I-50000J0D01*
G01*
X135750000Y-120550000D01*
G75*
G02*
X135700000Y-120500000I0J50000D01*
G01*
G37*
G36*
G01*
X126100000Y-120500000D02*
X126100000Y-117100000D01*
G75*
G02*
X126150000Y-117050000I50000J0D01*
G01*
X128450000Y-117050000D01*
G75*
G02*
X128500000Y-117100000I0J-50000D01*
G01*
X128500000Y-120500000D01*
G75*
G02*
X128450000Y-120550000I-50000J0D01*
G01*
X126150000Y-120550000D01*
G75*
G02*
X126100000Y-120500000I0J50000D01*
G01*
G37*
G36*
G01*
X118950000Y-112300000D02*
X120650000Y-112300000D01*
G75*
G02*
X120700000Y-112350000I0J-50000D01*
G01*
X120700000Y-114050000D01*
G75*
G02*
X120650000Y-114100000I-50000J0D01*
G01*
X118950000Y-114100000D01*
G75*
G02*
X118900000Y-114050000I0J50000D01*
G01*
X118900000Y-112350000D01*
G75*
G02*
X118950000Y-112300000I50000J0D01*
G01*
G37*
D10*
X119800000Y-115740000D03*
X117260000Y-113200000D03*
X117260000Y-115740000D03*
X114720000Y-113200000D03*
X114720000Y-115740000D03*
G36*
G01*
X120800000Y-110130000D02*
X120800000Y-110480000D01*
G75*
G02*
X120625000Y-110655000I-175000J0D01*
G01*
X118925000Y-110655000D01*
G75*
G02*
X118750000Y-110480000I0J175000D01*
G01*
X118750000Y-110130000D01*
G75*
G02*
X118925000Y-109955000I175000J0D01*
G01*
X120625000Y-109955000D01*
G75*
G02*
X120800000Y-110130000I0J-175000D01*
G01*
G37*
G36*
G01*
X120800000Y-108860000D02*
X120800000Y-109210000D01*
G75*
G02*
X120625000Y-109385000I-175000J0D01*
G01*
X118925000Y-109385000D01*
G75*
G02*
X118750000Y-109210000I0J175000D01*
G01*
X118750000Y-108860000D01*
G75*
G02*
X118925000Y-108685000I175000J0D01*
G01*
X120625000Y-108685000D01*
G75*
G02*
X120800000Y-108860000I0J-175000D01*
G01*
G37*
G36*
G01*
X120800000Y-107590000D02*
X120800000Y-107940000D01*
G75*
G02*
X120625000Y-108115000I-175000J0D01*
G01*
X118925000Y-108115000D01*
G75*
G02*
X118750000Y-107940000I0J175000D01*
G01*
X118750000Y-107590000D01*
G75*
G02*
X118925000Y-107415000I175000J0D01*
G01*
X120625000Y-107415000D01*
G75*
G02*
X120800000Y-107590000I0J-175000D01*
G01*
G37*
G36*
G01*
X120800000Y-106320000D02*
X120800000Y-106670000D01*
G75*
G02*
X120625000Y-106845000I-175000J0D01*
G01*
X118925000Y-106845000D01*
G75*
G02*
X118750000Y-106670000I0J175000D01*
G01*
X118750000Y-106320000D01*
G75*
G02*
X118925000Y-106145000I175000J0D01*
G01*
X120625000Y-106145000D01*
G75*
G02*
X120800000Y-106320000I0J-175000D01*
G01*
G37*
G36*
G01*
X115850000Y-106320000D02*
X115850000Y-106670000D01*
G75*
G02*
X115675000Y-106845000I-175000J0D01*
G01*
X113975000Y-106845000D01*
G75*
G02*
X113800000Y-106670000I0J175000D01*
G01*
X113800000Y-106320000D01*
G75*
G02*
X113975000Y-106145000I175000J0D01*
G01*
X115675000Y-106145000D01*
G75*
G02*
X115850000Y-106320000I0J-175000D01*
G01*
G37*
G36*
G01*
X115850000Y-107590000D02*
X115850000Y-107940000D01*
G75*
G02*
X115675000Y-108115000I-175000J0D01*
G01*
X113975000Y-108115000D01*
G75*
G02*
X113800000Y-107940000I0J175000D01*
G01*
X113800000Y-107590000D01*
G75*
G02*
X113975000Y-107415000I175000J0D01*
G01*
X115675000Y-107415000D01*
G75*
G02*
X115850000Y-107590000I0J-175000D01*
G01*
G37*
G36*
G01*
X115850000Y-108860000D02*
X115850000Y-109210000D01*
G75*
G02*
X115675000Y-109385000I-175000J0D01*
G01*
X113975000Y-109385000D01*
G75*
G02*
X113800000Y-109210000I0J175000D01*
G01*
X113800000Y-108860000D01*
G75*
G02*
X113975000Y-108685000I175000J0D01*
G01*
X115675000Y-108685000D01*
G75*
G02*
X115850000Y-108860000I0J-175000D01*
G01*
G37*
G36*
G01*
X115850000Y-110130000D02*
X115850000Y-110480000D01*
G75*
G02*
X115675000Y-110655000I-175000J0D01*
G01*
X113975000Y-110655000D01*
G75*
G02*
X113800000Y-110480000I0J175000D01*
G01*
X113800000Y-110130000D01*
G75*
G02*
X113975000Y-109955000I175000J0D01*
G01*
X115675000Y-109955000D01*
G75*
G02*
X115850000Y-110130000I0J-175000D01*
G01*
G37*
G36*
G01*
X105380000Y-124150000D02*
X106580000Y-124150000D01*
G75*
G02*
X106630000Y-124200000I0J-50000D01*
G01*
X106630000Y-126400000D01*
G75*
G02*
X106580000Y-126450000I-50000J0D01*
G01*
X105380000Y-126450000D01*
G75*
G02*
X105330000Y-126400000I0J50000D01*
G01*
X105330000Y-124200000D01*
G75*
G02*
X105380000Y-124150000I50000J0D01*
G01*
G37*
G36*
G01*
X103100000Y-124150000D02*
X104300000Y-124150000D01*
G75*
G02*
X104350000Y-124200000I0J-50000D01*
G01*
X104350000Y-126400000D01*
G75*
G02*
X104300000Y-126450000I-50000J0D01*
G01*
X103100000Y-126450000D01*
G75*
G02*
X103050000Y-126400000I0J50000D01*
G01*
X103050000Y-124200000D01*
G75*
G02*
X103100000Y-124150000I50000J0D01*
G01*
G37*
G36*
G01*
X100820000Y-124150000D02*
X102020000Y-124150000D01*
G75*
G02*
X102070000Y-124200000I0J-50000D01*
G01*
X102070000Y-126400000D01*
G75*
G02*
X102020000Y-126450000I-50000J0D01*
G01*
X100820000Y-126450000D01*
G75*
G02*
X100770000Y-126400000I0J50000D01*
G01*
X100770000Y-124200000D01*
G75*
G02*
X100820000Y-124150000I50000J0D01*
G01*
G37*
G36*
G01*
X100800000Y-128350000D02*
X106600000Y-128350000D01*
G75*
G02*
X106650000Y-128400000I0J-50000D01*
G01*
X106650000Y-134800000D01*
G75*
G02*
X106600000Y-134850000I-50000J0D01*
G01*
X100800000Y-134850000D01*
G75*
G02*
X100750000Y-134800000I0J50000D01*
G01*
X100750000Y-128400000D01*
G75*
G02*
X100800000Y-128350000I50000J0D01*
G01*
G37*
G36*
G01*
X137380000Y-124250000D02*
X138580000Y-124250000D01*
G75*
G02*
X138630000Y-124300000I0J-50000D01*
G01*
X138630000Y-126500000D01*
G75*
G02*
X138580000Y-126550000I-50000J0D01*
G01*
X137380000Y-126550000D01*
G75*
G02*
X137330000Y-126500000I0J50000D01*
G01*
X137330000Y-124300000D01*
G75*
G02*
X137380000Y-124250000I50000J0D01*
G01*
G37*
G36*
G01*
X135100000Y-124250000D02*
X136300000Y-124250000D01*
G75*
G02*
X136350000Y-124300000I0J-50000D01*
G01*
X136350000Y-126500000D01*
G75*
G02*
X136300000Y-126550000I-50000J0D01*
G01*
X135100000Y-126550000D01*
G75*
G02*
X135050000Y-126500000I0J50000D01*
G01*
X135050000Y-124300000D01*
G75*
G02*
X135100000Y-124250000I50000J0D01*
G01*
G37*
G36*
G01*
X132820000Y-124250000D02*
X134020000Y-124250000D01*
G75*
G02*
X134070000Y-124300000I0J-50000D01*
G01*
X134070000Y-126500000D01*
G75*
G02*
X134020000Y-126550000I-50000J0D01*
G01*
X132820000Y-126550000D01*
G75*
G02*
X132770000Y-126500000I0J50000D01*
G01*
X132770000Y-124300000D01*
G75*
G02*
X132820000Y-124250000I50000J0D01*
G01*
G37*
G36*
G01*
X132800000Y-128450000D02*
X138600000Y-128450000D01*
G75*
G02*
X138650000Y-128500000I0J-50000D01*
G01*
X138650000Y-134900000D01*
G75*
G02*
X138600000Y-134950000I-50000J0D01*
G01*
X132800000Y-134950000D01*
G75*
G02*
X132750000Y-134900000I0J50000D01*
G01*
X132750000Y-128500000D01*
G75*
G02*
X132800000Y-128450000I50000J0D01*
G01*
G37*
G36*
G01*
X111200000Y-134150000D02*
X110200000Y-134150000D01*
G75*
G02*
X110150000Y-134100000I0J50000D01*
G01*
X110150000Y-133100000D01*
G75*
G02*
X110200000Y-133050000I50000J0D01*
G01*
X111200000Y-133050000D01*
G75*
G02*
X111250000Y-133100000I0J-50000D01*
G01*
X111250000Y-134100000D01*
G75*
G02*
X111200000Y-134150000I-50000J0D01*
G01*
G37*
G36*
G01*
X111200000Y-131650000D02*
X110200000Y-131650000D01*
G75*
G02*
X110150000Y-131600000I0J50000D01*
G01*
X110150000Y-130600000D01*
G75*
G02*
X110200000Y-130550000I50000J0D01*
G01*
X111200000Y-130550000D01*
G75*
G02*
X111250000Y-130600000I0J-50000D01*
G01*
X111250000Y-131600000D01*
G75*
G02*
X111200000Y-131650000I-50000J0D01*
G01*
G37*
G36*
G01*
X112700000Y-130550000D02*
X113700000Y-130550000D01*
G75*
G02*
X113750000Y-130600000I0J-50000D01*
G01*
X113750000Y-131600000D01*
G75*
G02*
X113700000Y-131650000I-50000J0D01*
G01*
X112700000Y-131650000D01*
G75*
G02*
X112650000Y-131600000I0J50000D01*
G01*
X112650000Y-130600000D01*
G75*
G02*
X112700000Y-130550000I50000J0D01*
G01*
G37*
G36*
G01*
X112700000Y-133050000D02*
X113700000Y-133050000D01*
G75*
G02*
X113750000Y-133100000I0J-50000D01*
G01*
X113750000Y-134100000D01*
G75*
G02*
X113700000Y-134150000I-50000J0D01*
G01*
X112700000Y-134150000D01*
G75*
G02*
X112650000Y-134100000I0J50000D01*
G01*
X112650000Y-133100000D01*
G75*
G02*
X112700000Y-133050000I50000J0D01*
G01*
G37*
G36*
G01*
X125250000Y-105400000D02*
X125250000Y-107200000D01*
G75*
G02*
X125200000Y-107250000I-50000J0D01*
G01*
X124000000Y-107250000D01*
G75*
G02*
X123950000Y-107200000I0J50000D01*
G01*
X123950000Y-105400000D01*
G75*
G02*
X124000000Y-105350000I50000J0D01*
G01*
X125200000Y-105350000D01*
G75*
G02*
X125250000Y-105400000I0J-50000D01*
G01*
G37*
G36*
G01*
X137850000Y-105400000D02*
X137850000Y-107200000D01*
G75*
G02*
X137800000Y-107250000I-50000J0D01*
G01*
X136600000Y-107250000D01*
G75*
G02*
X136550000Y-107200000I0J50000D01*
G01*
X136550000Y-105400000D01*
G75*
G02*
X136600000Y-105350000I50000J0D01*
G01*
X137800000Y-105350000D01*
G75*
G02*
X137850000Y-105400000I0J-50000D01*
G01*
G37*
G36*
G01*
X126750000Y-110700000D02*
X126750000Y-112400000D01*
G75*
G02*
X126700000Y-112450000I-50000J0D01*
G01*
X126100000Y-112450000D01*
G75*
G02*
X126050000Y-112400000I0J50000D01*
G01*
X126050000Y-110700000D01*
G75*
G02*
X126100000Y-110650000I50000J0D01*
G01*
X126700000Y-110650000D01*
G75*
G02*
X126750000Y-110700000I0J-50000D01*
G01*
G37*
G36*
G01*
X127750000Y-110700000D02*
X127750000Y-112400000D01*
G75*
G02*
X127700000Y-112450000I-50000J0D01*
G01*
X127100000Y-112450000D01*
G75*
G02*
X127050000Y-112400000I0J50000D01*
G01*
X127050000Y-110700000D01*
G75*
G02*
X127100000Y-110650000I50000J0D01*
G01*
X127700000Y-110650000D01*
G75*
G02*
X127750000Y-110700000I0J-50000D01*
G01*
G37*
G36*
G01*
X128750000Y-110700000D02*
X128750000Y-112400000D01*
G75*
G02*
X128700000Y-112450000I-50000J0D01*
G01*
X128100000Y-112450000D01*
G75*
G02*
X128050000Y-112400000I0J50000D01*
G01*
X128050000Y-110700000D01*
G75*
G02*
X128100000Y-110650000I50000J0D01*
G01*
X128700000Y-110650000D01*
G75*
G02*
X128750000Y-110700000I0J-50000D01*
G01*
G37*
G36*
G01*
X129750000Y-110700000D02*
X129750000Y-112400000D01*
G75*
G02*
X129700000Y-112450000I-50000J0D01*
G01*
X129100000Y-112450000D01*
G75*
G02*
X129050000Y-112400000I0J50000D01*
G01*
X129050000Y-110700000D01*
G75*
G02*
X129100000Y-110650000I50000J0D01*
G01*
X129700000Y-110650000D01*
G75*
G02*
X129750000Y-110700000I0J-50000D01*
G01*
G37*
G36*
G01*
X130750000Y-110700000D02*
X130750000Y-112400000D01*
G75*
G02*
X130700000Y-112450000I-50000J0D01*
G01*
X130100000Y-112450000D01*
G75*
G02*
X130050000Y-112400000I0J50000D01*
G01*
X130050000Y-110700000D01*
G75*
G02*
X130100000Y-110650000I50000J0D01*
G01*
X130700000Y-110650000D01*
G75*
G02*
X130750000Y-110700000I0J-50000D01*
G01*
G37*
G36*
G01*
X131750000Y-110700000D02*
X131750000Y-112400000D01*
G75*
G02*
X131700000Y-112450000I-50000J0D01*
G01*
X131100000Y-112450000D01*
G75*
G02*
X131050000Y-112400000I0J50000D01*
G01*
X131050000Y-110700000D01*
G75*
G02*
X131100000Y-110650000I50000J0D01*
G01*
X131700000Y-110650000D01*
G75*
G02*
X131750000Y-110700000I0J-50000D01*
G01*
G37*
G36*
G01*
X132750000Y-110700000D02*
X132750000Y-112400000D01*
G75*
G02*
X132700000Y-112450000I-50000J0D01*
G01*
X132100000Y-112450000D01*
G75*
G02*
X132050000Y-112400000I0J50000D01*
G01*
X132050000Y-110700000D01*
G75*
G02*
X132100000Y-110650000I50000J0D01*
G01*
X132700000Y-110650000D01*
G75*
G02*
X132750000Y-110700000I0J-50000D01*
G01*
G37*
G36*
G01*
X133750000Y-110700000D02*
X133750000Y-112400000D01*
G75*
G02*
X133700000Y-112450000I-50000J0D01*
G01*
X133100000Y-112450000D01*
G75*
G02*
X133050000Y-112400000I0J50000D01*
G01*
X133050000Y-110700000D01*
G75*
G02*
X133100000Y-110650000I50000J0D01*
G01*
X133700000Y-110650000D01*
G75*
G02*
X133750000Y-110700000I0J-50000D01*
G01*
G37*
G36*
G01*
X134750000Y-110700000D02*
X134750000Y-112400000D01*
G75*
G02*
X134700000Y-112450000I-50000J0D01*
G01*
X134100000Y-112450000D01*
G75*
G02*
X134050000Y-112400000I0J50000D01*
G01*
X134050000Y-110700000D01*
G75*
G02*
X134100000Y-110650000I50000J0D01*
G01*
X134700000Y-110650000D01*
G75*
G02*
X134750000Y-110700000I0J-50000D01*
G01*
G37*
G36*
G01*
X135750000Y-110700000D02*
X135750000Y-112400000D01*
G75*
G02*
X135700000Y-112450000I-50000J0D01*
G01*
X135100000Y-112450000D01*
G75*
G02*
X135050000Y-112400000I0J50000D01*
G01*
X135050000Y-110700000D01*
G75*
G02*
X135100000Y-110650000I50000J0D01*
G01*
X135700000Y-110650000D01*
G75*
G02*
X135750000Y-110700000I0J-50000D01*
G01*
G37*
G36*
G01*
X120750000Y-126400000D02*
X122450000Y-126400000D01*
G75*
G02*
X122500000Y-126450000I0J-50000D01*
G01*
X122500000Y-128150000D01*
G75*
G02*
X122450000Y-128200000I-50000J0D01*
G01*
X120750000Y-128200000D01*
G75*
G02*
X120700000Y-128150000I0J50000D01*
G01*
X120700000Y-126450000D01*
G75*
G02*
X120750000Y-126400000I50000J0D01*
G01*
G37*
X119060000Y-127300000D03*
X116520000Y-127300000D03*
M02*
