G04 #@! TF.GenerationSoftware,KiCad,Pcbnew,(5.0.2)-1*
G04 #@! TF.CreationDate,2019-02-13T20:53:48-05:00*
G04 #@! TF.ProjectId,megadesk,6d656761-6465-4736-9b2e-6b696361645f,rev?*
G04 #@! TF.SameCoordinates,Original*
G04 #@! TF.FileFunction,Legend,Top*
G04 #@! TF.FilePolarity,Positive*
%FSLAX46Y46*%
G04 Gerber Fmt 4.6, Leading zero omitted, Abs format (unit mm)*
G04 Created by KiCad (PCBNEW (5.0.2)-1) date 2/13/2019 8:53:48 PM*
%MOMM*%
%LPD*%
G01*
G04 APERTURE LIST*
%ADD10C,0.100000*%
%ADD11C,0.250000*%
%ADD12C,0.200000*%
%ADD13C,0.150000*%
%ADD14C,0.120000*%
G04 APERTURE END LIST*
D10*
X108919047Y-107550000D02*
X108871428Y-107526190D01*
X108800000Y-107526190D01*
X108728571Y-107550000D01*
X108680952Y-107597619D01*
X108657142Y-107645238D01*
X108633333Y-107740476D01*
X108633333Y-107811904D01*
X108657142Y-107907142D01*
X108680952Y-107954761D01*
X108728571Y-108002380D01*
X108800000Y-108026190D01*
X108847619Y-108026190D01*
X108919047Y-108002380D01*
X108942857Y-107978571D01*
X108942857Y-107811904D01*
X108847619Y-107811904D01*
X109157142Y-108026190D02*
X109157142Y-107526190D01*
X109442857Y-108026190D01*
X109442857Y-107526190D01*
X109680952Y-108026190D02*
X109680952Y-107526190D01*
X109800000Y-107526190D01*
X109871428Y-107550000D01*
X109919047Y-107597619D01*
X109942857Y-107645238D01*
X109966666Y-107740476D01*
X109966666Y-107811904D01*
X109942857Y-107907142D01*
X109919047Y-107954761D01*
X109871428Y-108002380D01*
X109800000Y-108026190D01*
X109680952Y-108026190D01*
D11*
X100985714Y-114252380D02*
X100414285Y-114252380D01*
X100700000Y-114252380D02*
X100700000Y-113252380D01*
X100604761Y-113395238D01*
X100509523Y-113490476D01*
X100414285Y-113538095D01*
D12*
X117307142Y-120892857D02*
X117307142Y-120092857D01*
X117307142Y-120207142D02*
X117364285Y-120150000D01*
X117478571Y-120092857D01*
X117650000Y-120092857D01*
X117764285Y-120150000D01*
X117821428Y-120264285D01*
X117821428Y-120892857D01*
X117821428Y-120264285D02*
X117878571Y-120150000D01*
X117992857Y-120092857D01*
X118164285Y-120092857D01*
X118278571Y-120150000D01*
X118335714Y-120264285D01*
X118335714Y-120892857D01*
X119364285Y-120835714D02*
X119250000Y-120892857D01*
X119021428Y-120892857D01*
X118907142Y-120835714D01*
X118850000Y-120721428D01*
X118850000Y-120264285D01*
X118907142Y-120150000D01*
X119021428Y-120092857D01*
X119250000Y-120092857D01*
X119364285Y-120150000D01*
X119421428Y-120264285D01*
X119421428Y-120378571D01*
X118850000Y-120492857D01*
X120450000Y-120092857D02*
X120450000Y-121064285D01*
X120392857Y-121178571D01*
X120335714Y-121235714D01*
X120221428Y-121292857D01*
X120050000Y-121292857D01*
X119935714Y-121235714D01*
X120450000Y-120835714D02*
X120335714Y-120892857D01*
X120107142Y-120892857D01*
X119992857Y-120835714D01*
X119935714Y-120778571D01*
X119878571Y-120664285D01*
X119878571Y-120321428D01*
X119935714Y-120207142D01*
X119992857Y-120150000D01*
X120107142Y-120092857D01*
X120335714Y-120092857D01*
X120450000Y-120150000D01*
X121535714Y-120892857D02*
X121535714Y-120264285D01*
X121478571Y-120150000D01*
X121364285Y-120092857D01*
X121135714Y-120092857D01*
X121021428Y-120150000D01*
X121535714Y-120835714D02*
X121421428Y-120892857D01*
X121135714Y-120892857D01*
X121021428Y-120835714D01*
X120964285Y-120721428D01*
X120964285Y-120607142D01*
X121021428Y-120492857D01*
X121135714Y-120435714D01*
X121421428Y-120435714D01*
X121535714Y-120378571D01*
X122621428Y-120892857D02*
X122621428Y-119692857D01*
X122621428Y-120835714D02*
X122507142Y-120892857D01*
X122278571Y-120892857D01*
X122164285Y-120835714D01*
X122107142Y-120778571D01*
X122050000Y-120664285D01*
X122050000Y-120321428D01*
X122107142Y-120207142D01*
X122164285Y-120150000D01*
X122278571Y-120092857D01*
X122507142Y-120092857D01*
X122621428Y-120150000D01*
X123650000Y-120835714D02*
X123535714Y-120892857D01*
X123307142Y-120892857D01*
X123192857Y-120835714D01*
X123135714Y-120721428D01*
X123135714Y-120264285D01*
X123192857Y-120150000D01*
X123307142Y-120092857D01*
X123535714Y-120092857D01*
X123650000Y-120150000D01*
X123707142Y-120264285D01*
X123707142Y-120378571D01*
X123135714Y-120492857D01*
X124164285Y-120835714D02*
X124278571Y-120892857D01*
X124507142Y-120892857D01*
X124621428Y-120835714D01*
X124678571Y-120721428D01*
X124678571Y-120664285D01*
X124621428Y-120550000D01*
X124507142Y-120492857D01*
X124335714Y-120492857D01*
X124221428Y-120435714D01*
X124164285Y-120321428D01*
X124164285Y-120264285D01*
X124221428Y-120150000D01*
X124335714Y-120092857D01*
X124507142Y-120092857D01*
X124621428Y-120150000D01*
X125192857Y-120892857D02*
X125192857Y-119692857D01*
X125307142Y-120435714D02*
X125650000Y-120892857D01*
X125650000Y-120092857D02*
X125192857Y-120550000D01*
X120592857Y-122092857D02*
X120878571Y-122892857D01*
X121164285Y-122092857D01*
X121507142Y-121692857D02*
X122250000Y-121692857D01*
X121850000Y-122150000D01*
X122021428Y-122150000D01*
X122135714Y-122207142D01*
X122192857Y-122264285D01*
X122250000Y-122378571D01*
X122250000Y-122664285D01*
X122192857Y-122778571D01*
X122135714Y-122835714D01*
X122021428Y-122892857D01*
X121678571Y-122892857D01*
X121564285Y-122835714D01*
X121507142Y-122778571D01*
X103920000Y-116015342D02*
X103920000Y-114745342D01*
X106460000Y-116015342D02*
X103920000Y-116015342D01*
X106460000Y-114745342D02*
X106460000Y-116015342D01*
X100110000Y-107125342D02*
X110270000Y-107125342D01*
X100110000Y-114745342D02*
X100110000Y-107125342D01*
X110270000Y-114745342D02*
X100110000Y-114745342D01*
X110270000Y-107125342D02*
X110270000Y-114745342D01*
X100757142Y-108104761D02*
X100757142Y-107495238D01*
X101061904Y-107800000D02*
X100452380Y-107800000D01*
D13*
G04 #@! TO.C,J2*
X135900000Y-112625000D02*
X125900000Y-112625000D01*
X135900000Y-110475000D02*
X125900000Y-110475000D01*
X135900000Y-110475000D02*
X135900000Y-105250000D01*
X125900000Y-110475000D02*
X125900000Y-105250000D01*
X135900000Y-105250000D02*
X138250000Y-105250000D01*
X125900000Y-105250000D02*
X123550000Y-105250000D01*
X138250000Y-105250000D02*
X138250000Y-107500000D01*
X123550000Y-105250000D02*
X123550000Y-107500000D01*
X138250000Y-107500000D02*
X135900000Y-107500000D01*
X123550000Y-107500000D02*
X125900000Y-107500000D01*
X135900000Y-107500000D02*
X135900000Y-112625000D01*
X125900000Y-107500000D02*
X125900000Y-112625000D01*
D14*
G04 #@! TO.C,U2*
X130725000Y-124595000D02*
X130725000Y-126095000D01*
X130725000Y-126095000D02*
X130995000Y-126095000D01*
X130995000Y-126095000D02*
X130995000Y-128925000D01*
X137625000Y-124595000D02*
X137625000Y-126095000D01*
X137625000Y-126095000D02*
X137355000Y-126095000D01*
X137355000Y-126095000D02*
X137355000Y-127195000D01*
G04 #@! TO.C,U1*
X100225000Y-124595000D02*
X100225000Y-126095000D01*
X100225000Y-126095000D02*
X100495000Y-126095000D01*
X100495000Y-126095000D02*
X100495000Y-128925000D01*
X107125000Y-124595000D02*
X107125000Y-126095000D01*
X107125000Y-126095000D02*
X106855000Y-126095000D01*
X106855000Y-126095000D02*
X106855000Y-127195000D01*
G04 #@! TO.C,J1*
X122930000Y-128740000D02*
X115190000Y-128740000D01*
X115190000Y-128740000D02*
X115190000Y-131400000D01*
X115190000Y-131400000D02*
X122930000Y-131400000D01*
X122930000Y-131400000D02*
X122930000Y-128740000D01*
X121980000Y-131400000D02*
X121980000Y-137400000D01*
X121980000Y-137400000D02*
X121220000Y-137400000D01*
X121220000Y-137400000D02*
X121220000Y-131400000D01*
X121920000Y-131400000D02*
X121920000Y-137400000D01*
X121800000Y-131400000D02*
X121800000Y-137400000D01*
X121680000Y-131400000D02*
X121680000Y-137400000D01*
X121560000Y-131400000D02*
X121560000Y-137400000D01*
X121440000Y-131400000D02*
X121440000Y-137400000D01*
X121320000Y-131400000D02*
X121320000Y-137400000D01*
X121980000Y-128410000D02*
X121980000Y-128740000D01*
X121220000Y-128410000D02*
X121220000Y-128740000D01*
X120330000Y-128740000D02*
X120330000Y-131400000D01*
X119440000Y-131400000D02*
X119440000Y-137400000D01*
X119440000Y-137400000D02*
X118680000Y-137400000D01*
X118680000Y-137400000D02*
X118680000Y-131400000D01*
X119440000Y-128342929D02*
X119440000Y-128740000D01*
X118680000Y-128342929D02*
X118680000Y-128740000D01*
X117790000Y-128740000D02*
X117790000Y-131400000D01*
X116900000Y-131400000D02*
X116900000Y-137400000D01*
X116900000Y-137400000D02*
X116140000Y-137400000D01*
X116140000Y-137400000D02*
X116140000Y-131400000D01*
X116900000Y-128342929D02*
X116900000Y-128740000D01*
X116140000Y-128342929D02*
X116140000Y-128740000D01*
X121600000Y-126030000D02*
X122870000Y-126030000D01*
X122870000Y-126030000D02*
X122870000Y-127300000D01*
D13*
G04 #@! TO.C,U4*
X119575000Y-113975000D02*
X119575000Y-113925000D01*
X115425000Y-113975000D02*
X115425000Y-113830000D01*
X115425000Y-108825000D02*
X115425000Y-108970000D01*
X119575000Y-108825000D02*
X119575000Y-108970000D01*
X119575000Y-113975000D02*
X115425000Y-113975000D01*
X119575000Y-108825000D02*
X115425000Y-108825000D01*
X119575000Y-113925000D02*
X120975000Y-113925000D01*
D14*
G04 #@! TO.C,TP2*
X101370000Y-135930000D02*
X104030000Y-135930000D01*
X101370000Y-135870000D02*
X101370000Y-135930000D01*
X104030000Y-135870000D02*
X104030000Y-135930000D01*
X101370000Y-135870000D02*
X104030000Y-135870000D01*
X101370000Y-134600000D02*
X101370000Y-133270000D01*
X101370000Y-133270000D02*
X102700000Y-133270000D01*
G04 #@! TO.C,TP1*
X134370000Y-135930000D02*
X137030000Y-135930000D01*
X134370000Y-135870000D02*
X134370000Y-135930000D01*
X137030000Y-135870000D02*
X137030000Y-135930000D01*
X134370000Y-135870000D02*
X137030000Y-135870000D01*
X134370000Y-134600000D02*
X134370000Y-133270000D01*
X134370000Y-133270000D02*
X135700000Y-133270000D01*
G04 #@! TO.C,CON1*
X108970000Y-113470000D02*
X108970000Y-108270000D01*
X103830000Y-113470000D02*
X108970000Y-113470000D01*
X101230000Y-108270000D02*
X108970000Y-108270000D01*
X103830000Y-113470000D02*
X103830000Y-110870000D01*
X103830000Y-110870000D02*
X101230000Y-110870000D01*
X101230000Y-110870000D02*
X101230000Y-108270000D01*
X102560000Y-113470000D02*
X101230000Y-113470000D01*
X101230000Y-113470000D02*
X101230000Y-112140000D01*
G04 #@! TO.C,C3*
X114040000Y-120347936D02*
X114040000Y-121552064D01*
X115860000Y-120347936D02*
X115860000Y-121552064D01*
G04 #@! TO.C,C4*
X103097936Y-132510000D02*
X104302064Y-132510000D01*
X103097936Y-130690000D02*
X104302064Y-130690000D01*
G04 #@! TO.C,C5*
X128610000Y-121602064D02*
X128610000Y-120397936D01*
X126790000Y-121602064D02*
X126790000Y-120397936D01*
G04 #@! TO.C,R5*
X114302064Y-105690000D02*
X113097936Y-105690000D01*
X114302064Y-107510000D02*
X113097936Y-107510000D01*
G04 #@! TO.C,J2*
D13*
X130500000Y-106892857D02*
X130500000Y-107750000D01*
X130442857Y-107921428D01*
X130328571Y-108035714D01*
X130157142Y-108092857D01*
X130042857Y-108092857D01*
X131014285Y-107007142D02*
X131071428Y-106950000D01*
X131185714Y-106892857D01*
X131471428Y-106892857D01*
X131585714Y-106950000D01*
X131642857Y-107007142D01*
X131700000Y-107121428D01*
X131700000Y-107235714D01*
X131642857Y-107407142D01*
X130957142Y-108092857D01*
X131700000Y-108092857D01*
X137185714Y-112002380D02*
X136614285Y-112002380D01*
X136900000Y-112002380D02*
X136900000Y-111002380D01*
X136804761Y-111145238D01*
X136709523Y-111240476D01*
X136614285Y-111288095D01*
G04 #@! TO.C,U2*
X133438095Y-116552380D02*
X133438095Y-117361904D01*
X133485714Y-117457142D01*
X133533333Y-117504761D01*
X133628571Y-117552380D01*
X133819047Y-117552380D01*
X133914285Y-117504761D01*
X133961904Y-117457142D01*
X134009523Y-117361904D01*
X134009523Y-116552380D01*
X134438095Y-116647619D02*
X134485714Y-116600000D01*
X134580952Y-116552380D01*
X134819047Y-116552380D01*
X134914285Y-116600000D01*
X134961904Y-116647619D01*
X135009523Y-116742857D01*
X135009523Y-116838095D01*
X134961904Y-116980952D01*
X134390476Y-117552380D01*
X135009523Y-117552380D01*
X139127380Y-125220238D02*
X139127380Y-125696428D01*
X138127380Y-125696428D01*
X138127380Y-124982142D02*
X138127380Y-124315476D01*
X139127380Y-124744047D01*
X138555952Y-123791666D02*
X138508333Y-123886904D01*
X138460714Y-123934523D01*
X138365476Y-123982142D01*
X138317857Y-123982142D01*
X138222619Y-123934523D01*
X138175000Y-123886904D01*
X138127380Y-123791666D01*
X138127380Y-123601190D01*
X138175000Y-123505952D01*
X138222619Y-123458333D01*
X138317857Y-123410714D01*
X138365476Y-123410714D01*
X138460714Y-123458333D01*
X138508333Y-123505952D01*
X138555952Y-123601190D01*
X138555952Y-123791666D01*
X138603571Y-123886904D01*
X138651190Y-123934523D01*
X138746428Y-123982142D01*
X138936904Y-123982142D01*
X139032142Y-123934523D01*
X139079761Y-123886904D01*
X139127380Y-123791666D01*
X139127380Y-123601190D01*
X139079761Y-123505952D01*
X139032142Y-123458333D01*
X138936904Y-123410714D01*
X138746428Y-123410714D01*
X138651190Y-123458333D01*
X138603571Y-123505952D01*
X138555952Y-123601190D01*
X138127380Y-122791666D02*
X138127380Y-122696428D01*
X138175000Y-122601190D01*
X138222619Y-122553571D01*
X138317857Y-122505952D01*
X138508333Y-122458333D01*
X138746428Y-122458333D01*
X138936904Y-122505952D01*
X139032142Y-122553571D01*
X139079761Y-122601190D01*
X139127380Y-122696428D01*
X139127380Y-122791666D01*
X139079761Y-122886904D01*
X139032142Y-122934523D01*
X138936904Y-122982142D01*
X138746428Y-123029761D01*
X138508333Y-123029761D01*
X138317857Y-122982142D01*
X138222619Y-122934523D01*
X138175000Y-122886904D01*
X138127380Y-122791666D01*
X138127380Y-121553571D02*
X138127380Y-122029761D01*
X138603571Y-122077380D01*
X138555952Y-122029761D01*
X138508333Y-121934523D01*
X138508333Y-121696428D01*
X138555952Y-121601190D01*
X138603571Y-121553571D01*
X138698809Y-121505952D01*
X138936904Y-121505952D01*
X139032142Y-121553571D01*
X139079761Y-121601190D01*
X139127380Y-121696428D01*
X139127380Y-121934523D01*
X139079761Y-122029761D01*
X139032142Y-122077380D01*
G04 #@! TO.C,U1*
X102938095Y-116552380D02*
X102938095Y-117361904D01*
X102985714Y-117457142D01*
X103033333Y-117504761D01*
X103128571Y-117552380D01*
X103319047Y-117552380D01*
X103414285Y-117504761D01*
X103461904Y-117457142D01*
X103509523Y-117361904D01*
X103509523Y-116552380D01*
X104509523Y-117552380D02*
X103938095Y-117552380D01*
X104223809Y-117552380D02*
X104223809Y-116552380D01*
X104128571Y-116695238D01*
X104033333Y-116790476D01*
X103938095Y-116838095D01*
X108627380Y-125220238D02*
X108627380Y-125696428D01*
X107627380Y-125696428D01*
X107627380Y-124982142D02*
X107627380Y-124315476D01*
X108627380Y-124744047D01*
X108055952Y-123791666D02*
X108008333Y-123886904D01*
X107960714Y-123934523D01*
X107865476Y-123982142D01*
X107817857Y-123982142D01*
X107722619Y-123934523D01*
X107675000Y-123886904D01*
X107627380Y-123791666D01*
X107627380Y-123601190D01*
X107675000Y-123505952D01*
X107722619Y-123458333D01*
X107817857Y-123410714D01*
X107865476Y-123410714D01*
X107960714Y-123458333D01*
X108008333Y-123505952D01*
X108055952Y-123601190D01*
X108055952Y-123791666D01*
X108103571Y-123886904D01*
X108151190Y-123934523D01*
X108246428Y-123982142D01*
X108436904Y-123982142D01*
X108532142Y-123934523D01*
X108579761Y-123886904D01*
X108627380Y-123791666D01*
X108627380Y-123601190D01*
X108579761Y-123505952D01*
X108532142Y-123458333D01*
X108436904Y-123410714D01*
X108246428Y-123410714D01*
X108151190Y-123458333D01*
X108103571Y-123505952D01*
X108055952Y-123601190D01*
X108627380Y-122458333D02*
X108627380Y-123029761D01*
X108627380Y-122744047D02*
X107627380Y-122744047D01*
X107770238Y-122839285D01*
X107865476Y-122934523D01*
X107913095Y-123029761D01*
X107722619Y-122077380D02*
X107675000Y-122029761D01*
X107627380Y-121934523D01*
X107627380Y-121696428D01*
X107675000Y-121601190D01*
X107722619Y-121553571D01*
X107817857Y-121505952D01*
X107913095Y-121505952D01*
X108055952Y-121553571D01*
X108627380Y-122125000D01*
X108627380Y-121505952D01*
G04 #@! TO.C,J1*
X123616666Y-131137380D02*
X123616666Y-131851666D01*
X123569047Y-131994523D01*
X123473809Y-132089761D01*
X123330952Y-132137380D01*
X123235714Y-132137380D01*
X124616666Y-132137380D02*
X124045238Y-132137380D01*
X124330952Y-132137380D02*
X124330952Y-131137380D01*
X124235714Y-131280238D01*
X124140476Y-131375476D01*
X124045238Y-131423095D01*
G04 #@! TO.C,U4*
X116738095Y-114352380D02*
X116738095Y-115161904D01*
X116785714Y-115257142D01*
X116833333Y-115304761D01*
X116928571Y-115352380D01*
X117119047Y-115352380D01*
X117214285Y-115304761D01*
X117261904Y-115257142D01*
X117309523Y-115161904D01*
X117309523Y-114352380D01*
X118214285Y-114685714D02*
X118214285Y-115352380D01*
X117976190Y-114304761D02*
X117738095Y-115019047D01*
X118357142Y-115019047D01*
G04 #@! TO.C,TP2*
X105414285Y-135052380D02*
X104842857Y-135052380D01*
X105128571Y-135052380D02*
X105128571Y-134052380D01*
X105033333Y-134195238D01*
X104938095Y-134290476D01*
X104842857Y-134338095D01*
X105795238Y-134147619D02*
X105842857Y-134100000D01*
X105938095Y-134052380D01*
X106176190Y-134052380D01*
X106271428Y-134100000D01*
X106319047Y-134147619D01*
X106366666Y-134242857D01*
X106366666Y-134338095D01*
X106319047Y-134480952D01*
X105747619Y-135052380D01*
X106366666Y-135052380D01*
X106652380Y-134052380D02*
X106985714Y-135052380D01*
X107319047Y-134052380D01*
X108128571Y-135052380D02*
X107652380Y-135052380D01*
X107652380Y-134052380D01*
X108461904Y-135052380D02*
X108461904Y-134052380D01*
X108938095Y-135052380D02*
X108938095Y-134052380D01*
X109509523Y-135052380D01*
X109509523Y-134052380D01*
G04 #@! TO.C,TP1*
X128342857Y-134052380D02*
X127866666Y-134052380D01*
X127819047Y-134528571D01*
X127866666Y-134480952D01*
X127961904Y-134433333D01*
X128200000Y-134433333D01*
X128295238Y-134480952D01*
X128342857Y-134528571D01*
X128390476Y-134623809D01*
X128390476Y-134861904D01*
X128342857Y-134957142D01*
X128295238Y-135004761D01*
X128200000Y-135052380D01*
X127961904Y-135052380D01*
X127866666Y-135004761D01*
X127819047Y-134957142D01*
X128676190Y-134052380D02*
X129009523Y-135052380D01*
X129342857Y-134052380D01*
X130152380Y-135052380D02*
X129676190Y-135052380D01*
X129676190Y-134052380D01*
X130676190Y-134052380D02*
X130866666Y-134052380D01*
X130961904Y-134100000D01*
X131057142Y-134195238D01*
X131104761Y-134385714D01*
X131104761Y-134719047D01*
X131057142Y-134909523D01*
X130961904Y-135004761D01*
X130866666Y-135052380D01*
X130676190Y-135052380D01*
X130580952Y-135004761D01*
X130485714Y-134909523D01*
X130438095Y-134719047D01*
X130438095Y-134385714D01*
X130485714Y-134195238D01*
X130580952Y-134100000D01*
X130676190Y-134052380D01*
X132057142Y-134100000D02*
X131961904Y-134052380D01*
X131819047Y-134052380D01*
X131676190Y-134100000D01*
X131580952Y-134195238D01*
X131533333Y-134290476D01*
X131485714Y-134480952D01*
X131485714Y-134623809D01*
X131533333Y-134814285D01*
X131580952Y-134909523D01*
X131676190Y-135004761D01*
X131819047Y-135052380D01*
X131914285Y-135052380D01*
X132057142Y-135004761D01*
X132104761Y-134957142D01*
X132104761Y-134623809D01*
X131914285Y-134623809D01*
X132533333Y-135052380D02*
X132533333Y-134052380D01*
X133580952Y-134957142D02*
X133533333Y-135004761D01*
X133390476Y-135052380D01*
X133295238Y-135052380D01*
X133152380Y-135004761D01*
X133057142Y-134909523D01*
X133009523Y-134814285D01*
X132961904Y-134623809D01*
X132961904Y-134480952D01*
X133009523Y-134290476D01*
X133057142Y-134195238D01*
X133152380Y-134100000D01*
X133295238Y-134052380D01*
X133390476Y-134052380D01*
X133533333Y-134100000D01*
X133580952Y-134147619D01*
G04 #@! TO.C,CON1*
X104223809Y-106552380D02*
X104223809Y-105552380D01*
X104652380Y-106504761D02*
X104795238Y-106552380D01*
X105033333Y-106552380D01*
X105128571Y-106504761D01*
X105176190Y-106457142D01*
X105223809Y-106361904D01*
X105223809Y-106266666D01*
X105176190Y-106171428D01*
X105128571Y-106123809D01*
X105033333Y-106076190D01*
X104842857Y-106028571D01*
X104747619Y-105980952D01*
X104700000Y-105933333D01*
X104652380Y-105838095D01*
X104652380Y-105742857D01*
X104700000Y-105647619D01*
X104747619Y-105600000D01*
X104842857Y-105552380D01*
X105080952Y-105552380D01*
X105223809Y-105600000D01*
X105652380Y-106552380D02*
X105652380Y-105552380D01*
X106033333Y-105552380D01*
X106128571Y-105600000D01*
X106176190Y-105647619D01*
X106223809Y-105742857D01*
X106223809Y-105885714D01*
X106176190Y-105980952D01*
X106128571Y-106028571D01*
X106033333Y-106076190D01*
X105652380Y-106076190D01*
G04 #@! TO.C,C3*
X114783333Y-118207142D02*
X114735714Y-118254761D01*
X114592857Y-118302380D01*
X114497619Y-118302380D01*
X114354761Y-118254761D01*
X114259523Y-118159523D01*
X114211904Y-118064285D01*
X114164285Y-117873809D01*
X114164285Y-117730952D01*
X114211904Y-117540476D01*
X114259523Y-117445238D01*
X114354761Y-117350000D01*
X114497619Y-117302380D01*
X114592857Y-117302380D01*
X114735714Y-117350000D01*
X114783333Y-117397619D01*
X115116666Y-117302380D02*
X115735714Y-117302380D01*
X115402380Y-117683333D01*
X115545238Y-117683333D01*
X115640476Y-117730952D01*
X115688095Y-117778571D01*
X115735714Y-117873809D01*
X115735714Y-118111904D01*
X115688095Y-118207142D01*
X115640476Y-118254761D01*
X115545238Y-118302380D01*
X115259523Y-118302380D01*
X115164285Y-118254761D01*
X115116666Y-118207142D01*
X113450000Y-123552380D02*
X113545238Y-123552380D01*
X113640476Y-123600000D01*
X113688095Y-123647619D01*
X113735714Y-123742857D01*
X113783333Y-123933333D01*
X113783333Y-124171428D01*
X113735714Y-124361904D01*
X113688095Y-124457142D01*
X113640476Y-124504761D01*
X113545238Y-124552380D01*
X113450000Y-124552380D01*
X113354761Y-124504761D01*
X113307142Y-124457142D01*
X113259523Y-124361904D01*
X113211904Y-124171428D01*
X113211904Y-123933333D01*
X113259523Y-123742857D01*
X113307142Y-123647619D01*
X113354761Y-123600000D01*
X113450000Y-123552380D01*
X114211904Y-124457142D02*
X114259523Y-124504761D01*
X114211904Y-124552380D01*
X114164285Y-124504761D01*
X114211904Y-124457142D01*
X114211904Y-124552380D01*
X115211904Y-124552380D02*
X114640476Y-124552380D01*
X114926190Y-124552380D02*
X114926190Y-123552380D01*
X114830952Y-123695238D01*
X114735714Y-123790476D01*
X114640476Y-123838095D01*
X116069047Y-123885714D02*
X116069047Y-124552380D01*
X115640476Y-123885714D02*
X115640476Y-124409523D01*
X115688095Y-124504761D01*
X115783333Y-124552380D01*
X115926190Y-124552380D01*
X116021428Y-124504761D01*
X116069047Y-124457142D01*
X116402380Y-123885714D02*
X116783333Y-123885714D01*
X116545238Y-124552380D02*
X116545238Y-123695238D01*
X116592857Y-123600000D01*
X116688095Y-123552380D01*
X116783333Y-123552380D01*
G04 #@! TO.C,C4*
X103533333Y-130137142D02*
X103485714Y-130184761D01*
X103342857Y-130232380D01*
X103247619Y-130232380D01*
X103104761Y-130184761D01*
X103009523Y-130089523D01*
X102961904Y-129994285D01*
X102914285Y-129803809D01*
X102914285Y-129660952D01*
X102961904Y-129470476D01*
X103009523Y-129375238D01*
X103104761Y-129280000D01*
X103247619Y-129232380D01*
X103342857Y-129232380D01*
X103485714Y-129280000D01*
X103533333Y-129327619D01*
X104390476Y-129565714D02*
X104390476Y-130232380D01*
X104152380Y-129184761D02*
X103914285Y-129899047D01*
X104533333Y-129899047D01*
X106557142Y-131052380D02*
X106652380Y-131052380D01*
X106747619Y-131100000D01*
X106795238Y-131147619D01*
X106842857Y-131242857D01*
X106890476Y-131433333D01*
X106890476Y-131671428D01*
X106842857Y-131861904D01*
X106795238Y-131957142D01*
X106747619Y-132004761D01*
X106652380Y-132052380D01*
X106557142Y-132052380D01*
X106461904Y-132004761D01*
X106414285Y-131957142D01*
X106366666Y-131861904D01*
X106319047Y-131671428D01*
X106319047Y-131433333D01*
X106366666Y-131242857D01*
X106414285Y-131147619D01*
X106461904Y-131100000D01*
X106557142Y-131052380D01*
X107319047Y-131957142D02*
X107366666Y-132004761D01*
X107319047Y-132052380D01*
X107271428Y-132004761D01*
X107319047Y-131957142D01*
X107319047Y-132052380D01*
X108319047Y-132052380D02*
X107747619Y-132052380D01*
X108033333Y-132052380D02*
X108033333Y-131052380D01*
X107938095Y-131195238D01*
X107842857Y-131290476D01*
X107747619Y-131338095D01*
X109176190Y-131385714D02*
X109176190Y-132052380D01*
X108747619Y-131385714D02*
X108747619Y-131909523D01*
X108795238Y-132004761D01*
X108890476Y-132052380D01*
X109033333Y-132052380D01*
X109128571Y-132004761D01*
X109176190Y-131957142D01*
X109985714Y-131528571D02*
X109652380Y-131528571D01*
X109652380Y-132052380D02*
X109652380Y-131052380D01*
X110128571Y-131052380D01*
G04 #@! TO.C,C5*
X127533333Y-118207142D02*
X127485714Y-118254761D01*
X127342857Y-118302380D01*
X127247619Y-118302380D01*
X127104761Y-118254761D01*
X127009523Y-118159523D01*
X126961904Y-118064285D01*
X126914285Y-117873809D01*
X126914285Y-117730952D01*
X126961904Y-117540476D01*
X127009523Y-117445238D01*
X127104761Y-117350000D01*
X127247619Y-117302380D01*
X127342857Y-117302380D01*
X127485714Y-117350000D01*
X127533333Y-117397619D01*
X128438095Y-117302380D02*
X127961904Y-117302380D01*
X127914285Y-117778571D01*
X127961904Y-117730952D01*
X128057142Y-117683333D01*
X128295238Y-117683333D01*
X128390476Y-117730952D01*
X128438095Y-117778571D01*
X128485714Y-117873809D01*
X128485714Y-118111904D01*
X128438095Y-118207142D01*
X128390476Y-118254761D01*
X128295238Y-118302380D01*
X128057142Y-118302380D01*
X127961904Y-118254761D01*
X127914285Y-118207142D01*
X126200000Y-123552380D02*
X126295238Y-123552380D01*
X126390476Y-123600000D01*
X126438095Y-123647619D01*
X126485714Y-123742857D01*
X126533333Y-123933333D01*
X126533333Y-124171428D01*
X126485714Y-124361904D01*
X126438095Y-124457142D01*
X126390476Y-124504761D01*
X126295238Y-124552380D01*
X126200000Y-124552380D01*
X126104761Y-124504761D01*
X126057142Y-124457142D01*
X126009523Y-124361904D01*
X125961904Y-124171428D01*
X125961904Y-123933333D01*
X126009523Y-123742857D01*
X126057142Y-123647619D01*
X126104761Y-123600000D01*
X126200000Y-123552380D01*
X126961904Y-124457142D02*
X127009523Y-124504761D01*
X126961904Y-124552380D01*
X126914285Y-124504761D01*
X126961904Y-124457142D01*
X126961904Y-124552380D01*
X127961904Y-124552380D02*
X127390476Y-124552380D01*
X127676190Y-124552380D02*
X127676190Y-123552380D01*
X127580952Y-123695238D01*
X127485714Y-123790476D01*
X127390476Y-123838095D01*
X128819047Y-123885714D02*
X128819047Y-124552380D01*
X128390476Y-123885714D02*
X128390476Y-124409523D01*
X128438095Y-124504761D01*
X128533333Y-124552380D01*
X128676190Y-124552380D01*
X128771428Y-124504761D01*
X128819047Y-124457142D01*
X129152380Y-123885714D02*
X129533333Y-123885714D01*
X129295238Y-124552380D02*
X129295238Y-123695238D01*
X129342857Y-123600000D01*
X129438095Y-123552380D01*
X129533333Y-123552380D01*
G04 #@! TO.C,R5*
X113533333Y-108872380D02*
X113200000Y-108396190D01*
X112961904Y-108872380D02*
X112961904Y-107872380D01*
X113342857Y-107872380D01*
X113438095Y-107920000D01*
X113485714Y-107967619D01*
X113533333Y-108062857D01*
X113533333Y-108205714D01*
X113485714Y-108300952D01*
X113438095Y-108348571D01*
X113342857Y-108396190D01*
X112961904Y-108396190D01*
X114438095Y-107872380D02*
X113961904Y-107872380D01*
X113914285Y-108348571D01*
X113961904Y-108300952D01*
X114057142Y-108253333D01*
X114295238Y-108253333D01*
X114390476Y-108300952D01*
X114438095Y-108348571D01*
X114485714Y-108443809D01*
X114485714Y-108681904D01*
X114438095Y-108777142D01*
X114390476Y-108824761D01*
X114295238Y-108872380D01*
X114057142Y-108872380D01*
X113961904Y-108824761D01*
X113914285Y-108777142D01*
X116545238Y-106147619D02*
X116592857Y-106100000D01*
X116688095Y-106052380D01*
X116926190Y-106052380D01*
X117021428Y-106100000D01*
X117069047Y-106147619D01*
X117116666Y-106242857D01*
X117116666Y-106338095D01*
X117069047Y-106480952D01*
X116497619Y-107052380D01*
X117116666Y-107052380D01*
X117545238Y-106957142D02*
X117592857Y-107004761D01*
X117545238Y-107052380D01*
X117497619Y-107004761D01*
X117545238Y-106957142D01*
X117545238Y-107052380D01*
X117973809Y-106147619D02*
X118021428Y-106100000D01*
X118116666Y-106052380D01*
X118354761Y-106052380D01*
X118450000Y-106100000D01*
X118497619Y-106147619D01*
X118545238Y-106242857D01*
X118545238Y-106338095D01*
X118497619Y-106480952D01*
X117926190Y-107052380D01*
X118545238Y-107052380D01*
X118973809Y-107052380D02*
X118973809Y-106052380D01*
X119069047Y-106671428D02*
X119354761Y-107052380D01*
X119354761Y-106385714D02*
X118973809Y-106766666D01*
G04 #@! TD*
M02*
