M48
;DRILL file {KiCad (5.0.2)-1} date 2/13/2019 8:53:50 PM
;FORMAT={-:-/ absolute / inch / decimal}
FMAT,2
INCH,TZ
T1C0.0118
T2C0.0394
%
G90
G05
T1
X4.0138Y-4.5906
X4.0433Y-5.1122
X4.1614Y-4.5118
X4.2402Y-4.5669
X4.4055Y-4.4409
X4.437Y-4.4752
X4.4843Y-4.5827
X4.5079Y-4.937
X4.6407Y-4.2657
X4.6535Y-4.3839
X4.6535Y-4.6102
X4.6732Y-4.5315
X4.689Y-4.6929
X4.6929Y-4.5709
X4.8209Y-4.1673
X4.8564Y-4.5272
X4.8701Y-5.2205
X4.9173Y-5.0866
X5.1358Y-4.2657
T2
X4.0378Y-4.315
X4.0378Y-4.415
X4.1378Y-4.315
X4.1378Y-4.415
X4.2378Y-4.315
X4.2378Y-4.415
X5.3425Y-5.2992
X4.0433Y-5.2992
X4.5874Y-5.0118
X4.6874Y-5.0118
X4.7874Y-5.0118
T0
M30
