G04 #@! TF.GenerationSoftware,KiCad,Pcbnew,(5.1.8)-1*
G04 #@! TF.CreationDate,2020-12-08T15:00:02-05:00*
G04 #@! TF.ProjectId,megadesk,6d656761-6465-4736-9b2e-6b696361645f,rev?*
G04 #@! TF.SameCoordinates,Original*
G04 #@! TF.FileFunction,Paste,Top*
G04 #@! TF.FilePolarity,Positive*
%FSLAX46Y46*%
G04 Gerber Fmt 4.6, Leading zero omitted, Abs format (unit mm)*
G04 Created by KiCad (PCBNEW (5.1.8)-1) date 2020-12-08 15:00:02*
%MOMM*%
%LPD*%
G01*
G04 APERTURE LIST*
%ADD10R,2.300000X3.400000*%
%ADD11R,1.200000X2.200000*%
%ADD12R,2.750000X3.050000*%
%ADD13R,1.000000X1.000000*%
%ADD14R,1.200000X1.800000*%
%ADD15R,0.600000X1.700000*%
G04 APERTURE END LIST*
G36*
G01*
X111875000Y-127350000D02*
X111875000Y-127850000D01*
G75*
G02*
X111650000Y-128075000I-225000J0D01*
G01*
X111200000Y-128075000D01*
G75*
G02*
X110975000Y-127850000I0J225000D01*
G01*
X110975000Y-127350000D01*
G75*
G02*
X111200000Y-127125000I225000J0D01*
G01*
X111650000Y-127125000D01*
G75*
G02*
X111875000Y-127350000I0J-225000D01*
G01*
G37*
G36*
G01*
X113425000Y-127350000D02*
X113425000Y-127850000D01*
G75*
G02*
X113200000Y-128075000I-225000J0D01*
G01*
X112750000Y-128075000D01*
G75*
G02*
X112525000Y-127850000I0J225000D01*
G01*
X112525000Y-127350000D01*
G75*
G02*
X112750000Y-127125000I225000J0D01*
G01*
X113200000Y-127125000D01*
G75*
G02*
X113425000Y-127350000I0J-225000D01*
G01*
G37*
G36*
G01*
X111775000Y-124825000D02*
X111775000Y-125375000D01*
G75*
G02*
X111575000Y-125575000I-200000J0D01*
G01*
X111175000Y-125575000D01*
G75*
G02*
X110975000Y-125375000I0J200000D01*
G01*
X110975000Y-124825000D01*
G75*
G02*
X111175000Y-124625000I200000J0D01*
G01*
X111575000Y-124625000D01*
G75*
G02*
X111775000Y-124825000I0J-200000D01*
G01*
G37*
G36*
G01*
X113425000Y-124825000D02*
X113425000Y-125375000D01*
G75*
G02*
X113225000Y-125575000I-200000J0D01*
G01*
X112825000Y-125575000D01*
G75*
G02*
X112625000Y-125375000I0J200000D01*
G01*
X112625000Y-124825000D01*
G75*
G02*
X112825000Y-124625000I200000J0D01*
G01*
X113225000Y-124625000D01*
G75*
G02*
X113425000Y-124825000I0J-200000D01*
G01*
G37*
G36*
G01*
X121075000Y-124137000D02*
X121075000Y-124687000D01*
G75*
G02*
X120875000Y-124887000I-200000J0D01*
G01*
X120475000Y-124887000D01*
G75*
G02*
X120275000Y-124687000I0J200000D01*
G01*
X120275000Y-124137000D01*
G75*
G02*
X120475000Y-123937000I200000J0D01*
G01*
X120875000Y-123937000D01*
G75*
G02*
X121075000Y-124137000I0J-200000D01*
G01*
G37*
G36*
G01*
X122725000Y-124137000D02*
X122725000Y-124687000D01*
G75*
G02*
X122525000Y-124887000I-200000J0D01*
G01*
X122125000Y-124887000D01*
G75*
G02*
X121925000Y-124687000I0J200000D01*
G01*
X121925000Y-124137000D01*
G75*
G02*
X122125000Y-123937000I200000J0D01*
G01*
X122525000Y-123937000D01*
G75*
G02*
X122725000Y-124137000I0J-200000D01*
G01*
G37*
G36*
G01*
X116246000Y-124137000D02*
X116246000Y-124687000D01*
G75*
G02*
X116046000Y-124887000I-200000J0D01*
G01*
X115646000Y-124887000D01*
G75*
G02*
X115446000Y-124687000I0J200000D01*
G01*
X115446000Y-124137000D01*
G75*
G02*
X115646000Y-123937000I200000J0D01*
G01*
X116046000Y-123937000D01*
G75*
G02*
X116246000Y-124137000I0J-200000D01*
G01*
G37*
G36*
G01*
X117896000Y-124137000D02*
X117896000Y-124687000D01*
G75*
G02*
X117696000Y-124887000I-200000J0D01*
G01*
X117296000Y-124887000D01*
G75*
G02*
X117096000Y-124687000I0J200000D01*
G01*
X117096000Y-124137000D01*
G75*
G02*
X117296000Y-123937000I200000J0D01*
G01*
X117696000Y-123937000D01*
G75*
G02*
X117896000Y-124137000I0J-200000D01*
G01*
G37*
G36*
G01*
X109125000Y-123275000D02*
X109125000Y-122725000D01*
G75*
G02*
X109325000Y-122525000I200000J0D01*
G01*
X109725000Y-122525000D01*
G75*
G02*
X109925000Y-122725000I0J-200000D01*
G01*
X109925000Y-123275000D01*
G75*
G02*
X109725000Y-123475000I-200000J0D01*
G01*
X109325000Y-123475000D01*
G75*
G02*
X109125000Y-123275000I0J200000D01*
G01*
G37*
G36*
G01*
X107475000Y-123275000D02*
X107475000Y-122725000D01*
G75*
G02*
X107675000Y-122525000I200000J0D01*
G01*
X108075000Y-122525000D01*
G75*
G02*
X108275000Y-122725000I0J-200000D01*
G01*
X108275000Y-123275000D01*
G75*
G02*
X108075000Y-123475000I-200000J0D01*
G01*
X107675000Y-123475000D01*
G75*
G02*
X107475000Y-123275000I0J200000D01*
G01*
G37*
G36*
G01*
X127925000Y-126525000D02*
X128475000Y-126525000D01*
G75*
G02*
X128675000Y-126725000I0J-200000D01*
G01*
X128675000Y-127125000D01*
G75*
G02*
X128475000Y-127325000I-200000J0D01*
G01*
X127925000Y-127325000D01*
G75*
G02*
X127725000Y-127125000I0J200000D01*
G01*
X127725000Y-126725000D01*
G75*
G02*
X127925000Y-126525000I200000J0D01*
G01*
G37*
G36*
G01*
X127925000Y-124875000D02*
X128475000Y-124875000D01*
G75*
G02*
X128675000Y-125075000I0J-200000D01*
G01*
X128675000Y-125475000D01*
G75*
G02*
X128475000Y-125675000I-200000J0D01*
G01*
X127925000Y-125675000D01*
G75*
G02*
X127725000Y-125475000I0J200000D01*
G01*
X127725000Y-125075000D01*
G75*
G02*
X127925000Y-124875000I200000J0D01*
G01*
G37*
G36*
G01*
X107200000Y-106640000D02*
X107200000Y-106340000D01*
G75*
G02*
X107350000Y-106190000I150000J0D01*
G01*
X109000000Y-106190000D01*
G75*
G02*
X109150000Y-106340000I0J-150000D01*
G01*
X109150000Y-106640000D01*
G75*
G02*
X109000000Y-106790000I-150000J0D01*
G01*
X107350000Y-106790000D01*
G75*
G02*
X107200000Y-106640000I0J150000D01*
G01*
G37*
G36*
G01*
X107200000Y-107910000D02*
X107200000Y-107610000D01*
G75*
G02*
X107350000Y-107460000I150000J0D01*
G01*
X109000000Y-107460000D01*
G75*
G02*
X109150000Y-107610000I0J-150000D01*
G01*
X109150000Y-107910000D01*
G75*
G02*
X109000000Y-108060000I-150000J0D01*
G01*
X107350000Y-108060000D01*
G75*
G02*
X107200000Y-107910000I0J150000D01*
G01*
G37*
G36*
G01*
X107200000Y-109180000D02*
X107200000Y-108880000D01*
G75*
G02*
X107350000Y-108730000I150000J0D01*
G01*
X109000000Y-108730000D01*
G75*
G02*
X109150000Y-108880000I0J-150000D01*
G01*
X109150000Y-109180000D01*
G75*
G02*
X109000000Y-109330000I-150000J0D01*
G01*
X107350000Y-109330000D01*
G75*
G02*
X107200000Y-109180000I0J150000D01*
G01*
G37*
G36*
G01*
X107200000Y-110450000D02*
X107200000Y-110150000D01*
G75*
G02*
X107350000Y-110000000I150000J0D01*
G01*
X109000000Y-110000000D01*
G75*
G02*
X109150000Y-110150000I0J-150000D01*
G01*
X109150000Y-110450000D01*
G75*
G02*
X109000000Y-110600000I-150000J0D01*
G01*
X107350000Y-110600000D01*
G75*
G02*
X107200000Y-110450000I0J150000D01*
G01*
G37*
G36*
G01*
X107200000Y-111720000D02*
X107200000Y-111420000D01*
G75*
G02*
X107350000Y-111270000I150000J0D01*
G01*
X109000000Y-111270000D01*
G75*
G02*
X109150000Y-111420000I0J-150000D01*
G01*
X109150000Y-111720000D01*
G75*
G02*
X109000000Y-111870000I-150000J0D01*
G01*
X107350000Y-111870000D01*
G75*
G02*
X107200000Y-111720000I0J150000D01*
G01*
G37*
G36*
G01*
X107200000Y-112990000D02*
X107200000Y-112690000D01*
G75*
G02*
X107350000Y-112540000I150000J0D01*
G01*
X109000000Y-112540000D01*
G75*
G02*
X109150000Y-112690000I0J-150000D01*
G01*
X109150000Y-112990000D01*
G75*
G02*
X109000000Y-113140000I-150000J0D01*
G01*
X107350000Y-113140000D01*
G75*
G02*
X107200000Y-112990000I0J150000D01*
G01*
G37*
G36*
G01*
X107200000Y-114260000D02*
X107200000Y-113960000D01*
G75*
G02*
X107350000Y-113810000I150000J0D01*
G01*
X109000000Y-113810000D01*
G75*
G02*
X109150000Y-113960000I0J-150000D01*
G01*
X109150000Y-114260000D01*
G75*
G02*
X109000000Y-114410000I-150000J0D01*
G01*
X107350000Y-114410000D01*
G75*
G02*
X107200000Y-114260000I0J150000D01*
G01*
G37*
G36*
G01*
X102250000Y-114260000D02*
X102250000Y-113960000D01*
G75*
G02*
X102400000Y-113810000I150000J0D01*
G01*
X104050000Y-113810000D01*
G75*
G02*
X104200000Y-113960000I0J-150000D01*
G01*
X104200000Y-114260000D01*
G75*
G02*
X104050000Y-114410000I-150000J0D01*
G01*
X102400000Y-114410000D01*
G75*
G02*
X102250000Y-114260000I0J150000D01*
G01*
G37*
G36*
G01*
X102250000Y-112990000D02*
X102250000Y-112690000D01*
G75*
G02*
X102400000Y-112540000I150000J0D01*
G01*
X104050000Y-112540000D01*
G75*
G02*
X104200000Y-112690000I0J-150000D01*
G01*
X104200000Y-112990000D01*
G75*
G02*
X104050000Y-113140000I-150000J0D01*
G01*
X102400000Y-113140000D01*
G75*
G02*
X102250000Y-112990000I0J150000D01*
G01*
G37*
G36*
G01*
X102250000Y-111720000D02*
X102250000Y-111420000D01*
G75*
G02*
X102400000Y-111270000I150000J0D01*
G01*
X104050000Y-111270000D01*
G75*
G02*
X104200000Y-111420000I0J-150000D01*
G01*
X104200000Y-111720000D01*
G75*
G02*
X104050000Y-111870000I-150000J0D01*
G01*
X102400000Y-111870000D01*
G75*
G02*
X102250000Y-111720000I0J150000D01*
G01*
G37*
G36*
G01*
X102250000Y-110450000D02*
X102250000Y-110150000D01*
G75*
G02*
X102400000Y-110000000I150000J0D01*
G01*
X104050000Y-110000000D01*
G75*
G02*
X104200000Y-110150000I0J-150000D01*
G01*
X104200000Y-110450000D01*
G75*
G02*
X104050000Y-110600000I-150000J0D01*
G01*
X102400000Y-110600000D01*
G75*
G02*
X102250000Y-110450000I0J150000D01*
G01*
G37*
G36*
G01*
X102250000Y-109180000D02*
X102250000Y-108880000D01*
G75*
G02*
X102400000Y-108730000I150000J0D01*
G01*
X104050000Y-108730000D01*
G75*
G02*
X104200000Y-108880000I0J-150000D01*
G01*
X104200000Y-109180000D01*
G75*
G02*
X104050000Y-109330000I-150000J0D01*
G01*
X102400000Y-109330000D01*
G75*
G02*
X102250000Y-109180000I0J150000D01*
G01*
G37*
G36*
G01*
X102250000Y-107910000D02*
X102250000Y-107610000D01*
G75*
G02*
X102400000Y-107460000I150000J0D01*
G01*
X104050000Y-107460000D01*
G75*
G02*
X104200000Y-107610000I0J-150000D01*
G01*
X104200000Y-107910000D01*
G75*
G02*
X104050000Y-108060000I-150000J0D01*
G01*
X102400000Y-108060000D01*
G75*
G02*
X102250000Y-107910000I0J150000D01*
G01*
G37*
G36*
G01*
X102250000Y-106640000D02*
X102250000Y-106340000D01*
G75*
G02*
X102400000Y-106190000I150000J0D01*
G01*
X104050000Y-106190000D01*
G75*
G02*
X104200000Y-106340000I0J-150000D01*
G01*
X104200000Y-106640000D01*
G75*
G02*
X104050000Y-106790000I-150000J0D01*
G01*
X102400000Y-106790000D01*
G75*
G02*
X102250000Y-106640000I0J150000D01*
G01*
G37*
G36*
G01*
X108025000Y-128800000D02*
X108975000Y-128800000D01*
G75*
G02*
X109225000Y-129050000I0J-250000D01*
G01*
X109225000Y-129550000D01*
G75*
G02*
X108975000Y-129800000I-250000J0D01*
G01*
X108025000Y-129800000D01*
G75*
G02*
X107775000Y-129550000I0J250000D01*
G01*
X107775000Y-129050000D01*
G75*
G02*
X108025000Y-128800000I250000J0D01*
G01*
G37*
G36*
G01*
X108025000Y-126900000D02*
X108975000Y-126900000D01*
G75*
G02*
X109225000Y-127150000I0J-250000D01*
G01*
X109225000Y-127650000D01*
G75*
G02*
X108975000Y-127900000I-250000J0D01*
G01*
X108025000Y-127900000D01*
G75*
G02*
X107775000Y-127650000I0J250000D01*
G01*
X107775000Y-127150000D01*
G75*
G02*
X108025000Y-126900000I250000J0D01*
G01*
G37*
G36*
G01*
X130225000Y-126600000D02*
X131175000Y-126600000D01*
G75*
G02*
X131425000Y-126850000I0J-250000D01*
G01*
X131425000Y-127350000D01*
G75*
G02*
X131175000Y-127600000I-250000J0D01*
G01*
X130225000Y-127600000D01*
G75*
G02*
X129975000Y-127350000I0J250000D01*
G01*
X129975000Y-126850000D01*
G75*
G02*
X130225000Y-126600000I250000J0D01*
G01*
G37*
G36*
G01*
X130225000Y-124700000D02*
X131175000Y-124700000D01*
G75*
G02*
X131425000Y-124950000I0J-250000D01*
G01*
X131425000Y-125450000D01*
G75*
G02*
X131175000Y-125700000I-250000J0D01*
G01*
X130225000Y-125700000D01*
G75*
G02*
X129975000Y-125450000I0J250000D01*
G01*
X129975000Y-124950000D01*
G75*
G02*
X130225000Y-124700000I250000J0D01*
G01*
G37*
G36*
G01*
X124725000Y-128650000D02*
X125675000Y-128650000D01*
G75*
G02*
X125925000Y-128900000I0J-250000D01*
G01*
X125925000Y-129400000D01*
G75*
G02*
X125675000Y-129650000I-250000J0D01*
G01*
X124725000Y-129650000D01*
G75*
G02*
X124475000Y-129400000I0J250000D01*
G01*
X124475000Y-128900000D01*
G75*
G02*
X124725000Y-128650000I250000J0D01*
G01*
G37*
G36*
G01*
X124725000Y-126750000D02*
X125675000Y-126750000D01*
G75*
G02*
X125925000Y-127000000I0J-250000D01*
G01*
X125925000Y-127500000D01*
G75*
G02*
X125675000Y-127750000I-250000J0D01*
G01*
X124725000Y-127750000D01*
G75*
G02*
X124475000Y-127500000I0J250000D01*
G01*
X124475000Y-127000000D01*
G75*
G02*
X124725000Y-126750000I250000J0D01*
G01*
G37*
D10*
X136900000Y-118800000D03*
X127300000Y-118800000D03*
G36*
G01*
X120750000Y-110155000D02*
X120750000Y-110455000D01*
G75*
G02*
X120600000Y-110605000I-150000J0D01*
G01*
X118950000Y-110605000D01*
G75*
G02*
X118800000Y-110455000I0J150000D01*
G01*
X118800000Y-110155000D01*
G75*
G02*
X118950000Y-110005000I150000J0D01*
G01*
X120600000Y-110005000D01*
G75*
G02*
X120750000Y-110155000I0J-150000D01*
G01*
G37*
G36*
G01*
X120750000Y-108885000D02*
X120750000Y-109185000D01*
G75*
G02*
X120600000Y-109335000I-150000J0D01*
G01*
X118950000Y-109335000D01*
G75*
G02*
X118800000Y-109185000I0J150000D01*
G01*
X118800000Y-108885000D01*
G75*
G02*
X118950000Y-108735000I150000J0D01*
G01*
X120600000Y-108735000D01*
G75*
G02*
X120750000Y-108885000I0J-150000D01*
G01*
G37*
G36*
G01*
X120750000Y-107615000D02*
X120750000Y-107915000D01*
G75*
G02*
X120600000Y-108065000I-150000J0D01*
G01*
X118950000Y-108065000D01*
G75*
G02*
X118800000Y-107915000I0J150000D01*
G01*
X118800000Y-107615000D01*
G75*
G02*
X118950000Y-107465000I150000J0D01*
G01*
X120600000Y-107465000D01*
G75*
G02*
X120750000Y-107615000I0J-150000D01*
G01*
G37*
G36*
G01*
X120750000Y-106345000D02*
X120750000Y-106645000D01*
G75*
G02*
X120600000Y-106795000I-150000J0D01*
G01*
X118950000Y-106795000D01*
G75*
G02*
X118800000Y-106645000I0J150000D01*
G01*
X118800000Y-106345000D01*
G75*
G02*
X118950000Y-106195000I150000J0D01*
G01*
X120600000Y-106195000D01*
G75*
G02*
X120750000Y-106345000I0J-150000D01*
G01*
G37*
G36*
G01*
X115800000Y-106345000D02*
X115800000Y-106645000D01*
G75*
G02*
X115650000Y-106795000I-150000J0D01*
G01*
X114000000Y-106795000D01*
G75*
G02*
X113850000Y-106645000I0J150000D01*
G01*
X113850000Y-106345000D01*
G75*
G02*
X114000000Y-106195000I150000J0D01*
G01*
X115650000Y-106195000D01*
G75*
G02*
X115800000Y-106345000I0J-150000D01*
G01*
G37*
G36*
G01*
X115800000Y-107615000D02*
X115800000Y-107915000D01*
G75*
G02*
X115650000Y-108065000I-150000J0D01*
G01*
X114000000Y-108065000D01*
G75*
G02*
X113850000Y-107915000I0J150000D01*
G01*
X113850000Y-107615000D01*
G75*
G02*
X114000000Y-107465000I150000J0D01*
G01*
X115650000Y-107465000D01*
G75*
G02*
X115800000Y-107615000I0J-150000D01*
G01*
G37*
G36*
G01*
X115800000Y-108885000D02*
X115800000Y-109185000D01*
G75*
G02*
X115650000Y-109335000I-150000J0D01*
G01*
X114000000Y-109335000D01*
G75*
G02*
X113850000Y-109185000I0J150000D01*
G01*
X113850000Y-108885000D01*
G75*
G02*
X114000000Y-108735000I150000J0D01*
G01*
X115650000Y-108735000D01*
G75*
G02*
X115800000Y-108885000I0J-150000D01*
G01*
G37*
G36*
G01*
X115800000Y-110155000D02*
X115800000Y-110455000D01*
G75*
G02*
X115650000Y-110605000I-150000J0D01*
G01*
X114000000Y-110605000D01*
G75*
G02*
X113850000Y-110455000I0J150000D01*
G01*
X113850000Y-110155000D01*
G75*
G02*
X114000000Y-110005000I150000J0D01*
G01*
X115650000Y-110005000D01*
G75*
G02*
X115800000Y-110155000I0J-150000D01*
G01*
G37*
D11*
X105980000Y-125300000D03*
X103700000Y-125300000D03*
X101420000Y-125300000D03*
D12*
X102175000Y-133275000D03*
X105225000Y-129925000D03*
X105225000Y-133275000D03*
X102175000Y-129925000D03*
D11*
X137980000Y-125400000D03*
X135700000Y-125400000D03*
X133420000Y-125400000D03*
D12*
X134175000Y-133375000D03*
X137225000Y-130025000D03*
X137225000Y-133375000D03*
X134175000Y-130025000D03*
D13*
X110700000Y-133600000D03*
X110700000Y-131100000D03*
X113200000Y-131100000D03*
X113200000Y-133600000D03*
D14*
X124600000Y-106300000D03*
X137200000Y-106300000D03*
D15*
X126400000Y-111550000D03*
X127400000Y-111550000D03*
X128400000Y-111550000D03*
X129400000Y-111550000D03*
X130400000Y-111550000D03*
X131400000Y-111550000D03*
X132400000Y-111550000D03*
X133400000Y-111550000D03*
X134400000Y-111550000D03*
X135400000Y-111550000D03*
M02*
