G04 #@! TF.GenerationSoftware,KiCad,Pcbnew,(6.0.0)*
G04 #@! TF.CreationDate,2022-01-31T19:46:37-05:00*
G04 #@! TF.ProjectId,megadesk,6d656761-6465-4736-9b2e-6b696361645f,rev?*
G04 #@! TF.SameCoordinates,Original*
G04 #@! TF.FileFunction,Copper,L1,Top*
G04 #@! TF.FilePolarity,Positive*
%FSLAX46Y46*%
G04 Gerber Fmt 4.6, Leading zero omitted, Abs format (unit mm)*
G04 Created by KiCad (PCBNEW (6.0.0)) date 2022-01-31 19:46:37*
%MOMM*%
%LPD*%
G01*
G04 APERTURE LIST*
G04 Aperture macros list*
%AMRoundRect*
0 Rectangle with rounded corners*
0 $1 Rounding radius*
0 $2 $3 $4 $5 $6 $7 $8 $9 X,Y pos of 4 corners*
0 Add a 4 corners polygon primitive as box body*
4,1,4,$2,$3,$4,$5,$6,$7,$8,$9,$2,$3,0*
0 Add four circle primitives for the rounded corners*
1,1,$1+$1,$2,$3*
1,1,$1+$1,$4,$5*
1,1,$1+$1,$6,$7*
1,1,$1+$1,$8,$9*
0 Add four rect primitives between the rounded corners*
20,1,$1+$1,$2,$3,$4,$5,0*
20,1,$1+$1,$4,$5,$6,$7,0*
20,1,$1+$1,$6,$7,$8,$9,0*
20,1,$1+$1,$8,$9,$2,$3,0*%
G04 Aperture macros list end*
G04 #@! TA.AperFunction,ComponentPad*
%ADD10R,1.700000X1.700000*%
G04 #@! TD*
G04 #@! TA.AperFunction,ComponentPad*
%ADD11O,1.700000X1.700000*%
G04 #@! TD*
G04 #@! TA.AperFunction,SMDPad,CuDef*
%ADD12R,0.450000X0.600000*%
G04 #@! TD*
G04 #@! TA.AperFunction,SMDPad,CuDef*
%ADD13R,1.200000X2.200000*%
G04 #@! TD*
G04 #@! TA.AperFunction,SMDPad,CuDef*
%ADD14R,5.800000X6.400000*%
G04 #@! TD*
G04 #@! TA.AperFunction,SMDPad,CuDef*
%ADD15R,1.600000X2.800000*%
G04 #@! TD*
G04 #@! TA.AperFunction,SMDPad,CuDef*
%ADD16R,0.300000X1.300000*%
G04 #@! TD*
G04 #@! TA.AperFunction,SMDPad,CuDef*
%ADD17RoundRect,0.225000X0.225000X0.250000X-0.225000X0.250000X-0.225000X-0.250000X0.225000X-0.250000X0*%
G04 #@! TD*
G04 #@! TA.AperFunction,SMDPad,CuDef*
%ADD18RoundRect,0.200000X-0.275000X0.200000X-0.275000X-0.200000X0.275000X-0.200000X0.275000X0.200000X0*%
G04 #@! TD*
G04 #@! TA.AperFunction,SMDPad,CuDef*
%ADD19RoundRect,0.200000X0.200000X0.275000X-0.200000X0.275000X-0.200000X-0.275000X0.200000X-0.275000X0*%
G04 #@! TD*
G04 #@! TA.AperFunction,SMDPad,CuDef*
%ADD20R,1.300000X3.400000*%
G04 #@! TD*
G04 #@! TA.AperFunction,SMDPad,CuDef*
%ADD21RoundRect,0.250000X-0.475000X0.250000X-0.475000X-0.250000X0.475000X-0.250000X0.475000X0.250000X0*%
G04 #@! TD*
G04 #@! TA.AperFunction,SMDPad,CuDef*
%ADD22RoundRect,0.150000X-0.825000X-0.150000X0.825000X-0.150000X0.825000X0.150000X-0.825000X0.150000X0*%
G04 #@! TD*
G04 #@! TA.AperFunction,SMDPad,CuDef*
%ADD23RoundRect,0.200000X-0.200000X-0.275000X0.200000X-0.275000X0.200000X0.275000X-0.200000X0.275000X0*%
G04 #@! TD*
G04 #@! TA.AperFunction,SMDPad,CuDef*
%ADD24RoundRect,0.150000X0.825000X0.150000X-0.825000X0.150000X-0.825000X-0.150000X0.825000X-0.150000X0*%
G04 #@! TD*
G04 #@! TA.AperFunction,ViaPad*
%ADD25C,0.450000*%
G04 #@! TD*
G04 #@! TA.AperFunction,ViaPad*
%ADD26C,0.700000*%
G04 #@! TD*
G04 #@! TA.AperFunction,Conductor*
%ADD27C,0.250000*%
G04 #@! TD*
G04 APERTURE END LIST*
D10*
X121600000Y-127300000D03*
D11*
X119060000Y-127300000D03*
X116520000Y-127300000D03*
D12*
X110700000Y-133400000D03*
X110700000Y-131300000D03*
D13*
X137980000Y-125400000D03*
X135700000Y-125400000D03*
D14*
X135700000Y-131700000D03*
D13*
X133420000Y-125400000D03*
D15*
X123900000Y-108900000D03*
X137900000Y-108900000D03*
D16*
X135400000Y-112000000D03*
X134400000Y-112000000D03*
X133400000Y-112000000D03*
X132400000Y-112000000D03*
X131400000Y-112000000D03*
X130400000Y-112000000D03*
X129400000Y-112000000D03*
X128400000Y-112000000D03*
X127400000Y-112000000D03*
X126400000Y-112000000D03*
D17*
X112975000Y-127600000D03*
X111425000Y-127600000D03*
D18*
X128200000Y-125275000D03*
X128200000Y-126925000D03*
D19*
X117496000Y-124412000D03*
X115846000Y-124412000D03*
X113025000Y-125100000D03*
X111375000Y-125100000D03*
D20*
X127750000Y-118800000D03*
X136450000Y-118800000D03*
D21*
X130700000Y-125200000D03*
X130700000Y-127100000D03*
D12*
X113200000Y-131300000D03*
X113200000Y-133400000D03*
D13*
X105980000Y-125300000D03*
D14*
X103700000Y-131600000D03*
D13*
X103700000Y-125300000D03*
X101420000Y-125300000D03*
D10*
X119800000Y-113200000D03*
D11*
X119800000Y-115740000D03*
X117260000Y-113200000D03*
X117260000Y-115740000D03*
X114720000Y-113200000D03*
X114720000Y-115740000D03*
D22*
X103225000Y-106490000D03*
X103225000Y-107760000D03*
X103225000Y-109030000D03*
X103225000Y-110300000D03*
X103225000Y-111570000D03*
X103225000Y-112840000D03*
X103225000Y-114110000D03*
X108175000Y-114110000D03*
X108175000Y-112840000D03*
X108175000Y-111570000D03*
X108175000Y-110300000D03*
X108175000Y-109030000D03*
X108175000Y-107760000D03*
X108175000Y-106490000D03*
D21*
X108500000Y-127400000D03*
X108500000Y-129300000D03*
D23*
X108150000Y-124300000D03*
X109800000Y-124300000D03*
D21*
X125200000Y-127250000D03*
X125200000Y-129150000D03*
D19*
X122325000Y-124412000D03*
X120675000Y-124412000D03*
D24*
X118875000Y-110305000D03*
X118875000Y-109035000D03*
X118875000Y-107765000D03*
X118875000Y-106495000D03*
X113925000Y-106495000D03*
X113925000Y-107765000D03*
X113925000Y-109035000D03*
X113925000Y-110305000D03*
D25*
X101630000Y-127400000D03*
X114700000Y-123600000D03*
X106480000Y-127400000D03*
X102700000Y-123200000D03*
D26*
X131700000Y-130600000D03*
X108700000Y-135600000D03*
X131700000Y-131600000D03*
X130700000Y-132600000D03*
X131700000Y-132600000D03*
X108700000Y-132600000D03*
X130700000Y-129600000D03*
X130700000Y-135600000D03*
X107700000Y-133600000D03*
X131700000Y-135600000D03*
D25*
X121800000Y-121600000D03*
D26*
X107700000Y-131600000D03*
X107700000Y-132600000D03*
X131700000Y-129600000D03*
D25*
X118600000Y-120400000D03*
X112500000Y-115900000D03*
X128000000Y-109300000D03*
D26*
X108700000Y-133600000D03*
X130700000Y-134600000D03*
D25*
X114500000Y-121500000D03*
D26*
X108700000Y-131600000D03*
X107700000Y-134600000D03*
X130700000Y-130600000D03*
X131700000Y-134600000D03*
X131700000Y-133600000D03*
D25*
X132800000Y-115700000D03*
X108900000Y-120000000D03*
X130300000Y-118100000D03*
D26*
X108700000Y-134600000D03*
X130700000Y-133600000D03*
X107700000Y-135600000D03*
X130700000Y-131600000D03*
D25*
X109800000Y-116000000D03*
X111800000Y-132300000D03*
X127570000Y-130840000D03*
X113000000Y-129100000D03*
X109600000Y-114100000D03*
X110000000Y-112600000D03*
X105500000Y-114100000D03*
X105600000Y-110400000D03*
X127600000Y-128600000D03*
X108300000Y-125900000D03*
X120036000Y-125555000D03*
X137800000Y-127500000D03*
X116400000Y-109000000D03*
X110300000Y-109000000D03*
X121200000Y-108700000D03*
X123300000Y-115900000D03*
X110200000Y-110400000D03*
X120100000Y-120700000D03*
X110400000Y-122899994D03*
X116400000Y-110300000D03*
X120700000Y-109600000D03*
X122700000Y-114000000D03*
X105500000Y-107800000D03*
X131400000Y-106900000D03*
X130500000Y-107700000D03*
X105500000Y-109100000D03*
X101400000Y-117300000D03*
X123700000Y-118100000D03*
X110100000Y-107700000D03*
X127100000Y-107700000D03*
X110200000Y-111400000D03*
X122000000Y-111700000D03*
D27*
X101860000Y-106490000D02*
X103225000Y-106490000D01*
X100700000Y-118700000D02*
X100700000Y-107650000D01*
X101750000Y-119750000D02*
X100700000Y-118700000D01*
X100700000Y-107650000D02*
X101860000Y-106490000D01*
X101750000Y-121600000D02*
X101750000Y-119750000D01*
X115875000Y-123600000D02*
X114700000Y-123600000D01*
X106480000Y-127400000D02*
X108500000Y-127400000D01*
X102700000Y-122550000D02*
X101750000Y-121600000D01*
X119800000Y-116100000D02*
X119800000Y-115740000D01*
X101420000Y-125300000D02*
X101420000Y-127220000D01*
X106850000Y-123000000D02*
X102900000Y-123000000D01*
X101750000Y-121600000D02*
X101750000Y-124970000D01*
X101600000Y-127400000D02*
X101630000Y-127400000D01*
X116600010Y-119299990D02*
X119800000Y-116100000D01*
X102900000Y-123000000D02*
X102700000Y-123200000D01*
X101420000Y-127220000D02*
X101600000Y-127400000D01*
X115846000Y-123629000D02*
X115875000Y-123600000D01*
X102700000Y-123200000D02*
X102700000Y-122550000D01*
X116600010Y-122874990D02*
X116600010Y-119299990D01*
X101750000Y-124970000D02*
X101420000Y-125300000D01*
X115846000Y-124412000D02*
X115846000Y-123629000D01*
X116600010Y-122874990D02*
X115846000Y-123629000D01*
X108150000Y-124300000D02*
X106850000Y-123000000D01*
X119060000Y-125007000D02*
X119655000Y-124412000D01*
X119655000Y-124412000D02*
X120675000Y-124412000D01*
X119060000Y-127300000D02*
X119060000Y-125007000D01*
X129014999Y-129395001D02*
X127570000Y-130840000D01*
X130700000Y-125200000D02*
X129014999Y-126885001D01*
X111700000Y-132300000D02*
X111800000Y-132300000D01*
X110700000Y-131300000D02*
X111700000Y-132300000D01*
X129014999Y-126885001D02*
X129014999Y-129395001D01*
X130700000Y-125200000D02*
X133220000Y-125200000D01*
X133220000Y-125200000D02*
X133420000Y-125400000D01*
X112975000Y-129075000D02*
X113000000Y-129100000D01*
X113075000Y-127500000D02*
X112975000Y-127600000D01*
X112975000Y-127600000D02*
X112975000Y-129075000D01*
X112635000Y-107765000D02*
X111100000Y-109300000D01*
X113925000Y-107765000D02*
X112635000Y-107765000D01*
X111100000Y-124825000D02*
X111375000Y-125100000D01*
X111375000Y-125100000D02*
X111375000Y-125875000D01*
X111100000Y-109300000D02*
X111100000Y-124825000D01*
X111375000Y-125875000D02*
X112975000Y-127475000D01*
X109590000Y-114110000D02*
X109600000Y-114100000D01*
X108175000Y-114110000D02*
X109590000Y-114110000D01*
X108175000Y-112840000D02*
X109760000Y-112840000D01*
X109760000Y-112840000D02*
X110000000Y-112600000D01*
X105500000Y-114100000D02*
X105490000Y-114110000D01*
X105490000Y-114110000D02*
X103225000Y-114110000D01*
X105600000Y-110400000D02*
X105500000Y-110300000D01*
X105500000Y-110300000D02*
X103225000Y-110300000D01*
X126300000Y-127300000D02*
X127600000Y-128600000D01*
X137800000Y-127500000D02*
X137800000Y-125580000D01*
X121600000Y-127300000D02*
X121600000Y-127119000D01*
X107700000Y-125300000D02*
X105980000Y-125300000D01*
X121600000Y-127119000D02*
X120036000Y-125555000D01*
X121600000Y-127300000D02*
X126300000Y-127300000D01*
X108300000Y-125900000D02*
X107700000Y-125300000D01*
X137800000Y-125580000D02*
X137980000Y-125400000D01*
X117805000Y-106495000D02*
X118875000Y-106495000D01*
X116400000Y-107900000D02*
X117805000Y-106495000D01*
X110270000Y-109030000D02*
X110300000Y-109000000D01*
X116400000Y-109000000D02*
X116400000Y-107900000D01*
X108175000Y-109030000D02*
X110270000Y-109030000D01*
X120635000Y-107765000D02*
X118875000Y-107765000D01*
X123149999Y-116050001D02*
X123149999Y-123050001D01*
X123300000Y-115900000D02*
X123149999Y-116050001D01*
X123149999Y-123050001D02*
X122325000Y-123875000D01*
X121200000Y-108330000D02*
X120635000Y-107765000D01*
X122325000Y-123875000D02*
X122325000Y-124412000D01*
X121200000Y-108700000D02*
X121200000Y-108330000D01*
X114900000Y-125000000D02*
X114000000Y-124100000D01*
X112565000Y-109035000D02*
X113925000Y-109035000D01*
X110750000Y-133450000D02*
X113850000Y-133450000D01*
X112200000Y-124100000D02*
X111700000Y-123600000D01*
X113850000Y-133450000D02*
X114900000Y-132400000D01*
X111700000Y-123600000D02*
X111700000Y-109900000D01*
X114000000Y-124100000D02*
X112200000Y-124100000D01*
X111700000Y-109900000D02*
X112565000Y-109035000D01*
X114900000Y-132400000D02*
X114900000Y-125000000D01*
X110700000Y-133400000D02*
X110750000Y-133450000D01*
X113025000Y-125100000D02*
X113025000Y-125262500D01*
X113025000Y-125262500D02*
X114200000Y-126437500D01*
X114200000Y-126437500D02*
X114200000Y-129850000D01*
X113200000Y-130850000D02*
X113200000Y-131100000D01*
X114200000Y-129850000D02*
X113200000Y-130850000D01*
X109800000Y-123499994D02*
X110400000Y-122899994D01*
X110100000Y-110300000D02*
X108175000Y-110300000D01*
X122000000Y-112700000D02*
X122000000Y-118800000D01*
X110200000Y-110400000D02*
X110100000Y-110300000D01*
X122000000Y-118800000D02*
X120100000Y-120700000D01*
X119600000Y-110300000D02*
X122000000Y-112700000D01*
X116400000Y-110300000D02*
X119600000Y-110300000D01*
X109800000Y-124300000D02*
X109800000Y-123499994D01*
X120700000Y-109600000D02*
X120135000Y-109035000D01*
X118512000Y-124412000D02*
X117496000Y-124412000D01*
X122600000Y-119600000D02*
X122600000Y-114100000D01*
X120135000Y-109035000D02*
X118875000Y-109035000D01*
X118512000Y-123688000D02*
X118512000Y-124412000D01*
X122600000Y-114100000D02*
X122700000Y-114000000D01*
X122600000Y-119600000D02*
X118512000Y-123688000D01*
X105500000Y-107800000D02*
X105460000Y-107760000D01*
X105460000Y-107760000D02*
X103225000Y-107760000D01*
X131400000Y-111550000D02*
X131400000Y-106900000D01*
X130400000Y-111550000D02*
X130400000Y-107800000D01*
X105500000Y-109100000D02*
X105430000Y-109030000D01*
X130400000Y-107800000D02*
X130500000Y-107700000D01*
X105430000Y-109030000D02*
X103225000Y-109030000D01*
X101400000Y-113300000D02*
X101400000Y-117300000D01*
X101860000Y-112840000D02*
X101400000Y-113300000D01*
X103225000Y-112840000D02*
X101860000Y-112840000D01*
X127300000Y-118800000D02*
X124400000Y-118800000D01*
X124400000Y-118800000D02*
X123700000Y-118100000D01*
X133244000Y-120356000D02*
X128325000Y-125275000D01*
X136900000Y-118800000D02*
X133776000Y-118800000D01*
X133244000Y-119332000D02*
X133244000Y-120356000D01*
X133776000Y-118800000D02*
X133244000Y-119332000D01*
X128325000Y-125275000D02*
X128200000Y-125275000D01*
X110040000Y-107760000D02*
X108175000Y-107760000D01*
X127400000Y-108000000D02*
X127400000Y-112000000D01*
X127100000Y-107700000D02*
X127400000Y-108000000D01*
X110100000Y-107700000D02*
X110040000Y-107760000D01*
X126400000Y-112000000D02*
X122300000Y-112000000D01*
X122300000Y-112000000D02*
X122000000Y-111700000D01*
X110030000Y-111570000D02*
X108175000Y-111570000D01*
X110200000Y-111400000D02*
X110030000Y-111570000D01*
G04 #@! TA.AperFunction,Conductor*
G36*
X138863799Y-105128002D02*
G01*
X138910292Y-105181658D01*
X138920396Y-105251932D01*
X138914706Y-105275333D01*
X138891562Y-105341981D01*
X138861868Y-105546781D01*
X138871436Y-105753502D01*
X138872840Y-105759327D01*
X138872840Y-105759328D01*
X138917665Y-105945322D01*
X138919921Y-105954685D01*
X138922403Y-105960143D01*
X138922404Y-105960147D01*
X138969247Y-106063173D01*
X139005574Y-106143069D01*
X139125305Y-106311858D01*
X139129628Y-106315996D01*
X139129632Y-106316001D01*
X139260736Y-106441505D01*
X139274792Y-106454961D01*
X139279827Y-106458212D01*
X139443606Y-106563963D01*
X139443609Y-106563964D01*
X139448643Y-106567215D01*
X139640584Y-106644570D01*
X139646465Y-106645718D01*
X139646470Y-106645720D01*
X139839244Y-106683366D01*
X139839247Y-106683366D01*
X139843690Y-106684234D01*
X139849129Y-106684500D01*
X140001704Y-106684500D01*
X140156007Y-106669778D01*
X140182309Y-106662062D01*
X140280531Y-106633247D01*
X140351527Y-106633264D01*
X140411244Y-106671662D01*
X140440722Y-106736250D01*
X140442000Y-106754152D01*
X140442000Y-136716000D01*
X140421998Y-136784121D01*
X140368342Y-136830614D01*
X140316000Y-136842000D01*
X100854322Y-136842000D01*
X100786201Y-136821998D01*
X100739708Y-136768342D01*
X100729604Y-136698068D01*
X100735294Y-136674667D01*
X100756471Y-136613684D01*
X100756472Y-136613682D01*
X100758438Y-136608019D01*
X100788132Y-136403219D01*
X100778564Y-136196498D01*
X100730079Y-135995315D01*
X100644426Y-135806931D01*
X100524695Y-135638142D01*
X100520372Y-135634004D01*
X100520368Y-135633999D01*
X100379538Y-135499184D01*
X100375208Y-135495039D01*
X100348199Y-135477600D01*
X100206394Y-135386037D01*
X100206391Y-135386036D01*
X100201357Y-135382785D01*
X100009416Y-135305430D01*
X100003535Y-135304282D01*
X100003530Y-135304280D01*
X99810756Y-135266634D01*
X99810753Y-135266634D01*
X99806310Y-135265766D01*
X99800871Y-135265500D01*
X99648296Y-135265500D01*
X99493993Y-135280222D01*
X99488235Y-135281911D01*
X99488236Y-135281911D01*
X99369469Y-135316753D01*
X99298473Y-135316736D01*
X99238756Y-135278338D01*
X99209278Y-135213750D01*
X99208000Y-135195848D01*
X99208000Y-134844669D01*
X100292001Y-134844669D01*
X100292371Y-134851490D01*
X100297895Y-134902352D01*
X100301521Y-134917604D01*
X100346676Y-135038054D01*
X100355214Y-135053649D01*
X100431715Y-135155724D01*
X100444276Y-135168285D01*
X100546351Y-135244786D01*
X100561946Y-135253324D01*
X100682394Y-135298478D01*
X100697649Y-135302105D01*
X100748514Y-135307631D01*
X100755328Y-135308000D01*
X103427885Y-135308000D01*
X103443124Y-135303525D01*
X103444329Y-135302135D01*
X103446000Y-135294452D01*
X103446000Y-135289884D01*
X103954000Y-135289884D01*
X103958475Y-135305123D01*
X103959865Y-135306328D01*
X103967548Y-135307999D01*
X106644669Y-135307999D01*
X106651490Y-135307629D01*
X106702352Y-135302105D01*
X106717604Y-135298479D01*
X106838054Y-135253324D01*
X106853649Y-135244786D01*
X106955724Y-135168285D01*
X106968285Y-135155724D01*
X107044786Y-135053649D01*
X107053324Y-135038054D01*
X107088333Y-134944669D01*
X132292001Y-134944669D01*
X132292371Y-134951490D01*
X132297895Y-135002352D01*
X132301521Y-135017604D01*
X132346676Y-135138054D01*
X132355214Y-135153649D01*
X132431715Y-135255724D01*
X132444276Y-135268285D01*
X132546351Y-135344786D01*
X132561946Y-135353324D01*
X132682394Y-135398478D01*
X132697649Y-135402105D01*
X132748514Y-135407631D01*
X132755328Y-135408000D01*
X135427885Y-135408000D01*
X135443124Y-135403525D01*
X135444329Y-135402135D01*
X135446000Y-135394452D01*
X135446000Y-135389884D01*
X135954000Y-135389884D01*
X135958475Y-135405123D01*
X135959865Y-135406328D01*
X135967548Y-135407999D01*
X138644669Y-135407999D01*
X138651490Y-135407629D01*
X138702352Y-135402105D01*
X138717604Y-135398479D01*
X138838054Y-135353324D01*
X138853649Y-135344786D01*
X138955724Y-135268285D01*
X138968285Y-135255724D01*
X139044786Y-135153649D01*
X139053324Y-135138054D01*
X139098478Y-135017606D01*
X139102105Y-135002351D01*
X139107631Y-134951486D01*
X139108000Y-134944672D01*
X139108000Y-131972115D01*
X139103525Y-131956876D01*
X139102135Y-131955671D01*
X139094452Y-131954000D01*
X135972115Y-131954000D01*
X135956876Y-131958475D01*
X135955671Y-131959865D01*
X135954000Y-131967548D01*
X135954000Y-135389884D01*
X135446000Y-135389884D01*
X135446000Y-131972115D01*
X135441525Y-131956876D01*
X135440135Y-131955671D01*
X135432452Y-131954000D01*
X132310116Y-131954000D01*
X132294877Y-131958475D01*
X132293672Y-131959865D01*
X132292001Y-131967548D01*
X132292001Y-134944669D01*
X107088333Y-134944669D01*
X107098478Y-134917606D01*
X107102105Y-134902351D01*
X107107631Y-134851486D01*
X107108000Y-134844672D01*
X107108000Y-131872115D01*
X107103525Y-131856876D01*
X107102135Y-131855671D01*
X107094452Y-131854000D01*
X103972115Y-131854000D01*
X103956876Y-131858475D01*
X103955671Y-131859865D01*
X103954000Y-131867548D01*
X103954000Y-135289884D01*
X103446000Y-135289884D01*
X103446000Y-131872115D01*
X103441525Y-131856876D01*
X103440135Y-131855671D01*
X103432452Y-131854000D01*
X100310116Y-131854000D01*
X100294877Y-131858475D01*
X100293672Y-131859865D01*
X100292001Y-131867548D01*
X100292001Y-134844669D01*
X99208000Y-134844669D01*
X99208000Y-107629943D01*
X100061780Y-107629943D01*
X100062526Y-107637835D01*
X100065941Y-107673961D01*
X100066500Y-107685819D01*
X100066500Y-118621233D01*
X100065973Y-118632416D01*
X100064298Y-118639909D01*
X100064547Y-118647835D01*
X100064547Y-118647836D01*
X100066438Y-118707986D01*
X100066500Y-118711945D01*
X100066500Y-118739856D01*
X100066997Y-118743790D01*
X100066997Y-118743791D01*
X100067005Y-118743856D01*
X100067938Y-118755693D01*
X100069327Y-118799889D01*
X100071681Y-118807990D01*
X100074978Y-118819339D01*
X100078987Y-118838700D01*
X100081526Y-118858797D01*
X100084445Y-118866168D01*
X100084445Y-118866170D01*
X100097804Y-118899912D01*
X100101649Y-118911142D01*
X100113982Y-118953593D01*
X100118015Y-118960412D01*
X100118017Y-118960417D01*
X100124293Y-118971028D01*
X100132988Y-118988776D01*
X100140448Y-119007617D01*
X100145110Y-119014033D01*
X100145110Y-119014034D01*
X100166436Y-119043387D01*
X100172952Y-119053307D01*
X100184366Y-119072606D01*
X100195458Y-119091362D01*
X100209779Y-119105683D01*
X100222619Y-119120716D01*
X100234528Y-119137107D01*
X100240634Y-119142158D01*
X100268605Y-119165298D01*
X100277384Y-119173288D01*
X101079595Y-119975499D01*
X101113621Y-120037811D01*
X101116500Y-120064594D01*
X101116500Y-121521233D01*
X101115973Y-121532416D01*
X101114298Y-121539909D01*
X101114547Y-121547835D01*
X101114547Y-121547836D01*
X101116438Y-121607986D01*
X101116500Y-121611945D01*
X101116500Y-123565500D01*
X101096498Y-123633621D01*
X101042842Y-123680114D01*
X100990500Y-123691500D01*
X100771866Y-123691500D01*
X100709684Y-123698255D01*
X100573295Y-123749385D01*
X100456739Y-123836739D01*
X100369385Y-123953295D01*
X100318255Y-124089684D01*
X100311500Y-124151866D01*
X100311500Y-126448134D01*
X100318255Y-126510316D01*
X100369385Y-126646705D01*
X100456739Y-126763261D01*
X100573295Y-126850615D01*
X100581703Y-126853767D01*
X100704730Y-126899888D01*
X100761494Y-126942530D01*
X100786194Y-127009091D01*
X100786500Y-127017870D01*
X100786500Y-127141233D01*
X100785973Y-127152416D01*
X100784298Y-127159909D01*
X100784547Y-127167835D01*
X100784547Y-127167836D01*
X100786438Y-127227986D01*
X100786500Y-127231945D01*
X100786500Y-127259856D01*
X100786997Y-127263790D01*
X100786997Y-127263791D01*
X100787005Y-127263856D01*
X100787938Y-127275693D01*
X100789327Y-127319889D01*
X100794143Y-127336466D01*
X100794978Y-127339339D01*
X100798987Y-127358700D01*
X100799910Y-127366002D01*
X100801526Y-127378797D01*
X100804445Y-127386168D01*
X100804445Y-127386170D01*
X100817804Y-127419912D01*
X100821649Y-127431142D01*
X100833982Y-127473593D01*
X100838015Y-127480412D01*
X100838017Y-127480417D01*
X100844293Y-127491028D01*
X100852988Y-127508776D01*
X100860448Y-127527617D01*
X100865110Y-127534033D01*
X100865110Y-127534034D01*
X100886436Y-127563387D01*
X100892952Y-127573307D01*
X100915458Y-127611362D01*
X100921064Y-127616968D01*
X100921953Y-127618114D01*
X100941953Y-127655570D01*
X100957705Y-127702924D01*
X100957709Y-127702934D01*
X100959932Y-127709615D01*
X100962547Y-127713933D01*
X100972846Y-127783380D01*
X100943639Y-127848091D01*
X100884084Y-127886739D01*
X100848050Y-127892001D01*
X100755331Y-127892001D01*
X100748510Y-127892371D01*
X100697648Y-127897895D01*
X100682396Y-127901521D01*
X100561946Y-127946676D01*
X100546351Y-127955214D01*
X100444276Y-128031715D01*
X100431715Y-128044276D01*
X100355214Y-128146351D01*
X100346676Y-128161946D01*
X100301522Y-128282394D01*
X100297895Y-128297649D01*
X100292369Y-128348514D01*
X100292000Y-128355328D01*
X100292000Y-131327885D01*
X100296475Y-131343124D01*
X100297865Y-131344329D01*
X100305548Y-131346000D01*
X103427885Y-131346000D01*
X103443124Y-131341525D01*
X103444329Y-131340135D01*
X103446000Y-131332452D01*
X103446000Y-127910116D01*
X103441525Y-127894877D01*
X103440135Y-127893672D01*
X103432452Y-127892001D01*
X102410436Y-127892001D01*
X102342315Y-127871999D01*
X102295822Y-127818343D01*
X102285718Y-127748069D01*
X102292648Y-127721258D01*
X102342449Y-127590154D01*
X102344951Y-127583568D01*
X102356989Y-127497914D01*
X102367302Y-127424534D01*
X102367303Y-127424527D01*
X102367853Y-127420610D01*
X102368141Y-127400000D01*
X102349798Y-127236466D01*
X102343998Y-127219809D01*
X102323138Y-127159909D01*
X102295680Y-127081060D01*
X102249711Y-127007495D01*
X102230576Y-126939129D01*
X102251441Y-126871267D01*
X102281001Y-126839901D01*
X102376080Y-126768643D01*
X102376081Y-126768642D01*
X102383261Y-126763261D01*
X102459487Y-126661553D01*
X102516347Y-126619039D01*
X102587165Y-126614014D01*
X102649458Y-126648074D01*
X102661139Y-126661554D01*
X102731715Y-126755724D01*
X102744276Y-126768285D01*
X102846351Y-126844786D01*
X102861946Y-126853324D01*
X102982394Y-126898478D01*
X102997649Y-126902105D01*
X103048514Y-126907631D01*
X103055328Y-126908000D01*
X103427885Y-126908000D01*
X103443124Y-126903525D01*
X103444329Y-126902135D01*
X103446000Y-126894452D01*
X103446000Y-125172000D01*
X103466002Y-125103879D01*
X103519658Y-125057386D01*
X103572000Y-125046000D01*
X103828000Y-125046000D01*
X103896121Y-125066002D01*
X103942614Y-125119658D01*
X103954000Y-125172000D01*
X103954000Y-126889884D01*
X103958475Y-126905123D01*
X103959865Y-126906328D01*
X103967548Y-126907999D01*
X104344669Y-126907999D01*
X104351490Y-126907629D01*
X104402352Y-126902105D01*
X104417604Y-126898479D01*
X104538054Y-126853324D01*
X104553649Y-126844786D01*
X104655724Y-126768285D01*
X104668285Y-126755724D01*
X104738861Y-126661554D01*
X104795720Y-126619039D01*
X104866538Y-126614013D01*
X104928832Y-126648073D01*
X104940513Y-126661553D01*
X105016739Y-126763261D01*
X105133295Y-126850615D01*
X105269684Y-126901745D01*
X105331866Y-126908500D01*
X105698327Y-126908500D01*
X105766448Y-126928502D01*
X105812941Y-126982158D01*
X105823045Y-127052432D01*
X105816728Y-127077594D01*
X105764966Y-127219809D01*
X105764965Y-127219814D01*
X105762556Y-127226432D01*
X105741931Y-127389694D01*
X105757989Y-127553468D01*
X105809932Y-127709615D01*
X105812547Y-127713933D01*
X105822846Y-127783379D01*
X105793639Y-127848090D01*
X105734083Y-127886738D01*
X105698050Y-127892000D01*
X103972115Y-127892000D01*
X103956876Y-127896475D01*
X103955671Y-127897865D01*
X103954000Y-127905548D01*
X103954000Y-131327885D01*
X103958475Y-131343124D01*
X103959865Y-131344329D01*
X103967548Y-131346000D01*
X107089884Y-131346000D01*
X107105123Y-131341525D01*
X107106328Y-131340135D01*
X107107999Y-131332452D01*
X107107999Y-129951730D01*
X107128001Y-129883609D01*
X107181657Y-129837116D01*
X107251931Y-129827012D01*
X107316511Y-129856506D01*
X107341143Y-129885427D01*
X107423063Y-130017807D01*
X107432099Y-130029208D01*
X107546829Y-130143739D01*
X107558240Y-130152751D01*
X107696243Y-130237816D01*
X107709424Y-130243963D01*
X107863710Y-130295138D01*
X107877086Y-130298005D01*
X107971438Y-130307672D01*
X107977854Y-130308000D01*
X108227885Y-130308000D01*
X108243124Y-130303525D01*
X108244329Y-130302135D01*
X108246000Y-130294452D01*
X108246000Y-130289884D01*
X108754000Y-130289884D01*
X108758475Y-130305123D01*
X108759865Y-130306328D01*
X108767548Y-130307999D01*
X109022095Y-130307999D01*
X109028614Y-130307662D01*
X109124206Y-130297743D01*
X109137600Y-130294851D01*
X109291784Y-130243412D01*
X109304962Y-130237239D01*
X109442807Y-130151937D01*
X109454208Y-130142901D01*
X109568739Y-130028171D01*
X109577751Y-130016760D01*
X109662816Y-129878757D01*
X109668963Y-129865576D01*
X109720138Y-129711290D01*
X109723005Y-129697914D01*
X109732672Y-129603562D01*
X109733000Y-129597146D01*
X109733000Y-129572115D01*
X109728525Y-129556876D01*
X109727135Y-129555671D01*
X109719452Y-129554000D01*
X108772115Y-129554000D01*
X108756876Y-129558475D01*
X108755671Y-129559865D01*
X108754000Y-129567548D01*
X108754000Y-130289884D01*
X108246000Y-130289884D01*
X108246000Y-129172000D01*
X108266002Y-129103879D01*
X108319658Y-129057386D01*
X108372000Y-129046000D01*
X109714884Y-129046000D01*
X109730123Y-129041525D01*
X109731328Y-129040135D01*
X109732999Y-129032452D01*
X109732999Y-129002905D01*
X109732662Y-128996386D01*
X109722743Y-128900794D01*
X109719851Y-128887400D01*
X109668412Y-128733216D01*
X109662239Y-128720038D01*
X109576937Y-128582193D01*
X109567901Y-128570792D01*
X109453172Y-128456262D01*
X109444238Y-128449206D01*
X109403177Y-128391288D01*
X109399947Y-128320365D01*
X109435574Y-128258954D01*
X109443407Y-128252154D01*
X109449348Y-128248478D01*
X109461674Y-128236131D01*
X109569134Y-128128483D01*
X109574305Y-128123303D01*
X109584769Y-128106328D01*
X109663275Y-127978968D01*
X109663276Y-127978966D01*
X109667115Y-127972738D01*
X109692754Y-127895438D01*
X110467000Y-127895438D01*
X110467337Y-127901953D01*
X110476894Y-127994057D01*
X110479788Y-128007456D01*
X110529381Y-128156107D01*
X110535555Y-128169286D01*
X110617788Y-128302173D01*
X110626824Y-128313574D01*
X110737429Y-128423986D01*
X110748840Y-128432998D01*
X110881880Y-128515004D01*
X110895061Y-128521151D01*
X111043814Y-128570491D01*
X111057190Y-128573358D01*
X111148097Y-128582672D01*
X111153126Y-128582929D01*
X111168124Y-128578525D01*
X111169329Y-128577135D01*
X111171000Y-128569452D01*
X111171000Y-127872115D01*
X111166525Y-127856876D01*
X111165135Y-127855671D01*
X111157452Y-127854000D01*
X110485115Y-127854000D01*
X110469876Y-127858475D01*
X110468671Y-127859865D01*
X110467000Y-127867548D01*
X110467000Y-127895438D01*
X109692754Y-127895438D01*
X109700490Y-127872115D01*
X109720632Y-127811389D01*
X109720632Y-127811387D01*
X109722797Y-127804861D01*
X109733500Y-127700400D01*
X109733500Y-127099600D01*
X109732267Y-127087717D01*
X109723238Y-127000692D01*
X109723237Y-127000688D01*
X109722526Y-126993834D01*
X109700730Y-126928502D01*
X109672850Y-126844936D01*
X109666550Y-126826054D01*
X109573478Y-126675652D01*
X109544481Y-126646705D01*
X109453483Y-126555866D01*
X109448303Y-126550695D01*
X109399284Y-126520479D01*
X109303968Y-126461725D01*
X109303966Y-126461724D01*
X109297738Y-126457885D01*
X109209295Y-126428550D01*
X109136389Y-126404368D01*
X109136387Y-126404368D01*
X109129861Y-126402203D01*
X109123023Y-126401502D01*
X109123021Y-126401502D01*
X109065956Y-126395655D01*
X109000229Y-126368813D01*
X108959447Y-126310698D01*
X108956559Y-126239760D01*
X108961011Y-126225568D01*
X108999033Y-126125472D01*
X109014951Y-126083568D01*
X109025113Y-126011259D01*
X109037302Y-125924534D01*
X109037303Y-125924527D01*
X109037853Y-125920610D01*
X109038141Y-125900000D01*
X109019798Y-125736466D01*
X108965680Y-125581060D01*
X108936336Y-125534099D01*
X108882209Y-125447479D01*
X108878476Y-125441505D01*
X108844098Y-125406886D01*
X108768876Y-125331137D01*
X108735069Y-125268706D01*
X108740381Y-125197909D01*
X108780533Y-125143201D01*
X108783882Y-125140575D01*
X108790381Y-125136639D01*
X108885905Y-125041115D01*
X108948217Y-125007089D01*
X109019032Y-125012154D01*
X109064095Y-125041115D01*
X109159619Y-125136639D01*
X109306301Y-125225472D01*
X109313548Y-125227743D01*
X109313550Y-125227744D01*
X109363072Y-125243263D01*
X109469938Y-125276753D01*
X109543365Y-125283500D01*
X109546263Y-125283500D01*
X109800665Y-125283499D01*
X110056634Y-125283499D01*
X110059492Y-125283236D01*
X110059501Y-125283236D01*
X110095004Y-125279974D01*
X110130062Y-125276753D01*
X110175850Y-125262404D01*
X110286446Y-125227745D01*
X110293699Y-125225472D01*
X110293871Y-125226022D01*
X110358969Y-125216948D01*
X110423422Y-125246718D01*
X110461549Y-125306609D01*
X110466501Y-125341587D01*
X110466501Y-125431634D01*
X110466764Y-125434492D01*
X110466764Y-125434501D01*
X110468499Y-125453379D01*
X110473247Y-125505062D01*
X110475246Y-125511440D01*
X110475246Y-125511441D01*
X110515386Y-125639526D01*
X110524528Y-125668699D01*
X110613361Y-125815381D01*
X110711201Y-125913221D01*
X110742845Y-125975319D01*
X110744327Y-125974888D01*
X110744327Y-125974889D01*
X110747262Y-125984989D01*
X110749978Y-125994339D01*
X110753987Y-126013700D01*
X110756526Y-126033797D01*
X110759445Y-126041168D01*
X110759445Y-126041170D01*
X110772804Y-126074912D01*
X110776649Y-126086142D01*
X110786603Y-126120405D01*
X110788982Y-126128593D01*
X110793015Y-126135412D01*
X110793017Y-126135417D01*
X110799293Y-126146028D01*
X110807988Y-126163776D01*
X110815448Y-126182617D01*
X110820110Y-126189033D01*
X110820110Y-126189034D01*
X110841436Y-126218387D01*
X110847952Y-126228307D01*
X110864485Y-126256262D01*
X110870458Y-126266362D01*
X110884779Y-126280683D01*
X110897619Y-126295716D01*
X110909528Y-126312107D01*
X110915634Y-126317158D01*
X110943605Y-126340298D01*
X110952384Y-126348288D01*
X111041900Y-126437804D01*
X111075926Y-126500116D01*
X111070861Y-126570931D01*
X111028314Y-126627767D01*
X110992681Y-126646423D01*
X110893893Y-126679381D01*
X110880714Y-126685555D01*
X110747827Y-126767788D01*
X110736426Y-126776824D01*
X110626014Y-126887429D01*
X110617002Y-126898840D01*
X110534996Y-127031880D01*
X110528849Y-127045061D01*
X110479509Y-127193814D01*
X110476642Y-127207190D01*
X110467328Y-127298097D01*
X110467000Y-127304514D01*
X110467000Y-127327885D01*
X110471475Y-127343124D01*
X110472865Y-127344329D01*
X110480548Y-127346000D01*
X111553000Y-127346000D01*
X111621121Y-127366002D01*
X111667614Y-127419658D01*
X111679000Y-127472000D01*
X111679000Y-128564885D01*
X111683475Y-128580124D01*
X111684865Y-128581329D01*
X111692548Y-128583000D01*
X111695438Y-128583000D01*
X111701953Y-128582663D01*
X111794057Y-128573106D01*
X111807456Y-128570212D01*
X111956107Y-128520619D01*
X111969286Y-128514445D01*
X112102173Y-128432212D01*
X112119311Y-128418629D01*
X112120841Y-128420559D01*
X112172880Y-128392097D01*
X112243699Y-128397113D01*
X112280618Y-128420799D01*
X112281373Y-128419844D01*
X112287119Y-128424382D01*
X112292298Y-128429552D01*
X112294670Y-128431014D01*
X112334655Y-128487412D01*
X112341500Y-128528376D01*
X112341500Y-128742267D01*
X112333901Y-128785361D01*
X112284966Y-128919809D01*
X112284965Y-128919814D01*
X112282556Y-128926432D01*
X112261931Y-129089694D01*
X112277989Y-129253468D01*
X112329932Y-129409615D01*
X112337502Y-129422115D01*
X112374202Y-129482712D01*
X112415179Y-129550373D01*
X112420070Y-129555438D01*
X112420071Y-129555439D01*
X112438447Y-129574468D01*
X112529491Y-129668747D01*
X112667189Y-129758854D01*
X112821428Y-129816215D01*
X112828409Y-129817146D01*
X112828411Y-129817147D01*
X112977561Y-129837048D01*
X112977565Y-129837048D01*
X112984542Y-129837979D01*
X113002680Y-129836328D01*
X113072330Y-129850075D01*
X113123494Y-129899297D01*
X113139924Y-129968367D01*
X113116405Y-130035354D01*
X113103193Y-130050902D01*
X112807742Y-130346353D01*
X112799463Y-130353887D01*
X112792982Y-130358000D01*
X112772890Y-130379396D01*
X112746357Y-130407651D01*
X112743602Y-130410493D01*
X112723865Y-130430230D01*
X112721385Y-130433427D01*
X112713682Y-130442447D01*
X112683414Y-130474679D01*
X112679595Y-130481625D01*
X112679593Y-130481628D01*
X112673652Y-130492434D01*
X112662801Y-130508953D01*
X112650386Y-130524959D01*
X112647241Y-130532228D01*
X112647238Y-130532232D01*
X112632826Y-130565537D01*
X112627609Y-130576187D01*
X112606305Y-130614940D01*
X112601265Y-130634571D01*
X112594862Y-130653268D01*
X112594627Y-130653811D01*
X112579818Y-130679331D01*
X112524385Y-130753295D01*
X112473255Y-130889684D01*
X112466500Y-130951866D01*
X112466500Y-131626767D01*
X112446498Y-131694888D01*
X112392842Y-131741381D01*
X112322568Y-131751485D01*
X112263652Y-131725877D01*
X112262522Y-131724739D01*
X112256579Y-131720967D01*
X112256576Y-131720965D01*
X112180443Y-131672650D01*
X112123580Y-131636563D01*
X111968555Y-131581361D01*
X111908231Y-131574168D01*
X111842957Y-131546241D01*
X111834053Y-131538149D01*
X111470404Y-131174499D01*
X111436379Y-131112187D01*
X111433500Y-131085404D01*
X111433500Y-130951866D01*
X111426745Y-130889684D01*
X111375615Y-130753295D01*
X111288261Y-130636739D01*
X111171705Y-130549385D01*
X111035316Y-130498255D01*
X110973134Y-130491500D01*
X110426866Y-130491500D01*
X110364684Y-130498255D01*
X110228295Y-130549385D01*
X110111739Y-130636739D01*
X110024385Y-130753295D01*
X109973255Y-130889684D01*
X109966500Y-130951866D01*
X109966500Y-131648134D01*
X109973255Y-131710316D01*
X110024385Y-131846705D01*
X110111739Y-131963261D01*
X110228295Y-132050615D01*
X110364684Y-132101745D01*
X110426866Y-132108500D01*
X110560406Y-132108500D01*
X110628527Y-132128502D01*
X110649501Y-132145405D01*
X110880501Y-132376405D01*
X110914527Y-132438717D01*
X110909462Y-132509532D01*
X110866915Y-132566368D01*
X110800395Y-132591179D01*
X110791406Y-132591500D01*
X110426866Y-132591500D01*
X110364684Y-132598255D01*
X110228295Y-132649385D01*
X110111739Y-132736739D01*
X110024385Y-132853295D01*
X109973255Y-132989684D01*
X109966500Y-133051866D01*
X109966500Y-133748134D01*
X109973255Y-133810316D01*
X110024385Y-133946705D01*
X110111739Y-134063261D01*
X110228295Y-134150615D01*
X110364684Y-134201745D01*
X110426866Y-134208500D01*
X110973134Y-134208500D01*
X111035316Y-134201745D01*
X111171705Y-134150615D01*
X111178890Y-134145230D01*
X111178892Y-134145229D01*
X111227667Y-134108674D01*
X111294174Y-134083826D01*
X111303232Y-134083500D01*
X112596768Y-134083500D01*
X112664889Y-134103502D01*
X112672333Y-134108674D01*
X112721108Y-134145229D01*
X112721110Y-134145230D01*
X112728295Y-134150615D01*
X112864684Y-134201745D01*
X112926866Y-134208500D01*
X113473134Y-134208500D01*
X113535316Y-134201745D01*
X113671705Y-134150615D01*
X113725098Y-134110599D01*
X113796702Y-134085488D01*
X113852608Y-134083731D01*
X113857987Y-134083562D01*
X113861945Y-134083500D01*
X113889856Y-134083500D01*
X113893791Y-134083003D01*
X113893856Y-134082995D01*
X113905693Y-134082062D01*
X113937951Y-134081048D01*
X113941970Y-134080922D01*
X113949889Y-134080673D01*
X113969343Y-134075021D01*
X113988700Y-134071013D01*
X114000930Y-134069468D01*
X114000931Y-134069468D01*
X114008797Y-134068474D01*
X114016168Y-134065555D01*
X114016170Y-134065555D01*
X114049912Y-134052196D01*
X114061142Y-134048351D01*
X114095983Y-134038229D01*
X114095984Y-134038229D01*
X114103593Y-134036018D01*
X114110412Y-134031985D01*
X114110417Y-134031983D01*
X114121028Y-134025707D01*
X114138776Y-134017012D01*
X114157617Y-134009552D01*
X114193387Y-133983564D01*
X114203307Y-133977048D01*
X114234535Y-133958580D01*
X114234538Y-133958578D01*
X114241362Y-133954542D01*
X114255683Y-133940221D01*
X114270717Y-133927380D01*
X114280694Y-133920131D01*
X114287107Y-133915472D01*
X114315298Y-133881395D01*
X114323288Y-133872616D01*
X115292247Y-132903657D01*
X115300537Y-132896113D01*
X115307018Y-132892000D01*
X115353659Y-132842332D01*
X115356413Y-132839491D01*
X115376134Y-132819770D01*
X115378612Y-132816575D01*
X115386318Y-132807553D01*
X115411158Y-132781101D01*
X115416586Y-132775321D01*
X115426346Y-132757568D01*
X115437199Y-132741045D01*
X115444753Y-132731306D01*
X115449613Y-132725041D01*
X115467176Y-132684457D01*
X115472383Y-132673827D01*
X115493695Y-132635060D01*
X115495666Y-132627383D01*
X115495668Y-132627378D01*
X115498732Y-132615442D01*
X115505138Y-132596730D01*
X115507402Y-132591500D01*
X115513181Y-132578145D01*
X115514421Y-132570317D01*
X115514423Y-132570310D01*
X115520099Y-132534476D01*
X115522505Y-132522856D01*
X115531528Y-132487711D01*
X115531528Y-132487710D01*
X115533500Y-132480030D01*
X115533500Y-132459776D01*
X115535051Y-132440065D01*
X115536980Y-132427886D01*
X115538220Y-132420057D01*
X115534059Y-132376038D01*
X115533500Y-132364181D01*
X115533500Y-129447095D01*
X123967001Y-129447095D01*
X123967338Y-129453614D01*
X123977257Y-129549206D01*
X123980149Y-129562600D01*
X124031588Y-129716784D01*
X124037761Y-129729962D01*
X124123063Y-129867807D01*
X124132099Y-129879208D01*
X124246829Y-129993739D01*
X124258240Y-130002751D01*
X124396243Y-130087816D01*
X124409424Y-130093963D01*
X124563710Y-130145138D01*
X124577086Y-130148005D01*
X124671438Y-130157672D01*
X124677854Y-130158000D01*
X124927885Y-130158000D01*
X124943124Y-130153525D01*
X124944329Y-130152135D01*
X124946000Y-130144452D01*
X124946000Y-130139884D01*
X125454000Y-130139884D01*
X125458475Y-130155123D01*
X125459865Y-130156328D01*
X125467548Y-130157999D01*
X125722095Y-130157999D01*
X125728614Y-130157662D01*
X125824206Y-130147743D01*
X125837600Y-130144851D01*
X125991784Y-130093412D01*
X126004962Y-130087239D01*
X126142807Y-130001937D01*
X126154208Y-129992901D01*
X126268739Y-129878171D01*
X126277751Y-129866760D01*
X126362816Y-129728757D01*
X126368963Y-129715576D01*
X126420138Y-129561290D01*
X126423005Y-129547914D01*
X126432672Y-129453562D01*
X126433000Y-129447146D01*
X126433000Y-129422115D01*
X126428525Y-129406876D01*
X126427135Y-129405671D01*
X126419452Y-129404000D01*
X125472115Y-129404000D01*
X125456876Y-129408475D01*
X125455671Y-129409865D01*
X125454000Y-129417548D01*
X125454000Y-130139884D01*
X124946000Y-130139884D01*
X124946000Y-129422115D01*
X124941525Y-129406876D01*
X124940135Y-129405671D01*
X124932452Y-129404000D01*
X123985116Y-129404000D01*
X123969877Y-129408475D01*
X123968672Y-129409865D01*
X123967001Y-129417548D01*
X123967001Y-129447095D01*
X115533500Y-129447095D01*
X115533500Y-128514878D01*
X115553502Y-128446757D01*
X115607158Y-128400264D01*
X115677432Y-128390160D01*
X115731769Y-128411664D01*
X115734151Y-128413332D01*
X115738126Y-128416632D01*
X115931000Y-128529338D01*
X115935825Y-128531180D01*
X115935826Y-128531181D01*
X116008612Y-128558975D01*
X116139692Y-128609030D01*
X116144760Y-128610061D01*
X116144763Y-128610062D01*
X116239862Y-128629410D01*
X116358597Y-128653567D01*
X116363772Y-128653757D01*
X116363774Y-128653757D01*
X116576673Y-128661564D01*
X116576677Y-128661564D01*
X116581837Y-128661753D01*
X116586957Y-128661097D01*
X116586959Y-128661097D01*
X116798288Y-128634025D01*
X116798289Y-128634025D01*
X116803416Y-128633368D01*
X116808366Y-128631883D01*
X117012429Y-128570661D01*
X117012434Y-128570659D01*
X117017384Y-128569174D01*
X117217994Y-128470896D01*
X117399860Y-128341173D01*
X117431792Y-128309353D01*
X117543400Y-128198134D01*
X117558096Y-128183489D01*
X117575440Y-128159353D01*
X117688453Y-128002077D01*
X117689640Y-128002930D01*
X117736960Y-127959362D01*
X117806897Y-127947145D01*
X117872338Y-127974678D01*
X117900166Y-128006511D01*
X117957694Y-128100388D01*
X117963777Y-128108699D01*
X118103213Y-128269667D01*
X118110580Y-128276883D01*
X118274434Y-128412916D01*
X118282881Y-128418831D01*
X118466756Y-128526279D01*
X118476042Y-128530729D01*
X118675001Y-128606703D01*
X118684899Y-128609579D01*
X118788250Y-128630606D01*
X118802299Y-128629410D01*
X118806000Y-128619065D01*
X118806000Y-125983102D01*
X118802082Y-125969758D01*
X118787806Y-125967771D01*
X118749324Y-125973660D01*
X118739288Y-125976051D01*
X118536868Y-126042212D01*
X118527359Y-126046209D01*
X118338463Y-126144542D01*
X118329738Y-126150036D01*
X118159433Y-126277905D01*
X118151726Y-126284748D01*
X118004590Y-126438717D01*
X117998109Y-126446722D01*
X117893498Y-126600074D01*
X117838587Y-126645076D01*
X117768062Y-126653247D01*
X117704315Y-126621993D01*
X117683618Y-126597509D01*
X117602822Y-126472617D01*
X117602820Y-126472614D01*
X117600014Y-126468277D01*
X117449670Y-126303051D01*
X117445619Y-126299852D01*
X117445615Y-126299848D01*
X117278414Y-126167800D01*
X117278410Y-126167798D01*
X117274359Y-126164598D01*
X117238028Y-126144542D01*
X117163683Y-126103502D01*
X117078789Y-126056638D01*
X117073920Y-126054914D01*
X117073916Y-126054912D01*
X116873087Y-125983795D01*
X116873083Y-125983794D01*
X116868212Y-125982069D01*
X116863119Y-125981162D01*
X116863116Y-125981161D01*
X116653373Y-125943800D01*
X116653367Y-125943799D01*
X116648284Y-125942894D01*
X116574452Y-125941992D01*
X116430081Y-125940228D01*
X116430079Y-125940228D01*
X116424911Y-125940165D01*
X116204091Y-125973955D01*
X115991756Y-126043357D01*
X115913539Y-126084074D01*
X115814911Y-126135417D01*
X115793607Y-126146507D01*
X115789473Y-126149611D01*
X115735152Y-126190396D01*
X115668668Y-126215301D01*
X115599272Y-126200308D01*
X115548998Y-126150178D01*
X115533500Y-126089635D01*
X115533500Y-125521500D01*
X115553502Y-125453379D01*
X115607158Y-125406886D01*
X115659500Y-125395500D01*
X116082368Y-125395499D01*
X116102634Y-125395499D01*
X116105492Y-125395236D01*
X116105501Y-125395236D01*
X116141004Y-125391974D01*
X116176062Y-125388753D01*
X116193584Y-125383262D01*
X116332450Y-125339744D01*
X116332452Y-125339743D01*
X116339699Y-125337472D01*
X116486381Y-125248639D01*
X116581905Y-125153115D01*
X116644217Y-125119089D01*
X116715032Y-125124154D01*
X116760095Y-125153115D01*
X116855619Y-125248639D01*
X117002301Y-125337472D01*
X117009548Y-125339743D01*
X117009550Y-125339744D01*
X117075836Y-125360517D01*
X117165938Y-125388753D01*
X117239365Y-125395500D01*
X117242263Y-125395500D01*
X117496665Y-125395499D01*
X117752634Y-125395499D01*
X117755492Y-125395236D01*
X117755501Y-125395236D01*
X117791004Y-125391974D01*
X117826062Y-125388753D01*
X117843584Y-125383262D01*
X117982450Y-125339744D01*
X117982452Y-125339743D01*
X117989699Y-125337472D01*
X118136381Y-125248639D01*
X118257639Y-125127381D01*
X118270449Y-125106229D01*
X118322846Y-125058322D01*
X118378225Y-125045500D01*
X118440207Y-125045500D01*
X118463816Y-125047732D01*
X118464119Y-125047790D01*
X118464123Y-125047790D01*
X118471906Y-125049275D01*
X118527951Y-125045749D01*
X118535862Y-125045500D01*
X118551856Y-125045500D01*
X118567730Y-125043494D01*
X118575590Y-125042752D01*
X118603049Y-125041024D01*
X118623737Y-125039723D01*
X118623738Y-125039723D01*
X118631650Y-125039225D01*
X118639191Y-125036775D01*
X118639487Y-125036679D01*
X118662631Y-125031506D01*
X118662935Y-125031468D01*
X118662940Y-125031467D01*
X118670797Y-125030474D01*
X118678162Y-125027558D01*
X118678166Y-125027557D01*
X118723011Y-125009801D01*
X118730430Y-125007129D01*
X118783875Y-124989764D01*
X118790572Y-124985514D01*
X118790831Y-124985350D01*
X118811958Y-124974585D01*
X118812246Y-124974471D01*
X118812251Y-124974468D01*
X118819617Y-124971552D01*
X118826025Y-124966896D01*
X118826031Y-124966893D01*
X118865052Y-124938542D01*
X118871589Y-124934099D01*
X118919018Y-124904000D01*
X118924659Y-124897993D01*
X118942446Y-124882312D01*
X118942691Y-124882134D01*
X118942693Y-124882132D01*
X118949107Y-124877472D01*
X118976091Y-124844855D01*
X118984903Y-124834204D01*
X118990134Y-124828270D01*
X119023158Y-124793102D01*
X119023160Y-124793099D01*
X119028586Y-124787321D01*
X119032558Y-124780097D01*
X119045881Y-124760494D01*
X119046080Y-124760254D01*
X119046084Y-124760247D01*
X119051133Y-124754144D01*
X119075047Y-124703324D01*
X119078629Y-124696292D01*
X119105695Y-124647060D01*
X119107665Y-124639385D01*
X119107668Y-124639379D01*
X119107744Y-124639081D01*
X119115776Y-124616772D01*
X119115906Y-124616497D01*
X119115909Y-124616489D01*
X119119283Y-124609318D01*
X119129806Y-124554151D01*
X119131532Y-124546429D01*
X119143529Y-124499707D01*
X119143529Y-124499706D01*
X119145500Y-124492030D01*
X119145500Y-124483793D01*
X119147732Y-124460184D01*
X119147790Y-124459881D01*
X119147790Y-124459877D01*
X119149275Y-124452094D01*
X119145749Y-124396049D01*
X119145500Y-124388138D01*
X119145500Y-124139885D01*
X119767000Y-124139885D01*
X119771475Y-124155124D01*
X119772865Y-124156329D01*
X119780548Y-124158000D01*
X120402885Y-124158000D01*
X120418124Y-124153525D01*
X120419329Y-124152135D01*
X120421000Y-124144452D01*
X120421000Y-123447116D01*
X120416525Y-123431877D01*
X120415135Y-123430672D01*
X120410706Y-123429709D01*
X120351685Y-123435132D01*
X120338649Y-123437743D01*
X120188757Y-123484715D01*
X120175012Y-123490921D01*
X120041426Y-123571824D01*
X120029557Y-123581131D01*
X119919131Y-123691557D01*
X119909824Y-123703426D01*
X119828921Y-123837012D01*
X119822715Y-123850757D01*
X119775744Y-124000644D01*
X119773131Y-124013694D01*
X119767266Y-124077521D01*
X119767000Y-124083309D01*
X119767000Y-124139885D01*
X119145500Y-124139885D01*
X119145500Y-124002594D01*
X119165502Y-123934473D01*
X119182405Y-123913499D01*
X122301404Y-120794501D01*
X122363716Y-120760475D01*
X122434532Y-120765540D01*
X122491367Y-120808087D01*
X122516178Y-120874607D01*
X122516499Y-120883596D01*
X122516499Y-122735406D01*
X122496497Y-122803527D01*
X122479594Y-122824502D01*
X122204236Y-123099859D01*
X121932742Y-123371353D01*
X121924463Y-123378887D01*
X121917982Y-123383000D01*
X121878239Y-123425322D01*
X121871357Y-123432651D01*
X121868602Y-123435493D01*
X121848865Y-123455230D01*
X121846385Y-123458427D01*
X121838683Y-123467445D01*
X121818683Y-123488744D01*
X121792106Y-123510265D01*
X121684619Y-123575361D01*
X121588741Y-123671239D01*
X121526429Y-123705265D01*
X121455614Y-123700200D01*
X121410551Y-123671239D01*
X121320443Y-123581131D01*
X121308574Y-123571824D01*
X121174988Y-123490921D01*
X121161243Y-123484715D01*
X121011356Y-123437744D01*
X120998306Y-123435131D01*
X120943414Y-123430087D01*
X120931876Y-123433475D01*
X120930671Y-123434865D01*
X120929000Y-123442548D01*
X120929000Y-124540000D01*
X120908998Y-124608121D01*
X120855342Y-124654614D01*
X120803000Y-124666000D01*
X119785116Y-124666000D01*
X119769877Y-124670475D01*
X119768672Y-124671865D01*
X119767001Y-124679548D01*
X119767001Y-124740705D01*
X119767265Y-124746471D01*
X119769904Y-124775189D01*
X119756220Y-124844855D01*
X119710455Y-124894037D01*
X119587556Y-124969645D01*
X119581555Y-124973337D01*
X119538621Y-125015381D01*
X119486929Y-125066002D01*
X119463982Y-125088473D01*
X119374838Y-125226797D01*
X119372427Y-125233420D01*
X119372426Y-125233423D01*
X119320966Y-125374809D01*
X119320965Y-125374814D01*
X119318556Y-125381432D01*
X119297931Y-125544694D01*
X119313989Y-125708468D01*
X119355609Y-125833582D01*
X119358131Y-125904533D01*
X119321894Y-125965586D01*
X119319368Y-125967779D01*
X119314000Y-125984989D01*
X119314000Y-128618517D01*
X119318064Y-128632359D01*
X119331478Y-128634393D01*
X119338184Y-128633534D01*
X119348262Y-128631392D01*
X119552255Y-128570191D01*
X119561842Y-128566433D01*
X119753095Y-128472739D01*
X119761945Y-128467464D01*
X119935328Y-128343792D01*
X119943193Y-128337145D01*
X120047897Y-128232805D01*
X120110268Y-128198889D01*
X120181075Y-128204077D01*
X120237837Y-128246723D01*
X120254819Y-128277826D01*
X120270766Y-128320365D01*
X120299385Y-128396705D01*
X120386739Y-128513261D01*
X120503295Y-128600615D01*
X120639684Y-128651745D01*
X120701866Y-128658500D01*
X122498134Y-128658500D01*
X122560316Y-128651745D01*
X122696705Y-128600615D01*
X122813261Y-128513261D01*
X122900615Y-128396705D01*
X122951745Y-128260316D01*
X122958500Y-128198134D01*
X122958500Y-128059500D01*
X122978502Y-127991379D01*
X123032158Y-127944886D01*
X123084500Y-127933500D01*
X124034317Y-127933500D01*
X124102438Y-127953502D01*
X124126016Y-127974855D01*
X124126522Y-127974348D01*
X124251697Y-128099305D01*
X124256235Y-128102102D01*
X124296824Y-128159353D01*
X124300054Y-128230276D01*
X124264428Y-128291687D01*
X124255932Y-128299062D01*
X124245793Y-128307098D01*
X124131261Y-128421829D01*
X124122249Y-128433240D01*
X124037184Y-128571243D01*
X124031037Y-128584424D01*
X123979862Y-128738710D01*
X123976995Y-128752086D01*
X123967328Y-128846438D01*
X123967000Y-128852855D01*
X123967000Y-128877885D01*
X123971475Y-128893124D01*
X123972865Y-128894329D01*
X123980548Y-128896000D01*
X126414884Y-128896000D01*
X126430123Y-128891525D01*
X126431328Y-128890135D01*
X126432999Y-128882452D01*
X126432999Y-128852905D01*
X126432662Y-128846386D01*
X126422743Y-128750794D01*
X126419851Y-128737400D01*
X126377769Y-128611263D01*
X126375185Y-128540313D01*
X126411369Y-128479229D01*
X126474833Y-128447405D01*
X126545428Y-128454944D01*
X126586388Y-128482292D01*
X126867108Y-128763012D01*
X126897571Y-128812335D01*
X126929932Y-128909615D01*
X126933581Y-128915640D01*
X127008979Y-129040135D01*
X127015179Y-129050373D01*
X127129491Y-129168747D01*
X127267189Y-129258854D01*
X127421428Y-129316215D01*
X127428409Y-129317146D01*
X127428411Y-129317147D01*
X127577561Y-129337048D01*
X127577565Y-129337048D01*
X127584542Y-129337979D01*
X127591553Y-129337341D01*
X127591557Y-129337341D01*
X127741403Y-129323704D01*
X127741404Y-129323704D01*
X127748424Y-129323065D01*
X127904920Y-129272216D01*
X127975887Y-129270188D01*
X128036685Y-129306851D01*
X128068011Y-129370563D01*
X128059918Y-129441097D01*
X128032951Y-129481144D01*
X127407247Y-130106848D01*
X127358758Y-130137031D01*
X127262382Y-130169840D01*
X127262379Y-130169841D01*
X127255715Y-130172110D01*
X127158858Y-130231697D01*
X127138920Y-130243963D01*
X127115555Y-130258337D01*
X127070830Y-130302135D01*
X127013783Y-130358000D01*
X126997982Y-130373473D01*
X126908838Y-130511797D01*
X126906427Y-130518420D01*
X126906426Y-130518423D01*
X126854966Y-130659809D01*
X126854965Y-130659814D01*
X126852556Y-130666432D01*
X126831931Y-130829694D01*
X126847989Y-130993468D01*
X126899932Y-131149615D01*
X126985179Y-131290373D01*
X126990070Y-131295438D01*
X126990071Y-131295439D01*
X127038897Y-131346000D01*
X127099491Y-131408747D01*
X127237189Y-131498854D01*
X127391428Y-131556215D01*
X127398409Y-131557146D01*
X127398411Y-131557147D01*
X127547561Y-131577048D01*
X127547565Y-131577048D01*
X127554542Y-131577979D01*
X127561553Y-131577341D01*
X127561557Y-131577341D01*
X127711403Y-131563704D01*
X127711404Y-131563704D01*
X127718424Y-131563065D01*
X127747062Y-131553760D01*
X127868230Y-131514390D01*
X127868233Y-131514389D01*
X127874929Y-131512213D01*
X128016279Y-131427951D01*
X128016348Y-131427885D01*
X132292000Y-131427885D01*
X132296475Y-131443124D01*
X132297865Y-131444329D01*
X132305548Y-131446000D01*
X135427885Y-131446000D01*
X135443124Y-131441525D01*
X135444329Y-131440135D01*
X135446000Y-131432452D01*
X135446000Y-131427885D01*
X135954000Y-131427885D01*
X135958475Y-131443124D01*
X135959865Y-131444329D01*
X135967548Y-131446000D01*
X139089884Y-131446000D01*
X139105123Y-131441525D01*
X139106328Y-131440135D01*
X139107999Y-131432452D01*
X139107999Y-128455331D01*
X139107629Y-128448510D01*
X139102105Y-128397648D01*
X139098479Y-128382396D01*
X139053324Y-128261946D01*
X139044786Y-128246351D01*
X138968285Y-128144276D01*
X138955724Y-128131715D01*
X138853649Y-128055214D01*
X138838054Y-128046676D01*
X138717606Y-128001522D01*
X138702351Y-127997895D01*
X138651486Y-127992369D01*
X138644672Y-127992000D01*
X138580436Y-127992000D01*
X138512315Y-127971998D01*
X138465822Y-127918342D01*
X138455718Y-127848068D01*
X138462648Y-127821257D01*
X138466397Y-127811389D01*
X138514951Y-127683568D01*
X138528079Y-127590154D01*
X138537302Y-127524534D01*
X138537303Y-127524527D01*
X138537853Y-127520610D01*
X138538141Y-127500000D01*
X138519798Y-127336466D01*
X138513998Y-127319809D01*
X138465680Y-127181060D01*
X138467215Y-127180525D01*
X138457192Y-127118856D01*
X138485497Y-127053746D01*
X138544510Y-127014275D01*
X138582217Y-127008500D01*
X138628134Y-127008500D01*
X138690316Y-127001745D01*
X138826705Y-126950615D01*
X138943261Y-126863261D01*
X139030615Y-126746705D01*
X139081745Y-126610316D01*
X139088500Y-126548134D01*
X139088500Y-124251866D01*
X139081745Y-124189684D01*
X139030615Y-124053295D01*
X138943261Y-123936739D01*
X138826705Y-123849385D01*
X138690316Y-123798255D01*
X138628134Y-123791500D01*
X137331866Y-123791500D01*
X137269684Y-123798255D01*
X137133295Y-123849385D01*
X137016739Y-123936739D01*
X136940514Y-124038446D01*
X136940513Y-124038447D01*
X136883653Y-124080961D01*
X136812835Y-124085986D01*
X136750542Y-124051926D01*
X136738861Y-124038446D01*
X136668285Y-123944276D01*
X136655724Y-123931715D01*
X136553649Y-123855214D01*
X136538054Y-123846676D01*
X136417606Y-123801522D01*
X136402351Y-123797895D01*
X136351486Y-123792369D01*
X136344672Y-123792000D01*
X135972115Y-123792000D01*
X135956876Y-123796475D01*
X135955671Y-123797865D01*
X135954000Y-123805548D01*
X135954000Y-126989884D01*
X135958475Y-127005123D01*
X135959865Y-127006328D01*
X135967548Y-127007999D01*
X136344669Y-127007999D01*
X136351490Y-127007629D01*
X136402352Y-127002105D01*
X136417604Y-126998479D01*
X136538054Y-126953324D01*
X136553649Y-126944786D01*
X136655724Y-126868285D01*
X136668285Y-126855724D01*
X136738861Y-126761554D01*
X136795720Y-126719039D01*
X136866538Y-126714013D01*
X136928832Y-126748073D01*
X136940513Y-126761553D01*
X137016739Y-126863261D01*
X137023919Y-126868642D01*
X137023920Y-126868643D01*
X137116065Y-126937702D01*
X137158580Y-126994561D01*
X137166500Y-127038528D01*
X137166500Y-127091791D01*
X137146411Y-127160046D01*
X137138838Y-127171797D01*
X137136427Y-127178420D01*
X137136426Y-127178423D01*
X137084966Y-127319809D01*
X137084965Y-127319814D01*
X137082556Y-127326432D01*
X137061931Y-127489694D01*
X137077989Y-127653468D01*
X137129932Y-127809615D01*
X137132547Y-127813933D01*
X137142846Y-127883379D01*
X137113639Y-127948090D01*
X137054083Y-127986738D01*
X137018050Y-127992000D01*
X135972115Y-127992000D01*
X135956876Y-127996475D01*
X135955671Y-127997865D01*
X135954000Y-128005548D01*
X135954000Y-131427885D01*
X135446000Y-131427885D01*
X135446000Y-128010116D01*
X135441525Y-127994877D01*
X135440135Y-127993672D01*
X135432452Y-127992001D01*
X132755331Y-127992001D01*
X132748510Y-127992371D01*
X132697648Y-127997895D01*
X132682396Y-128001521D01*
X132561946Y-128046676D01*
X132546351Y-128055214D01*
X132444276Y-128131715D01*
X132431715Y-128144276D01*
X132355214Y-128246351D01*
X132346676Y-128261946D01*
X132301522Y-128382394D01*
X132297895Y-128397649D01*
X132292369Y-128448514D01*
X132292000Y-128455328D01*
X132292000Y-131427885D01*
X128016348Y-131427885D01*
X128135449Y-131314468D01*
X128151458Y-131290373D01*
X128222614Y-131183275D01*
X128222615Y-131183273D01*
X128226515Y-131177403D01*
X128276961Y-131044602D01*
X128305654Y-131000250D01*
X129407246Y-129898658D01*
X129415536Y-129891114D01*
X129422017Y-129887001D01*
X129468658Y-129837333D01*
X129471412Y-129834492D01*
X129491133Y-129814771D01*
X129493611Y-129811576D01*
X129501317Y-129802554D01*
X129526157Y-129776102D01*
X129531585Y-129770322D01*
X129541345Y-129752569D01*
X129552198Y-129736046D01*
X129559752Y-129726307D01*
X129564612Y-129720042D01*
X129582175Y-129679458D01*
X129587382Y-129668828D01*
X129608694Y-129630061D01*
X129610665Y-129622384D01*
X129610667Y-129622379D01*
X129613731Y-129610443D01*
X129620137Y-129591731D01*
X129621927Y-129587596D01*
X129628180Y-129573146D01*
X129629420Y-129565318D01*
X129629422Y-129565311D01*
X129635098Y-129529477D01*
X129637504Y-129517857D01*
X129646527Y-129482712D01*
X129646527Y-129482711D01*
X129648499Y-129475031D01*
X129648499Y-129454777D01*
X129650050Y-129435066D01*
X129651979Y-129422887D01*
X129653219Y-129415058D01*
X129649058Y-129371039D01*
X129648499Y-129359182D01*
X129648499Y-128110787D01*
X129668501Y-128042666D01*
X129722157Y-127996173D01*
X129792431Y-127986069D01*
X129840615Y-128003527D01*
X129896243Y-128037816D01*
X129909424Y-128043963D01*
X130063710Y-128095138D01*
X130077086Y-128098005D01*
X130171438Y-128107672D01*
X130177854Y-128108000D01*
X130427885Y-128108000D01*
X130443124Y-128103525D01*
X130444329Y-128102135D01*
X130446000Y-128094452D01*
X130446000Y-128089884D01*
X130954000Y-128089884D01*
X130958475Y-128105123D01*
X130959865Y-128106328D01*
X130967548Y-128107999D01*
X131222095Y-128107999D01*
X131228614Y-128107662D01*
X131324206Y-128097743D01*
X131337600Y-128094851D01*
X131491784Y-128043412D01*
X131504962Y-128037239D01*
X131642807Y-127951937D01*
X131654208Y-127942901D01*
X131768739Y-127828171D01*
X131777751Y-127816760D01*
X131862816Y-127678757D01*
X131868963Y-127665576D01*
X131920138Y-127511290D01*
X131923005Y-127497914D01*
X131932672Y-127403562D01*
X131933000Y-127397146D01*
X131933000Y-127372115D01*
X131928525Y-127356876D01*
X131927135Y-127355671D01*
X131919452Y-127354000D01*
X130972115Y-127354000D01*
X130956876Y-127358475D01*
X130955671Y-127359865D01*
X130954000Y-127367548D01*
X130954000Y-128089884D01*
X130446000Y-128089884D01*
X130446000Y-126972000D01*
X130466002Y-126903879D01*
X130519658Y-126857386D01*
X130572000Y-126846000D01*
X131914884Y-126846000D01*
X131930123Y-126841525D01*
X131931328Y-126840135D01*
X131932999Y-126832452D01*
X131932999Y-126802905D01*
X131932662Y-126796386D01*
X131922743Y-126700794D01*
X131919851Y-126687400D01*
X131868412Y-126533216D01*
X131862239Y-126520038D01*
X131776937Y-126382193D01*
X131767901Y-126370792D01*
X131653172Y-126256262D01*
X131644238Y-126249206D01*
X131603177Y-126191288D01*
X131599947Y-126120365D01*
X131635574Y-126058954D01*
X131643407Y-126052154D01*
X131649348Y-126048478D01*
X131774305Y-125923303D01*
X131792749Y-125893382D01*
X131845522Y-125845890D01*
X131900008Y-125833500D01*
X132185500Y-125833500D01*
X132253621Y-125853502D01*
X132300114Y-125907158D01*
X132311500Y-125959500D01*
X132311500Y-126548134D01*
X132318255Y-126610316D01*
X132369385Y-126746705D01*
X132456739Y-126863261D01*
X132573295Y-126950615D01*
X132709684Y-127001745D01*
X132771866Y-127008500D01*
X134068134Y-127008500D01*
X134130316Y-127001745D01*
X134266705Y-126950615D01*
X134383261Y-126863261D01*
X134459487Y-126761553D01*
X134516347Y-126719039D01*
X134587165Y-126714014D01*
X134649458Y-126748074D01*
X134661139Y-126761554D01*
X134731715Y-126855724D01*
X134744276Y-126868285D01*
X134846351Y-126944786D01*
X134861946Y-126953324D01*
X134982394Y-126998478D01*
X134997649Y-127002105D01*
X135048514Y-127007631D01*
X135055328Y-127008000D01*
X135427885Y-127008000D01*
X135443124Y-127003525D01*
X135444329Y-127002135D01*
X135446000Y-126994452D01*
X135446000Y-123810116D01*
X135441525Y-123794877D01*
X135440135Y-123793672D01*
X135432452Y-123792001D01*
X135055331Y-123792001D01*
X135048510Y-123792371D01*
X134997648Y-123797895D01*
X134982396Y-123801521D01*
X134861946Y-123846676D01*
X134846351Y-123855214D01*
X134744276Y-123931715D01*
X134731715Y-123944276D01*
X134661139Y-124038446D01*
X134604280Y-124080961D01*
X134533462Y-124085987D01*
X134471168Y-124051927D01*
X134459487Y-124038447D01*
X134459486Y-124038446D01*
X134383261Y-123936739D01*
X134266705Y-123849385D01*
X134130316Y-123798255D01*
X134068134Y-123791500D01*
X132771866Y-123791500D01*
X132709684Y-123798255D01*
X132573295Y-123849385D01*
X132456739Y-123936739D01*
X132369385Y-124053295D01*
X132318255Y-124189684D01*
X132311500Y-124251866D01*
X132311500Y-124440500D01*
X132291498Y-124508621D01*
X132237842Y-124555114D01*
X132185500Y-124566500D01*
X131899899Y-124566500D01*
X131831778Y-124546498D01*
X131792755Y-124506803D01*
X131777332Y-124481880D01*
X131773478Y-124475652D01*
X131757680Y-124459881D01*
X131653483Y-124355866D01*
X131648303Y-124350695D01*
X131614073Y-124329595D01*
X131503968Y-124261725D01*
X131503966Y-124261724D01*
X131497738Y-124257885D01*
X131417995Y-124231436D01*
X131336389Y-124204368D01*
X131336387Y-124204368D01*
X131329861Y-124202203D01*
X131323025Y-124201503D01*
X131323022Y-124201502D01*
X131279969Y-124197091D01*
X131225400Y-124191500D01*
X130608594Y-124191500D01*
X130540473Y-124171498D01*
X130493980Y-124117842D01*
X130483876Y-124047568D01*
X130513370Y-123982988D01*
X130519499Y-123976405D01*
X133636247Y-120859657D01*
X133644537Y-120852113D01*
X133651018Y-120848000D01*
X133697659Y-120798332D01*
X133700413Y-120795491D01*
X133720135Y-120775769D01*
X133722612Y-120772576D01*
X133730317Y-120763555D01*
X133755159Y-120737100D01*
X133760586Y-120731321D01*
X133764407Y-120724371D01*
X133770346Y-120713568D01*
X133781202Y-120697041D01*
X133788757Y-120687302D01*
X133788758Y-120687300D01*
X133793614Y-120681040D01*
X133811174Y-120640460D01*
X133816391Y-120629812D01*
X133833875Y-120598009D01*
X133833876Y-120598007D01*
X133837695Y-120591060D01*
X133842733Y-120571437D01*
X133849137Y-120552734D01*
X133854033Y-120541420D01*
X133854033Y-120541419D01*
X133857181Y-120534145D01*
X133858420Y-120526322D01*
X133858423Y-120526312D01*
X133864099Y-120490476D01*
X133866505Y-120478856D01*
X133875528Y-120443711D01*
X133875528Y-120443710D01*
X133877500Y-120436030D01*
X133877500Y-120415776D01*
X133879051Y-120396065D01*
X133880980Y-120383886D01*
X133882220Y-120376057D01*
X133878059Y-120332038D01*
X133877500Y-120320181D01*
X133877500Y-119646594D01*
X133897502Y-119578473D01*
X133914405Y-119557499D01*
X134001499Y-119470405D01*
X134063811Y-119436379D01*
X134090594Y-119433500D01*
X135165500Y-119433500D01*
X135233621Y-119453502D01*
X135280114Y-119507158D01*
X135291500Y-119559500D01*
X135291500Y-120548134D01*
X135298255Y-120610316D01*
X135349385Y-120746705D01*
X135436739Y-120863261D01*
X135553295Y-120950615D01*
X135689684Y-121001745D01*
X135751866Y-121008500D01*
X137148134Y-121008500D01*
X137210316Y-121001745D01*
X137346705Y-120950615D01*
X137463261Y-120863261D01*
X137550615Y-120746705D01*
X137601745Y-120610316D01*
X137608500Y-120548134D01*
X137608500Y-117051866D01*
X137607992Y-117047185D01*
X137607815Y-117045560D01*
X137601745Y-116989684D01*
X137550615Y-116853295D01*
X137463261Y-116736739D01*
X137346705Y-116649385D01*
X137210316Y-116598255D01*
X137148134Y-116591500D01*
X135751866Y-116591500D01*
X135689684Y-116598255D01*
X135553295Y-116649385D01*
X135436739Y-116736739D01*
X135349385Y-116853295D01*
X135298255Y-116989684D01*
X135292185Y-117045560D01*
X135292009Y-117047185D01*
X135291500Y-117051866D01*
X135291500Y-118040500D01*
X135271498Y-118108621D01*
X135217842Y-118155114D01*
X135165500Y-118166500D01*
X133854768Y-118166500D01*
X133843585Y-118165973D01*
X133836092Y-118164298D01*
X133828166Y-118164547D01*
X133828165Y-118164547D01*
X133768002Y-118166438D01*
X133764044Y-118166500D01*
X133736144Y-118166500D01*
X133732154Y-118167004D01*
X133720320Y-118167936D01*
X133676111Y-118169326D01*
X133668495Y-118171539D01*
X133668493Y-118171539D01*
X133656652Y-118174979D01*
X133637293Y-118178988D01*
X133635983Y-118179154D01*
X133617203Y-118181526D01*
X133609837Y-118184442D01*
X133609831Y-118184444D01*
X133576098Y-118197800D01*
X133564868Y-118201645D01*
X133530017Y-118211770D01*
X133522407Y-118213981D01*
X133515584Y-118218016D01*
X133504966Y-118224295D01*
X133487213Y-118232992D01*
X133479568Y-118236019D01*
X133468383Y-118240448D01*
X133461968Y-118245109D01*
X133432612Y-118266437D01*
X133422695Y-118272951D01*
X133384638Y-118295458D01*
X133370317Y-118309779D01*
X133355284Y-118322619D01*
X133338893Y-118334528D01*
X133312516Y-118366413D01*
X133310712Y-118368593D01*
X133302722Y-118377374D01*
X132851742Y-118828353D01*
X132843463Y-118835887D01*
X132836982Y-118840000D01*
X132799213Y-118880220D01*
X132790357Y-118889651D01*
X132787602Y-118892493D01*
X132767865Y-118912230D01*
X132765385Y-118915427D01*
X132757682Y-118924447D01*
X132727414Y-118956679D01*
X132723595Y-118963625D01*
X132723593Y-118963628D01*
X132717652Y-118974434D01*
X132706801Y-118990953D01*
X132694386Y-119006959D01*
X132691241Y-119014228D01*
X132691238Y-119014232D01*
X132676826Y-119047537D01*
X132671609Y-119058187D01*
X132650305Y-119096940D01*
X132648334Y-119104615D01*
X132648334Y-119104616D01*
X132645267Y-119116562D01*
X132638863Y-119135266D01*
X132630819Y-119153855D01*
X132629580Y-119161678D01*
X132629577Y-119161688D01*
X132623901Y-119197524D01*
X132621495Y-119209144D01*
X132613518Y-119240214D01*
X132610500Y-119251970D01*
X132610500Y-119272224D01*
X132608949Y-119291934D01*
X132605780Y-119311943D01*
X132609639Y-119352761D01*
X132609941Y-119355961D01*
X132610500Y-119367819D01*
X132610500Y-120041406D01*
X132590498Y-120109527D01*
X132573595Y-120130501D01*
X128374500Y-124329595D01*
X128312188Y-124363621D01*
X128285405Y-124366500D01*
X127892930Y-124366501D01*
X127868366Y-124366501D01*
X127865508Y-124366764D01*
X127865499Y-124366764D01*
X127829996Y-124370026D01*
X127794938Y-124373247D01*
X127788560Y-124375246D01*
X127788559Y-124375246D01*
X127638550Y-124422256D01*
X127638548Y-124422257D01*
X127631301Y-124424528D01*
X127484619Y-124513361D01*
X127363361Y-124634619D01*
X127274528Y-124781301D01*
X127272257Y-124788548D01*
X127272256Y-124788550D01*
X127257989Y-124834078D01*
X127223247Y-124944938D01*
X127216500Y-125018365D01*
X127216501Y-125531634D01*
X127223247Y-125605062D01*
X127225246Y-125611440D01*
X127225246Y-125611441D01*
X127264427Y-125736466D01*
X127274528Y-125768699D01*
X127363361Y-125915381D01*
X127459239Y-126011259D01*
X127493265Y-126073571D01*
X127488200Y-126144386D01*
X127459239Y-126189449D01*
X127369131Y-126279557D01*
X127359824Y-126291426D01*
X127278921Y-126425012D01*
X127272715Y-126438757D01*
X127225744Y-126588644D01*
X127223131Y-126601694D01*
X127218087Y-126656586D01*
X127221475Y-126668124D01*
X127222865Y-126669329D01*
X127230548Y-126671000D01*
X128256506Y-126671000D01*
X128324627Y-126691002D01*
X128371120Y-126744658D01*
X128380319Y-126804971D01*
X128381499Y-126804971D01*
X128381499Y-126825225D01*
X128379948Y-126844935D01*
X128376779Y-126864944D01*
X128380460Y-126903879D01*
X128380940Y-126908962D01*
X128381499Y-126920820D01*
X128381499Y-128040251D01*
X128361497Y-128108372D01*
X128307841Y-128154865D01*
X128237567Y-128164969D01*
X128172987Y-128135475D01*
X128166093Y-128129035D01*
X128067486Y-128029737D01*
X128067482Y-128029734D01*
X128062522Y-128024739D01*
X128020176Y-127997865D01*
X127995210Y-127982021D01*
X127948412Y-127928631D01*
X127937907Y-127858416D01*
X127939605Y-127848852D01*
X127946000Y-127819455D01*
X127946000Y-127197115D01*
X127941525Y-127181876D01*
X127940135Y-127180671D01*
X127932452Y-127179000D01*
X127235116Y-127179000D01*
X127185556Y-127193552D01*
X127183515Y-127194863D01*
X127112518Y-127194843D01*
X127058958Y-127163053D01*
X126803647Y-126907742D01*
X126796113Y-126899463D01*
X126792000Y-126892982D01*
X126742348Y-126846356D01*
X126739507Y-126843602D01*
X126719770Y-126823865D01*
X126716573Y-126821385D01*
X126707551Y-126813680D01*
X126706715Y-126812895D01*
X126675321Y-126783414D01*
X126668375Y-126779595D01*
X126668372Y-126779593D01*
X126657566Y-126773652D01*
X126641047Y-126762801D01*
X126639438Y-126761553D01*
X126625041Y-126750386D01*
X126617772Y-126747241D01*
X126617768Y-126747238D01*
X126584463Y-126732826D01*
X126573813Y-126727609D01*
X126535060Y-126706305D01*
X126515437Y-126701267D01*
X126496734Y-126694863D01*
X126485420Y-126689967D01*
X126485419Y-126689967D01*
X126478145Y-126686819D01*
X126470322Y-126685580D01*
X126470312Y-126685577D01*
X126434476Y-126679901D01*
X126422859Y-126677496D01*
X126415676Y-126675652D01*
X126406100Y-126673193D01*
X126345093Y-126636882D01*
X126330287Y-126617454D01*
X126321009Y-126602460D01*
X126273478Y-126525652D01*
X126148303Y-126400695D01*
X126133386Y-126391500D01*
X126003968Y-126311725D01*
X126003966Y-126311724D01*
X125997738Y-126307885D01*
X125885188Y-126270554D01*
X125836389Y-126254368D01*
X125836387Y-126254368D01*
X125829861Y-126252203D01*
X125823025Y-126251503D01*
X125823022Y-126251502D01*
X125779969Y-126247091D01*
X125725400Y-126241500D01*
X124674600Y-126241500D01*
X124671354Y-126241837D01*
X124671350Y-126241837D01*
X124575692Y-126251762D01*
X124575688Y-126251763D01*
X124568834Y-126252474D01*
X124562298Y-126254655D01*
X124562296Y-126254655D01*
X124472097Y-126284748D01*
X124401054Y-126308450D01*
X124250652Y-126401522D01*
X124125695Y-126526697D01*
X124121855Y-126532927D01*
X124121854Y-126532928D01*
X124076432Y-126606616D01*
X124023660Y-126654109D01*
X123969172Y-126666500D01*
X123084500Y-126666500D01*
X123016379Y-126646498D01*
X122969886Y-126592842D01*
X122958500Y-126540500D01*
X122958500Y-126401866D01*
X122951745Y-126339684D01*
X122900615Y-126203295D01*
X122813261Y-126086739D01*
X122696705Y-125999385D01*
X122560316Y-125948255D01*
X122498134Y-125941500D01*
X121370594Y-125941500D01*
X121302473Y-125921498D01*
X121281499Y-125904595D01*
X120969495Y-125592591D01*
X120935469Y-125530279D01*
X120940534Y-125459464D01*
X120983081Y-125402628D01*
X121020911Y-125383262D01*
X121161243Y-125339285D01*
X121174988Y-125333079D01*
X121308574Y-125252176D01*
X121320443Y-125242869D01*
X121410551Y-125152761D01*
X121472863Y-125118735D01*
X121543678Y-125123800D01*
X121588741Y-125152761D01*
X121684619Y-125248639D01*
X121831301Y-125337472D01*
X121838548Y-125339743D01*
X121838550Y-125339744D01*
X121904836Y-125360517D01*
X121994938Y-125388753D01*
X122068365Y-125395500D01*
X122071263Y-125395500D01*
X122325665Y-125395499D01*
X122581634Y-125395499D01*
X122584492Y-125395236D01*
X122584501Y-125395236D01*
X122620004Y-125391974D01*
X122655062Y-125388753D01*
X122672584Y-125383262D01*
X122811450Y-125339744D01*
X122811452Y-125339743D01*
X122818699Y-125337472D01*
X122965381Y-125248639D01*
X123086639Y-125127381D01*
X123175472Y-124980699D01*
X123226753Y-124817062D01*
X123233500Y-124743635D01*
X123233499Y-124080366D01*
X123231785Y-124061703D01*
X123229648Y-124038446D01*
X123226753Y-124006938D01*
X123216695Y-123974843D01*
X123215410Y-123903862D01*
X123247834Y-123848070D01*
X123380437Y-123715468D01*
X123542257Y-123553648D01*
X123550536Y-123546114D01*
X123557017Y-123542001D01*
X123603643Y-123492349D01*
X123606397Y-123489508D01*
X123626134Y-123469771D01*
X123628614Y-123466574D01*
X123636319Y-123457552D01*
X123666585Y-123425322D01*
X123670404Y-123418376D01*
X123670406Y-123418373D01*
X123676347Y-123407567D01*
X123687198Y-123391048D01*
X123688956Y-123388781D01*
X123699613Y-123375042D01*
X123702758Y-123367773D01*
X123702761Y-123367769D01*
X123717173Y-123334464D01*
X123722390Y-123323814D01*
X123743694Y-123285061D01*
X123748732Y-123265438D01*
X123755136Y-123246735D01*
X123760032Y-123235421D01*
X123760032Y-123235420D01*
X123763180Y-123228146D01*
X123764419Y-123220323D01*
X123764422Y-123220313D01*
X123770098Y-123184477D01*
X123772504Y-123172857D01*
X123781527Y-123137712D01*
X123781527Y-123137711D01*
X123783499Y-123130031D01*
X123783499Y-123109777D01*
X123785050Y-123090066D01*
X123786979Y-123077887D01*
X123788219Y-123070058D01*
X123784058Y-123026039D01*
X123783499Y-123014182D01*
X123783499Y-119381272D01*
X123803501Y-119313151D01*
X123857157Y-119266658D01*
X123927431Y-119256554D01*
X123995751Y-119289422D01*
X124018894Y-119311155D01*
X124018901Y-119311160D01*
X124024679Y-119316586D01*
X124031628Y-119320406D01*
X124042432Y-119326346D01*
X124058956Y-119337199D01*
X124074959Y-119349613D01*
X124115543Y-119367176D01*
X124126173Y-119372383D01*
X124164940Y-119393695D01*
X124172617Y-119395666D01*
X124172622Y-119395668D01*
X124184558Y-119398732D01*
X124203266Y-119405137D01*
X124221855Y-119413181D01*
X124229680Y-119414420D01*
X124229682Y-119414421D01*
X124265519Y-119420097D01*
X124277140Y-119422504D01*
X124312289Y-119431528D01*
X124319970Y-119433500D01*
X124340231Y-119433500D01*
X124359940Y-119435051D01*
X124379943Y-119438219D01*
X124387835Y-119437473D01*
X124393062Y-119436979D01*
X124423954Y-119434059D01*
X124435811Y-119433500D01*
X126465500Y-119433500D01*
X126533621Y-119453502D01*
X126580114Y-119507158D01*
X126591500Y-119559500D01*
X126591500Y-120548134D01*
X126598255Y-120610316D01*
X126649385Y-120746705D01*
X126736739Y-120863261D01*
X126853295Y-120950615D01*
X126989684Y-121001745D01*
X127051866Y-121008500D01*
X128448134Y-121008500D01*
X128510316Y-121001745D01*
X128646705Y-120950615D01*
X128763261Y-120863261D01*
X128850615Y-120746705D01*
X128901745Y-120610316D01*
X128908500Y-120548134D01*
X128908500Y-117051866D01*
X128907992Y-117047185D01*
X128907815Y-117045560D01*
X128901745Y-116989684D01*
X128850615Y-116853295D01*
X128763261Y-116736739D01*
X128646705Y-116649385D01*
X128510316Y-116598255D01*
X128448134Y-116591500D01*
X127051866Y-116591500D01*
X126989684Y-116598255D01*
X126853295Y-116649385D01*
X126736739Y-116736739D01*
X126649385Y-116853295D01*
X126598255Y-116989684D01*
X126592185Y-117045560D01*
X126592009Y-117047185D01*
X126591500Y-117051866D01*
X126591500Y-118040500D01*
X126571498Y-118108621D01*
X126517842Y-118155114D01*
X126465500Y-118166500D01*
X124714595Y-118166500D01*
X124646474Y-118146498D01*
X124625500Y-118129595D01*
X124433486Y-117937581D01*
X124403590Y-117889923D01*
X124367998Y-117787717D01*
X124365680Y-117781060D01*
X124278476Y-117641505D01*
X124220499Y-117583122D01*
X124167486Y-117529737D01*
X124167482Y-117529734D01*
X124162522Y-117524739D01*
X124023580Y-117436563D01*
X123868555Y-117381361D01*
X123869517Y-117378658D01*
X123818993Y-117350014D01*
X123785967Y-117287166D01*
X123783499Y-117262352D01*
X123783499Y-116506511D01*
X123803501Y-116438390D01*
X123822608Y-116415264D01*
X123823224Y-116414678D01*
X123852137Y-116387145D01*
X123860347Y-116379327D01*
X123860349Y-116379325D01*
X123865449Y-116374468D01*
X123878639Y-116354616D01*
X123952614Y-116243275D01*
X123952615Y-116243273D01*
X123956515Y-116237403D01*
X124014951Y-116083568D01*
X124025576Y-116007966D01*
X124037302Y-115924534D01*
X124037303Y-115924527D01*
X124037853Y-115920610D01*
X124038141Y-115900000D01*
X124019798Y-115736466D01*
X123965680Y-115581060D01*
X123952307Y-115559658D01*
X123882209Y-115447479D01*
X123878476Y-115441505D01*
X123818333Y-115380941D01*
X123767486Y-115329737D01*
X123767482Y-115329734D01*
X123762522Y-115324739D01*
X123623580Y-115236563D01*
X123574447Y-115219068D01*
X123475189Y-115183723D01*
X123475187Y-115183722D01*
X123468555Y-115181361D01*
X123461567Y-115180528D01*
X123461564Y-115180527D01*
X123344581Y-115166578D01*
X123279308Y-115138651D01*
X123239495Y-115079867D01*
X123233500Y-115041464D01*
X123233500Y-114557182D01*
X123253502Y-114489061D01*
X123261425Y-114478300D01*
X123265449Y-114474468D01*
X123273570Y-114462245D01*
X123352614Y-114343275D01*
X123352615Y-114343273D01*
X123356515Y-114337403D01*
X123414951Y-114183568D01*
X123427249Y-114096062D01*
X123437302Y-114024534D01*
X123437303Y-114024527D01*
X123437853Y-114020610D01*
X123438141Y-114000000D01*
X123419798Y-113836466D01*
X123365680Y-113681060D01*
X123354411Y-113663025D01*
X123282209Y-113547479D01*
X123278476Y-113541505D01*
X123213923Y-113476500D01*
X123167486Y-113429737D01*
X123167482Y-113429734D01*
X123162522Y-113424739D01*
X123023580Y-113336563D01*
X122943203Y-113307942D01*
X122875189Y-113283723D01*
X122875187Y-113283722D01*
X122868555Y-113281361D01*
X122861567Y-113280528D01*
X122861564Y-113280527D01*
X122744581Y-113266578D01*
X122679308Y-113238651D01*
X122639495Y-113179867D01*
X122633500Y-113141464D01*
X122633500Y-112778768D01*
X122634028Y-112767580D01*
X122635702Y-112760092D01*
X122635453Y-112752173D01*
X122635882Y-112747638D01*
X122662208Y-112681703D01*
X122720002Y-112640468D01*
X122761322Y-112633500D01*
X125621425Y-112633500D01*
X125689546Y-112653502D01*
X125736039Y-112707158D01*
X125746688Y-112745892D01*
X125748255Y-112760316D01*
X125799385Y-112896705D01*
X125886739Y-113013261D01*
X126003295Y-113100615D01*
X126139684Y-113151745D01*
X126201866Y-113158500D01*
X126598134Y-113158500D01*
X126660316Y-113151745D01*
X126796705Y-113100615D01*
X126824436Y-113079832D01*
X126890943Y-113054985D01*
X126960325Y-113070039D01*
X126975564Y-113079832D01*
X127003295Y-113100615D01*
X127139684Y-113151745D01*
X127201866Y-113158500D01*
X127598134Y-113158500D01*
X127660316Y-113151745D01*
X127796705Y-113100615D01*
X127824436Y-113079832D01*
X127890943Y-113054985D01*
X127960325Y-113070039D01*
X127975564Y-113079832D01*
X128003295Y-113100615D01*
X128139684Y-113151745D01*
X128201866Y-113158500D01*
X128598134Y-113158500D01*
X128660316Y-113151745D01*
X128796705Y-113100615D01*
X128824852Y-113079520D01*
X128891358Y-113054672D01*
X128960741Y-113069725D01*
X128975982Y-113079520D01*
X128996351Y-113094786D01*
X129011946Y-113103324D01*
X129132394Y-113148478D01*
X129147649Y-113152105D01*
X129198514Y-113157631D01*
X129205328Y-113158000D01*
X129231885Y-113158000D01*
X129247124Y-113153525D01*
X129248329Y-113152135D01*
X129250000Y-113144452D01*
X129250000Y-113139884D01*
X129550000Y-113139884D01*
X129554475Y-113155123D01*
X129555865Y-113156328D01*
X129563548Y-113157999D01*
X129594669Y-113157999D01*
X129601490Y-113157629D01*
X129652352Y-113152105D01*
X129667604Y-113148479D01*
X129788054Y-113103324D01*
X129803649Y-113094786D01*
X129824018Y-113079520D01*
X129890525Y-113054672D01*
X129959907Y-113069725D01*
X129975148Y-113079520D01*
X130003295Y-113100615D01*
X130139684Y-113151745D01*
X130201866Y-113158500D01*
X130598134Y-113158500D01*
X130660316Y-113151745D01*
X130796705Y-113100615D01*
X130824436Y-113079832D01*
X130890943Y-113054985D01*
X130960325Y-113070039D01*
X130975564Y-113079832D01*
X131003295Y-113100615D01*
X131139684Y-113151745D01*
X131201866Y-113158500D01*
X131598134Y-113158500D01*
X131660316Y-113151745D01*
X131796705Y-113100615D01*
X131824436Y-113079832D01*
X131890943Y-113054985D01*
X131960325Y-113070039D01*
X131975564Y-113079832D01*
X132003295Y-113100615D01*
X132139684Y-113151745D01*
X132201866Y-113158500D01*
X132598134Y-113158500D01*
X132660316Y-113151745D01*
X132796705Y-113100615D01*
X132824436Y-113079832D01*
X132890943Y-113054985D01*
X132960325Y-113070039D01*
X132975564Y-113079832D01*
X133003295Y-113100615D01*
X133139684Y-113151745D01*
X133201866Y-113158500D01*
X133598134Y-113158500D01*
X133660316Y-113151745D01*
X133796705Y-113100615D01*
X133824436Y-113079832D01*
X133890943Y-113054985D01*
X133960325Y-113070039D01*
X133975564Y-113079832D01*
X134003295Y-113100615D01*
X134139684Y-113151745D01*
X134201866Y-113158500D01*
X134598134Y-113158500D01*
X134660316Y-113151745D01*
X134796705Y-113100615D01*
X134824436Y-113079832D01*
X134890943Y-113054985D01*
X134960325Y-113070039D01*
X134975564Y-113079832D01*
X135003295Y-113100615D01*
X135139684Y-113151745D01*
X135201866Y-113158500D01*
X135598134Y-113158500D01*
X135660316Y-113151745D01*
X135796705Y-113100615D01*
X135913261Y-113013261D01*
X136000615Y-112896705D01*
X136051745Y-112760316D01*
X136058500Y-112698134D01*
X136058500Y-111301866D01*
X136051745Y-111239684D01*
X136000615Y-111103295D01*
X135913261Y-110986739D01*
X135796705Y-110899385D01*
X135660316Y-110848255D01*
X135598134Y-110841500D01*
X135201866Y-110841500D01*
X135139684Y-110848255D01*
X135003295Y-110899385D01*
X134981006Y-110916089D01*
X134975564Y-110920168D01*
X134909057Y-110945015D01*
X134839675Y-110929961D01*
X134824436Y-110920168D01*
X134818994Y-110916089D01*
X134796705Y-110899385D01*
X134660316Y-110848255D01*
X134598134Y-110841500D01*
X134201866Y-110841500D01*
X134139684Y-110848255D01*
X134003295Y-110899385D01*
X133981006Y-110916089D01*
X133975564Y-110920168D01*
X133909057Y-110945015D01*
X133839675Y-110929961D01*
X133824436Y-110920168D01*
X133818994Y-110916089D01*
X133796705Y-110899385D01*
X133660316Y-110848255D01*
X133598134Y-110841500D01*
X133201866Y-110841500D01*
X133139684Y-110848255D01*
X133003295Y-110899385D01*
X132981006Y-110916089D01*
X132975564Y-110920168D01*
X132909057Y-110945015D01*
X132839675Y-110929961D01*
X132824436Y-110920168D01*
X132818994Y-110916089D01*
X132796705Y-110899385D01*
X132660316Y-110848255D01*
X132598134Y-110841500D01*
X132201866Y-110841500D01*
X132198471Y-110841869D01*
X132198467Y-110841869D01*
X132173107Y-110844624D01*
X132103225Y-110832096D01*
X132051209Y-110783775D01*
X132033500Y-110719361D01*
X132033500Y-110348134D01*
X136591500Y-110348134D01*
X136598255Y-110410316D01*
X136649385Y-110546705D01*
X136736739Y-110663261D01*
X136853295Y-110750615D01*
X136989684Y-110801745D01*
X137051866Y-110808500D01*
X138748134Y-110808500D01*
X138810316Y-110801745D01*
X138946705Y-110750615D01*
X139063261Y-110663261D01*
X139150615Y-110546705D01*
X139201745Y-110410316D01*
X139208500Y-110348134D01*
X139208500Y-107451866D01*
X139201745Y-107389684D01*
X139150615Y-107253295D01*
X139063261Y-107136739D01*
X138946705Y-107049385D01*
X138810316Y-106998255D01*
X138748134Y-106991500D01*
X137051866Y-106991500D01*
X136989684Y-106998255D01*
X136853295Y-107049385D01*
X136736739Y-107136739D01*
X136649385Y-107253295D01*
X136598255Y-107389684D01*
X136591500Y-107451866D01*
X136591500Y-110348134D01*
X132033500Y-110348134D01*
X132033500Y-107310086D01*
X132051458Y-107250599D01*
X132049396Y-107249539D01*
X132052621Y-107243265D01*
X132056515Y-107237403D01*
X132059880Y-107228546D01*
X132093236Y-107140734D01*
X132114951Y-107083568D01*
X132123507Y-107022689D01*
X132137302Y-106924534D01*
X132137303Y-106924527D01*
X132137853Y-106920610D01*
X132138141Y-106900000D01*
X132119798Y-106736466D01*
X132113998Y-106719809D01*
X132067998Y-106587717D01*
X132065680Y-106581060D01*
X131978476Y-106441505D01*
X131920499Y-106383122D01*
X131867486Y-106329737D01*
X131867482Y-106329734D01*
X131862522Y-106324739D01*
X131723580Y-106236563D01*
X131671126Y-106217885D01*
X131575189Y-106183723D01*
X131575187Y-106183722D01*
X131568555Y-106181361D01*
X131561569Y-106180528D01*
X131561565Y-106180527D01*
X131447071Y-106166875D01*
X131405153Y-106161877D01*
X131398150Y-106162613D01*
X131398149Y-106162613D01*
X131354935Y-106167155D01*
X131241495Y-106179078D01*
X131234827Y-106181348D01*
X131092382Y-106229840D01*
X131092379Y-106229841D01*
X131085715Y-106232110D01*
X130988858Y-106291697D01*
X130964029Y-106306972D01*
X130945555Y-106318337D01*
X130827982Y-106433473D01*
X130738838Y-106571797D01*
X130736427Y-106578420D01*
X130736426Y-106578423D01*
X130684966Y-106719809D01*
X130684965Y-106719814D01*
X130682556Y-106726432D01*
X130668558Y-106837239D01*
X130666303Y-106855086D01*
X130637921Y-106920163D01*
X130578861Y-106959564D01*
X130526379Y-106964408D01*
X130505153Y-106961877D01*
X130498150Y-106962613D01*
X130498149Y-106962613D01*
X130454935Y-106967155D01*
X130341495Y-106979078D01*
X130334827Y-106981348D01*
X130192382Y-107029840D01*
X130192379Y-107029841D01*
X130185715Y-107032110D01*
X130136133Y-107062613D01*
X130056672Y-107111498D01*
X130045555Y-107118337D01*
X129993479Y-107169334D01*
X129951840Y-107210110D01*
X129927982Y-107233473D01*
X129838838Y-107371797D01*
X129836427Y-107378420D01*
X129836426Y-107378423D01*
X129784966Y-107519809D01*
X129784965Y-107519814D01*
X129782556Y-107526432D01*
X129761931Y-107689694D01*
X129765764Y-107728782D01*
X129764813Y-107760791D01*
X129763020Y-107772110D01*
X129763020Y-107772115D01*
X129761780Y-107779943D01*
X129762526Y-107787835D01*
X129765941Y-107823961D01*
X129766500Y-107835819D01*
X129766500Y-110719866D01*
X129746498Y-110787987D01*
X129692842Y-110834480D01*
X129626892Y-110845129D01*
X129601486Y-110842369D01*
X129594672Y-110842000D01*
X129568115Y-110842000D01*
X129552876Y-110846475D01*
X129551671Y-110847865D01*
X129550000Y-110855548D01*
X129550000Y-113139884D01*
X129250000Y-113139884D01*
X129250000Y-110860116D01*
X129245525Y-110844877D01*
X129244135Y-110843672D01*
X129236452Y-110842001D01*
X129205331Y-110842001D01*
X129198510Y-110842371D01*
X129147648Y-110847895D01*
X129132396Y-110851521D01*
X129011946Y-110896676D01*
X128996351Y-110905214D01*
X128975982Y-110920480D01*
X128909475Y-110945328D01*
X128840093Y-110930275D01*
X128824852Y-110920480D01*
X128823047Y-110919127D01*
X128796705Y-110899385D01*
X128660316Y-110848255D01*
X128598134Y-110841500D01*
X128201866Y-110841500D01*
X128198471Y-110841869D01*
X128198467Y-110841869D01*
X128173107Y-110844624D01*
X128103225Y-110832096D01*
X128051209Y-110783775D01*
X128033500Y-110719361D01*
X128033500Y-108078767D01*
X128034027Y-108067584D01*
X128035702Y-108060091D01*
X128035399Y-108050432D01*
X128033562Y-107992014D01*
X128033500Y-107988055D01*
X128033500Y-107960144D01*
X128032995Y-107956144D01*
X128032062Y-107944301D01*
X128031796Y-107935819D01*
X128030673Y-107900111D01*
X128025021Y-107880657D01*
X128021013Y-107861300D01*
X128019468Y-107849070D01*
X128019468Y-107849069D01*
X128018474Y-107841203D01*
X128013989Y-107829875D01*
X128002196Y-107800088D01*
X127998351Y-107788858D01*
X127988229Y-107754017D01*
X127988229Y-107754016D01*
X127986018Y-107746407D01*
X127981985Y-107739588D01*
X127981983Y-107739583D01*
X127975707Y-107728972D01*
X127967012Y-107711224D01*
X127959552Y-107692383D01*
X127954533Y-107685474D01*
X127933564Y-107656613D01*
X127927048Y-107646693D01*
X127908578Y-107615463D01*
X127904542Y-107608638D01*
X127898936Y-107603031D01*
X127890220Y-107594315D01*
X127877379Y-107579281D01*
X127870131Y-107569305D01*
X127870130Y-107569304D01*
X127865472Y-107562893D01*
X127841348Y-107542936D01*
X127802674Y-107487290D01*
X127786055Y-107439569D01*
X127765680Y-107381060D01*
X127678476Y-107241505D01*
X127602491Y-107164988D01*
X127567486Y-107129737D01*
X127567482Y-107129734D01*
X127562522Y-107124739D01*
X127423580Y-107036563D01*
X127323789Y-107001029D01*
X127275189Y-106983723D01*
X127275187Y-106983722D01*
X127268555Y-106981361D01*
X127261569Y-106980528D01*
X127261565Y-106980527D01*
X127147071Y-106966875D01*
X127105153Y-106961877D01*
X127098150Y-106962613D01*
X127098149Y-106962613D01*
X127054935Y-106967155D01*
X126941495Y-106979078D01*
X126934827Y-106981348D01*
X126792382Y-107029840D01*
X126792379Y-107029841D01*
X126785715Y-107032110D01*
X126736133Y-107062613D01*
X126656672Y-107111498D01*
X126645555Y-107118337D01*
X126593479Y-107169334D01*
X126551840Y-107210110D01*
X126527982Y-107233473D01*
X126438838Y-107371797D01*
X126436427Y-107378420D01*
X126436426Y-107378423D01*
X126384966Y-107519809D01*
X126384965Y-107519814D01*
X126382556Y-107526432D01*
X126361931Y-107689694D01*
X126377989Y-107853468D01*
X126429932Y-108009615D01*
X126436226Y-108020008D01*
X126500115Y-108125499D01*
X126515179Y-108150373D01*
X126520070Y-108155438D01*
X126520071Y-108155439D01*
X126577196Y-108214594D01*
X126629491Y-108268747D01*
X126635383Y-108272602D01*
X126635387Y-108272606D01*
X126709493Y-108321099D01*
X126755542Y-108375136D01*
X126766500Y-108426531D01*
X126766500Y-110719361D01*
X126746498Y-110787482D01*
X126692842Y-110833975D01*
X126626893Y-110844624D01*
X126601533Y-110841869D01*
X126601529Y-110841869D01*
X126598134Y-110841500D01*
X126201866Y-110841500D01*
X126139684Y-110848255D01*
X126003295Y-110899385D01*
X125886739Y-110986739D01*
X125799385Y-111103295D01*
X125748255Y-111239684D01*
X125747402Y-111247540D01*
X125746688Y-111254108D01*
X125719446Y-111319670D01*
X125661083Y-111360096D01*
X125621425Y-111366500D01*
X122726425Y-111366500D01*
X122658304Y-111346498D01*
X122619571Y-111307270D01*
X122586351Y-111254108D01*
X122578476Y-111241505D01*
X122488010Y-111150405D01*
X122467486Y-111129737D01*
X122467482Y-111129734D01*
X122462522Y-111124739D01*
X122323580Y-111036563D01*
X122203822Y-110993919D01*
X122175189Y-110983723D01*
X122175187Y-110983722D01*
X122168555Y-110981361D01*
X122161569Y-110980528D01*
X122161565Y-110980527D01*
X122047071Y-110966875D01*
X122005153Y-110961877D01*
X121998150Y-110962613D01*
X121998149Y-110962613D01*
X121954935Y-110967155D01*
X121841495Y-110979078D01*
X121834827Y-110981348D01*
X121692382Y-111029840D01*
X121692379Y-111029841D01*
X121685715Y-111032110D01*
X121616990Y-111074390D01*
X121551554Y-111114646D01*
X121551552Y-111114648D01*
X121545555Y-111118337D01*
X121517772Y-111145544D01*
X121455109Y-111178915D01*
X121384351Y-111173110D01*
X121340520Y-111144616D01*
X120736648Y-110540744D01*
X120702622Y-110478432D01*
X120707687Y-110407617D01*
X120750234Y-110350781D01*
X120757127Y-110348134D01*
X122591500Y-110348134D01*
X122598255Y-110410316D01*
X122649385Y-110546705D01*
X122736739Y-110663261D01*
X122853295Y-110750615D01*
X122989684Y-110801745D01*
X123051866Y-110808500D01*
X124748134Y-110808500D01*
X124810316Y-110801745D01*
X124946705Y-110750615D01*
X125063261Y-110663261D01*
X125150615Y-110546705D01*
X125201745Y-110410316D01*
X125208500Y-110348134D01*
X125208500Y-107451866D01*
X125201745Y-107389684D01*
X125150615Y-107253295D01*
X125063261Y-107136739D01*
X124946705Y-107049385D01*
X124810316Y-106998255D01*
X124748134Y-106991500D01*
X123051866Y-106991500D01*
X122989684Y-106998255D01*
X122853295Y-107049385D01*
X122736739Y-107136739D01*
X122649385Y-107253295D01*
X122598255Y-107389684D01*
X122591500Y-107451866D01*
X122591500Y-110348134D01*
X120757127Y-110348134D01*
X120814321Y-110326169D01*
X120848424Y-110323065D01*
X120929545Y-110296707D01*
X120998230Y-110274390D01*
X120998233Y-110274389D01*
X121004929Y-110272213D01*
X121146279Y-110187951D01*
X121265449Y-110074468D01*
X121279992Y-110052579D01*
X121352614Y-109943275D01*
X121352615Y-109943273D01*
X121356515Y-109937403D01*
X121414951Y-109783568D01*
X121431404Y-109666500D01*
X121437302Y-109624534D01*
X121437303Y-109624527D01*
X121437853Y-109620610D01*
X121438141Y-109600000D01*
X121427174Y-109502225D01*
X121439458Y-109432299D01*
X121487597Y-109380115D01*
X121498978Y-109374146D01*
X121504929Y-109372213D01*
X121510975Y-109368609D01*
X121510979Y-109368607D01*
X121640233Y-109291555D01*
X121646279Y-109287951D01*
X121765449Y-109174468D01*
X121774960Y-109160153D01*
X121852614Y-109043275D01*
X121852615Y-109043273D01*
X121856515Y-109037403D01*
X121914951Y-108883568D01*
X121929342Y-108781169D01*
X121937302Y-108724534D01*
X121937303Y-108724527D01*
X121937853Y-108720610D01*
X121938141Y-108700000D01*
X121919798Y-108536466D01*
X121865680Y-108381060D01*
X121852647Y-108360202D01*
X121834806Y-108297986D01*
X121833748Y-108298053D01*
X121833500Y-108294111D01*
X121833500Y-108290144D01*
X121832996Y-108286153D01*
X121832063Y-108274311D01*
X121832010Y-108272606D01*
X121830674Y-108230111D01*
X121825021Y-108210652D01*
X121821012Y-108191293D01*
X121819639Y-108180427D01*
X121818474Y-108171203D01*
X121815558Y-108163837D01*
X121815556Y-108163831D01*
X121802200Y-108130098D01*
X121798355Y-108118868D01*
X121788230Y-108084017D01*
X121788230Y-108084016D01*
X121786019Y-108076407D01*
X121775705Y-108058966D01*
X121767008Y-108041213D01*
X121762472Y-108029758D01*
X121759552Y-108022383D01*
X121733563Y-107986612D01*
X121727047Y-107976692D01*
X121704542Y-107938638D01*
X121690221Y-107924317D01*
X121677380Y-107909283D01*
X121670132Y-107899307D01*
X121665472Y-107892893D01*
X121631407Y-107864712D01*
X121622626Y-107856722D01*
X121138647Y-107372742D01*
X121131113Y-107364463D01*
X121127000Y-107357982D01*
X121077348Y-107311356D01*
X121074507Y-107308602D01*
X121054770Y-107288865D01*
X121051573Y-107286385D01*
X121042551Y-107278680D01*
X121038397Y-107274779D01*
X121010321Y-107248414D01*
X121003375Y-107244595D01*
X121003372Y-107244593D01*
X120992566Y-107238652D01*
X120976047Y-107227801D01*
X120972099Y-107224739D01*
X120960041Y-107215386D01*
X120952772Y-107212241D01*
X120952768Y-107212238D01*
X120919463Y-107197826D01*
X120908813Y-107192609D01*
X120870060Y-107171305D01*
X120850437Y-107166267D01*
X120831734Y-107159863D01*
X120820420Y-107154967D01*
X120820419Y-107154967D01*
X120813145Y-107151819D01*
X120805322Y-107150580D01*
X120805312Y-107150577D01*
X120769476Y-107144901D01*
X120757856Y-107142495D01*
X120722711Y-107133472D01*
X120722710Y-107133472D01*
X120715030Y-107131500D01*
X120694776Y-107131500D01*
X120675065Y-107129949D01*
X120662886Y-107128020D01*
X120655057Y-107126780D01*
X120623776Y-107129737D01*
X120611039Y-107130941D01*
X120599181Y-107131500D01*
X120398224Y-107131500D01*
X120330103Y-107111498D01*
X120283610Y-107057842D01*
X120273506Y-106987568D01*
X120289769Y-106941364D01*
X120309145Y-106908601D01*
X120311415Y-106900790D01*
X120350459Y-106766395D01*
X120355562Y-106748831D01*
X120356536Y-106736466D01*
X120358307Y-106713958D01*
X120358307Y-106713950D01*
X120358500Y-106711502D01*
X120358500Y-106278498D01*
X120358301Y-106275968D01*
X120356067Y-106247579D01*
X120356066Y-106247574D01*
X120355562Y-106241169D01*
X120325477Y-106137614D01*
X120311357Y-106089012D01*
X120311356Y-106089010D01*
X120309145Y-106081399D01*
X120255363Y-105990458D01*
X120228491Y-105945020D01*
X120228489Y-105945017D01*
X120224453Y-105938193D01*
X120106807Y-105820547D01*
X120099983Y-105816511D01*
X120099980Y-105816509D01*
X119970427Y-105739892D01*
X119970428Y-105739892D01*
X119963601Y-105735855D01*
X119955990Y-105733644D01*
X119955988Y-105733643D01*
X119903769Y-105718472D01*
X119803831Y-105689438D01*
X119797426Y-105688934D01*
X119797421Y-105688933D01*
X119768958Y-105686693D01*
X119768950Y-105686693D01*
X119766502Y-105686500D01*
X117983498Y-105686500D01*
X117981050Y-105686693D01*
X117981042Y-105686693D01*
X117952579Y-105688933D01*
X117952574Y-105688934D01*
X117946169Y-105689438D01*
X117846231Y-105718472D01*
X117794012Y-105733643D01*
X117794010Y-105733644D01*
X117786399Y-105735855D01*
X117779572Y-105739892D01*
X117779573Y-105739892D01*
X117650020Y-105816509D01*
X117650017Y-105816511D01*
X117643193Y-105820547D01*
X117570865Y-105892875D01*
X117545911Y-105912232D01*
X117533972Y-105919293D01*
X117516224Y-105927988D01*
X117497383Y-105935448D01*
X117490967Y-105940110D01*
X117490966Y-105940110D01*
X117461613Y-105961436D01*
X117451693Y-105967952D01*
X117420465Y-105986420D01*
X117420462Y-105986422D01*
X117413638Y-105990458D01*
X117399317Y-106004779D01*
X117384284Y-106017619D01*
X117367893Y-106029528D01*
X117362842Y-106035634D01*
X117339702Y-106063605D01*
X117331712Y-106072384D01*
X116007747Y-107396348D01*
X115999461Y-107403888D01*
X115992982Y-107408000D01*
X115987557Y-107413777D01*
X115946357Y-107457651D01*
X115943602Y-107460493D01*
X115923865Y-107480230D01*
X115921385Y-107483427D01*
X115913682Y-107492447D01*
X115883414Y-107524679D01*
X115879595Y-107531625D01*
X115879593Y-107531628D01*
X115873652Y-107542434D01*
X115862801Y-107558953D01*
X115850386Y-107574959D01*
X115847241Y-107582228D01*
X115847238Y-107582232D01*
X115832826Y-107615537D01*
X115827609Y-107626187D01*
X115806305Y-107664940D01*
X115804334Y-107672615D01*
X115804334Y-107672616D01*
X115801267Y-107684562D01*
X115794863Y-107703266D01*
X115786819Y-107721855D01*
X115785580Y-107729678D01*
X115785577Y-107729688D01*
X115779901Y-107765524D01*
X115777495Y-107777144D01*
X115769420Y-107808595D01*
X115766500Y-107819970D01*
X115766500Y-107840224D01*
X115764949Y-107859934D01*
X115761780Y-107879943D01*
X115764849Y-107912404D01*
X115765941Y-107923961D01*
X115766500Y-107935819D01*
X115766500Y-108591791D01*
X115746411Y-108660046D01*
X115738838Y-108671797D01*
X115736427Y-108678420D01*
X115736426Y-108678423D01*
X115684966Y-108819809D01*
X115684965Y-108819814D01*
X115682556Y-108826432D01*
X115661931Y-108989694D01*
X115677989Y-109153468D01*
X115729932Y-109309615D01*
X115733581Y-109315640D01*
X115811078Y-109443601D01*
X115815179Y-109450373D01*
X115820070Y-109455438D01*
X115820071Y-109455439D01*
X115924626Y-109563709D01*
X115957558Y-109626606D01*
X115951258Y-109697322D01*
X115922146Y-109741260D01*
X115833017Y-109828542D01*
X115827982Y-109833473D01*
X115738838Y-109971797D01*
X115736427Y-109978420D01*
X115736426Y-109978423D01*
X115684966Y-110119809D01*
X115684965Y-110119814D01*
X115682556Y-110126432D01*
X115661931Y-110289694D01*
X115677989Y-110453468D01*
X115729932Y-110609615D01*
X115733581Y-110615640D01*
X115762422Y-110663261D01*
X115815179Y-110750373D01*
X115820070Y-110755438D01*
X115820071Y-110755439D01*
X115861646Y-110798491D01*
X115929491Y-110868747D01*
X116067189Y-110958854D01*
X116221428Y-111016215D01*
X116228409Y-111017146D01*
X116228411Y-111017147D01*
X116377561Y-111037048D01*
X116377565Y-111037048D01*
X116384542Y-111037979D01*
X116391553Y-111037341D01*
X116391557Y-111037341D01*
X116541403Y-111023704D01*
X116541404Y-111023704D01*
X116548424Y-111023065D01*
X116581786Y-111012225D01*
X116698230Y-110974390D01*
X116698233Y-110974389D01*
X116704929Y-110972213D01*
X116740059Y-110951271D01*
X116804577Y-110933500D01*
X117545050Y-110933500D01*
X117613171Y-110953502D01*
X117634145Y-110970405D01*
X117643193Y-110979453D01*
X117650017Y-110983489D01*
X117650020Y-110983491D01*
X117741076Y-111037341D01*
X117786399Y-111064145D01*
X117794010Y-111066356D01*
X117794012Y-111066357D01*
X117846231Y-111081528D01*
X117946169Y-111110562D01*
X117952574Y-111111066D01*
X117952579Y-111111067D01*
X117981042Y-111113307D01*
X117981050Y-111113307D01*
X117983498Y-111113500D01*
X119465406Y-111113500D01*
X119533527Y-111133502D01*
X119554501Y-111150405D01*
X120030501Y-111626405D01*
X120064527Y-111688717D01*
X120059462Y-111759532D01*
X120016915Y-111816368D01*
X119950395Y-111841179D01*
X119941406Y-111841500D01*
X118901866Y-111841500D01*
X118839684Y-111848255D01*
X118703295Y-111899385D01*
X118586739Y-111986739D01*
X118499385Y-112103295D01*
X118496233Y-112111703D01*
X118454919Y-112221907D01*
X118412277Y-112278671D01*
X118345716Y-112303371D01*
X118276367Y-112288163D01*
X118243743Y-112262476D01*
X118193151Y-112206875D01*
X118193142Y-112206866D01*
X118189670Y-112203051D01*
X118185619Y-112199852D01*
X118185615Y-112199848D01*
X118018414Y-112067800D01*
X118018410Y-112067798D01*
X118014359Y-112064598D01*
X117818789Y-111956638D01*
X117813920Y-111954914D01*
X117813916Y-111954912D01*
X117613087Y-111883795D01*
X117613083Y-111883794D01*
X117608212Y-111882069D01*
X117603119Y-111881162D01*
X117603116Y-111881161D01*
X117393373Y-111843800D01*
X117393367Y-111843799D01*
X117388284Y-111842894D01*
X117314452Y-111841992D01*
X117170081Y-111840228D01*
X117170079Y-111840228D01*
X117164911Y-111840165D01*
X116944091Y-111873955D01*
X116731756Y-111943357D01*
X116701443Y-111959137D01*
X116641336Y-111990427D01*
X116533607Y-112046507D01*
X116529474Y-112049610D01*
X116529471Y-112049612D01*
X116359100Y-112177530D01*
X116354965Y-112180635D01*
X116329052Y-112207751D01*
X116207013Y-112335458D01*
X116200629Y-112342138D01*
X116093201Y-112499621D01*
X116038293Y-112544621D01*
X115967768Y-112552792D01*
X115904021Y-112521538D01*
X115883324Y-112497054D01*
X115802822Y-112372617D01*
X115802820Y-112372614D01*
X115800014Y-112368277D01*
X115649670Y-112203051D01*
X115645619Y-112199852D01*
X115645615Y-112199848D01*
X115478414Y-112067800D01*
X115478410Y-112067798D01*
X115474359Y-112064598D01*
X115278789Y-111956638D01*
X115273920Y-111954914D01*
X115273916Y-111954912D01*
X115073087Y-111883795D01*
X115073083Y-111883794D01*
X115068212Y-111882069D01*
X115063119Y-111881162D01*
X115063116Y-111881161D01*
X114853373Y-111843800D01*
X114853367Y-111843799D01*
X114848284Y-111842894D01*
X114774452Y-111841992D01*
X114630081Y-111840228D01*
X114630079Y-111840228D01*
X114624911Y-111840165D01*
X114404091Y-111873955D01*
X114191756Y-111943357D01*
X114161443Y-111959137D01*
X114101336Y-111990427D01*
X113993607Y-112046507D01*
X113989474Y-112049610D01*
X113989471Y-112049612D01*
X113819100Y-112177530D01*
X113814965Y-112180635D01*
X113789052Y-112207751D01*
X113667013Y-112335458D01*
X113660629Y-112342138D01*
X113534743Y-112526680D01*
X113440688Y-112729305D01*
X113380989Y-112944570D01*
X113357251Y-113166695D01*
X113357548Y-113171848D01*
X113357548Y-113171851D01*
X113369812Y-113384547D01*
X113370110Y-113389715D01*
X113371247Y-113394761D01*
X113371248Y-113394767D01*
X113381519Y-113440340D01*
X113419222Y-113607639D01*
X113457461Y-113701811D01*
X113492344Y-113787717D01*
X113503266Y-113814616D01*
X113540685Y-113875678D01*
X113617291Y-114000688D01*
X113619987Y-114005088D01*
X113766250Y-114173938D01*
X113938126Y-114316632D01*
X113983720Y-114343275D01*
X114011955Y-114359774D01*
X114060679Y-114411412D01*
X114073750Y-114481195D01*
X114047019Y-114546967D01*
X114006562Y-114580327D01*
X113998457Y-114584546D01*
X113989738Y-114590036D01*
X113819433Y-114717905D01*
X113811726Y-114724748D01*
X113664590Y-114878717D01*
X113658104Y-114886727D01*
X113538098Y-115062649D01*
X113533000Y-115071623D01*
X113443338Y-115264783D01*
X113439775Y-115274470D01*
X113384389Y-115474183D01*
X113385912Y-115482607D01*
X113398292Y-115486000D01*
X114848000Y-115486000D01*
X114916121Y-115506002D01*
X114962614Y-115559658D01*
X114974000Y-115612000D01*
X114974000Y-117058517D01*
X114978064Y-117072359D01*
X114991478Y-117074393D01*
X114998184Y-117073534D01*
X115008262Y-117071392D01*
X115212255Y-117010191D01*
X115221842Y-117006433D01*
X115413095Y-116912739D01*
X115421945Y-116907464D01*
X115595328Y-116783792D01*
X115603200Y-116777139D01*
X115754052Y-116626812D01*
X115760730Y-116618965D01*
X115888022Y-116441819D01*
X115889279Y-116442722D01*
X115936373Y-116399362D01*
X116006311Y-116387145D01*
X116071751Y-116414678D01*
X116099579Y-116446511D01*
X116159987Y-116545088D01*
X116306250Y-116713938D01*
X116382376Y-116777139D01*
X116474107Y-116853295D01*
X116478126Y-116856632D01*
X116671000Y-116969338D01*
X116879692Y-117049030D01*
X116884760Y-117050061D01*
X116884763Y-117050062D01*
X116979862Y-117069410D01*
X117098597Y-117093567D01*
X117103772Y-117093757D01*
X117103774Y-117093757D01*
X117316673Y-117101564D01*
X117316677Y-117101564D01*
X117321837Y-117101753D01*
X117326957Y-117101097D01*
X117326959Y-117101097D01*
X117538288Y-117074025D01*
X117538289Y-117074025D01*
X117543416Y-117073368D01*
X117548373Y-117071881D01*
X117548377Y-117071880D01*
X117618028Y-117050984D01*
X117689023Y-117050566D01*
X117748974Y-117088599D01*
X117778846Y-117153005D01*
X117769155Y-117223337D01*
X117743331Y-117260764D01*
X116207757Y-118796338D01*
X116199471Y-118803878D01*
X116192992Y-118807990D01*
X116187567Y-118813767D01*
X116146367Y-118857641D01*
X116143612Y-118860483D01*
X116123875Y-118880220D01*
X116121395Y-118883417D01*
X116113692Y-118892437D01*
X116083424Y-118924669D01*
X116079605Y-118931615D01*
X116079603Y-118931618D01*
X116073662Y-118942424D01*
X116062811Y-118958943D01*
X116050396Y-118974949D01*
X116047251Y-118982218D01*
X116047248Y-118982222D01*
X116032836Y-119015527D01*
X116027619Y-119026177D01*
X116006315Y-119064930D01*
X116004344Y-119072605D01*
X116004344Y-119072606D01*
X116001277Y-119084552D01*
X115994873Y-119103256D01*
X115994285Y-119104616D01*
X115986829Y-119121845D01*
X115985590Y-119129668D01*
X115985587Y-119129678D01*
X115979911Y-119165514D01*
X115977505Y-119177134D01*
X115969833Y-119207018D01*
X115966510Y-119219960D01*
X115966510Y-119240214D01*
X115964959Y-119259924D01*
X115961790Y-119279933D01*
X115962536Y-119287825D01*
X115965951Y-119323951D01*
X115966510Y-119335809D01*
X115966510Y-122560395D01*
X115946508Y-122628516D01*
X115929605Y-122649490D01*
X115649500Y-122929595D01*
X115587188Y-122963621D01*
X115560405Y-122966500D01*
X115107359Y-122966500D01*
X115039848Y-122946887D01*
X115023580Y-122936563D01*
X114906990Y-122895047D01*
X114875189Y-122883723D01*
X114875187Y-122883722D01*
X114868555Y-122881361D01*
X114861569Y-122880528D01*
X114861565Y-122880527D01*
X114747071Y-122866875D01*
X114705153Y-122861877D01*
X114698150Y-122862613D01*
X114698149Y-122862613D01*
X114654935Y-122867155D01*
X114541495Y-122879078D01*
X114534827Y-122881348D01*
X114392382Y-122929840D01*
X114392379Y-122929841D01*
X114385715Y-122932110D01*
X114335990Y-122962701D01*
X114259975Y-123009466D01*
X114245555Y-123018337D01*
X114202513Y-123060487D01*
X114139594Y-123122102D01*
X114127982Y-123133473D01*
X114038838Y-123271797D01*
X113998146Y-123383598D01*
X113956054Y-123440766D01*
X113889733Y-123466104D01*
X113879747Y-123466500D01*
X112514595Y-123466500D01*
X112446474Y-123446498D01*
X112425499Y-123429595D01*
X112370404Y-123374499D01*
X112336379Y-123312186D01*
X112333500Y-123285404D01*
X112333500Y-116007966D01*
X113388257Y-116007966D01*
X113418565Y-116142446D01*
X113421645Y-116152275D01*
X113501770Y-116349603D01*
X113506413Y-116358794D01*
X113617694Y-116540388D01*
X113623777Y-116548699D01*
X113763213Y-116709667D01*
X113770580Y-116716883D01*
X113934434Y-116852916D01*
X113942881Y-116858831D01*
X114126756Y-116966279D01*
X114136042Y-116970729D01*
X114335001Y-117046703D01*
X114344899Y-117049579D01*
X114448250Y-117070606D01*
X114462299Y-117069410D01*
X114466000Y-117059065D01*
X114466000Y-116012115D01*
X114461525Y-115996876D01*
X114460135Y-115995671D01*
X114452452Y-115994000D01*
X113403225Y-115994000D01*
X113389694Y-115997973D01*
X113388257Y-116007966D01*
X112333500Y-116007966D01*
X112333500Y-110913105D01*
X112353502Y-110844984D01*
X112407158Y-110798491D01*
X112477432Y-110788387D01*
X112542012Y-110817881D01*
X112567952Y-110848965D01*
X112575547Y-110861807D01*
X112693193Y-110979453D01*
X112700017Y-110983489D01*
X112700020Y-110983491D01*
X112791076Y-111037341D01*
X112836399Y-111064145D01*
X112844010Y-111066356D01*
X112844012Y-111066357D01*
X112896231Y-111081528D01*
X112996169Y-111110562D01*
X113002574Y-111111066D01*
X113002579Y-111111067D01*
X113031042Y-111113307D01*
X113031050Y-111113307D01*
X113033498Y-111113500D01*
X114816502Y-111113500D01*
X114818950Y-111113307D01*
X114818958Y-111113307D01*
X114847421Y-111111067D01*
X114847426Y-111111066D01*
X114853831Y-111110562D01*
X114953769Y-111081528D01*
X115005988Y-111066357D01*
X115005990Y-111066356D01*
X115013601Y-111064145D01*
X115058924Y-111037341D01*
X115149980Y-110983491D01*
X115149983Y-110983489D01*
X115156807Y-110979453D01*
X115274453Y-110861807D01*
X115278489Y-110854982D01*
X115278491Y-110854980D01*
X115344553Y-110743275D01*
X115359145Y-110718601D01*
X115362810Y-110705988D01*
X115377309Y-110656081D01*
X115405562Y-110558831D01*
X115406517Y-110546705D01*
X115408307Y-110523958D01*
X115408307Y-110523950D01*
X115408500Y-110521502D01*
X115408500Y-110088498D01*
X115408301Y-110085968D01*
X115406067Y-110057579D01*
X115406066Y-110057574D01*
X115405562Y-110051169D01*
X115359145Y-109891399D01*
X115274453Y-109748193D01*
X115271771Y-109745511D01*
X115246498Y-109681139D01*
X115260400Y-109611516D01*
X115270572Y-109595688D01*
X115274453Y-109591807D01*
X115359145Y-109448601D01*
X115362399Y-109437403D01*
X115380983Y-109373434D01*
X115405562Y-109288831D01*
X115406526Y-109276593D01*
X115408307Y-109253958D01*
X115408307Y-109253950D01*
X115408500Y-109251502D01*
X115408500Y-108818498D01*
X115408301Y-108815968D01*
X115406067Y-108787579D01*
X115406066Y-108787574D01*
X115405562Y-108781169D01*
X115359145Y-108621399D01*
X115274453Y-108478193D01*
X115271771Y-108475511D01*
X115246498Y-108411139D01*
X115260400Y-108341516D01*
X115270572Y-108325688D01*
X115274453Y-108321807D01*
X115359145Y-108178601D01*
X115362052Y-108168597D01*
X115393902Y-108058966D01*
X115405562Y-108018831D01*
X115406288Y-108009615D01*
X115408307Y-107983958D01*
X115408307Y-107983950D01*
X115408500Y-107981502D01*
X115408500Y-107548498D01*
X115408301Y-107545968D01*
X115406067Y-107517579D01*
X115406066Y-107517574D01*
X115405562Y-107511169D01*
X115366350Y-107376198D01*
X115361357Y-107359012D01*
X115361356Y-107359010D01*
X115359145Y-107351399D01*
X115305363Y-107260458D01*
X115278493Y-107215024D01*
X115278492Y-107215023D01*
X115274453Y-107208193D01*
X115271513Y-107205253D01*
X115246180Y-107140734D01*
X115260079Y-107071111D01*
X115272126Y-107052364D01*
X115278090Y-107044676D01*
X115354648Y-106915221D01*
X115360893Y-106900790D01*
X115399939Y-106766395D01*
X115399899Y-106752294D01*
X115392630Y-106749000D01*
X112463122Y-106749000D01*
X112449591Y-106752973D01*
X112448456Y-106760871D01*
X112489107Y-106900790D01*
X112495354Y-106915225D01*
X112527461Y-106969517D01*
X112544920Y-107038333D01*
X112522403Y-107105665D01*
X112465389Y-107150807D01*
X112435092Y-107162802D01*
X112423865Y-107166646D01*
X112381407Y-107178982D01*
X112374581Y-107183019D01*
X112363972Y-107189293D01*
X112346224Y-107197988D01*
X112327383Y-107205448D01*
X112320967Y-107210110D01*
X112320966Y-107210110D01*
X112291613Y-107231436D01*
X112281693Y-107237952D01*
X112250465Y-107256420D01*
X112250462Y-107256422D01*
X112243638Y-107260458D01*
X112229317Y-107274779D01*
X112214284Y-107287619D01*
X112197893Y-107299528D01*
X112176855Y-107324959D01*
X112169702Y-107333605D01*
X112161712Y-107342384D01*
X111009794Y-108494302D01*
X110947482Y-108528328D01*
X110876667Y-108523263D01*
X110831294Y-108493991D01*
X110767491Y-108429742D01*
X110767487Y-108429739D01*
X110762522Y-108424739D01*
X110756573Y-108420964D01*
X110756571Y-108420962D01*
X110682727Y-108374099D01*
X110635928Y-108320710D01*
X110625423Y-108250495D01*
X110654547Y-108185747D01*
X110658122Y-108181978D01*
X110660346Y-108179327D01*
X110665449Y-108174468D01*
X110671083Y-108165988D01*
X110752614Y-108043275D01*
X110752615Y-108043273D01*
X110756515Y-108037403D01*
X110814951Y-107883568D01*
X110824356Y-107816649D01*
X110837302Y-107724534D01*
X110837303Y-107724527D01*
X110837853Y-107720610D01*
X110838141Y-107700000D01*
X110819798Y-107536466D01*
X110813998Y-107519809D01*
X110773786Y-107404337D01*
X110765680Y-107381060D01*
X110760483Y-107372742D01*
X110682209Y-107247479D01*
X110678476Y-107241505D01*
X110602491Y-107164988D01*
X110567486Y-107129737D01*
X110567482Y-107129734D01*
X110562522Y-107124739D01*
X110423580Y-107036563D01*
X110323789Y-107001029D01*
X110275189Y-106983723D01*
X110275187Y-106983722D01*
X110268555Y-106981361D01*
X110261569Y-106980528D01*
X110261565Y-106980527D01*
X110147071Y-106966875D01*
X110105153Y-106961877D01*
X110098150Y-106962613D01*
X110098149Y-106962613D01*
X110054935Y-106967155D01*
X109941495Y-106979078D01*
X109934827Y-106981348D01*
X109840887Y-107013328D01*
X109787543Y-107031488D01*
X109787541Y-107031488D01*
X109785715Y-107032110D01*
X109785606Y-107031789D01*
X109719384Y-107042083D01*
X109654471Y-107013328D01*
X109615409Y-106954044D01*
X109614895Y-106882015D01*
X109649939Y-106761395D01*
X109649899Y-106747294D01*
X109642630Y-106744000D01*
X106713122Y-106744000D01*
X106699591Y-106747973D01*
X106698456Y-106755871D01*
X106739107Y-106895790D01*
X106745352Y-106910221D01*
X106821911Y-107039677D01*
X106827871Y-107047360D01*
X106853820Y-107113444D01*
X106839922Y-107183067D01*
X106829579Y-107199161D01*
X106825547Y-107203193D01*
X106740855Y-107346399D01*
X106738644Y-107354010D01*
X106738643Y-107354012D01*
X106733711Y-107370989D01*
X106694438Y-107506169D01*
X106693934Y-107512574D01*
X106693933Y-107512579D01*
X106692434Y-107531628D01*
X106691500Y-107543498D01*
X106691500Y-107976502D01*
X106691693Y-107978950D01*
X106691693Y-107978958D01*
X106693580Y-108002929D01*
X106694438Y-108013831D01*
X106714829Y-108084017D01*
X106738017Y-108163831D01*
X106740855Y-108173601D01*
X106825547Y-108316807D01*
X106828229Y-108319489D01*
X106853502Y-108383861D01*
X106839600Y-108453484D01*
X106829428Y-108469312D01*
X106825547Y-108473193D01*
X106740855Y-108616399D01*
X106738644Y-108624010D01*
X106738643Y-108624012D01*
X106728130Y-108660200D01*
X106694438Y-108776169D01*
X106691500Y-108813498D01*
X106691500Y-109246502D01*
X106691693Y-109248950D01*
X106691693Y-109248958D01*
X106692087Y-109253958D01*
X106694438Y-109283831D01*
X106740855Y-109443601D01*
X106825547Y-109586807D01*
X106828229Y-109589489D01*
X106853502Y-109653861D01*
X106839600Y-109723484D01*
X106829428Y-109739312D01*
X106825547Y-109743193D01*
X106740855Y-109886399D01*
X106738644Y-109894010D01*
X106738643Y-109894012D01*
X106727952Y-109930813D01*
X106694438Y-110046169D01*
X106693934Y-110052574D01*
X106693933Y-110052579D01*
X106692162Y-110075084D01*
X106691500Y-110083498D01*
X106691500Y-110516502D01*
X106691693Y-110518950D01*
X106691693Y-110518958D01*
X106692087Y-110523958D01*
X106694438Y-110553831D01*
X106740855Y-110713601D01*
X106825547Y-110856807D01*
X106828229Y-110859489D01*
X106853502Y-110923861D01*
X106839600Y-110993484D01*
X106829428Y-111009312D01*
X106825547Y-111013193D01*
X106740855Y-111156399D01*
X106738644Y-111164010D01*
X106738643Y-111164012D01*
X106730798Y-111191016D01*
X106694438Y-111316169D01*
X106691500Y-111353498D01*
X106691500Y-111786502D01*
X106691693Y-111788950D01*
X106691693Y-111788958D01*
X106693851Y-111816368D01*
X106694438Y-111823831D01*
X106701286Y-111847402D01*
X106733748Y-111959137D01*
X106740855Y-111983601D01*
X106825547Y-112126807D01*
X106828229Y-112129489D01*
X106853502Y-112193861D01*
X106839600Y-112263484D01*
X106829428Y-112279312D01*
X106825547Y-112283193D01*
X106740855Y-112426399D01*
X106694438Y-112586169D01*
X106691500Y-112623498D01*
X106691500Y-113056502D01*
X106691693Y-113058950D01*
X106691693Y-113058958D01*
X106693312Y-113079520D01*
X106694438Y-113093831D01*
X106715607Y-113166695D01*
X106736512Y-113238651D01*
X106740855Y-113253601D01*
X106825547Y-113396807D01*
X106828229Y-113399489D01*
X106853502Y-113463861D01*
X106839600Y-113533484D01*
X106829428Y-113549312D01*
X106825547Y-113553193D01*
X106740855Y-113696399D01*
X106694438Y-113856169D01*
X106693934Y-113862574D01*
X106693933Y-113862579D01*
X106691693Y-113891042D01*
X106691500Y-113893498D01*
X106691500Y-114326502D01*
X106694438Y-114363831D01*
X106717518Y-114443275D01*
X106735420Y-114504892D01*
X106740855Y-114523601D01*
X106744892Y-114530427D01*
X106821509Y-114659980D01*
X106821511Y-114659983D01*
X106825547Y-114666807D01*
X106943193Y-114784453D01*
X106950017Y-114788489D01*
X106950020Y-114788491D01*
X107033700Y-114837979D01*
X107086399Y-114869145D01*
X107094010Y-114871356D01*
X107094012Y-114871357D01*
X107131844Y-114882348D01*
X107246169Y-114915562D01*
X107252574Y-114916066D01*
X107252579Y-114916067D01*
X107281042Y-114918307D01*
X107281050Y-114918307D01*
X107283498Y-114918500D01*
X109066502Y-114918500D01*
X109068950Y-114918307D01*
X109068958Y-114918307D01*
X109097421Y-114916067D01*
X109097426Y-114916066D01*
X109103831Y-114915562D01*
X109218156Y-114882348D01*
X109255988Y-114871357D01*
X109255990Y-114871356D01*
X109263601Y-114869145D01*
X109329845Y-114829968D01*
X109398661Y-114812508D01*
X109419332Y-114815435D01*
X109421428Y-114816215D01*
X109456443Y-114820887D01*
X109577561Y-114837048D01*
X109577565Y-114837048D01*
X109584542Y-114837979D01*
X109591553Y-114837341D01*
X109591557Y-114837341D01*
X109741403Y-114823704D01*
X109741404Y-114823704D01*
X109748424Y-114823065D01*
X109793893Y-114808291D01*
X109898230Y-114774390D01*
X109898233Y-114774389D01*
X109904929Y-114772213D01*
X110046279Y-114687951D01*
X110165449Y-114574468D01*
X110235553Y-114468953D01*
X110289910Y-114423284D01*
X110360329Y-114414252D01*
X110424453Y-114444726D01*
X110461923Y-114505029D01*
X110466500Y-114538682D01*
X110466500Y-122041972D01*
X110446498Y-122110093D01*
X110392842Y-122156586D01*
X110353671Y-122167282D01*
X110241495Y-122179072D01*
X110234827Y-122181342D01*
X110092382Y-122229834D01*
X110092379Y-122229835D01*
X110085715Y-122232104D01*
X109945555Y-122318331D01*
X109894353Y-122368472D01*
X109857732Y-122404334D01*
X109827982Y-122433467D01*
X109738838Y-122571791D01*
X109736427Y-122578414D01*
X109736426Y-122578417D01*
X109694910Y-122692484D01*
X109665604Y-122738486D01*
X109525747Y-122878342D01*
X109407742Y-122996347D01*
X109399463Y-123003881D01*
X109392982Y-123007994D01*
X109378641Y-123023266D01*
X109346357Y-123057645D01*
X109343602Y-123060487D01*
X109323865Y-123080224D01*
X109321385Y-123083421D01*
X109313682Y-123092441D01*
X109283414Y-123124673D01*
X109279595Y-123131619D01*
X109279593Y-123131622D01*
X109273652Y-123142428D01*
X109262801Y-123158947D01*
X109250386Y-123174953D01*
X109247241Y-123182222D01*
X109247238Y-123182226D01*
X109232826Y-123215531D01*
X109227609Y-123226181D01*
X109206305Y-123264934D01*
X109204334Y-123272609D01*
X109204334Y-123272610D01*
X109201267Y-123284556D01*
X109194863Y-123303260D01*
X109191001Y-123312186D01*
X109186819Y-123321849D01*
X109185580Y-123329672D01*
X109185577Y-123329682D01*
X109179901Y-123365518D01*
X109177495Y-123377138D01*
X109176426Y-123381302D01*
X109166500Y-123419964D01*
X109166500Y-123420734D01*
X109139391Y-123482892D01*
X109131861Y-123491119D01*
X109064095Y-123558885D01*
X109001783Y-123592911D01*
X108930968Y-123587846D01*
X108885905Y-123558885D01*
X108790381Y-123463361D01*
X108643699Y-123374528D01*
X108636452Y-123372257D01*
X108636450Y-123372256D01*
X108570164Y-123351483D01*
X108480062Y-123323247D01*
X108406635Y-123316500D01*
X108388527Y-123316500D01*
X108114595Y-123316501D01*
X108046476Y-123296499D01*
X108025500Y-123279596D01*
X107700925Y-122955020D01*
X107353647Y-122607742D01*
X107346113Y-122599463D01*
X107342000Y-122592982D01*
X107292348Y-122546356D01*
X107289507Y-122543602D01*
X107269770Y-122523865D01*
X107266573Y-122521385D01*
X107257551Y-122513680D01*
X107231100Y-122488841D01*
X107225321Y-122483414D01*
X107218375Y-122479595D01*
X107218372Y-122479593D01*
X107207566Y-122473652D01*
X107191047Y-122462801D01*
X107190583Y-122462441D01*
X107175041Y-122450386D01*
X107167772Y-122447241D01*
X107167768Y-122447238D01*
X107134463Y-122432826D01*
X107123813Y-122427609D01*
X107085060Y-122406305D01*
X107065437Y-122401267D01*
X107046734Y-122394863D01*
X107035420Y-122389967D01*
X107035419Y-122389967D01*
X107028145Y-122386819D01*
X107020322Y-122385580D01*
X107020312Y-122385577D01*
X106984476Y-122379901D01*
X106972856Y-122377495D01*
X106937711Y-122368472D01*
X106937710Y-122368472D01*
X106930030Y-122366500D01*
X106909776Y-122366500D01*
X106890065Y-122364949D01*
X106877886Y-122363020D01*
X106870057Y-122361780D01*
X106862165Y-122362526D01*
X106826039Y-122365941D01*
X106814181Y-122366500D01*
X103398034Y-122366500D01*
X103329913Y-122346498D01*
X103286923Y-122295873D01*
X103286019Y-122296408D01*
X103282902Y-122291137D01*
X103282900Y-122291134D01*
X103281983Y-122289584D01*
X103281981Y-122289580D01*
X103275707Y-122278972D01*
X103267012Y-122261224D01*
X103259552Y-122242383D01*
X103233564Y-122206613D01*
X103227048Y-122196693D01*
X103208580Y-122165465D01*
X103208578Y-122165462D01*
X103204542Y-122158638D01*
X103190221Y-122144317D01*
X103177380Y-122129283D01*
X103170131Y-122119306D01*
X103165472Y-122112893D01*
X103159367Y-122107842D01*
X103159362Y-122107837D01*
X103131396Y-122084701D01*
X103122618Y-122076713D01*
X102420405Y-121374500D01*
X102386379Y-121312188D01*
X102383500Y-121285405D01*
X102383500Y-119828767D01*
X102384027Y-119817584D01*
X102385702Y-119810091D01*
X102383562Y-119742014D01*
X102383500Y-119738055D01*
X102383500Y-119710144D01*
X102382995Y-119706144D01*
X102382062Y-119694301D01*
X102380922Y-119658029D01*
X102380673Y-119650110D01*
X102375022Y-119630658D01*
X102371014Y-119611306D01*
X102369467Y-119599063D01*
X102368474Y-119591203D01*
X102357068Y-119562394D01*
X102352200Y-119550097D01*
X102348355Y-119538870D01*
X102344467Y-119525489D01*
X102336018Y-119496407D01*
X102331984Y-119489585D01*
X102331981Y-119489579D01*
X102325706Y-119478968D01*
X102317010Y-119461218D01*
X102312472Y-119449756D01*
X102312469Y-119449751D01*
X102309552Y-119442383D01*
X102294035Y-119421026D01*
X102283573Y-119406625D01*
X102277057Y-119396707D01*
X102258575Y-119365457D01*
X102254542Y-119358637D01*
X102240218Y-119344313D01*
X102227376Y-119329278D01*
X102223506Y-119323951D01*
X102215472Y-119312893D01*
X102181406Y-119284711D01*
X102172627Y-119276722D01*
X101370405Y-118474500D01*
X101336379Y-118412188D01*
X101333500Y-118385405D01*
X101333500Y-118157678D01*
X101353502Y-118089557D01*
X101407158Y-118043064D01*
X101448080Y-118032197D01*
X101541404Y-118023704D01*
X101541405Y-118023704D01*
X101548424Y-118023065D01*
X101571455Y-118015582D01*
X101698230Y-117974390D01*
X101698233Y-117974389D01*
X101704929Y-117972213D01*
X101846279Y-117887951D01*
X101965449Y-117774468D01*
X102056515Y-117637403D01*
X102114951Y-117483568D01*
X102129695Y-117378658D01*
X102137302Y-117324534D01*
X102137303Y-117324527D01*
X102137853Y-117320610D01*
X102138141Y-117300000D01*
X102119798Y-117136466D01*
X102065680Y-116981060D01*
X102059225Y-116970729D01*
X102052646Y-116960200D01*
X102033500Y-116893431D01*
X102033500Y-115007066D01*
X102053502Y-114938945D01*
X102107158Y-114892452D01*
X102177432Y-114882348D01*
X102194651Y-114886068D01*
X102296169Y-114915562D01*
X102302574Y-114916066D01*
X102302579Y-114916067D01*
X102331042Y-114918307D01*
X102331050Y-114918307D01*
X102333498Y-114918500D01*
X104116502Y-114918500D01*
X104118950Y-114918307D01*
X104118958Y-114918307D01*
X104147421Y-114916067D01*
X104147426Y-114916066D01*
X104153831Y-114915562D01*
X104268156Y-114882348D01*
X104305988Y-114871357D01*
X104305990Y-114871356D01*
X104313601Y-114869145D01*
X104366300Y-114837979D01*
X104449980Y-114788491D01*
X104449983Y-114788489D01*
X104456807Y-114784453D01*
X104462416Y-114778844D01*
X104468675Y-114773989D01*
X104469844Y-114775496D01*
X104523167Y-114746379D01*
X104549950Y-114743500D01*
X105108517Y-114743500D01*
X105163883Y-114756690D01*
X105167189Y-114758854D01*
X105321428Y-114816215D01*
X105328409Y-114817146D01*
X105328411Y-114817147D01*
X105477561Y-114837048D01*
X105477565Y-114837048D01*
X105484542Y-114837979D01*
X105491553Y-114837341D01*
X105491557Y-114837341D01*
X105641403Y-114823704D01*
X105641404Y-114823704D01*
X105648424Y-114823065D01*
X105693893Y-114808291D01*
X105798230Y-114774390D01*
X105798233Y-114774389D01*
X105804929Y-114772213D01*
X105946279Y-114687951D01*
X106065449Y-114574468D01*
X106083919Y-114546669D01*
X106152614Y-114443275D01*
X106152615Y-114443273D01*
X106156515Y-114437403D01*
X106214951Y-114283568D01*
X106229005Y-114183568D01*
X106237302Y-114124534D01*
X106237303Y-114124527D01*
X106237853Y-114120610D01*
X106238141Y-114100000D01*
X106219798Y-113936466D01*
X106165680Y-113781060D01*
X106107330Y-113687680D01*
X106082209Y-113647479D01*
X106078476Y-113641505D01*
X105996705Y-113559161D01*
X105967486Y-113529737D01*
X105967482Y-113529734D01*
X105962522Y-113524739D01*
X105823580Y-113436563D01*
X105728881Y-113402842D01*
X105675189Y-113383723D01*
X105675187Y-113383722D01*
X105668555Y-113381361D01*
X105661569Y-113380528D01*
X105661565Y-113380527D01*
X105547071Y-113366875D01*
X105505153Y-113361877D01*
X105498150Y-113362613D01*
X105498149Y-113362613D01*
X105454935Y-113367155D01*
X105341495Y-113379078D01*
X105334827Y-113381348D01*
X105192382Y-113429840D01*
X105192379Y-113429841D01*
X105185715Y-113432110D01*
X105152209Y-113452723D01*
X105143927Y-113457818D01*
X105077905Y-113476500D01*
X104748224Y-113476500D01*
X104680103Y-113456498D01*
X104633610Y-113402842D01*
X104623506Y-113332568D01*
X104639769Y-113286364D01*
X104659145Y-113253601D01*
X104663489Y-113238651D01*
X104684393Y-113166695D01*
X104705562Y-113093831D01*
X104706689Y-113079520D01*
X104708307Y-113058958D01*
X104708307Y-113058950D01*
X104708500Y-113056502D01*
X104708500Y-112623498D01*
X104705562Y-112586169D01*
X104659145Y-112426399D01*
X104574453Y-112283193D01*
X104571771Y-112280511D01*
X104546498Y-112216139D01*
X104560400Y-112146516D01*
X104570572Y-112130688D01*
X104574453Y-112126807D01*
X104659145Y-111983601D01*
X104666253Y-111959137D01*
X104698714Y-111847402D01*
X104705562Y-111823831D01*
X104706150Y-111816368D01*
X104708307Y-111788958D01*
X104708307Y-111788950D01*
X104708500Y-111786502D01*
X104708500Y-111353498D01*
X104705562Y-111316169D01*
X104669202Y-111191016D01*
X104661357Y-111164012D01*
X104661356Y-111164010D01*
X104659145Y-111156399D01*
X104639769Y-111123637D01*
X104622311Y-111054822D01*
X104644828Y-110987491D01*
X104700173Y-110943022D01*
X104748224Y-110933500D01*
X105042754Y-110933500D01*
X105110875Y-110953502D01*
X105123069Y-110962415D01*
X105124596Y-110963678D01*
X105129491Y-110968747D01*
X105267189Y-111058854D01*
X105421428Y-111116215D01*
X105428409Y-111117146D01*
X105428411Y-111117147D01*
X105577561Y-111137048D01*
X105577565Y-111137048D01*
X105584542Y-111137979D01*
X105591553Y-111137341D01*
X105591557Y-111137341D01*
X105741403Y-111123704D01*
X105741404Y-111123704D01*
X105748424Y-111123065D01*
X105786904Y-111110562D01*
X105898230Y-111074390D01*
X105898233Y-111074389D01*
X105904929Y-111072213D01*
X106046279Y-110987951D01*
X106165449Y-110874468D01*
X106169350Y-110868597D01*
X106252614Y-110743275D01*
X106252615Y-110743273D01*
X106256515Y-110737403D01*
X106314951Y-110583568D01*
X106333235Y-110453468D01*
X106337302Y-110424534D01*
X106337303Y-110424527D01*
X106337853Y-110420610D01*
X106338141Y-110400000D01*
X106319798Y-110236466D01*
X106265680Y-110081060D01*
X106251008Y-110057579D01*
X106182209Y-109947479D01*
X106178476Y-109941505D01*
X106116975Y-109879573D01*
X106067486Y-109829737D01*
X106067482Y-109829734D01*
X106062522Y-109824739D01*
X106042737Y-109812183D01*
X105995938Y-109758794D01*
X105985432Y-109688579D01*
X106014555Y-109623831D01*
X106023358Y-109614552D01*
X106060342Y-109579332D01*
X106060345Y-109579328D01*
X106065449Y-109574468D01*
X106069350Y-109568597D01*
X106152614Y-109443275D01*
X106152615Y-109443273D01*
X106156515Y-109437403D01*
X106214951Y-109283568D01*
X106233235Y-109153468D01*
X106237302Y-109124534D01*
X106237303Y-109124527D01*
X106237853Y-109120610D01*
X106238141Y-109100000D01*
X106219798Y-108936466D01*
X106203671Y-108890154D01*
X106167998Y-108787717D01*
X106165680Y-108781060D01*
X106161889Y-108774992D01*
X106082209Y-108647479D01*
X106078476Y-108641505D01*
X105975476Y-108537783D01*
X105941669Y-108475354D01*
X105946981Y-108404556D01*
X105977990Y-108357754D01*
X106051290Y-108287951D01*
X106065449Y-108274468D01*
X106069350Y-108268597D01*
X106152614Y-108143275D01*
X106152615Y-108143273D01*
X106156515Y-108137403D01*
X106214951Y-107983568D01*
X106227191Y-107896474D01*
X106237302Y-107824534D01*
X106237303Y-107824527D01*
X106237853Y-107820610D01*
X106238021Y-107808595D01*
X106238086Y-107803962D01*
X106238086Y-107803956D01*
X106238141Y-107800000D01*
X106219798Y-107636466D01*
X106205120Y-107594315D01*
X106178257Y-107517176D01*
X106165680Y-107481060D01*
X106151053Y-107457651D01*
X106082209Y-107347479D01*
X106078476Y-107341505D01*
X105991422Y-107253841D01*
X105967486Y-107229737D01*
X105967482Y-107229734D01*
X105962522Y-107224739D01*
X105823580Y-107136563D01*
X105762027Y-107114645D01*
X105675189Y-107083723D01*
X105675187Y-107083722D01*
X105668555Y-107081361D01*
X105661569Y-107080528D01*
X105661565Y-107080527D01*
X105547071Y-107066875D01*
X105505153Y-107061877D01*
X105498150Y-107062613D01*
X105498149Y-107062613D01*
X105454935Y-107067155D01*
X105341495Y-107079078D01*
X105260950Y-107106498D01*
X105221940Y-107119778D01*
X105181334Y-107126500D01*
X104748224Y-107126500D01*
X104680103Y-107106498D01*
X104633610Y-107052842D01*
X104623506Y-106982568D01*
X104639769Y-106936364D01*
X104659145Y-106903601D01*
X104661415Y-106895790D01*
X104676528Y-106843769D01*
X104705562Y-106743831D01*
X104706382Y-106733424D01*
X104708307Y-106708958D01*
X104708307Y-106708950D01*
X104708500Y-106706502D01*
X104708500Y-106273498D01*
X104705562Y-106236169D01*
X104700459Y-106218605D01*
X106700061Y-106218605D01*
X106700101Y-106232706D01*
X106707370Y-106236000D01*
X107902885Y-106236000D01*
X107918124Y-106231525D01*
X107919329Y-106230135D01*
X107921000Y-106222452D01*
X107921000Y-106217885D01*
X108429000Y-106217885D01*
X108433475Y-106233124D01*
X108434865Y-106234329D01*
X108442548Y-106236000D01*
X109636878Y-106236000D01*
X109650409Y-106232027D01*
X109651544Y-106224129D01*
X109651392Y-106223605D01*
X112450061Y-106223605D01*
X112450101Y-106237706D01*
X112457370Y-106241000D01*
X113652885Y-106241000D01*
X113668124Y-106236525D01*
X113669329Y-106235135D01*
X113671000Y-106227452D01*
X113671000Y-106222885D01*
X114179000Y-106222885D01*
X114183475Y-106238124D01*
X114184865Y-106239329D01*
X114192548Y-106241000D01*
X115386878Y-106241000D01*
X115400409Y-106237027D01*
X115401544Y-106229129D01*
X115360893Y-106089210D01*
X115354648Y-106074779D01*
X115278089Y-105945322D01*
X115268449Y-105932896D01*
X115162104Y-105826551D01*
X115149678Y-105816911D01*
X115020221Y-105740352D01*
X115005790Y-105734107D01*
X114859935Y-105691731D01*
X114847333Y-105689430D01*
X114818916Y-105687193D01*
X114813986Y-105687000D01*
X114197115Y-105687000D01*
X114181876Y-105691475D01*
X114180671Y-105692865D01*
X114179000Y-105700548D01*
X114179000Y-106222885D01*
X113671000Y-106222885D01*
X113671000Y-105705116D01*
X113666525Y-105689877D01*
X113665135Y-105688672D01*
X113657452Y-105687001D01*
X113036017Y-105687001D01*
X113031080Y-105687195D01*
X113002664Y-105689430D01*
X112990069Y-105691730D01*
X112844210Y-105734107D01*
X112829779Y-105740352D01*
X112700322Y-105816911D01*
X112687896Y-105826551D01*
X112581551Y-105932896D01*
X112571911Y-105945322D01*
X112495352Y-106074779D01*
X112489107Y-106089210D01*
X112450061Y-106223605D01*
X109651392Y-106223605D01*
X109610893Y-106084210D01*
X109604648Y-106069779D01*
X109528089Y-105940322D01*
X109518449Y-105927896D01*
X109412104Y-105821551D01*
X109399678Y-105811911D01*
X109270221Y-105735352D01*
X109255790Y-105729107D01*
X109109935Y-105686731D01*
X109097333Y-105684430D01*
X109068916Y-105682193D01*
X109063986Y-105682000D01*
X108447115Y-105682000D01*
X108431876Y-105686475D01*
X108430671Y-105687865D01*
X108429000Y-105695548D01*
X108429000Y-106217885D01*
X107921000Y-106217885D01*
X107921000Y-105700116D01*
X107916525Y-105684877D01*
X107915135Y-105683672D01*
X107907452Y-105682001D01*
X107286017Y-105682001D01*
X107281080Y-105682195D01*
X107252664Y-105684430D01*
X107240069Y-105686730D01*
X107094210Y-105729107D01*
X107079779Y-105735352D01*
X106950322Y-105811911D01*
X106937896Y-105821551D01*
X106831551Y-105927896D01*
X106821911Y-105940322D01*
X106745352Y-106069779D01*
X106739107Y-106084210D01*
X106700061Y-106218605D01*
X104700459Y-106218605D01*
X104662867Y-106089210D01*
X104661357Y-106084012D01*
X104661356Y-106084010D01*
X104659145Y-106076399D01*
X104632080Y-106030634D01*
X104578491Y-105940020D01*
X104578489Y-105940017D01*
X104574453Y-105933193D01*
X104456807Y-105815547D01*
X104449983Y-105811511D01*
X104449980Y-105811509D01*
X104341766Y-105747512D01*
X104313601Y-105730855D01*
X104305990Y-105728644D01*
X104305988Y-105728643D01*
X104253769Y-105713472D01*
X104153831Y-105684438D01*
X104147426Y-105683934D01*
X104147421Y-105683933D01*
X104118958Y-105681693D01*
X104118950Y-105681693D01*
X104116502Y-105681500D01*
X102333498Y-105681500D01*
X102331050Y-105681693D01*
X102331042Y-105681693D01*
X102302579Y-105683933D01*
X102302574Y-105683934D01*
X102296169Y-105684438D01*
X102196231Y-105713472D01*
X102144012Y-105728643D01*
X102144010Y-105728644D01*
X102136399Y-105730855D01*
X102108234Y-105747512D01*
X102000020Y-105811509D01*
X102000017Y-105811511D01*
X101993193Y-105815547D01*
X101987585Y-105821155D01*
X101981325Y-105826011D01*
X101979738Y-105823965D01*
X101928521Y-105851933D01*
X101905697Y-105854750D01*
X101856749Y-105856289D01*
X101852000Y-105856438D01*
X101848044Y-105856500D01*
X101820144Y-105856500D01*
X101816154Y-105857004D01*
X101804320Y-105857936D01*
X101760111Y-105859326D01*
X101752497Y-105861538D01*
X101752492Y-105861539D01*
X101740659Y-105864977D01*
X101721296Y-105868988D01*
X101701203Y-105871526D01*
X101693836Y-105874443D01*
X101693831Y-105874444D01*
X101660092Y-105887802D01*
X101648865Y-105891646D01*
X101606407Y-105903982D01*
X101599581Y-105908019D01*
X101588972Y-105914293D01*
X101571224Y-105922988D01*
X101552383Y-105930448D01*
X101545967Y-105935110D01*
X101545966Y-105935110D01*
X101516613Y-105956436D01*
X101506693Y-105962952D01*
X101475465Y-105981420D01*
X101475462Y-105981422D01*
X101468638Y-105985458D01*
X101454317Y-105999779D01*
X101439284Y-106012619D01*
X101422893Y-106024528D01*
X101394702Y-106058605D01*
X101386712Y-106067384D01*
X100307747Y-107146348D01*
X100299461Y-107153888D01*
X100292982Y-107158000D01*
X100287557Y-107163777D01*
X100246357Y-107207651D01*
X100243602Y-107210493D01*
X100223865Y-107230230D01*
X100221385Y-107233427D01*
X100213682Y-107242447D01*
X100183414Y-107274679D01*
X100179595Y-107281625D01*
X100179593Y-107281628D01*
X100173652Y-107292434D01*
X100162801Y-107308953D01*
X100150386Y-107324959D01*
X100147241Y-107332228D01*
X100147238Y-107332232D01*
X100132826Y-107365537D01*
X100127609Y-107376187D01*
X100106305Y-107414940D01*
X100104334Y-107422615D01*
X100104334Y-107422616D01*
X100101267Y-107434562D01*
X100094863Y-107453266D01*
X100092348Y-107459079D01*
X100086819Y-107471855D01*
X100085580Y-107479678D01*
X100085577Y-107479688D01*
X100079901Y-107515524D01*
X100077495Y-107527144D01*
X100068472Y-107562289D01*
X100066500Y-107569970D01*
X100066500Y-107590224D01*
X100064949Y-107609934D01*
X100061780Y-107629943D01*
X99208000Y-107629943D01*
X99208000Y-105234000D01*
X99228002Y-105165879D01*
X99281658Y-105119386D01*
X99334000Y-105108000D01*
X138795678Y-105108000D01*
X138863799Y-105128002D01*
G37*
G04 #@! TD.AperFunction*
G04 #@! TA.AperFunction,Conductor*
G36*
X121293913Y-115991484D02*
G01*
X121347131Y-116038478D01*
X121366500Y-116105603D01*
X121366500Y-118485406D01*
X121346498Y-118553527D01*
X121329595Y-118574501D01*
X120631991Y-119272104D01*
X119937247Y-119966848D01*
X119888758Y-119997031D01*
X119792382Y-120029840D01*
X119792379Y-120029841D01*
X119785715Y-120032110D01*
X119645555Y-120118337D01*
X119527982Y-120233473D01*
X119438838Y-120371797D01*
X119436427Y-120378420D01*
X119436426Y-120378423D01*
X119384966Y-120519809D01*
X119384965Y-120519814D01*
X119382556Y-120526432D01*
X119361931Y-120689694D01*
X119377989Y-120853468D01*
X119429932Y-121009615D01*
X119515179Y-121150373D01*
X119629491Y-121268747D01*
X119635387Y-121272605D01*
X119635388Y-121272606D01*
X119745080Y-121344387D01*
X119791129Y-121398425D01*
X119800652Y-121468780D01*
X119770627Y-121533115D01*
X119765183Y-121538913D01*
X118942315Y-122361780D01*
X118119747Y-123184348D01*
X118111461Y-123191888D01*
X118104982Y-123196000D01*
X118099557Y-123201777D01*
X118058357Y-123245651D01*
X118055602Y-123248493D01*
X118035865Y-123268230D01*
X118033385Y-123271427D01*
X118025682Y-123280447D01*
X117995414Y-123312679D01*
X117991595Y-123319625D01*
X117991593Y-123319628D01*
X117985652Y-123330434D01*
X117974801Y-123346953D01*
X117962386Y-123362959D01*
X117959236Y-123370239D01*
X117955896Y-123375886D01*
X117904004Y-123424340D01*
X117834153Y-123437046D01*
X117829566Y-123436345D01*
X117826062Y-123435247D01*
X117752635Y-123428500D01*
X117749737Y-123428500D01*
X117495690Y-123428501D01*
X117239366Y-123428501D01*
X117237155Y-123428704D01*
X117168296Y-123411868D01*
X117119395Y-123360398D01*
X117106083Y-123290660D01*
X117121078Y-123242159D01*
X117126357Y-123232557D01*
X117137209Y-123216035D01*
X117144763Y-123206296D01*
X117149623Y-123200031D01*
X117167186Y-123159447D01*
X117172393Y-123148817D01*
X117193705Y-123110050D01*
X117195676Y-123102373D01*
X117195678Y-123102368D01*
X117198742Y-123090432D01*
X117205148Y-123071720D01*
X117205868Y-123070058D01*
X117213191Y-123053135D01*
X117214431Y-123045307D01*
X117214433Y-123045300D01*
X117220109Y-123009466D01*
X117222515Y-122997846D01*
X117231538Y-122962701D01*
X117231538Y-122962700D01*
X117233510Y-122955020D01*
X117233510Y-122934766D01*
X117235061Y-122915055D01*
X117236990Y-122902876D01*
X117238230Y-122895047D01*
X117234069Y-122851028D01*
X117233510Y-122839171D01*
X117233510Y-119614584D01*
X117253512Y-119546463D01*
X117270415Y-119525489D01*
X119661250Y-117134654D01*
X119723562Y-117100628D01*
X119754960Y-117097834D01*
X119798688Y-117099438D01*
X119856673Y-117101564D01*
X119856677Y-117101564D01*
X119861837Y-117101753D01*
X119866957Y-117101097D01*
X119866959Y-117101097D01*
X120078288Y-117074025D01*
X120078289Y-117074025D01*
X120083416Y-117073368D01*
X120088376Y-117071880D01*
X120292429Y-117010661D01*
X120292434Y-117010659D01*
X120297384Y-117009174D01*
X120497994Y-116910896D01*
X120679860Y-116781173D01*
X120717245Y-116743919D01*
X120834435Y-116627137D01*
X120838096Y-116623489D01*
X120856229Y-116598255D01*
X120965435Y-116446277D01*
X120968453Y-116442077D01*
X120981995Y-116414678D01*
X121065136Y-116246453D01*
X121065137Y-116246451D01*
X121067430Y-116241811D01*
X121119942Y-116068974D01*
X121158883Y-116009610D01*
X121223737Y-115980723D01*
X121293913Y-115991484D01*
G37*
G04 #@! TD.AperFunction*
M02*
